G04 #@! TF.GenerationSoftware,KiCad,Pcbnew,8.0.5*
G04 #@! TF.CreationDate,2026-01-30T21:43:25+07:00*
G04 #@! TF.ProjectId,RouterCoreBaseRevA,526f7574-6572-4436-9f72-654261736552,rev?*
G04 #@! TF.SameCoordinates,PX2793d60PY5cfbb60*
G04 #@! TF.FileFunction,Legend,Top*
G04 #@! TF.FilePolarity,Positive*
%FSLAX46Y46*%
G04 Gerber Fmt 4.6, Leading zero omitted, Abs format (unit mm)*
G04 Created by KiCad (PCBNEW 8.0.5) date 2026-01-30 21:43:25*
%MOMM*%
%LPD*%
G01*
G04 APERTURE LIST*
%ADD10C,0.150000*%
%ADD11C,0.120000*%
%ADD12C,0.100000*%
G04 APERTURE END LIST*
D10*
X300000Y43000000D02*
X10300000Y43000000D01*
X25500000Y7850000D02*
X39500000Y7850000D01*
X52600000Y43000000D02*
X52600000Y42600000D01*
X9800000Y43400000D02*
X9400000Y44000000D01*
X600000Y23600000D02*
X600000Y26600000D01*
X64600000Y23600000D02*
X64600000Y26600000D01*
X52600000Y43000000D02*
X64200000Y43000000D01*
X10300000Y43000000D02*
X10300000Y42600000D01*
X64200000Y43900000D02*
X63800000Y43300000D01*
X64200000Y43000000D02*
X64200000Y42600000D01*
X63400000Y43900000D02*
X64200000Y43900000D01*
X63800000Y43300000D02*
X63400000Y43900000D01*
X9400000Y44000000D02*
X10200000Y44000000D01*
X39500000Y7850000D02*
X39500000Y9350000D01*
X300000Y43000000D02*
X300000Y42600000D01*
X26200000Y10175000D02*
X26800000Y10175000D01*
X25500000Y9350000D02*
X25500000Y7850000D01*
X10200000Y44000000D02*
X9800000Y43400000D01*
X26500000Y9725000D02*
X26200000Y10175000D01*
X39500000Y9350000D02*
X25500000Y9350000D01*
X26800000Y10175000D02*
X26500000Y9725000D01*
X33121429Y8594515D02*
X33207143Y8565943D01*
X33207143Y8565943D02*
X33235714Y8537372D01*
X33235714Y8537372D02*
X33264286Y8480229D01*
X33264286Y8480229D02*
X33264286Y8394515D01*
X33264286Y8394515D02*
X33235714Y8337372D01*
X33235714Y8337372D02*
X33207143Y8308800D01*
X33207143Y8308800D02*
X33150000Y8280229D01*
X33150000Y8280229D02*
X32921429Y8280229D01*
X32921429Y8280229D02*
X32921429Y8880229D01*
X32921429Y8880229D02*
X33121429Y8880229D01*
X33121429Y8880229D02*
X33178572Y8851658D01*
X33178572Y8851658D02*
X33207143Y8823086D01*
X33207143Y8823086D02*
X33235714Y8765943D01*
X33235714Y8765943D02*
X33235714Y8708800D01*
X33235714Y8708800D02*
X33207143Y8651658D01*
X33207143Y8651658D02*
X33178572Y8623086D01*
X33178572Y8623086D02*
X33121429Y8594515D01*
X33121429Y8594515D02*
X32921429Y8594515D01*
X33521429Y8508800D02*
X33978572Y8508800D01*
X33750000Y8280229D02*
X33750000Y8737372D01*
X55918771Y40884399D02*
X55633057Y40684399D01*
X55918771Y40541542D02*
X55318771Y40541542D01*
X55318771Y40541542D02*
X55318771Y40770113D01*
X55318771Y40770113D02*
X55347342Y40827256D01*
X55347342Y40827256D02*
X55375914Y40855827D01*
X55375914Y40855827D02*
X55433057Y40884399D01*
X55433057Y40884399D02*
X55518771Y40884399D01*
X55518771Y40884399D02*
X55575914Y40855827D01*
X55575914Y40855827D02*
X55604485Y40827256D01*
X55604485Y40827256D02*
X55633057Y40770113D01*
X55633057Y40770113D02*
X55633057Y40541542D01*
X55318771Y41084399D02*
X55918771Y41484399D01*
X55318771Y41484399D02*
X55918771Y41084399D01*
X55918771Y42027256D02*
X55918771Y41684399D01*
X55918771Y41855828D02*
X55318771Y41855828D01*
X55318771Y41855828D02*
X55404485Y41798685D01*
X55404485Y41798685D02*
X55461628Y41741542D01*
X55461628Y41741542D02*
X55490200Y41684399D01*
X39937969Y39259800D02*
X40023684Y39231229D01*
X40023684Y39231229D02*
X40166541Y39231229D01*
X40166541Y39231229D02*
X40223684Y39259800D01*
X40223684Y39259800D02*
X40252255Y39288372D01*
X40252255Y39288372D02*
X40280826Y39345515D01*
X40280826Y39345515D02*
X40280826Y39402658D01*
X40280826Y39402658D02*
X40252255Y39459800D01*
X40252255Y39459800D02*
X40223684Y39488372D01*
X40223684Y39488372D02*
X40166541Y39516943D01*
X40166541Y39516943D02*
X40052255Y39545515D01*
X40052255Y39545515D02*
X39995112Y39574086D01*
X39995112Y39574086D02*
X39966541Y39602658D01*
X39966541Y39602658D02*
X39937969Y39659800D01*
X39937969Y39659800D02*
X39937969Y39716943D01*
X39937969Y39716943D02*
X39966541Y39774086D01*
X39966541Y39774086D02*
X39995112Y39802658D01*
X39995112Y39802658D02*
X40052255Y39831229D01*
X40052255Y39831229D02*
X40195112Y39831229D01*
X40195112Y39831229D02*
X40280826Y39802658D01*
X40537970Y39231229D02*
X40537970Y39831229D01*
X40537970Y39831229D02*
X40680827Y39831229D01*
X40680827Y39831229D02*
X40766541Y39802658D01*
X40766541Y39802658D02*
X40823684Y39745515D01*
X40823684Y39745515D02*
X40852255Y39688372D01*
X40852255Y39688372D02*
X40880827Y39574086D01*
X40880827Y39574086D02*
X40880827Y39488372D01*
X40880827Y39488372D02*
X40852255Y39374086D01*
X40852255Y39374086D02*
X40823684Y39316943D01*
X40823684Y39316943D02*
X40766541Y39259800D01*
X40766541Y39259800D02*
X40680827Y39231229D01*
X40680827Y39231229D02*
X40537970Y39231229D01*
X41109398Y39402658D02*
X41395113Y39402658D01*
X41052255Y39231229D02*
X41252255Y39831229D01*
X41252255Y39831229D02*
X41452255Y39231229D01*
X31541541Y9681229D02*
X31541541Y10281229D01*
X31541541Y10281229D02*
X31770112Y10281229D01*
X31770112Y10281229D02*
X31827255Y10252658D01*
X31827255Y10252658D02*
X31855826Y10224086D01*
X31855826Y10224086D02*
X31884398Y10166943D01*
X31884398Y10166943D02*
X31884398Y10081229D01*
X31884398Y10081229D02*
X31855826Y10024086D01*
X31855826Y10024086D02*
X31827255Y9995515D01*
X31827255Y9995515D02*
X31770112Y9966943D01*
X31770112Y9966943D02*
X31541541Y9966943D01*
X32255826Y10281229D02*
X32370112Y10281229D01*
X32370112Y10281229D02*
X32427255Y10252658D01*
X32427255Y10252658D02*
X32484398Y10195515D01*
X32484398Y10195515D02*
X32512969Y10081229D01*
X32512969Y10081229D02*
X32512969Y9881229D01*
X32512969Y9881229D02*
X32484398Y9766943D01*
X32484398Y9766943D02*
X32427255Y9709800D01*
X32427255Y9709800D02*
X32370112Y9681229D01*
X32370112Y9681229D02*
X32255826Y9681229D01*
X32255826Y9681229D02*
X32198684Y9709800D01*
X32198684Y9709800D02*
X32141541Y9766943D01*
X32141541Y9766943D02*
X32112969Y9881229D01*
X32112969Y9881229D02*
X32112969Y10081229D01*
X32112969Y10081229D02*
X32141541Y10195515D01*
X32141541Y10195515D02*
X32198684Y10252658D01*
X32198684Y10252658D02*
X32255826Y10281229D01*
X33112969Y9681229D02*
X32912969Y9966943D01*
X32770112Y9681229D02*
X32770112Y10281229D01*
X32770112Y10281229D02*
X32998683Y10281229D01*
X32998683Y10281229D02*
X33055826Y10252658D01*
X33055826Y10252658D02*
X33084397Y10224086D01*
X33084397Y10224086D02*
X33112969Y10166943D01*
X33112969Y10166943D02*
X33112969Y10081229D01*
X33112969Y10081229D02*
X33084397Y10024086D01*
X33084397Y10024086D02*
X33055826Y9995515D01*
X33055826Y9995515D02*
X32998683Y9966943D01*
X32998683Y9966943D02*
X32770112Y9966943D01*
X33284397Y10281229D02*
X33627255Y10281229D01*
X33455826Y9681229D02*
X33455826Y10281229D01*
X5541541Y5331229D02*
X5541541Y5931229D01*
X5541541Y5931229D02*
X5770112Y5931229D01*
X5770112Y5931229D02*
X5827255Y5902658D01*
X5827255Y5902658D02*
X5855826Y5874086D01*
X5855826Y5874086D02*
X5884398Y5816943D01*
X5884398Y5816943D02*
X5884398Y5731229D01*
X5884398Y5731229D02*
X5855826Y5674086D01*
X5855826Y5674086D02*
X5827255Y5645515D01*
X5827255Y5645515D02*
X5770112Y5616943D01*
X5770112Y5616943D02*
X5541541Y5616943D01*
X6255826Y5931229D02*
X6370112Y5931229D01*
X6370112Y5931229D02*
X6427255Y5902658D01*
X6427255Y5902658D02*
X6484398Y5845515D01*
X6484398Y5845515D02*
X6512969Y5731229D01*
X6512969Y5731229D02*
X6512969Y5531229D01*
X6512969Y5531229D02*
X6484398Y5416943D01*
X6484398Y5416943D02*
X6427255Y5359800D01*
X6427255Y5359800D02*
X6370112Y5331229D01*
X6370112Y5331229D02*
X6255826Y5331229D01*
X6255826Y5331229D02*
X6198684Y5359800D01*
X6198684Y5359800D02*
X6141541Y5416943D01*
X6141541Y5416943D02*
X6112969Y5531229D01*
X6112969Y5531229D02*
X6112969Y5731229D01*
X6112969Y5731229D02*
X6141541Y5845515D01*
X6141541Y5845515D02*
X6198684Y5902658D01*
X6198684Y5902658D02*
X6255826Y5931229D01*
X7112969Y5331229D02*
X6912969Y5616943D01*
X6770112Y5331229D02*
X6770112Y5931229D01*
X6770112Y5931229D02*
X6998683Y5931229D01*
X6998683Y5931229D02*
X7055826Y5902658D01*
X7055826Y5902658D02*
X7084397Y5874086D01*
X7084397Y5874086D02*
X7112969Y5816943D01*
X7112969Y5816943D02*
X7112969Y5731229D01*
X7112969Y5731229D02*
X7084397Y5674086D01*
X7084397Y5674086D02*
X7055826Y5645515D01*
X7055826Y5645515D02*
X6998683Y5616943D01*
X6998683Y5616943D02*
X6770112Y5616943D01*
X7284397Y5931229D02*
X7627255Y5931229D01*
X7455826Y5331229D02*
X7455826Y5931229D01*
X8570112Y5331229D02*
X8284398Y5331229D01*
X8284398Y5331229D02*
X8284398Y5931229D01*
X8712969Y5931229D02*
X9084397Y5931229D01*
X9084397Y5931229D02*
X8884397Y5702658D01*
X8884397Y5702658D02*
X8970112Y5702658D01*
X8970112Y5702658D02*
X9027255Y5674086D01*
X9027255Y5674086D02*
X9055826Y5645515D01*
X9055826Y5645515D02*
X9084397Y5588372D01*
X9084397Y5588372D02*
X9084397Y5445515D01*
X9084397Y5445515D02*
X9055826Y5388372D01*
X9055826Y5388372D02*
X9027255Y5359800D01*
X9027255Y5359800D02*
X8970112Y5331229D01*
X8970112Y5331229D02*
X8798683Y5331229D01*
X8798683Y5331229D02*
X8741540Y5359800D01*
X8741540Y5359800D02*
X8712969Y5388372D01*
X6618771Y40755827D02*
X7218771Y40955827D01*
X7218771Y40955827D02*
X6618771Y41155827D01*
X7218771Y41355828D02*
X6618771Y41355828D01*
X7218771Y41641542D02*
X6618771Y41641542D01*
X6618771Y41641542D02*
X7218771Y41984399D01*
X7218771Y41984399D02*
X6618771Y41984399D01*
X3647342Y41155827D02*
X3618771Y41098684D01*
X3618771Y41098684D02*
X3618771Y41012970D01*
X3618771Y41012970D02*
X3647342Y40927256D01*
X3647342Y40927256D02*
X3704485Y40870113D01*
X3704485Y40870113D02*
X3761628Y40841542D01*
X3761628Y40841542D02*
X3875914Y40812970D01*
X3875914Y40812970D02*
X3961628Y40812970D01*
X3961628Y40812970D02*
X4075914Y40841542D01*
X4075914Y40841542D02*
X4133057Y40870113D01*
X4133057Y40870113D02*
X4190200Y40927256D01*
X4190200Y40927256D02*
X4218771Y41012970D01*
X4218771Y41012970D02*
X4218771Y41070113D01*
X4218771Y41070113D02*
X4190200Y41155827D01*
X4190200Y41155827D02*
X4161628Y41184399D01*
X4161628Y41184399D02*
X3961628Y41184399D01*
X3961628Y41184399D02*
X3961628Y41070113D01*
X4218771Y41441542D02*
X3618771Y41441542D01*
X3618771Y41441542D02*
X4218771Y41784399D01*
X4218771Y41784399D02*
X3618771Y41784399D01*
X4218771Y42070113D02*
X3618771Y42070113D01*
X3618771Y42070113D02*
X3618771Y42212970D01*
X3618771Y42212970D02*
X3647342Y42298684D01*
X3647342Y42298684D02*
X3704485Y42355827D01*
X3704485Y42355827D02*
X3761628Y42384398D01*
X3761628Y42384398D02*
X3875914Y42412970D01*
X3875914Y42412970D02*
X3961628Y42412970D01*
X3961628Y42412970D02*
X4075914Y42384398D01*
X4075914Y42384398D02*
X4133057Y42355827D01*
X4133057Y42355827D02*
X4190200Y42298684D01*
X4190200Y42298684D02*
X4218771Y42212970D01*
X4218771Y42212970D02*
X4218771Y42070113D01*
X21991541Y51409800D02*
X22448684Y51409800D01*
X31171429Y8280229D02*
X31171429Y8880229D01*
X31171429Y8880229D02*
X31314286Y8880229D01*
X31314286Y8880229D02*
X31400000Y8851658D01*
X31400000Y8851658D02*
X31457143Y8794515D01*
X31457143Y8794515D02*
X31485714Y8737372D01*
X31485714Y8737372D02*
X31514286Y8623086D01*
X31514286Y8623086D02*
X31514286Y8537372D01*
X31514286Y8537372D02*
X31485714Y8423086D01*
X31485714Y8423086D02*
X31457143Y8365943D01*
X31457143Y8365943D02*
X31400000Y8308800D01*
X31400000Y8308800D02*
X31314286Y8280229D01*
X31314286Y8280229D02*
X31171429Y8280229D01*
X31771429Y8508800D02*
X32228572Y8508800D01*
X5618771Y40784399D02*
X6218771Y41184399D01*
X5618771Y41184399D02*
X6218771Y40784399D01*
X58318771Y40455827D02*
X58318771Y40798684D01*
X58918771Y40627256D02*
X58318771Y40627256D01*
X58318771Y40941542D02*
X58918771Y41341542D01*
X58318771Y41341542D02*
X58918771Y40941542D01*
X58375914Y41541542D02*
X58347342Y41570114D01*
X58347342Y41570114D02*
X58318771Y41627256D01*
X58318771Y41627256D02*
X58318771Y41770114D01*
X58318771Y41770114D02*
X58347342Y41827256D01*
X58347342Y41827256D02*
X58375914Y41855828D01*
X58375914Y41855828D02*
X58433057Y41884399D01*
X58433057Y41884399D02*
X58490200Y41884399D01*
X58490200Y41884399D02*
X58575914Y41855828D01*
X58575914Y41855828D02*
X58918771Y41512971D01*
X58918771Y41512971D02*
X58918771Y41884399D01*
X57918771Y40884399D02*
X57633057Y40684399D01*
X57918771Y40541542D02*
X57318771Y40541542D01*
X57318771Y40541542D02*
X57318771Y40770113D01*
X57318771Y40770113D02*
X57347342Y40827256D01*
X57347342Y40827256D02*
X57375914Y40855827D01*
X57375914Y40855827D02*
X57433057Y40884399D01*
X57433057Y40884399D02*
X57518771Y40884399D01*
X57518771Y40884399D02*
X57575914Y40855827D01*
X57575914Y40855827D02*
X57604485Y40827256D01*
X57604485Y40827256D02*
X57633057Y40770113D01*
X57633057Y40770113D02*
X57633057Y40541542D01*
X57318771Y41055827D02*
X57318771Y41398684D01*
X57918771Y41227256D02*
X57318771Y41227256D01*
X57890200Y41570113D02*
X57918771Y41655827D01*
X57918771Y41655827D02*
X57918771Y41798685D01*
X57918771Y41798685D02*
X57890200Y41855827D01*
X57890200Y41855827D02*
X57861628Y41884399D01*
X57861628Y41884399D02*
X57804485Y41912970D01*
X57804485Y41912970D02*
X57747342Y41912970D01*
X57747342Y41912970D02*
X57690200Y41884399D01*
X57690200Y41884399D02*
X57661628Y41855827D01*
X57661628Y41855827D02*
X57633057Y41798685D01*
X57633057Y41798685D02*
X57604485Y41684399D01*
X57604485Y41684399D02*
X57575914Y41627256D01*
X57575914Y41627256D02*
X57547342Y41598685D01*
X57547342Y41598685D02*
X57490200Y41570113D01*
X57490200Y41570113D02*
X57433057Y41570113D01*
X57433057Y41570113D02*
X57375914Y41598685D01*
X57375914Y41598685D02*
X57347342Y41627256D01*
X57347342Y41627256D02*
X57318771Y41684399D01*
X57318771Y41684399D02*
X57318771Y41827256D01*
X57318771Y41827256D02*
X57347342Y41912970D01*
X12991541Y5331229D02*
X12991541Y5931229D01*
X12991541Y5931229D02*
X13220112Y5931229D01*
X13220112Y5931229D02*
X13277255Y5902658D01*
X13277255Y5902658D02*
X13305826Y5874086D01*
X13305826Y5874086D02*
X13334398Y5816943D01*
X13334398Y5816943D02*
X13334398Y5731229D01*
X13334398Y5731229D02*
X13305826Y5674086D01*
X13305826Y5674086D02*
X13277255Y5645515D01*
X13277255Y5645515D02*
X13220112Y5616943D01*
X13220112Y5616943D02*
X12991541Y5616943D01*
X13705826Y5931229D02*
X13820112Y5931229D01*
X13820112Y5931229D02*
X13877255Y5902658D01*
X13877255Y5902658D02*
X13934398Y5845515D01*
X13934398Y5845515D02*
X13962969Y5731229D01*
X13962969Y5731229D02*
X13962969Y5531229D01*
X13962969Y5531229D02*
X13934398Y5416943D01*
X13934398Y5416943D02*
X13877255Y5359800D01*
X13877255Y5359800D02*
X13820112Y5331229D01*
X13820112Y5331229D02*
X13705826Y5331229D01*
X13705826Y5331229D02*
X13648684Y5359800D01*
X13648684Y5359800D02*
X13591541Y5416943D01*
X13591541Y5416943D02*
X13562969Y5531229D01*
X13562969Y5531229D02*
X13562969Y5731229D01*
X13562969Y5731229D02*
X13591541Y5845515D01*
X13591541Y5845515D02*
X13648684Y5902658D01*
X13648684Y5902658D02*
X13705826Y5931229D01*
X14562969Y5331229D02*
X14362969Y5616943D01*
X14220112Y5331229D02*
X14220112Y5931229D01*
X14220112Y5931229D02*
X14448683Y5931229D01*
X14448683Y5931229D02*
X14505826Y5902658D01*
X14505826Y5902658D02*
X14534397Y5874086D01*
X14534397Y5874086D02*
X14562969Y5816943D01*
X14562969Y5816943D02*
X14562969Y5731229D01*
X14562969Y5731229D02*
X14534397Y5674086D01*
X14534397Y5674086D02*
X14505826Y5645515D01*
X14505826Y5645515D02*
X14448683Y5616943D01*
X14448683Y5616943D02*
X14220112Y5616943D01*
X14734397Y5931229D02*
X15077255Y5931229D01*
X14905826Y5331229D02*
X14905826Y5931229D01*
X16020112Y5331229D02*
X15734398Y5331229D01*
X15734398Y5331229D02*
X15734398Y5931229D01*
X16191540Y5874086D02*
X16220112Y5902658D01*
X16220112Y5902658D02*
X16277255Y5931229D01*
X16277255Y5931229D02*
X16420112Y5931229D01*
X16420112Y5931229D02*
X16477255Y5902658D01*
X16477255Y5902658D02*
X16505826Y5874086D01*
X16505826Y5874086D02*
X16534397Y5816943D01*
X16534397Y5816943D02*
X16534397Y5759800D01*
X16534397Y5759800D02*
X16505826Y5674086D01*
X16505826Y5674086D02*
X16162969Y5331229D01*
X16162969Y5331229D02*
X16534397Y5331229D01*
X2647342Y41155827D02*
X2618771Y41098684D01*
X2618771Y41098684D02*
X2618771Y41012970D01*
X2618771Y41012970D02*
X2647342Y40927256D01*
X2647342Y40927256D02*
X2704485Y40870113D01*
X2704485Y40870113D02*
X2761628Y40841542D01*
X2761628Y40841542D02*
X2875914Y40812970D01*
X2875914Y40812970D02*
X2961628Y40812970D01*
X2961628Y40812970D02*
X3075914Y40841542D01*
X3075914Y40841542D02*
X3133057Y40870113D01*
X3133057Y40870113D02*
X3190200Y40927256D01*
X3190200Y40927256D02*
X3218771Y41012970D01*
X3218771Y41012970D02*
X3218771Y41070113D01*
X3218771Y41070113D02*
X3190200Y41155827D01*
X3190200Y41155827D02*
X3161628Y41184399D01*
X3161628Y41184399D02*
X2961628Y41184399D01*
X2961628Y41184399D02*
X2961628Y41070113D01*
X3218771Y41441542D02*
X2618771Y41441542D01*
X2618771Y41441542D02*
X3218771Y41784399D01*
X3218771Y41784399D02*
X2618771Y41784399D01*
X3218771Y42070113D02*
X2618771Y42070113D01*
X2618771Y42070113D02*
X2618771Y42212970D01*
X2618771Y42212970D02*
X2647342Y42298684D01*
X2647342Y42298684D02*
X2704485Y42355827D01*
X2704485Y42355827D02*
X2761628Y42384398D01*
X2761628Y42384398D02*
X2875914Y42412970D01*
X2875914Y42412970D02*
X2961628Y42412970D01*
X2961628Y42412970D02*
X3075914Y42384398D01*
X3075914Y42384398D02*
X3133057Y42355827D01*
X3133057Y42355827D02*
X3190200Y42298684D01*
X3190200Y42298684D02*
X3218771Y42212970D01*
X3218771Y42212970D02*
X3218771Y42070113D01*
X22841541Y51409800D02*
X23298684Y51409800D01*
X10891541Y46281229D02*
X10891541Y46881229D01*
X10891541Y46881229D02*
X11120112Y46881229D01*
X11120112Y46881229D02*
X11177255Y46852658D01*
X11177255Y46852658D02*
X11205826Y46824086D01*
X11205826Y46824086D02*
X11234398Y46766943D01*
X11234398Y46766943D02*
X11234398Y46681229D01*
X11234398Y46681229D02*
X11205826Y46624086D01*
X11205826Y46624086D02*
X11177255Y46595515D01*
X11177255Y46595515D02*
X11120112Y46566943D01*
X11120112Y46566943D02*
X10891541Y46566943D01*
X11605826Y46881229D02*
X11720112Y46881229D01*
X11720112Y46881229D02*
X11777255Y46852658D01*
X11777255Y46852658D02*
X11834398Y46795515D01*
X11834398Y46795515D02*
X11862969Y46681229D01*
X11862969Y46681229D02*
X11862969Y46481229D01*
X11862969Y46481229D02*
X11834398Y46366943D01*
X11834398Y46366943D02*
X11777255Y46309800D01*
X11777255Y46309800D02*
X11720112Y46281229D01*
X11720112Y46281229D02*
X11605826Y46281229D01*
X11605826Y46281229D02*
X11548684Y46309800D01*
X11548684Y46309800D02*
X11491541Y46366943D01*
X11491541Y46366943D02*
X11462969Y46481229D01*
X11462969Y46481229D02*
X11462969Y46681229D01*
X11462969Y46681229D02*
X11491541Y46795515D01*
X11491541Y46795515D02*
X11548684Y46852658D01*
X11548684Y46852658D02*
X11605826Y46881229D01*
X12462969Y46281229D02*
X12262969Y46566943D01*
X12120112Y46281229D02*
X12120112Y46881229D01*
X12120112Y46881229D02*
X12348683Y46881229D01*
X12348683Y46881229D02*
X12405826Y46852658D01*
X12405826Y46852658D02*
X12434397Y46824086D01*
X12434397Y46824086D02*
X12462969Y46766943D01*
X12462969Y46766943D02*
X12462969Y46681229D01*
X12462969Y46681229D02*
X12434397Y46624086D01*
X12434397Y46624086D02*
X12405826Y46595515D01*
X12405826Y46595515D02*
X12348683Y46566943D01*
X12348683Y46566943D02*
X12120112Y46566943D01*
X12634397Y46881229D02*
X12977255Y46881229D01*
X12805826Y46281229D02*
X12805826Y46881229D01*
X13920112Y46281229D02*
X13634398Y46281229D01*
X13634398Y46281229D02*
X13634398Y46881229D01*
X14062969Y46881229D02*
X14462969Y46881229D01*
X14462969Y46881229D02*
X14205826Y46281229D01*
X41141541Y5331229D02*
X41141541Y5931229D01*
X41141541Y5931229D02*
X41370112Y5931229D01*
X41370112Y5931229D02*
X41427255Y5902658D01*
X41427255Y5902658D02*
X41455826Y5874086D01*
X41455826Y5874086D02*
X41484398Y5816943D01*
X41484398Y5816943D02*
X41484398Y5731229D01*
X41484398Y5731229D02*
X41455826Y5674086D01*
X41455826Y5674086D02*
X41427255Y5645515D01*
X41427255Y5645515D02*
X41370112Y5616943D01*
X41370112Y5616943D02*
X41141541Y5616943D01*
X41855826Y5931229D02*
X41970112Y5931229D01*
X41970112Y5931229D02*
X42027255Y5902658D01*
X42027255Y5902658D02*
X42084398Y5845515D01*
X42084398Y5845515D02*
X42112969Y5731229D01*
X42112969Y5731229D02*
X42112969Y5531229D01*
X42112969Y5531229D02*
X42084398Y5416943D01*
X42084398Y5416943D02*
X42027255Y5359800D01*
X42027255Y5359800D02*
X41970112Y5331229D01*
X41970112Y5331229D02*
X41855826Y5331229D01*
X41855826Y5331229D02*
X41798684Y5359800D01*
X41798684Y5359800D02*
X41741541Y5416943D01*
X41741541Y5416943D02*
X41712969Y5531229D01*
X41712969Y5531229D02*
X41712969Y5731229D01*
X41712969Y5731229D02*
X41741541Y5845515D01*
X41741541Y5845515D02*
X41798684Y5902658D01*
X41798684Y5902658D02*
X41855826Y5931229D01*
X42712969Y5331229D02*
X42512969Y5616943D01*
X42370112Y5331229D02*
X42370112Y5931229D01*
X42370112Y5931229D02*
X42598683Y5931229D01*
X42598683Y5931229D02*
X42655826Y5902658D01*
X42655826Y5902658D02*
X42684397Y5874086D01*
X42684397Y5874086D02*
X42712969Y5816943D01*
X42712969Y5816943D02*
X42712969Y5731229D01*
X42712969Y5731229D02*
X42684397Y5674086D01*
X42684397Y5674086D02*
X42655826Y5645515D01*
X42655826Y5645515D02*
X42598683Y5616943D01*
X42598683Y5616943D02*
X42370112Y5616943D01*
X42884397Y5931229D02*
X43227255Y5931229D01*
X43055826Y5331229D02*
X43055826Y5931229D01*
X44227255Y5331229D02*
X44027255Y5616943D01*
X43884398Y5331229D02*
X43884398Y5931229D01*
X43884398Y5931229D02*
X44112969Y5931229D01*
X44112969Y5931229D02*
X44170112Y5902658D01*
X44170112Y5902658D02*
X44198683Y5874086D01*
X44198683Y5874086D02*
X44227255Y5816943D01*
X44227255Y5816943D02*
X44227255Y5731229D01*
X44227255Y5731229D02*
X44198683Y5674086D01*
X44198683Y5674086D02*
X44170112Y5645515D01*
X44170112Y5645515D02*
X44112969Y5616943D01*
X44112969Y5616943D02*
X43884398Y5616943D01*
X44798683Y5331229D02*
X44455826Y5331229D01*
X44627255Y5331229D02*
X44627255Y5931229D01*
X44627255Y5931229D02*
X44570112Y5845515D01*
X44570112Y5845515D02*
X44512969Y5788372D01*
X44512969Y5788372D02*
X44455826Y5759800D01*
X63318771Y40684399D02*
X63318771Y41055827D01*
X63318771Y41055827D02*
X63547342Y40855827D01*
X63547342Y40855827D02*
X63547342Y40941542D01*
X63547342Y40941542D02*
X63575914Y40998684D01*
X63575914Y40998684D02*
X63604485Y41027256D01*
X63604485Y41027256D02*
X63661628Y41055827D01*
X63661628Y41055827D02*
X63804485Y41055827D01*
X63804485Y41055827D02*
X63861628Y41027256D01*
X63861628Y41027256D02*
X63890200Y40998684D01*
X63890200Y40998684D02*
X63918771Y40941542D01*
X63918771Y40941542D02*
X63918771Y40770113D01*
X63918771Y40770113D02*
X63890200Y40712970D01*
X63890200Y40712970D02*
X63861628Y40684399D01*
X63318771Y41227256D02*
X63918771Y41427256D01*
X63918771Y41427256D02*
X63318771Y41627256D01*
X63318771Y41770114D02*
X63318771Y42141542D01*
X63318771Y42141542D02*
X63547342Y41941542D01*
X63547342Y41941542D02*
X63547342Y42027257D01*
X63547342Y42027257D02*
X63575914Y42084399D01*
X63575914Y42084399D02*
X63604485Y42112971D01*
X63604485Y42112971D02*
X63661628Y42141542D01*
X63661628Y42141542D02*
X63804485Y42141542D01*
X63804485Y42141542D02*
X63861628Y42112971D01*
X63861628Y42112971D02*
X63890200Y42084399D01*
X63890200Y42084399D02*
X63918771Y42027257D01*
X63918771Y42027257D02*
X63918771Y41855828D01*
X63918771Y41855828D02*
X63890200Y41798685D01*
X63890200Y41798685D02*
X63861628Y41770114D01*
X24491541Y51409800D02*
X24948684Y51409800D01*
X52890200Y40412970D02*
X52918771Y40498684D01*
X52918771Y40498684D02*
X52918771Y40641542D01*
X52918771Y40641542D02*
X52890200Y40698684D01*
X52890200Y40698684D02*
X52861628Y40727256D01*
X52861628Y40727256D02*
X52804485Y40755827D01*
X52804485Y40755827D02*
X52747342Y40755827D01*
X52747342Y40755827D02*
X52690200Y40727256D01*
X52690200Y40727256D02*
X52661628Y40698684D01*
X52661628Y40698684D02*
X52633057Y40641542D01*
X52633057Y40641542D02*
X52604485Y40527256D01*
X52604485Y40527256D02*
X52575914Y40470113D01*
X52575914Y40470113D02*
X52547342Y40441542D01*
X52547342Y40441542D02*
X52490200Y40412970D01*
X52490200Y40412970D02*
X52433057Y40412970D01*
X52433057Y40412970D02*
X52375914Y40441542D01*
X52375914Y40441542D02*
X52347342Y40470113D01*
X52347342Y40470113D02*
X52318771Y40527256D01*
X52318771Y40527256D02*
X52318771Y40670113D01*
X52318771Y40670113D02*
X52347342Y40755827D01*
X52861628Y41355828D02*
X52890200Y41327256D01*
X52890200Y41327256D02*
X52918771Y41241542D01*
X52918771Y41241542D02*
X52918771Y41184399D01*
X52918771Y41184399D02*
X52890200Y41098685D01*
X52890200Y41098685D02*
X52833057Y41041542D01*
X52833057Y41041542D02*
X52775914Y41012971D01*
X52775914Y41012971D02*
X52661628Y40984399D01*
X52661628Y40984399D02*
X52575914Y40984399D01*
X52575914Y40984399D02*
X52461628Y41012971D01*
X52461628Y41012971D02*
X52404485Y41041542D01*
X52404485Y41041542D02*
X52347342Y41098685D01*
X52347342Y41098685D02*
X52318771Y41184399D01*
X52318771Y41184399D02*
X52318771Y41241542D01*
X52318771Y41241542D02*
X52347342Y41327256D01*
X52347342Y41327256D02*
X52375914Y41355828D01*
X52918771Y41898685D02*
X52918771Y41612971D01*
X52918771Y41612971D02*
X52318771Y41612971D01*
X62347342Y40955827D02*
X62318771Y40898684D01*
X62318771Y40898684D02*
X62318771Y40812970D01*
X62318771Y40812970D02*
X62347342Y40727256D01*
X62347342Y40727256D02*
X62404485Y40670113D01*
X62404485Y40670113D02*
X62461628Y40641542D01*
X62461628Y40641542D02*
X62575914Y40612970D01*
X62575914Y40612970D02*
X62661628Y40612970D01*
X62661628Y40612970D02*
X62775914Y40641542D01*
X62775914Y40641542D02*
X62833057Y40670113D01*
X62833057Y40670113D02*
X62890200Y40727256D01*
X62890200Y40727256D02*
X62918771Y40812970D01*
X62918771Y40812970D02*
X62918771Y40870113D01*
X62918771Y40870113D02*
X62890200Y40955827D01*
X62890200Y40955827D02*
X62861628Y40984399D01*
X62861628Y40984399D02*
X62661628Y40984399D01*
X62661628Y40984399D02*
X62661628Y40870113D01*
X62918771Y41241542D02*
X62318771Y41241542D01*
X62318771Y41241542D02*
X62918771Y41584399D01*
X62918771Y41584399D02*
X62318771Y41584399D01*
X62918771Y41870113D02*
X62318771Y41870113D01*
X62318771Y41870113D02*
X62318771Y42012970D01*
X62318771Y42012970D02*
X62347342Y42098684D01*
X62347342Y42098684D02*
X62404485Y42155827D01*
X62404485Y42155827D02*
X62461628Y42184398D01*
X62461628Y42184398D02*
X62575914Y42212970D01*
X62575914Y42212970D02*
X62661628Y42212970D01*
X62661628Y42212970D02*
X62775914Y42184398D01*
X62775914Y42184398D02*
X62833057Y42155827D01*
X62833057Y42155827D02*
X62890200Y42098684D01*
X62890200Y42098684D02*
X62918771Y42012970D01*
X62918771Y42012970D02*
X62918771Y41870113D01*
X5841541Y46281229D02*
X5841541Y46881229D01*
X5841541Y46881229D02*
X6070112Y46881229D01*
X6070112Y46881229D02*
X6127255Y46852658D01*
X6127255Y46852658D02*
X6155826Y46824086D01*
X6155826Y46824086D02*
X6184398Y46766943D01*
X6184398Y46766943D02*
X6184398Y46681229D01*
X6184398Y46681229D02*
X6155826Y46624086D01*
X6155826Y46624086D02*
X6127255Y46595515D01*
X6127255Y46595515D02*
X6070112Y46566943D01*
X6070112Y46566943D02*
X5841541Y46566943D01*
X6555826Y46881229D02*
X6670112Y46881229D01*
X6670112Y46881229D02*
X6727255Y46852658D01*
X6727255Y46852658D02*
X6784398Y46795515D01*
X6784398Y46795515D02*
X6812969Y46681229D01*
X6812969Y46681229D02*
X6812969Y46481229D01*
X6812969Y46481229D02*
X6784398Y46366943D01*
X6784398Y46366943D02*
X6727255Y46309800D01*
X6727255Y46309800D02*
X6670112Y46281229D01*
X6670112Y46281229D02*
X6555826Y46281229D01*
X6555826Y46281229D02*
X6498684Y46309800D01*
X6498684Y46309800D02*
X6441541Y46366943D01*
X6441541Y46366943D02*
X6412969Y46481229D01*
X6412969Y46481229D02*
X6412969Y46681229D01*
X6412969Y46681229D02*
X6441541Y46795515D01*
X6441541Y46795515D02*
X6498684Y46852658D01*
X6498684Y46852658D02*
X6555826Y46881229D01*
X7412969Y46281229D02*
X7212969Y46566943D01*
X7070112Y46281229D02*
X7070112Y46881229D01*
X7070112Y46881229D02*
X7298683Y46881229D01*
X7298683Y46881229D02*
X7355826Y46852658D01*
X7355826Y46852658D02*
X7384397Y46824086D01*
X7384397Y46824086D02*
X7412969Y46766943D01*
X7412969Y46766943D02*
X7412969Y46681229D01*
X7412969Y46681229D02*
X7384397Y46624086D01*
X7384397Y46624086D02*
X7355826Y46595515D01*
X7355826Y46595515D02*
X7298683Y46566943D01*
X7298683Y46566943D02*
X7070112Y46566943D01*
X7584397Y46881229D02*
X7927255Y46881229D01*
X7755826Y46281229D02*
X7755826Y46881229D01*
X8870112Y46281229D02*
X8584398Y46281229D01*
X8584398Y46281229D02*
X8584398Y46881229D01*
X9355826Y46881229D02*
X9070112Y46881229D01*
X9070112Y46881229D02*
X9041540Y46595515D01*
X9041540Y46595515D02*
X9070112Y46624086D01*
X9070112Y46624086D02*
X9127255Y46652658D01*
X9127255Y46652658D02*
X9270112Y46652658D01*
X9270112Y46652658D02*
X9327255Y46624086D01*
X9327255Y46624086D02*
X9355826Y46595515D01*
X9355826Y46595515D02*
X9384397Y46538372D01*
X9384397Y46538372D02*
X9384397Y46395515D01*
X9384397Y46395515D02*
X9355826Y46338372D01*
X9355826Y46338372D02*
X9327255Y46309800D01*
X9327255Y46309800D02*
X9270112Y46281229D01*
X9270112Y46281229D02*
X9127255Y46281229D01*
X9127255Y46281229D02*
X9070112Y46309800D01*
X9070112Y46309800D02*
X9041540Y46338372D01*
X50841541Y46281229D02*
X50841541Y46881229D01*
X50841541Y46881229D02*
X51070112Y46881229D01*
X51070112Y46881229D02*
X51127255Y46852658D01*
X51127255Y46852658D02*
X51155826Y46824086D01*
X51155826Y46824086D02*
X51184398Y46766943D01*
X51184398Y46766943D02*
X51184398Y46681229D01*
X51184398Y46681229D02*
X51155826Y46624086D01*
X51155826Y46624086D02*
X51127255Y46595515D01*
X51127255Y46595515D02*
X51070112Y46566943D01*
X51070112Y46566943D02*
X50841541Y46566943D01*
X51555826Y46881229D02*
X51670112Y46881229D01*
X51670112Y46881229D02*
X51727255Y46852658D01*
X51727255Y46852658D02*
X51784398Y46795515D01*
X51784398Y46795515D02*
X51812969Y46681229D01*
X51812969Y46681229D02*
X51812969Y46481229D01*
X51812969Y46481229D02*
X51784398Y46366943D01*
X51784398Y46366943D02*
X51727255Y46309800D01*
X51727255Y46309800D02*
X51670112Y46281229D01*
X51670112Y46281229D02*
X51555826Y46281229D01*
X51555826Y46281229D02*
X51498684Y46309800D01*
X51498684Y46309800D02*
X51441541Y46366943D01*
X51441541Y46366943D02*
X51412969Y46481229D01*
X51412969Y46481229D02*
X51412969Y46681229D01*
X51412969Y46681229D02*
X51441541Y46795515D01*
X51441541Y46795515D02*
X51498684Y46852658D01*
X51498684Y46852658D02*
X51555826Y46881229D01*
X52412969Y46281229D02*
X52212969Y46566943D01*
X52070112Y46281229D02*
X52070112Y46881229D01*
X52070112Y46881229D02*
X52298683Y46881229D01*
X52298683Y46881229D02*
X52355826Y46852658D01*
X52355826Y46852658D02*
X52384397Y46824086D01*
X52384397Y46824086D02*
X52412969Y46766943D01*
X52412969Y46766943D02*
X52412969Y46681229D01*
X52412969Y46681229D02*
X52384397Y46624086D01*
X52384397Y46624086D02*
X52355826Y46595515D01*
X52355826Y46595515D02*
X52298683Y46566943D01*
X52298683Y46566943D02*
X52070112Y46566943D01*
X52584397Y46881229D02*
X52927255Y46881229D01*
X52755826Y46281229D02*
X52755826Y46881229D01*
X53927255Y46281229D02*
X53727255Y46566943D01*
X53584398Y46281229D02*
X53584398Y46881229D01*
X53584398Y46881229D02*
X53812969Y46881229D01*
X53812969Y46881229D02*
X53870112Y46852658D01*
X53870112Y46852658D02*
X53898683Y46824086D01*
X53898683Y46824086D02*
X53927255Y46766943D01*
X53927255Y46766943D02*
X53927255Y46681229D01*
X53927255Y46681229D02*
X53898683Y46624086D01*
X53898683Y46624086D02*
X53870112Y46595515D01*
X53870112Y46595515D02*
X53812969Y46566943D01*
X53812969Y46566943D02*
X53584398Y46566943D01*
X54127255Y46881229D02*
X54527255Y46881229D01*
X54527255Y46881229D02*
X54270112Y46281229D01*
X29391541Y51509800D02*
X29848684Y51509800D01*
X29620112Y51281229D02*
X29620112Y51738372D01*
X37985714Y8451658D02*
X38271429Y8451658D01*
X37928571Y8280229D02*
X38128571Y8880229D01*
X38128571Y8880229D02*
X38328571Y8280229D01*
X38528572Y8508800D02*
X38985715Y8508800D01*
X29571429Y8280229D02*
X29571429Y8880229D01*
X29571429Y8880229D02*
X29714286Y8880229D01*
X29714286Y8880229D02*
X29800000Y8851658D01*
X29800000Y8851658D02*
X29857143Y8794515D01*
X29857143Y8794515D02*
X29885714Y8737372D01*
X29885714Y8737372D02*
X29914286Y8623086D01*
X29914286Y8623086D02*
X29914286Y8537372D01*
X29914286Y8537372D02*
X29885714Y8423086D01*
X29885714Y8423086D02*
X29857143Y8365943D01*
X29857143Y8365943D02*
X29800000Y8308800D01*
X29800000Y8308800D02*
X29714286Y8280229D01*
X29714286Y8280229D02*
X29571429Y8280229D01*
X30171429Y8508800D02*
X30628572Y8508800D01*
X30400000Y8280229D02*
X30400000Y8737372D01*
X27741541Y51509800D02*
X28198684Y51509800D01*
X27970112Y51281229D02*
X27970112Y51738372D01*
X55291541Y5331229D02*
X55291541Y5931229D01*
X55291541Y5931229D02*
X55520112Y5931229D01*
X55520112Y5931229D02*
X55577255Y5902658D01*
X55577255Y5902658D02*
X55605826Y5874086D01*
X55605826Y5874086D02*
X55634398Y5816943D01*
X55634398Y5816943D02*
X55634398Y5731229D01*
X55634398Y5731229D02*
X55605826Y5674086D01*
X55605826Y5674086D02*
X55577255Y5645515D01*
X55577255Y5645515D02*
X55520112Y5616943D01*
X55520112Y5616943D02*
X55291541Y5616943D01*
X56005826Y5931229D02*
X56120112Y5931229D01*
X56120112Y5931229D02*
X56177255Y5902658D01*
X56177255Y5902658D02*
X56234398Y5845515D01*
X56234398Y5845515D02*
X56262969Y5731229D01*
X56262969Y5731229D02*
X56262969Y5531229D01*
X56262969Y5531229D02*
X56234398Y5416943D01*
X56234398Y5416943D02*
X56177255Y5359800D01*
X56177255Y5359800D02*
X56120112Y5331229D01*
X56120112Y5331229D02*
X56005826Y5331229D01*
X56005826Y5331229D02*
X55948684Y5359800D01*
X55948684Y5359800D02*
X55891541Y5416943D01*
X55891541Y5416943D02*
X55862969Y5531229D01*
X55862969Y5531229D02*
X55862969Y5731229D01*
X55862969Y5731229D02*
X55891541Y5845515D01*
X55891541Y5845515D02*
X55948684Y5902658D01*
X55948684Y5902658D02*
X56005826Y5931229D01*
X56862969Y5331229D02*
X56662969Y5616943D01*
X56520112Y5331229D02*
X56520112Y5931229D01*
X56520112Y5931229D02*
X56748683Y5931229D01*
X56748683Y5931229D02*
X56805826Y5902658D01*
X56805826Y5902658D02*
X56834397Y5874086D01*
X56834397Y5874086D02*
X56862969Y5816943D01*
X56862969Y5816943D02*
X56862969Y5731229D01*
X56862969Y5731229D02*
X56834397Y5674086D01*
X56834397Y5674086D02*
X56805826Y5645515D01*
X56805826Y5645515D02*
X56748683Y5616943D01*
X56748683Y5616943D02*
X56520112Y5616943D01*
X57034397Y5931229D02*
X57377255Y5931229D01*
X57205826Y5331229D02*
X57205826Y5931229D01*
X58377255Y5331229D02*
X58177255Y5616943D01*
X58034398Y5331229D02*
X58034398Y5931229D01*
X58034398Y5931229D02*
X58262969Y5931229D01*
X58262969Y5931229D02*
X58320112Y5902658D01*
X58320112Y5902658D02*
X58348683Y5874086D01*
X58348683Y5874086D02*
X58377255Y5816943D01*
X58377255Y5816943D02*
X58377255Y5731229D01*
X58377255Y5731229D02*
X58348683Y5674086D01*
X58348683Y5674086D02*
X58320112Y5645515D01*
X58320112Y5645515D02*
X58262969Y5616943D01*
X58262969Y5616943D02*
X58034398Y5616943D01*
X58577255Y5931229D02*
X58948683Y5931229D01*
X58948683Y5931229D02*
X58748683Y5702658D01*
X58748683Y5702658D02*
X58834398Y5702658D01*
X58834398Y5702658D02*
X58891541Y5674086D01*
X58891541Y5674086D02*
X58920112Y5645515D01*
X58920112Y5645515D02*
X58948683Y5588372D01*
X58948683Y5588372D02*
X58948683Y5445515D01*
X58948683Y5445515D02*
X58920112Y5388372D01*
X58920112Y5388372D02*
X58891541Y5359800D01*
X58891541Y5359800D02*
X58834398Y5331229D01*
X58834398Y5331229D02*
X58662969Y5331229D01*
X58662969Y5331229D02*
X58605826Y5359800D01*
X58605826Y5359800D02*
X58577255Y5388372D01*
X60861628Y40884399D02*
X60890200Y40855827D01*
X60890200Y40855827D02*
X60918771Y40770113D01*
X60918771Y40770113D02*
X60918771Y40712970D01*
X60918771Y40712970D02*
X60890200Y40627256D01*
X60890200Y40627256D02*
X60833057Y40570113D01*
X60833057Y40570113D02*
X60775914Y40541542D01*
X60775914Y40541542D02*
X60661628Y40512970D01*
X60661628Y40512970D02*
X60575914Y40512970D01*
X60575914Y40512970D02*
X60461628Y40541542D01*
X60461628Y40541542D02*
X60404485Y40570113D01*
X60404485Y40570113D02*
X60347342Y40627256D01*
X60347342Y40627256D02*
X60318771Y40712970D01*
X60318771Y40712970D02*
X60318771Y40770113D01*
X60318771Y40770113D02*
X60347342Y40855827D01*
X60347342Y40855827D02*
X60375914Y40884399D01*
X60747342Y41112970D02*
X60747342Y41398684D01*
X60918771Y41055827D02*
X60318771Y41255827D01*
X60318771Y41255827D02*
X60918771Y41455827D01*
X60918771Y41655828D02*
X60318771Y41655828D01*
X60318771Y41655828D02*
X60918771Y41998685D01*
X60918771Y41998685D02*
X60318771Y41998685D01*
X60918771Y42570113D02*
X60918771Y42284399D01*
X60918771Y42284399D02*
X60318771Y42284399D01*
X45984398Y45831229D02*
X46355826Y45831229D01*
X46355826Y45831229D02*
X46155826Y45602658D01*
X46155826Y45602658D02*
X46241541Y45602658D01*
X46241541Y45602658D02*
X46298684Y45574086D01*
X46298684Y45574086D02*
X46327255Y45545515D01*
X46327255Y45545515D02*
X46355826Y45488372D01*
X46355826Y45488372D02*
X46355826Y45345515D01*
X46355826Y45345515D02*
X46327255Y45288372D01*
X46327255Y45288372D02*
X46298684Y45259800D01*
X46298684Y45259800D02*
X46241541Y45231229D01*
X46241541Y45231229D02*
X46070112Y45231229D01*
X46070112Y45231229D02*
X46012969Y45259800D01*
X46012969Y45259800D02*
X45984398Y45288372D01*
X46527255Y45831229D02*
X46727255Y45231229D01*
X46727255Y45231229D02*
X46927255Y45831229D01*
X47070113Y45831229D02*
X47441541Y45831229D01*
X47441541Y45831229D02*
X47241541Y45602658D01*
X47241541Y45602658D02*
X47327256Y45602658D01*
X47327256Y45602658D02*
X47384399Y45574086D01*
X47384399Y45574086D02*
X47412970Y45545515D01*
X47412970Y45545515D02*
X47441541Y45488372D01*
X47441541Y45488372D02*
X47441541Y45345515D01*
X47441541Y45345515D02*
X47412970Y45288372D01*
X47412970Y45288372D02*
X47384399Y45259800D01*
X47384399Y45259800D02*
X47327256Y45231229D01*
X47327256Y45231229D02*
X47155827Y45231229D01*
X47155827Y45231229D02*
X47098684Y45259800D01*
X47098684Y45259800D02*
X47070113Y45288372D01*
X8518771Y40755827D02*
X9118771Y40955827D01*
X9118771Y40955827D02*
X8518771Y41155827D01*
X9118771Y41355828D02*
X8518771Y41355828D01*
X9118771Y41641542D02*
X8518771Y41641542D01*
X8518771Y41641542D02*
X9118771Y41984399D01*
X9118771Y41984399D02*
X8518771Y41984399D01*
X37912969Y37934800D02*
X37998684Y37906229D01*
X37998684Y37906229D02*
X38141541Y37906229D01*
X38141541Y37906229D02*
X38198684Y37934800D01*
X38198684Y37934800D02*
X38227255Y37963372D01*
X38227255Y37963372D02*
X38255826Y38020515D01*
X38255826Y38020515D02*
X38255826Y38077658D01*
X38255826Y38077658D02*
X38227255Y38134800D01*
X38227255Y38134800D02*
X38198684Y38163372D01*
X38198684Y38163372D02*
X38141541Y38191943D01*
X38141541Y38191943D02*
X38027255Y38220515D01*
X38027255Y38220515D02*
X37970112Y38249086D01*
X37970112Y38249086D02*
X37941541Y38277658D01*
X37941541Y38277658D02*
X37912969Y38334800D01*
X37912969Y38334800D02*
X37912969Y38391943D01*
X37912969Y38391943D02*
X37941541Y38449086D01*
X37941541Y38449086D02*
X37970112Y38477658D01*
X37970112Y38477658D02*
X38027255Y38506229D01*
X38027255Y38506229D02*
X38170112Y38506229D01*
X38170112Y38506229D02*
X38255826Y38477658D01*
X38855827Y37963372D02*
X38827255Y37934800D01*
X38827255Y37934800D02*
X38741541Y37906229D01*
X38741541Y37906229D02*
X38684398Y37906229D01*
X38684398Y37906229D02*
X38598684Y37934800D01*
X38598684Y37934800D02*
X38541541Y37991943D01*
X38541541Y37991943D02*
X38512970Y38049086D01*
X38512970Y38049086D02*
X38484398Y38163372D01*
X38484398Y38163372D02*
X38484398Y38249086D01*
X38484398Y38249086D02*
X38512970Y38363372D01*
X38512970Y38363372D02*
X38541541Y38420515D01*
X38541541Y38420515D02*
X38598684Y38477658D01*
X38598684Y38477658D02*
X38684398Y38506229D01*
X38684398Y38506229D02*
X38741541Y38506229D01*
X38741541Y38506229D02*
X38827255Y38477658D01*
X38827255Y38477658D02*
X38855827Y38449086D01*
X39398684Y37906229D02*
X39112970Y37906229D01*
X39112970Y37906229D02*
X39112970Y38506229D01*
X7618771Y40755827D02*
X8218771Y40955827D01*
X8218771Y40955827D02*
X7618771Y41155827D01*
X8218771Y41355828D02*
X7618771Y41355828D01*
X8218771Y41641542D02*
X7618771Y41641542D01*
X7618771Y41641542D02*
X8218771Y41984399D01*
X8218771Y41984399D02*
X7618771Y41984399D01*
X36285714Y8451658D02*
X36571429Y8451658D01*
X36228571Y8280229D02*
X36428571Y8880229D01*
X36428571Y8880229D02*
X36628571Y8280229D01*
X36828572Y8508800D02*
X37285715Y8508800D01*
X37057143Y8280229D02*
X37057143Y8737372D01*
X1647342Y41155827D02*
X1618771Y41098684D01*
X1618771Y41098684D02*
X1618771Y41012970D01*
X1618771Y41012970D02*
X1647342Y40927256D01*
X1647342Y40927256D02*
X1704485Y40870113D01*
X1704485Y40870113D02*
X1761628Y40841542D01*
X1761628Y40841542D02*
X1875914Y40812970D01*
X1875914Y40812970D02*
X1961628Y40812970D01*
X1961628Y40812970D02*
X2075914Y40841542D01*
X2075914Y40841542D02*
X2133057Y40870113D01*
X2133057Y40870113D02*
X2190200Y40927256D01*
X2190200Y40927256D02*
X2218771Y41012970D01*
X2218771Y41012970D02*
X2218771Y41070113D01*
X2218771Y41070113D02*
X2190200Y41155827D01*
X2190200Y41155827D02*
X2161628Y41184399D01*
X2161628Y41184399D02*
X1961628Y41184399D01*
X1961628Y41184399D02*
X1961628Y41070113D01*
X2218771Y41441542D02*
X1618771Y41441542D01*
X1618771Y41441542D02*
X2218771Y41784399D01*
X2218771Y41784399D02*
X1618771Y41784399D01*
X2218771Y42070113D02*
X1618771Y42070113D01*
X1618771Y42070113D02*
X1618771Y42212970D01*
X1618771Y42212970D02*
X1647342Y42298684D01*
X1647342Y42298684D02*
X1704485Y42355827D01*
X1704485Y42355827D02*
X1761628Y42384398D01*
X1761628Y42384398D02*
X1875914Y42412970D01*
X1875914Y42412970D02*
X1961628Y42412970D01*
X1961628Y42412970D02*
X2075914Y42384398D01*
X2075914Y42384398D02*
X2133057Y42355827D01*
X2133057Y42355827D02*
X2190200Y42298684D01*
X2190200Y42298684D02*
X2218771Y42212970D01*
X2218771Y42212970D02*
X2218771Y42070113D01*
X26941541Y51509800D02*
X27398684Y51509800D01*
X27170112Y51281229D02*
X27170112Y51738372D01*
X24187969Y40859800D02*
X24273684Y40831229D01*
X24273684Y40831229D02*
X24416541Y40831229D01*
X24416541Y40831229D02*
X24473684Y40859800D01*
X24473684Y40859800D02*
X24502255Y40888372D01*
X24502255Y40888372D02*
X24530826Y40945515D01*
X24530826Y40945515D02*
X24530826Y41002658D01*
X24530826Y41002658D02*
X24502255Y41059800D01*
X24502255Y41059800D02*
X24473684Y41088372D01*
X24473684Y41088372D02*
X24416541Y41116943D01*
X24416541Y41116943D02*
X24302255Y41145515D01*
X24302255Y41145515D02*
X24245112Y41174086D01*
X24245112Y41174086D02*
X24216541Y41202658D01*
X24216541Y41202658D02*
X24187969Y41259800D01*
X24187969Y41259800D02*
X24187969Y41316943D01*
X24187969Y41316943D02*
X24216541Y41374086D01*
X24216541Y41374086D02*
X24245112Y41402658D01*
X24245112Y41402658D02*
X24302255Y41431229D01*
X24302255Y41431229D02*
X24445112Y41431229D01*
X24445112Y41431229D02*
X24530826Y41402658D01*
X24787970Y40831229D02*
X24787970Y41431229D01*
X24787970Y41431229D02*
X24930827Y41431229D01*
X24930827Y41431229D02*
X25016541Y41402658D01*
X25016541Y41402658D02*
X25073684Y41345515D01*
X25073684Y41345515D02*
X25102255Y41288372D01*
X25102255Y41288372D02*
X25130827Y41174086D01*
X25130827Y41174086D02*
X25130827Y41088372D01*
X25130827Y41088372D02*
X25102255Y40974086D01*
X25102255Y40974086D02*
X25073684Y40916943D01*
X25073684Y40916943D02*
X25016541Y40859800D01*
X25016541Y40859800D02*
X24930827Y40831229D01*
X24930827Y40831229D02*
X24787970Y40831229D01*
X25359398Y41002658D02*
X25645113Y41002658D01*
X25302255Y40831229D02*
X25502255Y41431229D01*
X25502255Y41431229D02*
X25702255Y40831229D01*
X28214286Y8337372D02*
X28185714Y8308800D01*
X28185714Y8308800D02*
X28100000Y8280229D01*
X28100000Y8280229D02*
X28042857Y8280229D01*
X28042857Y8280229D02*
X27957143Y8308800D01*
X27957143Y8308800D02*
X27900000Y8365943D01*
X27900000Y8365943D02*
X27871429Y8423086D01*
X27871429Y8423086D02*
X27842857Y8537372D01*
X27842857Y8537372D02*
X27842857Y8623086D01*
X27842857Y8623086D02*
X27871429Y8737372D01*
X27871429Y8737372D02*
X27900000Y8794515D01*
X27900000Y8794515D02*
X27957143Y8851658D01*
X27957143Y8851658D02*
X28042857Y8880229D01*
X28042857Y8880229D02*
X28100000Y8880229D01*
X28100000Y8880229D02*
X28185714Y8851658D01*
X28185714Y8851658D02*
X28214286Y8823086D01*
X28471429Y8508800D02*
X28928572Y8508800D01*
X28700000Y8280229D02*
X28700000Y8737372D01*
X24162969Y39484800D02*
X24248684Y39456229D01*
X24248684Y39456229D02*
X24391541Y39456229D01*
X24391541Y39456229D02*
X24448684Y39484800D01*
X24448684Y39484800D02*
X24477255Y39513372D01*
X24477255Y39513372D02*
X24505826Y39570515D01*
X24505826Y39570515D02*
X24505826Y39627658D01*
X24505826Y39627658D02*
X24477255Y39684800D01*
X24477255Y39684800D02*
X24448684Y39713372D01*
X24448684Y39713372D02*
X24391541Y39741943D01*
X24391541Y39741943D02*
X24277255Y39770515D01*
X24277255Y39770515D02*
X24220112Y39799086D01*
X24220112Y39799086D02*
X24191541Y39827658D01*
X24191541Y39827658D02*
X24162969Y39884800D01*
X24162969Y39884800D02*
X24162969Y39941943D01*
X24162969Y39941943D02*
X24191541Y39999086D01*
X24191541Y39999086D02*
X24220112Y40027658D01*
X24220112Y40027658D02*
X24277255Y40056229D01*
X24277255Y40056229D02*
X24420112Y40056229D01*
X24420112Y40056229D02*
X24505826Y40027658D01*
X25105827Y39513372D02*
X25077255Y39484800D01*
X25077255Y39484800D02*
X24991541Y39456229D01*
X24991541Y39456229D02*
X24934398Y39456229D01*
X24934398Y39456229D02*
X24848684Y39484800D01*
X24848684Y39484800D02*
X24791541Y39541943D01*
X24791541Y39541943D02*
X24762970Y39599086D01*
X24762970Y39599086D02*
X24734398Y39713372D01*
X24734398Y39713372D02*
X24734398Y39799086D01*
X24734398Y39799086D02*
X24762970Y39913372D01*
X24762970Y39913372D02*
X24791541Y39970515D01*
X24791541Y39970515D02*
X24848684Y40027658D01*
X24848684Y40027658D02*
X24934398Y40056229D01*
X24934398Y40056229D02*
X24991541Y40056229D01*
X24991541Y40056229D02*
X25077255Y40027658D01*
X25077255Y40027658D02*
X25105827Y39999086D01*
X25648684Y39456229D02*
X25362970Y39456229D01*
X25362970Y39456229D02*
X25362970Y40056229D01*
X54318771Y40455827D02*
X54318771Y40798684D01*
X54918771Y40627256D02*
X54318771Y40627256D01*
X54318771Y40941542D02*
X54918771Y41341542D01*
X54318771Y41341542D02*
X54918771Y40941542D01*
X54918771Y41884399D02*
X54918771Y41541542D01*
X54918771Y41712971D02*
X54318771Y41712971D01*
X54318771Y41712971D02*
X54404485Y41655828D01*
X54404485Y41655828D02*
X54461628Y41598685D01*
X54461628Y41598685D02*
X54490200Y41541542D01*
X34821429Y8594515D02*
X34907143Y8565943D01*
X34907143Y8565943D02*
X34935714Y8537372D01*
X34935714Y8537372D02*
X34964286Y8480229D01*
X34964286Y8480229D02*
X34964286Y8394515D01*
X34964286Y8394515D02*
X34935714Y8337372D01*
X34935714Y8337372D02*
X34907143Y8308800D01*
X34907143Y8308800D02*
X34850000Y8280229D01*
X34850000Y8280229D02*
X34621429Y8280229D01*
X34621429Y8280229D02*
X34621429Y8880229D01*
X34621429Y8880229D02*
X34821429Y8880229D01*
X34821429Y8880229D02*
X34878572Y8851658D01*
X34878572Y8851658D02*
X34907143Y8823086D01*
X34907143Y8823086D02*
X34935714Y8765943D01*
X34935714Y8765943D02*
X34935714Y8708800D01*
X34935714Y8708800D02*
X34907143Y8651658D01*
X34907143Y8651658D02*
X34878572Y8623086D01*
X34878572Y8623086D02*
X34821429Y8594515D01*
X34821429Y8594515D02*
X34621429Y8594515D01*
X35221429Y8508800D02*
X35678572Y8508800D01*
X27980826Y42052658D02*
X27923684Y42081229D01*
X27923684Y42081229D02*
X27837969Y42081229D01*
X27837969Y42081229D02*
X27752255Y42052658D01*
X27752255Y42052658D02*
X27695112Y41995515D01*
X27695112Y41995515D02*
X27666541Y41938372D01*
X27666541Y41938372D02*
X27637969Y41824086D01*
X27637969Y41824086D02*
X27637969Y41738372D01*
X27637969Y41738372D02*
X27666541Y41624086D01*
X27666541Y41624086D02*
X27695112Y41566943D01*
X27695112Y41566943D02*
X27752255Y41509800D01*
X27752255Y41509800D02*
X27837969Y41481229D01*
X27837969Y41481229D02*
X27895112Y41481229D01*
X27895112Y41481229D02*
X27980826Y41509800D01*
X27980826Y41509800D02*
X28009398Y41538372D01*
X28009398Y41538372D02*
X28009398Y41738372D01*
X28009398Y41738372D02*
X27895112Y41738372D01*
X28266541Y41481229D02*
X28266541Y42081229D01*
X28266541Y42081229D02*
X28609398Y41481229D01*
X28609398Y41481229D02*
X28609398Y42081229D01*
X28895112Y41481229D02*
X28895112Y42081229D01*
X28895112Y42081229D02*
X29037969Y42081229D01*
X29037969Y42081229D02*
X29123683Y42052658D01*
X29123683Y42052658D02*
X29180826Y41995515D01*
X29180826Y41995515D02*
X29209397Y41938372D01*
X29209397Y41938372D02*
X29237969Y41824086D01*
X29237969Y41824086D02*
X29237969Y41738372D01*
X29237969Y41738372D02*
X29209397Y41624086D01*
X29209397Y41624086D02*
X29180826Y41566943D01*
X29180826Y41566943D02*
X29123683Y41509800D01*
X29123683Y41509800D02*
X29037969Y41481229D01*
X29037969Y41481229D02*
X28895112Y41481229D01*
X5912969Y43981229D02*
X5912969Y43552658D01*
X5912969Y43552658D02*
X5884398Y43466943D01*
X5884398Y43466943D02*
X5827255Y43409800D01*
X5827255Y43409800D02*
X5741541Y43381229D01*
X5741541Y43381229D02*
X5684398Y43381229D01*
X6170112Y43924086D02*
X6198684Y43952658D01*
X6198684Y43952658D02*
X6255827Y43981229D01*
X6255827Y43981229D02*
X6398684Y43981229D01*
X6398684Y43981229D02*
X6455827Y43952658D01*
X6455827Y43952658D02*
X6484398Y43924086D01*
X6484398Y43924086D02*
X6512969Y43866943D01*
X6512969Y43866943D02*
X6512969Y43809800D01*
X6512969Y43809800D02*
X6484398Y43724086D01*
X6484398Y43724086D02*
X6141541Y43381229D01*
X6141541Y43381229D02*
X6512969Y43381229D01*
X40319398Y44656229D02*
X40119398Y44941943D01*
X39976541Y44656229D02*
X39976541Y45256229D01*
X39976541Y45256229D02*
X40205112Y45256229D01*
X40205112Y45256229D02*
X40262255Y45227658D01*
X40262255Y45227658D02*
X40290826Y45199086D01*
X40290826Y45199086D02*
X40319398Y45141943D01*
X40319398Y45141943D02*
X40319398Y45056229D01*
X40319398Y45056229D02*
X40290826Y44999086D01*
X40290826Y44999086D02*
X40262255Y44970515D01*
X40262255Y44970515D02*
X40205112Y44941943D01*
X40205112Y44941943D02*
X39976541Y44941943D01*
X40547969Y44684800D02*
X40633684Y44656229D01*
X40633684Y44656229D02*
X40776541Y44656229D01*
X40776541Y44656229D02*
X40833684Y44684800D01*
X40833684Y44684800D02*
X40862255Y44713372D01*
X40862255Y44713372D02*
X40890826Y44770515D01*
X40890826Y44770515D02*
X40890826Y44827658D01*
X40890826Y44827658D02*
X40862255Y44884800D01*
X40862255Y44884800D02*
X40833684Y44913372D01*
X40833684Y44913372D02*
X40776541Y44941943D01*
X40776541Y44941943D02*
X40662255Y44970515D01*
X40662255Y44970515D02*
X40605112Y44999086D01*
X40605112Y44999086D02*
X40576541Y45027658D01*
X40576541Y45027658D02*
X40547969Y45084800D01*
X40547969Y45084800D02*
X40547969Y45141943D01*
X40547969Y45141943D02*
X40576541Y45199086D01*
X40576541Y45199086D02*
X40605112Y45227658D01*
X40605112Y45227658D02*
X40662255Y45256229D01*
X40662255Y45256229D02*
X40805112Y45256229D01*
X40805112Y45256229D02*
X40890826Y45227658D01*
X41062255Y45256229D02*
X41405113Y45256229D01*
X41233684Y44656229D02*
X41233684Y45256229D01*
X55491541Y46281229D02*
X55491541Y46881229D01*
X55491541Y46881229D02*
X55720112Y46881229D01*
X55720112Y46881229D02*
X55777255Y46852658D01*
X55777255Y46852658D02*
X55805826Y46824086D01*
X55805826Y46824086D02*
X55834398Y46766943D01*
X55834398Y46766943D02*
X55834398Y46681229D01*
X55834398Y46681229D02*
X55805826Y46624086D01*
X55805826Y46624086D02*
X55777255Y46595515D01*
X55777255Y46595515D02*
X55720112Y46566943D01*
X55720112Y46566943D02*
X55491541Y46566943D01*
X56205826Y46881229D02*
X56320112Y46881229D01*
X56320112Y46881229D02*
X56377255Y46852658D01*
X56377255Y46852658D02*
X56434398Y46795515D01*
X56434398Y46795515D02*
X56462969Y46681229D01*
X56462969Y46681229D02*
X56462969Y46481229D01*
X56462969Y46481229D02*
X56434398Y46366943D01*
X56434398Y46366943D02*
X56377255Y46309800D01*
X56377255Y46309800D02*
X56320112Y46281229D01*
X56320112Y46281229D02*
X56205826Y46281229D01*
X56205826Y46281229D02*
X56148684Y46309800D01*
X56148684Y46309800D02*
X56091541Y46366943D01*
X56091541Y46366943D02*
X56062969Y46481229D01*
X56062969Y46481229D02*
X56062969Y46681229D01*
X56062969Y46681229D02*
X56091541Y46795515D01*
X56091541Y46795515D02*
X56148684Y46852658D01*
X56148684Y46852658D02*
X56205826Y46881229D01*
X57062969Y46281229D02*
X56862969Y46566943D01*
X56720112Y46281229D02*
X56720112Y46881229D01*
X56720112Y46881229D02*
X56948683Y46881229D01*
X56948683Y46881229D02*
X57005826Y46852658D01*
X57005826Y46852658D02*
X57034397Y46824086D01*
X57034397Y46824086D02*
X57062969Y46766943D01*
X57062969Y46766943D02*
X57062969Y46681229D01*
X57062969Y46681229D02*
X57034397Y46624086D01*
X57034397Y46624086D02*
X57005826Y46595515D01*
X57005826Y46595515D02*
X56948683Y46566943D01*
X56948683Y46566943D02*
X56720112Y46566943D01*
X57234397Y46881229D02*
X57577255Y46881229D01*
X57405826Y46281229D02*
X57405826Y46881229D01*
X58577255Y46281229D02*
X58377255Y46566943D01*
X58234398Y46281229D02*
X58234398Y46881229D01*
X58234398Y46881229D02*
X58462969Y46881229D01*
X58462969Y46881229D02*
X58520112Y46852658D01*
X58520112Y46852658D02*
X58548683Y46824086D01*
X58548683Y46824086D02*
X58577255Y46766943D01*
X58577255Y46766943D02*
X58577255Y46681229D01*
X58577255Y46681229D02*
X58548683Y46624086D01*
X58548683Y46624086D02*
X58520112Y46595515D01*
X58520112Y46595515D02*
X58462969Y46566943D01*
X58462969Y46566943D02*
X58234398Y46566943D01*
X59120112Y46881229D02*
X58834398Y46881229D01*
X58834398Y46881229D02*
X58805826Y46595515D01*
X58805826Y46595515D02*
X58834398Y46624086D01*
X58834398Y46624086D02*
X58891541Y46652658D01*
X58891541Y46652658D02*
X59034398Y46652658D01*
X59034398Y46652658D02*
X59091541Y46624086D01*
X59091541Y46624086D02*
X59120112Y46595515D01*
X59120112Y46595515D02*
X59148683Y46538372D01*
X59148683Y46538372D02*
X59148683Y46395515D01*
X59148683Y46395515D02*
X59120112Y46338372D01*
X59120112Y46338372D02*
X59091541Y46309800D01*
X59091541Y46309800D02*
X59034398Y46281229D01*
X59034398Y46281229D02*
X58891541Y46281229D01*
X58891541Y46281229D02*
X58834398Y46309800D01*
X58834398Y46309800D02*
X58805826Y46338372D01*
X23691541Y51409800D02*
X24148684Y51409800D01*
X28541541Y51509800D02*
X28998684Y51509800D01*
X28770112Y51281229D02*
X28770112Y51738372D01*
X53890200Y40412970D02*
X53918771Y40498684D01*
X53918771Y40498684D02*
X53918771Y40641542D01*
X53918771Y40641542D02*
X53890200Y40698684D01*
X53890200Y40698684D02*
X53861628Y40727256D01*
X53861628Y40727256D02*
X53804485Y40755827D01*
X53804485Y40755827D02*
X53747342Y40755827D01*
X53747342Y40755827D02*
X53690200Y40727256D01*
X53690200Y40727256D02*
X53661628Y40698684D01*
X53661628Y40698684D02*
X53633057Y40641542D01*
X53633057Y40641542D02*
X53604485Y40527256D01*
X53604485Y40527256D02*
X53575914Y40470113D01*
X53575914Y40470113D02*
X53547342Y40441542D01*
X53547342Y40441542D02*
X53490200Y40412970D01*
X53490200Y40412970D02*
X53433057Y40412970D01*
X53433057Y40412970D02*
X53375914Y40441542D01*
X53375914Y40441542D02*
X53347342Y40470113D01*
X53347342Y40470113D02*
X53318771Y40527256D01*
X53318771Y40527256D02*
X53318771Y40670113D01*
X53318771Y40670113D02*
X53347342Y40755827D01*
X53918771Y41012971D02*
X53318771Y41012971D01*
X53318771Y41012971D02*
X53318771Y41155828D01*
X53318771Y41155828D02*
X53347342Y41241542D01*
X53347342Y41241542D02*
X53404485Y41298685D01*
X53404485Y41298685D02*
X53461628Y41327256D01*
X53461628Y41327256D02*
X53575914Y41355828D01*
X53575914Y41355828D02*
X53661628Y41355828D01*
X53661628Y41355828D02*
X53775914Y41327256D01*
X53775914Y41327256D02*
X53833057Y41298685D01*
X53833057Y41298685D02*
X53890200Y41241542D01*
X53890200Y41241542D02*
X53918771Y41155828D01*
X53918771Y41155828D02*
X53918771Y41012971D01*
X53747342Y41584399D02*
X53747342Y41870113D01*
X53918771Y41527256D02*
X53318771Y41727256D01*
X53318771Y41727256D02*
X53918771Y41927256D01*
X647342Y41155827D02*
X618771Y41098684D01*
X618771Y41098684D02*
X618771Y41012970D01*
X618771Y41012970D02*
X647342Y40927256D01*
X647342Y40927256D02*
X704485Y40870113D01*
X704485Y40870113D02*
X761628Y40841542D01*
X761628Y40841542D02*
X875914Y40812970D01*
X875914Y40812970D02*
X961628Y40812970D01*
X961628Y40812970D02*
X1075914Y40841542D01*
X1075914Y40841542D02*
X1133057Y40870113D01*
X1133057Y40870113D02*
X1190200Y40927256D01*
X1190200Y40927256D02*
X1218771Y41012970D01*
X1218771Y41012970D02*
X1218771Y41070113D01*
X1218771Y41070113D02*
X1190200Y41155827D01*
X1190200Y41155827D02*
X1161628Y41184399D01*
X1161628Y41184399D02*
X961628Y41184399D01*
X961628Y41184399D02*
X961628Y41070113D01*
X1218771Y41441542D02*
X618771Y41441542D01*
X618771Y41441542D02*
X1218771Y41784399D01*
X1218771Y41784399D02*
X618771Y41784399D01*
X1218771Y42070113D02*
X618771Y42070113D01*
X618771Y42070113D02*
X618771Y42212970D01*
X618771Y42212970D02*
X647342Y42298684D01*
X647342Y42298684D02*
X704485Y42355827D01*
X704485Y42355827D02*
X761628Y42384398D01*
X761628Y42384398D02*
X875914Y42412970D01*
X875914Y42412970D02*
X961628Y42412970D01*
X961628Y42412970D02*
X1075914Y42384398D01*
X1075914Y42384398D02*
X1133057Y42355827D01*
X1133057Y42355827D02*
X1190200Y42298684D01*
X1190200Y42298684D02*
X1218771Y42212970D01*
X1218771Y42212970D02*
X1218771Y42070113D01*
X61861628Y40884399D02*
X61890200Y40855827D01*
X61890200Y40855827D02*
X61918771Y40770113D01*
X61918771Y40770113D02*
X61918771Y40712970D01*
X61918771Y40712970D02*
X61890200Y40627256D01*
X61890200Y40627256D02*
X61833057Y40570113D01*
X61833057Y40570113D02*
X61775914Y40541542D01*
X61775914Y40541542D02*
X61661628Y40512970D01*
X61661628Y40512970D02*
X61575914Y40512970D01*
X61575914Y40512970D02*
X61461628Y40541542D01*
X61461628Y40541542D02*
X61404485Y40570113D01*
X61404485Y40570113D02*
X61347342Y40627256D01*
X61347342Y40627256D02*
X61318771Y40712970D01*
X61318771Y40712970D02*
X61318771Y40770113D01*
X61318771Y40770113D02*
X61347342Y40855827D01*
X61347342Y40855827D02*
X61375914Y40884399D01*
X61747342Y41112970D02*
X61747342Y41398684D01*
X61918771Y41055827D02*
X61318771Y41255827D01*
X61318771Y41255827D02*
X61918771Y41455827D01*
X61918771Y41655828D02*
X61318771Y41655828D01*
X61318771Y41655828D02*
X61918771Y41998685D01*
X61918771Y41998685D02*
X61318771Y41998685D01*
X61918771Y42284399D02*
X61318771Y42284399D01*
X61604485Y42284399D02*
X61604485Y42627256D01*
X61918771Y42627256D02*
X61318771Y42627256D01*
X20291541Y5331229D02*
X20291541Y5931229D01*
X20291541Y5931229D02*
X20520112Y5931229D01*
X20520112Y5931229D02*
X20577255Y5902658D01*
X20577255Y5902658D02*
X20605826Y5874086D01*
X20605826Y5874086D02*
X20634398Y5816943D01*
X20634398Y5816943D02*
X20634398Y5731229D01*
X20634398Y5731229D02*
X20605826Y5674086D01*
X20605826Y5674086D02*
X20577255Y5645515D01*
X20577255Y5645515D02*
X20520112Y5616943D01*
X20520112Y5616943D02*
X20291541Y5616943D01*
X21005826Y5931229D02*
X21120112Y5931229D01*
X21120112Y5931229D02*
X21177255Y5902658D01*
X21177255Y5902658D02*
X21234398Y5845515D01*
X21234398Y5845515D02*
X21262969Y5731229D01*
X21262969Y5731229D02*
X21262969Y5531229D01*
X21262969Y5531229D02*
X21234398Y5416943D01*
X21234398Y5416943D02*
X21177255Y5359800D01*
X21177255Y5359800D02*
X21120112Y5331229D01*
X21120112Y5331229D02*
X21005826Y5331229D01*
X21005826Y5331229D02*
X20948684Y5359800D01*
X20948684Y5359800D02*
X20891541Y5416943D01*
X20891541Y5416943D02*
X20862969Y5531229D01*
X20862969Y5531229D02*
X20862969Y5731229D01*
X20862969Y5731229D02*
X20891541Y5845515D01*
X20891541Y5845515D02*
X20948684Y5902658D01*
X20948684Y5902658D02*
X21005826Y5931229D01*
X21862969Y5331229D02*
X21662969Y5616943D01*
X21520112Y5331229D02*
X21520112Y5931229D01*
X21520112Y5931229D02*
X21748683Y5931229D01*
X21748683Y5931229D02*
X21805826Y5902658D01*
X21805826Y5902658D02*
X21834397Y5874086D01*
X21834397Y5874086D02*
X21862969Y5816943D01*
X21862969Y5816943D02*
X21862969Y5731229D01*
X21862969Y5731229D02*
X21834397Y5674086D01*
X21834397Y5674086D02*
X21805826Y5645515D01*
X21805826Y5645515D02*
X21748683Y5616943D01*
X21748683Y5616943D02*
X21520112Y5616943D01*
X22034397Y5931229D02*
X22377255Y5931229D01*
X22205826Y5331229D02*
X22205826Y5931229D01*
X23320112Y5331229D02*
X23034398Y5331229D01*
X23034398Y5331229D02*
X23034398Y5931229D01*
X23834397Y5331229D02*
X23491540Y5331229D01*
X23662969Y5331229D02*
X23662969Y5931229D01*
X23662969Y5931229D02*
X23605826Y5845515D01*
X23605826Y5845515D02*
X23548683Y5788372D01*
X23548683Y5788372D02*
X23491540Y5759800D01*
X37912969Y39259800D02*
X37998684Y39231229D01*
X37998684Y39231229D02*
X38141541Y39231229D01*
X38141541Y39231229D02*
X38198684Y39259800D01*
X38198684Y39259800D02*
X38227255Y39288372D01*
X38227255Y39288372D02*
X38255826Y39345515D01*
X38255826Y39345515D02*
X38255826Y39402658D01*
X38255826Y39402658D02*
X38227255Y39459800D01*
X38227255Y39459800D02*
X38198684Y39488372D01*
X38198684Y39488372D02*
X38141541Y39516943D01*
X38141541Y39516943D02*
X38027255Y39545515D01*
X38027255Y39545515D02*
X37970112Y39574086D01*
X37970112Y39574086D02*
X37941541Y39602658D01*
X37941541Y39602658D02*
X37912969Y39659800D01*
X37912969Y39659800D02*
X37912969Y39716943D01*
X37912969Y39716943D02*
X37941541Y39774086D01*
X37941541Y39774086D02*
X37970112Y39802658D01*
X37970112Y39802658D02*
X38027255Y39831229D01*
X38027255Y39831229D02*
X38170112Y39831229D01*
X38170112Y39831229D02*
X38255826Y39802658D01*
X38512970Y39231229D02*
X38512970Y39831229D01*
X38512970Y39831229D02*
X38655827Y39831229D01*
X38655827Y39831229D02*
X38741541Y39802658D01*
X38741541Y39802658D02*
X38798684Y39745515D01*
X38798684Y39745515D02*
X38827255Y39688372D01*
X38827255Y39688372D02*
X38855827Y39574086D01*
X38855827Y39574086D02*
X38855827Y39488372D01*
X38855827Y39488372D02*
X38827255Y39374086D01*
X38827255Y39374086D02*
X38798684Y39316943D01*
X38798684Y39316943D02*
X38741541Y39259800D01*
X38741541Y39259800D02*
X38655827Y39231229D01*
X38655827Y39231229D02*
X38512970Y39231229D01*
X39084398Y39402658D02*
X39370113Y39402658D01*
X39027255Y39231229D02*
X39227255Y39831229D01*
X39227255Y39831229D02*
X39427255Y39231229D01*
X59918771Y40884399D02*
X59633057Y40684399D01*
X59918771Y40541542D02*
X59318771Y40541542D01*
X59318771Y40541542D02*
X59318771Y40770113D01*
X59318771Y40770113D02*
X59347342Y40827256D01*
X59347342Y40827256D02*
X59375914Y40855827D01*
X59375914Y40855827D02*
X59433057Y40884399D01*
X59433057Y40884399D02*
X59518771Y40884399D01*
X59518771Y40884399D02*
X59575914Y40855827D01*
X59575914Y40855827D02*
X59604485Y40827256D01*
X59604485Y40827256D02*
X59633057Y40770113D01*
X59633057Y40770113D02*
X59633057Y40541542D01*
X59318771Y41084399D02*
X59918771Y41484399D01*
X59318771Y41484399D02*
X59918771Y41084399D01*
X59375914Y41684399D02*
X59347342Y41712971D01*
X59347342Y41712971D02*
X59318771Y41770113D01*
X59318771Y41770113D02*
X59318771Y41912971D01*
X59318771Y41912971D02*
X59347342Y41970113D01*
X59347342Y41970113D02*
X59375914Y41998685D01*
X59375914Y41998685D02*
X59433057Y42027256D01*
X59433057Y42027256D02*
X59490200Y42027256D01*
X59490200Y42027256D02*
X59575914Y41998685D01*
X59575914Y41998685D02*
X59918771Y41655828D01*
X59918771Y41655828D02*
X59918771Y42027256D01*
X39962969Y37934800D02*
X40048684Y37906229D01*
X40048684Y37906229D02*
X40191541Y37906229D01*
X40191541Y37906229D02*
X40248684Y37934800D01*
X40248684Y37934800D02*
X40277255Y37963372D01*
X40277255Y37963372D02*
X40305826Y38020515D01*
X40305826Y38020515D02*
X40305826Y38077658D01*
X40305826Y38077658D02*
X40277255Y38134800D01*
X40277255Y38134800D02*
X40248684Y38163372D01*
X40248684Y38163372D02*
X40191541Y38191943D01*
X40191541Y38191943D02*
X40077255Y38220515D01*
X40077255Y38220515D02*
X40020112Y38249086D01*
X40020112Y38249086D02*
X39991541Y38277658D01*
X39991541Y38277658D02*
X39962969Y38334800D01*
X39962969Y38334800D02*
X39962969Y38391943D01*
X39962969Y38391943D02*
X39991541Y38449086D01*
X39991541Y38449086D02*
X40020112Y38477658D01*
X40020112Y38477658D02*
X40077255Y38506229D01*
X40077255Y38506229D02*
X40220112Y38506229D01*
X40220112Y38506229D02*
X40305826Y38477658D01*
X40905827Y37963372D02*
X40877255Y37934800D01*
X40877255Y37934800D02*
X40791541Y37906229D01*
X40791541Y37906229D02*
X40734398Y37906229D01*
X40734398Y37906229D02*
X40648684Y37934800D01*
X40648684Y37934800D02*
X40591541Y37991943D01*
X40591541Y37991943D02*
X40562970Y38049086D01*
X40562970Y38049086D02*
X40534398Y38163372D01*
X40534398Y38163372D02*
X40534398Y38249086D01*
X40534398Y38249086D02*
X40562970Y38363372D01*
X40562970Y38363372D02*
X40591541Y38420515D01*
X40591541Y38420515D02*
X40648684Y38477658D01*
X40648684Y38477658D02*
X40734398Y38506229D01*
X40734398Y38506229D02*
X40791541Y38506229D01*
X40791541Y38506229D02*
X40877255Y38477658D01*
X40877255Y38477658D02*
X40905827Y38449086D01*
X41448684Y37906229D02*
X41162970Y37906229D01*
X41162970Y37906229D02*
X41162970Y38506229D01*
X9418771Y40755827D02*
X10018771Y40955827D01*
X10018771Y40955827D02*
X9418771Y41155827D01*
X10018771Y41355828D02*
X9418771Y41355828D01*
X10018771Y41641542D02*
X9418771Y41641542D01*
X9418771Y41641542D02*
X10018771Y41984399D01*
X10018771Y41984399D02*
X9418771Y41984399D01*
X58212969Y43981229D02*
X58212969Y43552658D01*
X58212969Y43552658D02*
X58184398Y43466943D01*
X58184398Y43466943D02*
X58127255Y43409800D01*
X58127255Y43409800D02*
X58041541Y43381229D01*
X58041541Y43381229D02*
X57984398Y43381229D01*
X58755827Y43781229D02*
X58755827Y43381229D01*
X58612969Y44009800D02*
X58470112Y43581229D01*
X58470112Y43581229D02*
X58841541Y43581229D01*
X26614286Y8337372D02*
X26585714Y8308800D01*
X26585714Y8308800D02*
X26500000Y8280229D01*
X26500000Y8280229D02*
X26442857Y8280229D01*
X26442857Y8280229D02*
X26357143Y8308800D01*
X26357143Y8308800D02*
X26300000Y8365943D01*
X26300000Y8365943D02*
X26271429Y8423086D01*
X26271429Y8423086D02*
X26242857Y8537372D01*
X26242857Y8537372D02*
X26242857Y8623086D01*
X26242857Y8623086D02*
X26271429Y8737372D01*
X26271429Y8737372D02*
X26300000Y8794515D01*
X26300000Y8794515D02*
X26357143Y8851658D01*
X26357143Y8851658D02*
X26442857Y8880229D01*
X26442857Y8880229D02*
X26500000Y8880229D01*
X26500000Y8880229D02*
X26585714Y8851658D01*
X26585714Y8851658D02*
X26614286Y8823086D01*
X26871429Y8508800D02*
X27328572Y8508800D01*
X46941541Y5331229D02*
X46941541Y5931229D01*
X46941541Y5931229D02*
X47170112Y5931229D01*
X47170112Y5931229D02*
X47227255Y5902658D01*
X47227255Y5902658D02*
X47255826Y5874086D01*
X47255826Y5874086D02*
X47284398Y5816943D01*
X47284398Y5816943D02*
X47284398Y5731229D01*
X47284398Y5731229D02*
X47255826Y5674086D01*
X47255826Y5674086D02*
X47227255Y5645515D01*
X47227255Y5645515D02*
X47170112Y5616943D01*
X47170112Y5616943D02*
X46941541Y5616943D01*
X47655826Y5931229D02*
X47770112Y5931229D01*
X47770112Y5931229D02*
X47827255Y5902658D01*
X47827255Y5902658D02*
X47884398Y5845515D01*
X47884398Y5845515D02*
X47912969Y5731229D01*
X47912969Y5731229D02*
X47912969Y5531229D01*
X47912969Y5531229D02*
X47884398Y5416943D01*
X47884398Y5416943D02*
X47827255Y5359800D01*
X47827255Y5359800D02*
X47770112Y5331229D01*
X47770112Y5331229D02*
X47655826Y5331229D01*
X47655826Y5331229D02*
X47598684Y5359800D01*
X47598684Y5359800D02*
X47541541Y5416943D01*
X47541541Y5416943D02*
X47512969Y5531229D01*
X47512969Y5531229D02*
X47512969Y5731229D01*
X47512969Y5731229D02*
X47541541Y5845515D01*
X47541541Y5845515D02*
X47598684Y5902658D01*
X47598684Y5902658D02*
X47655826Y5931229D01*
X48512969Y5331229D02*
X48312969Y5616943D01*
X48170112Y5331229D02*
X48170112Y5931229D01*
X48170112Y5931229D02*
X48398683Y5931229D01*
X48398683Y5931229D02*
X48455826Y5902658D01*
X48455826Y5902658D02*
X48484397Y5874086D01*
X48484397Y5874086D02*
X48512969Y5816943D01*
X48512969Y5816943D02*
X48512969Y5731229D01*
X48512969Y5731229D02*
X48484397Y5674086D01*
X48484397Y5674086D02*
X48455826Y5645515D01*
X48455826Y5645515D02*
X48398683Y5616943D01*
X48398683Y5616943D02*
X48170112Y5616943D01*
X48684397Y5931229D02*
X49027255Y5931229D01*
X48855826Y5331229D02*
X48855826Y5931229D01*
X50027255Y5331229D02*
X49827255Y5616943D01*
X49684398Y5331229D02*
X49684398Y5931229D01*
X49684398Y5931229D02*
X49912969Y5931229D01*
X49912969Y5931229D02*
X49970112Y5902658D01*
X49970112Y5902658D02*
X49998683Y5874086D01*
X49998683Y5874086D02*
X50027255Y5816943D01*
X50027255Y5816943D02*
X50027255Y5731229D01*
X50027255Y5731229D02*
X49998683Y5674086D01*
X49998683Y5674086D02*
X49970112Y5645515D01*
X49970112Y5645515D02*
X49912969Y5616943D01*
X49912969Y5616943D02*
X49684398Y5616943D01*
X50255826Y5874086D02*
X50284398Y5902658D01*
X50284398Y5902658D02*
X50341541Y5931229D01*
X50341541Y5931229D02*
X50484398Y5931229D01*
X50484398Y5931229D02*
X50541541Y5902658D01*
X50541541Y5902658D02*
X50570112Y5874086D01*
X50570112Y5874086D02*
X50598683Y5816943D01*
X50598683Y5816943D02*
X50598683Y5759800D01*
X50598683Y5759800D02*
X50570112Y5674086D01*
X50570112Y5674086D02*
X50227255Y5331229D01*
X50227255Y5331229D02*
X50598683Y5331229D01*
X29730826Y42081229D02*
X29930826Y41481229D01*
X29930826Y41481229D02*
X30130826Y42081229D01*
X30530827Y41795515D02*
X30616541Y41766943D01*
X30616541Y41766943D02*
X30645112Y41738372D01*
X30645112Y41738372D02*
X30673684Y41681229D01*
X30673684Y41681229D02*
X30673684Y41595515D01*
X30673684Y41595515D02*
X30645112Y41538372D01*
X30645112Y41538372D02*
X30616541Y41509800D01*
X30616541Y41509800D02*
X30559398Y41481229D01*
X30559398Y41481229D02*
X30330827Y41481229D01*
X30330827Y41481229D02*
X30330827Y42081229D01*
X30330827Y42081229D02*
X30530827Y42081229D01*
X30530827Y42081229D02*
X30587970Y42052658D01*
X30587970Y42052658D02*
X30616541Y42024086D01*
X30616541Y42024086D02*
X30645112Y41966943D01*
X30645112Y41966943D02*
X30645112Y41909800D01*
X30645112Y41909800D02*
X30616541Y41852658D01*
X30616541Y41852658D02*
X30587970Y41824086D01*
X30587970Y41824086D02*
X30530827Y41795515D01*
X30530827Y41795515D02*
X30330827Y41795515D01*
X30930827Y42081229D02*
X30930827Y41595515D01*
X30930827Y41595515D02*
X30959398Y41538372D01*
X30959398Y41538372D02*
X30987970Y41509800D01*
X30987970Y41509800D02*
X31045112Y41481229D01*
X31045112Y41481229D02*
X31159398Y41481229D01*
X31159398Y41481229D02*
X31216541Y41509800D01*
X31216541Y41509800D02*
X31245112Y41538372D01*
X31245112Y41538372D02*
X31273684Y41595515D01*
X31273684Y41595515D02*
X31273684Y42081229D01*
X31530826Y41509800D02*
X31616541Y41481229D01*
X31616541Y41481229D02*
X31759398Y41481229D01*
X31759398Y41481229D02*
X31816541Y41509800D01*
X31816541Y41509800D02*
X31845112Y41538372D01*
X31845112Y41538372D02*
X31873683Y41595515D01*
X31873683Y41595515D02*
X31873683Y41652658D01*
X31873683Y41652658D02*
X31845112Y41709800D01*
X31845112Y41709800D02*
X31816541Y41738372D01*
X31816541Y41738372D02*
X31759398Y41766943D01*
X31759398Y41766943D02*
X31645112Y41795515D01*
X31645112Y41795515D02*
X31587969Y41824086D01*
X31587969Y41824086D02*
X31559398Y41852658D01*
X31559398Y41852658D02*
X31530826Y41909800D01*
X31530826Y41909800D02*
X31530826Y41966943D01*
X31530826Y41966943D02*
X31559398Y42024086D01*
X31559398Y42024086D02*
X31587969Y42052658D01*
X31587969Y42052658D02*
X31645112Y42081229D01*
X31645112Y42081229D02*
X31787969Y42081229D01*
X31787969Y42081229D02*
X31873683Y42052658D01*
X56861628Y40884399D02*
X56890200Y40855827D01*
X56890200Y40855827D02*
X56918771Y40770113D01*
X56918771Y40770113D02*
X56918771Y40712970D01*
X56918771Y40712970D02*
X56890200Y40627256D01*
X56890200Y40627256D02*
X56833057Y40570113D01*
X56833057Y40570113D02*
X56775914Y40541542D01*
X56775914Y40541542D02*
X56661628Y40512970D01*
X56661628Y40512970D02*
X56575914Y40512970D01*
X56575914Y40512970D02*
X56461628Y40541542D01*
X56461628Y40541542D02*
X56404485Y40570113D01*
X56404485Y40570113D02*
X56347342Y40627256D01*
X56347342Y40627256D02*
X56318771Y40712970D01*
X56318771Y40712970D02*
X56318771Y40770113D01*
X56318771Y40770113D02*
X56347342Y40855827D01*
X56347342Y40855827D02*
X56375914Y40884399D01*
X56318771Y41055827D02*
X56318771Y41398684D01*
X56918771Y41227256D02*
X56318771Y41227256D01*
X56890200Y41570113D02*
X56918771Y41655827D01*
X56918771Y41655827D02*
X56918771Y41798685D01*
X56918771Y41798685D02*
X56890200Y41855827D01*
X56890200Y41855827D02*
X56861628Y41884399D01*
X56861628Y41884399D02*
X56804485Y41912970D01*
X56804485Y41912970D02*
X56747342Y41912970D01*
X56747342Y41912970D02*
X56690200Y41884399D01*
X56690200Y41884399D02*
X56661628Y41855827D01*
X56661628Y41855827D02*
X56633057Y41798685D01*
X56633057Y41798685D02*
X56604485Y41684399D01*
X56604485Y41684399D02*
X56575914Y41627256D01*
X56575914Y41627256D02*
X56547342Y41598685D01*
X56547342Y41598685D02*
X56490200Y41570113D01*
X56490200Y41570113D02*
X56433057Y41570113D01*
X56433057Y41570113D02*
X56375914Y41598685D01*
X56375914Y41598685D02*
X56347342Y41627256D01*
X56347342Y41627256D02*
X56318771Y41684399D01*
X56318771Y41684399D02*
X56318771Y41827256D01*
X56318771Y41827256D02*
X56347342Y41912970D01*
X39851541Y45631229D02*
X39851541Y46231229D01*
X39851541Y46231229D02*
X40051541Y45802658D01*
X40051541Y45802658D02*
X40251541Y46231229D01*
X40251541Y46231229D02*
X40251541Y45631229D01*
X40651540Y46231229D02*
X40765826Y46231229D01*
X40765826Y46231229D02*
X40822969Y46202658D01*
X40822969Y46202658D02*
X40880112Y46145515D01*
X40880112Y46145515D02*
X40908683Y46031229D01*
X40908683Y46031229D02*
X40908683Y45831229D01*
X40908683Y45831229D02*
X40880112Y45716943D01*
X40880112Y45716943D02*
X40822969Y45659800D01*
X40822969Y45659800D02*
X40765826Y45631229D01*
X40765826Y45631229D02*
X40651540Y45631229D01*
X40651540Y45631229D02*
X40594398Y45659800D01*
X40594398Y45659800D02*
X40537255Y45716943D01*
X40537255Y45716943D02*
X40508683Y45831229D01*
X40508683Y45831229D02*
X40508683Y46031229D01*
X40508683Y46031229D02*
X40537255Y46145515D01*
X40537255Y46145515D02*
X40594398Y46202658D01*
X40594398Y46202658D02*
X40651540Y46231229D01*
X41165826Y45631229D02*
X41165826Y46231229D01*
X41165826Y46231229D02*
X41308683Y46231229D01*
X41308683Y46231229D02*
X41394397Y46202658D01*
X41394397Y46202658D02*
X41451540Y46145515D01*
X41451540Y46145515D02*
X41480111Y46088372D01*
X41480111Y46088372D02*
X41508683Y45974086D01*
X41508683Y45974086D02*
X41508683Y45888372D01*
X41508683Y45888372D02*
X41480111Y45774086D01*
X41480111Y45774086D02*
X41451540Y45716943D01*
X41451540Y45716943D02*
X41394397Y45659800D01*
X41394397Y45659800D02*
X41308683Y45631229D01*
X41308683Y45631229D02*
X41165826Y45631229D01*
X4618771Y40784399D02*
X5218771Y41184399D01*
X4618771Y41184399D02*
X5218771Y40784399D01*
X49189285Y37737372D02*
X49160713Y37708800D01*
X49160713Y37708800D02*
X49074999Y37680229D01*
X49074999Y37680229D02*
X49017856Y37680229D01*
X49017856Y37680229D02*
X48932142Y37708800D01*
X48932142Y37708800D02*
X48874999Y37765943D01*
X48874999Y37765943D02*
X48846428Y37823086D01*
X48846428Y37823086D02*
X48817856Y37937372D01*
X48817856Y37937372D02*
X48817856Y38023086D01*
X48817856Y38023086D02*
X48846428Y38137372D01*
X48846428Y38137372D02*
X48874999Y38194515D01*
X48874999Y38194515D02*
X48932142Y38251658D01*
X48932142Y38251658D02*
X49017856Y38280229D01*
X49017856Y38280229D02*
X49074999Y38280229D01*
X49074999Y38280229D02*
X49160713Y38251658D01*
X49160713Y38251658D02*
X49189285Y38223086D01*
X49417856Y38223086D02*
X49446428Y38251658D01*
X49446428Y38251658D02*
X49503571Y38280229D01*
X49503571Y38280229D02*
X49646428Y38280229D01*
X49646428Y38280229D02*
X49703571Y38251658D01*
X49703571Y38251658D02*
X49732142Y38223086D01*
X49732142Y38223086D02*
X49760713Y38165943D01*
X49760713Y38165943D02*
X49760713Y38108800D01*
X49760713Y38108800D02*
X49732142Y38023086D01*
X49732142Y38023086D02*
X49389285Y37680229D01*
X49389285Y37680229D02*
X49760713Y37680229D01*
X50275000Y38080229D02*
X50275000Y37680229D01*
X50132142Y38308800D02*
X49989285Y37880229D01*
X49989285Y37880229D02*
X50360714Y37880229D01*
X25107143Y43755229D02*
X25107143Y44355229D01*
X25107143Y44355229D02*
X25250000Y44355229D01*
X25250000Y44355229D02*
X25335714Y44326658D01*
X25335714Y44326658D02*
X25392857Y44269515D01*
X25392857Y44269515D02*
X25421428Y44212372D01*
X25421428Y44212372D02*
X25450000Y44098086D01*
X25450000Y44098086D02*
X25450000Y44012372D01*
X25450000Y44012372D02*
X25421428Y43898086D01*
X25421428Y43898086D02*
X25392857Y43840943D01*
X25392857Y43840943D02*
X25335714Y43783800D01*
X25335714Y43783800D02*
X25250000Y43755229D01*
X25250000Y43755229D02*
X25107143Y43755229D01*
X25678571Y44298086D02*
X25707143Y44326658D01*
X25707143Y44326658D02*
X25764286Y44355229D01*
X25764286Y44355229D02*
X25907143Y44355229D01*
X25907143Y44355229D02*
X25964286Y44326658D01*
X25964286Y44326658D02*
X25992857Y44298086D01*
X25992857Y44298086D02*
X26021428Y44240943D01*
X26021428Y44240943D02*
X26021428Y44183800D01*
X26021428Y44183800D02*
X25992857Y44098086D01*
X25992857Y44098086D02*
X25650000Y43755229D01*
X25650000Y43755229D02*
X26021428Y43755229D01*
X58839285Y4730229D02*
X58839285Y4301658D01*
X58839285Y4301658D02*
X58810714Y4215943D01*
X58810714Y4215943D02*
X58753571Y4158800D01*
X58753571Y4158800D02*
X58667857Y4130229D01*
X58667857Y4130229D02*
X58610714Y4130229D01*
X59439285Y4130229D02*
X59096428Y4130229D01*
X59267857Y4130229D02*
X59267857Y4730229D01*
X59267857Y4730229D02*
X59210714Y4644515D01*
X59210714Y4644515D02*
X59153571Y4587372D01*
X59153571Y4587372D02*
X59096428Y4558800D01*
X59639286Y4730229D02*
X60039286Y4730229D01*
X60039286Y4730229D02*
X59782143Y4130229D01*
X21050000Y38812372D02*
X21021428Y38783800D01*
X21021428Y38783800D02*
X20935714Y38755229D01*
X20935714Y38755229D02*
X20878571Y38755229D01*
X20878571Y38755229D02*
X20792857Y38783800D01*
X20792857Y38783800D02*
X20735714Y38840943D01*
X20735714Y38840943D02*
X20707143Y38898086D01*
X20707143Y38898086D02*
X20678571Y39012372D01*
X20678571Y39012372D02*
X20678571Y39098086D01*
X20678571Y39098086D02*
X20707143Y39212372D01*
X20707143Y39212372D02*
X20735714Y39269515D01*
X20735714Y39269515D02*
X20792857Y39326658D01*
X20792857Y39326658D02*
X20878571Y39355229D01*
X20878571Y39355229D02*
X20935714Y39355229D01*
X20935714Y39355229D02*
X21021428Y39326658D01*
X21021428Y39326658D02*
X21050000Y39298086D01*
X21564286Y39355229D02*
X21450000Y39355229D01*
X21450000Y39355229D02*
X21392857Y39326658D01*
X21392857Y39326658D02*
X21364286Y39298086D01*
X21364286Y39298086D02*
X21307143Y39212372D01*
X21307143Y39212372D02*
X21278571Y39098086D01*
X21278571Y39098086D02*
X21278571Y38869515D01*
X21278571Y38869515D02*
X21307143Y38812372D01*
X21307143Y38812372D02*
X21335714Y38783800D01*
X21335714Y38783800D02*
X21392857Y38755229D01*
X21392857Y38755229D02*
X21507143Y38755229D01*
X21507143Y38755229D02*
X21564286Y38783800D01*
X21564286Y38783800D02*
X21592857Y38812372D01*
X21592857Y38812372D02*
X21621428Y38869515D01*
X21621428Y38869515D02*
X21621428Y39012372D01*
X21621428Y39012372D02*
X21592857Y39069515D01*
X21592857Y39069515D02*
X21564286Y39098086D01*
X21564286Y39098086D02*
X21507143Y39126658D01*
X21507143Y39126658D02*
X21392857Y39126658D01*
X21392857Y39126658D02*
X21335714Y39098086D01*
X21335714Y39098086D02*
X21307143Y39069515D01*
X21307143Y39069515D02*
X21278571Y39012372D01*
X37525000Y34205229D02*
X37239286Y34205229D01*
X37239286Y34205229D02*
X37239286Y34805229D01*
X37982143Y34605229D02*
X37982143Y34205229D01*
X37839285Y34833800D02*
X37696428Y34405229D01*
X37696428Y34405229D02*
X38067857Y34405229D01*
X21439285Y29505229D02*
X21239285Y29790943D01*
X21096428Y29505229D02*
X21096428Y30105229D01*
X21096428Y30105229D02*
X21324999Y30105229D01*
X21324999Y30105229D02*
X21382142Y30076658D01*
X21382142Y30076658D02*
X21410713Y30048086D01*
X21410713Y30048086D02*
X21439285Y29990943D01*
X21439285Y29990943D02*
X21439285Y29905229D01*
X21439285Y29905229D02*
X21410713Y29848086D01*
X21410713Y29848086D02*
X21382142Y29819515D01*
X21382142Y29819515D02*
X21324999Y29790943D01*
X21324999Y29790943D02*
X21096428Y29790943D01*
X22010713Y29505229D02*
X21667856Y29505229D01*
X21839285Y29505229D02*
X21839285Y30105229D01*
X21839285Y30105229D02*
X21782142Y30019515D01*
X21782142Y30019515D02*
X21724999Y29962372D01*
X21724999Y29962372D02*
X21667856Y29933800D01*
X22210714Y30105229D02*
X22582142Y30105229D01*
X22582142Y30105229D02*
X22382142Y29876658D01*
X22382142Y29876658D02*
X22467857Y29876658D01*
X22467857Y29876658D02*
X22525000Y29848086D01*
X22525000Y29848086D02*
X22553571Y29819515D01*
X22553571Y29819515D02*
X22582142Y29762372D01*
X22582142Y29762372D02*
X22582142Y29619515D01*
X22582142Y29619515D02*
X22553571Y29562372D01*
X22553571Y29562372D02*
X22525000Y29533800D01*
X22525000Y29533800D02*
X22467857Y29505229D01*
X22467857Y29505229D02*
X22296428Y29505229D01*
X22296428Y29505229D02*
X22239285Y29533800D01*
X22239285Y29533800D02*
X22210714Y29562372D01*
X43864285Y37737372D02*
X43835713Y37708800D01*
X43835713Y37708800D02*
X43749999Y37680229D01*
X43749999Y37680229D02*
X43692856Y37680229D01*
X43692856Y37680229D02*
X43607142Y37708800D01*
X43607142Y37708800D02*
X43549999Y37765943D01*
X43549999Y37765943D02*
X43521428Y37823086D01*
X43521428Y37823086D02*
X43492856Y37937372D01*
X43492856Y37937372D02*
X43492856Y38023086D01*
X43492856Y38023086D02*
X43521428Y38137372D01*
X43521428Y38137372D02*
X43549999Y38194515D01*
X43549999Y38194515D02*
X43607142Y38251658D01*
X43607142Y38251658D02*
X43692856Y38280229D01*
X43692856Y38280229D02*
X43749999Y38280229D01*
X43749999Y38280229D02*
X43835713Y38251658D01*
X43835713Y38251658D02*
X43864285Y38223086D01*
X44435713Y37680229D02*
X44092856Y37680229D01*
X44264285Y37680229D02*
X44264285Y38280229D01*
X44264285Y38280229D02*
X44207142Y38194515D01*
X44207142Y38194515D02*
X44149999Y38137372D01*
X44149999Y38137372D02*
X44092856Y38108800D01*
X44721428Y37680229D02*
X44835714Y37680229D01*
X44835714Y37680229D02*
X44892857Y37708800D01*
X44892857Y37708800D02*
X44921428Y37737372D01*
X44921428Y37737372D02*
X44978571Y37823086D01*
X44978571Y37823086D02*
X45007142Y37937372D01*
X45007142Y37937372D02*
X45007142Y38165943D01*
X45007142Y38165943D02*
X44978571Y38223086D01*
X44978571Y38223086D02*
X44950000Y38251658D01*
X44950000Y38251658D02*
X44892857Y38280229D01*
X44892857Y38280229D02*
X44778571Y38280229D01*
X44778571Y38280229D02*
X44721428Y38251658D01*
X44721428Y38251658D02*
X44692857Y38223086D01*
X44692857Y38223086D02*
X44664285Y38165943D01*
X44664285Y38165943D02*
X44664285Y38023086D01*
X44664285Y38023086D02*
X44692857Y37965943D01*
X44692857Y37965943D02*
X44721428Y37937372D01*
X44721428Y37937372D02*
X44778571Y37908800D01*
X44778571Y37908800D02*
X44892857Y37908800D01*
X44892857Y37908800D02*
X44950000Y37937372D01*
X44950000Y37937372D02*
X44978571Y37965943D01*
X44978571Y37965943D02*
X45007142Y38023086D01*
X34914285Y37737372D02*
X34885713Y37708800D01*
X34885713Y37708800D02*
X34799999Y37680229D01*
X34799999Y37680229D02*
X34742856Y37680229D01*
X34742856Y37680229D02*
X34657142Y37708800D01*
X34657142Y37708800D02*
X34599999Y37765943D01*
X34599999Y37765943D02*
X34571428Y37823086D01*
X34571428Y37823086D02*
X34542856Y37937372D01*
X34542856Y37937372D02*
X34542856Y38023086D01*
X34542856Y38023086D02*
X34571428Y38137372D01*
X34571428Y38137372D02*
X34599999Y38194515D01*
X34599999Y38194515D02*
X34657142Y38251658D01*
X34657142Y38251658D02*
X34742856Y38280229D01*
X34742856Y38280229D02*
X34799999Y38280229D01*
X34799999Y38280229D02*
X34885713Y38251658D01*
X34885713Y38251658D02*
X34914285Y38223086D01*
X35485713Y37680229D02*
X35142856Y37680229D01*
X35314285Y37680229D02*
X35314285Y38280229D01*
X35314285Y38280229D02*
X35257142Y38194515D01*
X35257142Y38194515D02*
X35199999Y38137372D01*
X35199999Y38137372D02*
X35142856Y38108800D01*
X36000000Y38280229D02*
X35885714Y38280229D01*
X35885714Y38280229D02*
X35828571Y38251658D01*
X35828571Y38251658D02*
X35800000Y38223086D01*
X35800000Y38223086D02*
X35742857Y38137372D01*
X35742857Y38137372D02*
X35714285Y38023086D01*
X35714285Y38023086D02*
X35714285Y37794515D01*
X35714285Y37794515D02*
X35742857Y37737372D01*
X35742857Y37737372D02*
X35771428Y37708800D01*
X35771428Y37708800D02*
X35828571Y37680229D01*
X35828571Y37680229D02*
X35942857Y37680229D01*
X35942857Y37680229D02*
X36000000Y37708800D01*
X36000000Y37708800D02*
X36028571Y37737372D01*
X36028571Y37737372D02*
X36057142Y37794515D01*
X36057142Y37794515D02*
X36057142Y37937372D01*
X36057142Y37937372D02*
X36028571Y37994515D01*
X36028571Y37994515D02*
X36000000Y38023086D01*
X36000000Y38023086D02*
X35942857Y38051658D01*
X35942857Y38051658D02*
X35828571Y38051658D01*
X35828571Y38051658D02*
X35771428Y38023086D01*
X35771428Y38023086D02*
X35742857Y37994515D01*
X35742857Y37994515D02*
X35714285Y37937372D01*
X18764285Y47230229D02*
X18564285Y47515943D01*
X18421428Y47230229D02*
X18421428Y47830229D01*
X18421428Y47830229D02*
X18649999Y47830229D01*
X18649999Y47830229D02*
X18707142Y47801658D01*
X18707142Y47801658D02*
X18735713Y47773086D01*
X18735713Y47773086D02*
X18764285Y47715943D01*
X18764285Y47715943D02*
X18764285Y47630229D01*
X18764285Y47630229D02*
X18735713Y47573086D01*
X18735713Y47573086D02*
X18707142Y47544515D01*
X18707142Y47544515D02*
X18649999Y47515943D01*
X18649999Y47515943D02*
X18421428Y47515943D01*
X18964285Y47830229D02*
X19335713Y47830229D01*
X19335713Y47830229D02*
X19135713Y47601658D01*
X19135713Y47601658D02*
X19221428Y47601658D01*
X19221428Y47601658D02*
X19278571Y47573086D01*
X19278571Y47573086D02*
X19307142Y47544515D01*
X19307142Y47544515D02*
X19335713Y47487372D01*
X19335713Y47487372D02*
X19335713Y47344515D01*
X19335713Y47344515D02*
X19307142Y47287372D01*
X19307142Y47287372D02*
X19278571Y47258800D01*
X19278571Y47258800D02*
X19221428Y47230229D01*
X19221428Y47230229D02*
X19049999Y47230229D01*
X19049999Y47230229D02*
X18992856Y47258800D01*
X18992856Y47258800D02*
X18964285Y47287372D01*
X19878571Y47830229D02*
X19592857Y47830229D01*
X19592857Y47830229D02*
X19564285Y47544515D01*
X19564285Y47544515D02*
X19592857Y47573086D01*
X19592857Y47573086D02*
X19650000Y47601658D01*
X19650000Y47601658D02*
X19792857Y47601658D01*
X19792857Y47601658D02*
X19850000Y47573086D01*
X19850000Y47573086D02*
X19878571Y47544515D01*
X19878571Y47544515D02*
X19907142Y47487372D01*
X19907142Y47487372D02*
X19907142Y47344515D01*
X19907142Y47344515D02*
X19878571Y47287372D01*
X19878571Y47287372D02*
X19850000Y47258800D01*
X19850000Y47258800D02*
X19792857Y47230229D01*
X19792857Y47230229D02*
X19650000Y47230229D01*
X19650000Y47230229D02*
X19592857Y47258800D01*
X19592857Y47258800D02*
X19564285Y47287372D01*
X34889285Y38812372D02*
X34860713Y38783800D01*
X34860713Y38783800D02*
X34774999Y38755229D01*
X34774999Y38755229D02*
X34717856Y38755229D01*
X34717856Y38755229D02*
X34632142Y38783800D01*
X34632142Y38783800D02*
X34574999Y38840943D01*
X34574999Y38840943D02*
X34546428Y38898086D01*
X34546428Y38898086D02*
X34517856Y39012372D01*
X34517856Y39012372D02*
X34517856Y39098086D01*
X34517856Y39098086D02*
X34546428Y39212372D01*
X34546428Y39212372D02*
X34574999Y39269515D01*
X34574999Y39269515D02*
X34632142Y39326658D01*
X34632142Y39326658D02*
X34717856Y39355229D01*
X34717856Y39355229D02*
X34774999Y39355229D01*
X34774999Y39355229D02*
X34860713Y39326658D01*
X34860713Y39326658D02*
X34889285Y39298086D01*
X35460713Y38755229D02*
X35117856Y38755229D01*
X35289285Y38755229D02*
X35289285Y39355229D01*
X35289285Y39355229D02*
X35232142Y39269515D01*
X35232142Y39269515D02*
X35174999Y39212372D01*
X35174999Y39212372D02*
X35117856Y39183800D01*
X36003571Y39355229D02*
X35717857Y39355229D01*
X35717857Y39355229D02*
X35689285Y39069515D01*
X35689285Y39069515D02*
X35717857Y39098086D01*
X35717857Y39098086D02*
X35775000Y39126658D01*
X35775000Y39126658D02*
X35917857Y39126658D01*
X35917857Y39126658D02*
X35975000Y39098086D01*
X35975000Y39098086D02*
X36003571Y39069515D01*
X36003571Y39069515D02*
X36032142Y39012372D01*
X36032142Y39012372D02*
X36032142Y38869515D01*
X36032142Y38869515D02*
X36003571Y38812372D01*
X36003571Y38812372D02*
X35975000Y38783800D01*
X35975000Y38783800D02*
X35917857Y38755229D01*
X35917857Y38755229D02*
X35775000Y38755229D01*
X35775000Y38755229D02*
X35717857Y38783800D01*
X35717857Y38783800D02*
X35689285Y38812372D01*
X23450000Y29505229D02*
X23250000Y29790943D01*
X23107143Y29505229D02*
X23107143Y30105229D01*
X23107143Y30105229D02*
X23335714Y30105229D01*
X23335714Y30105229D02*
X23392857Y30076658D01*
X23392857Y30076658D02*
X23421428Y30048086D01*
X23421428Y30048086D02*
X23450000Y29990943D01*
X23450000Y29990943D02*
X23450000Y29905229D01*
X23450000Y29905229D02*
X23421428Y29848086D01*
X23421428Y29848086D02*
X23392857Y29819515D01*
X23392857Y29819515D02*
X23335714Y29790943D01*
X23335714Y29790943D02*
X23107143Y29790943D01*
X23735714Y29505229D02*
X23850000Y29505229D01*
X23850000Y29505229D02*
X23907143Y29533800D01*
X23907143Y29533800D02*
X23935714Y29562372D01*
X23935714Y29562372D02*
X23992857Y29648086D01*
X23992857Y29648086D02*
X24021428Y29762372D01*
X24021428Y29762372D02*
X24021428Y29990943D01*
X24021428Y29990943D02*
X23992857Y30048086D01*
X23992857Y30048086D02*
X23964286Y30076658D01*
X23964286Y30076658D02*
X23907143Y30105229D01*
X23907143Y30105229D02*
X23792857Y30105229D01*
X23792857Y30105229D02*
X23735714Y30076658D01*
X23735714Y30076658D02*
X23707143Y30048086D01*
X23707143Y30048086D02*
X23678571Y29990943D01*
X23678571Y29990943D02*
X23678571Y29848086D01*
X23678571Y29848086D02*
X23707143Y29790943D01*
X23707143Y29790943D02*
X23735714Y29762372D01*
X23735714Y29762372D02*
X23792857Y29733800D01*
X23792857Y29733800D02*
X23907143Y29733800D01*
X23907143Y29733800D02*
X23964286Y29762372D01*
X23964286Y29762372D02*
X23992857Y29790943D01*
X23992857Y29790943D02*
X24021428Y29848086D01*
X30614285Y29180229D02*
X30414285Y29465943D01*
X30271428Y29180229D02*
X30271428Y29780229D01*
X30271428Y29780229D02*
X30499999Y29780229D01*
X30499999Y29780229D02*
X30557142Y29751658D01*
X30557142Y29751658D02*
X30585713Y29723086D01*
X30585713Y29723086D02*
X30614285Y29665943D01*
X30614285Y29665943D02*
X30614285Y29580229D01*
X30614285Y29580229D02*
X30585713Y29523086D01*
X30585713Y29523086D02*
X30557142Y29494515D01*
X30557142Y29494515D02*
X30499999Y29465943D01*
X30499999Y29465943D02*
X30271428Y29465943D01*
X30842856Y29723086D02*
X30871428Y29751658D01*
X30871428Y29751658D02*
X30928571Y29780229D01*
X30928571Y29780229D02*
X31071428Y29780229D01*
X31071428Y29780229D02*
X31128571Y29751658D01*
X31128571Y29751658D02*
X31157142Y29723086D01*
X31157142Y29723086D02*
X31185713Y29665943D01*
X31185713Y29665943D02*
X31185713Y29608800D01*
X31185713Y29608800D02*
X31157142Y29523086D01*
X31157142Y29523086D02*
X30814285Y29180229D01*
X30814285Y29180229D02*
X31185713Y29180229D01*
X31385714Y29780229D02*
X31757142Y29780229D01*
X31757142Y29780229D02*
X31557142Y29551658D01*
X31557142Y29551658D02*
X31642857Y29551658D01*
X31642857Y29551658D02*
X31700000Y29523086D01*
X31700000Y29523086D02*
X31728571Y29494515D01*
X31728571Y29494515D02*
X31757142Y29437372D01*
X31757142Y29437372D02*
X31757142Y29294515D01*
X31757142Y29294515D02*
X31728571Y29237372D01*
X31728571Y29237372D02*
X31700000Y29208800D01*
X31700000Y29208800D02*
X31642857Y29180229D01*
X31642857Y29180229D02*
X31471428Y29180229D01*
X31471428Y29180229D02*
X31414285Y29208800D01*
X31414285Y29208800D02*
X31385714Y29237372D01*
X16539285Y44987372D02*
X16510713Y44958800D01*
X16510713Y44958800D02*
X16424999Y44930229D01*
X16424999Y44930229D02*
X16367856Y44930229D01*
X16367856Y44930229D02*
X16282142Y44958800D01*
X16282142Y44958800D02*
X16224999Y45015943D01*
X16224999Y45015943D02*
X16196428Y45073086D01*
X16196428Y45073086D02*
X16167856Y45187372D01*
X16167856Y45187372D02*
X16167856Y45273086D01*
X16167856Y45273086D02*
X16196428Y45387372D01*
X16196428Y45387372D02*
X16224999Y45444515D01*
X16224999Y45444515D02*
X16282142Y45501658D01*
X16282142Y45501658D02*
X16367856Y45530229D01*
X16367856Y45530229D02*
X16424999Y45530229D01*
X16424999Y45530229D02*
X16510713Y45501658D01*
X16510713Y45501658D02*
X16539285Y45473086D01*
X16739285Y45530229D02*
X17110713Y45530229D01*
X17110713Y45530229D02*
X16910713Y45301658D01*
X16910713Y45301658D02*
X16996428Y45301658D01*
X16996428Y45301658D02*
X17053571Y45273086D01*
X17053571Y45273086D02*
X17082142Y45244515D01*
X17082142Y45244515D02*
X17110713Y45187372D01*
X17110713Y45187372D02*
X17110713Y45044515D01*
X17110713Y45044515D02*
X17082142Y44987372D01*
X17082142Y44987372D02*
X17053571Y44958800D01*
X17053571Y44958800D02*
X16996428Y44930229D01*
X16996428Y44930229D02*
X16824999Y44930229D01*
X16824999Y44930229D02*
X16767856Y44958800D01*
X16767856Y44958800D02*
X16739285Y44987372D01*
X17339285Y45473086D02*
X17367857Y45501658D01*
X17367857Y45501658D02*
X17425000Y45530229D01*
X17425000Y45530229D02*
X17567857Y45530229D01*
X17567857Y45530229D02*
X17625000Y45501658D01*
X17625000Y45501658D02*
X17653571Y45473086D01*
X17653571Y45473086D02*
X17682142Y45415943D01*
X17682142Y45415943D02*
X17682142Y45358800D01*
X17682142Y45358800D02*
X17653571Y45273086D01*
X17653571Y45273086D02*
X17310714Y44930229D01*
X17310714Y44930229D02*
X17682142Y44930229D01*
X50014285Y29205229D02*
X49814285Y29490943D01*
X49671428Y29205229D02*
X49671428Y29805229D01*
X49671428Y29805229D02*
X49899999Y29805229D01*
X49899999Y29805229D02*
X49957142Y29776658D01*
X49957142Y29776658D02*
X49985713Y29748086D01*
X49985713Y29748086D02*
X50014285Y29690943D01*
X50014285Y29690943D02*
X50014285Y29605229D01*
X50014285Y29605229D02*
X49985713Y29548086D01*
X49985713Y29548086D02*
X49957142Y29519515D01*
X49957142Y29519515D02*
X49899999Y29490943D01*
X49899999Y29490943D02*
X49671428Y29490943D01*
X50214285Y29805229D02*
X50585713Y29805229D01*
X50585713Y29805229D02*
X50385713Y29576658D01*
X50385713Y29576658D02*
X50471428Y29576658D01*
X50471428Y29576658D02*
X50528571Y29548086D01*
X50528571Y29548086D02*
X50557142Y29519515D01*
X50557142Y29519515D02*
X50585713Y29462372D01*
X50585713Y29462372D02*
X50585713Y29319515D01*
X50585713Y29319515D02*
X50557142Y29262372D01*
X50557142Y29262372D02*
X50528571Y29233800D01*
X50528571Y29233800D02*
X50471428Y29205229D01*
X50471428Y29205229D02*
X50299999Y29205229D01*
X50299999Y29205229D02*
X50242856Y29233800D01*
X50242856Y29233800D02*
X50214285Y29262372D01*
X50785714Y29805229D02*
X51157142Y29805229D01*
X51157142Y29805229D02*
X50957142Y29576658D01*
X50957142Y29576658D02*
X51042857Y29576658D01*
X51042857Y29576658D02*
X51100000Y29548086D01*
X51100000Y29548086D02*
X51128571Y29519515D01*
X51128571Y29519515D02*
X51157142Y29462372D01*
X51157142Y29462372D02*
X51157142Y29319515D01*
X51157142Y29319515D02*
X51128571Y29262372D01*
X51128571Y29262372D02*
X51100000Y29233800D01*
X51100000Y29233800D02*
X51042857Y29205229D01*
X51042857Y29205229D02*
X50871428Y29205229D01*
X50871428Y29205229D02*
X50814285Y29233800D01*
X50814285Y29233800D02*
X50785714Y29262372D01*
X25139285Y34462372D02*
X25110713Y34433800D01*
X25110713Y34433800D02*
X25024999Y34405229D01*
X25024999Y34405229D02*
X24967856Y34405229D01*
X24967856Y34405229D02*
X24882142Y34433800D01*
X24882142Y34433800D02*
X24824999Y34490943D01*
X24824999Y34490943D02*
X24796428Y34548086D01*
X24796428Y34548086D02*
X24767856Y34662372D01*
X24767856Y34662372D02*
X24767856Y34748086D01*
X24767856Y34748086D02*
X24796428Y34862372D01*
X24796428Y34862372D02*
X24824999Y34919515D01*
X24824999Y34919515D02*
X24882142Y34976658D01*
X24882142Y34976658D02*
X24967856Y35005229D01*
X24967856Y35005229D02*
X25024999Y35005229D01*
X25024999Y35005229D02*
X25110713Y34976658D01*
X25110713Y34976658D02*
X25139285Y34948086D01*
X25710713Y34405229D02*
X25367856Y34405229D01*
X25539285Y34405229D02*
X25539285Y35005229D01*
X25539285Y35005229D02*
X25482142Y34919515D01*
X25482142Y34919515D02*
X25424999Y34862372D01*
X25424999Y34862372D02*
X25367856Y34833800D01*
X25910714Y35005229D02*
X26310714Y35005229D01*
X26310714Y35005229D02*
X26053571Y34405229D01*
X41875000Y34405229D02*
X41589286Y34405229D01*
X41589286Y34405229D02*
X41589286Y35005229D01*
X42360714Y35005229D02*
X42075000Y35005229D01*
X42075000Y35005229D02*
X42046428Y34719515D01*
X42046428Y34719515D02*
X42075000Y34748086D01*
X42075000Y34748086D02*
X42132143Y34776658D01*
X42132143Y34776658D02*
X42275000Y34776658D01*
X42275000Y34776658D02*
X42332143Y34748086D01*
X42332143Y34748086D02*
X42360714Y34719515D01*
X42360714Y34719515D02*
X42389285Y34662372D01*
X42389285Y34662372D02*
X42389285Y34519515D01*
X42389285Y34519515D02*
X42360714Y34462372D01*
X42360714Y34462372D02*
X42332143Y34433800D01*
X42332143Y34433800D02*
X42275000Y34405229D01*
X42275000Y34405229D02*
X42132143Y34405229D01*
X42132143Y34405229D02*
X42075000Y34433800D01*
X42075000Y34433800D02*
X42046428Y34462372D01*
X32014285Y5530229D02*
X32014285Y5101658D01*
X32014285Y5101658D02*
X31985714Y5015943D01*
X31985714Y5015943D02*
X31928571Y4958800D01*
X31928571Y4958800D02*
X31842857Y4930229D01*
X31842857Y4930229D02*
X31785714Y4930229D01*
X32271428Y5473086D02*
X32300000Y5501658D01*
X32300000Y5501658D02*
X32357143Y5530229D01*
X32357143Y5530229D02*
X32500000Y5530229D01*
X32500000Y5530229D02*
X32557143Y5501658D01*
X32557143Y5501658D02*
X32585714Y5473086D01*
X32585714Y5473086D02*
X32614285Y5415943D01*
X32614285Y5415943D02*
X32614285Y5358800D01*
X32614285Y5358800D02*
X32585714Y5273086D01*
X32585714Y5273086D02*
X32242857Y4930229D01*
X32242857Y4930229D02*
X32614285Y4930229D01*
X33128572Y5330229D02*
X33128572Y4930229D01*
X32985714Y5558800D02*
X32842857Y5130229D01*
X32842857Y5130229D02*
X33214286Y5130229D01*
X34364285Y29170229D02*
X34164285Y29455943D01*
X34021428Y29170229D02*
X34021428Y29770229D01*
X34021428Y29770229D02*
X34249999Y29770229D01*
X34249999Y29770229D02*
X34307142Y29741658D01*
X34307142Y29741658D02*
X34335713Y29713086D01*
X34335713Y29713086D02*
X34364285Y29655943D01*
X34364285Y29655943D02*
X34364285Y29570229D01*
X34364285Y29570229D02*
X34335713Y29513086D01*
X34335713Y29513086D02*
X34307142Y29484515D01*
X34307142Y29484515D02*
X34249999Y29455943D01*
X34249999Y29455943D02*
X34021428Y29455943D01*
X34592856Y29713086D02*
X34621428Y29741658D01*
X34621428Y29741658D02*
X34678571Y29770229D01*
X34678571Y29770229D02*
X34821428Y29770229D01*
X34821428Y29770229D02*
X34878571Y29741658D01*
X34878571Y29741658D02*
X34907142Y29713086D01*
X34907142Y29713086D02*
X34935713Y29655943D01*
X34935713Y29655943D02*
X34935713Y29598800D01*
X34935713Y29598800D02*
X34907142Y29513086D01*
X34907142Y29513086D02*
X34564285Y29170229D01*
X34564285Y29170229D02*
X34935713Y29170229D01*
X35164285Y29713086D02*
X35192857Y29741658D01*
X35192857Y29741658D02*
X35250000Y29770229D01*
X35250000Y29770229D02*
X35392857Y29770229D01*
X35392857Y29770229D02*
X35450000Y29741658D01*
X35450000Y29741658D02*
X35478571Y29713086D01*
X35478571Y29713086D02*
X35507142Y29655943D01*
X35507142Y29655943D02*
X35507142Y29598800D01*
X35507142Y29598800D02*
X35478571Y29513086D01*
X35478571Y29513086D02*
X35135714Y29170229D01*
X35135714Y29170229D02*
X35507142Y29170229D01*
X24299999Y47780229D02*
X24299999Y47351658D01*
X24299999Y47351658D02*
X24271428Y47265943D01*
X24271428Y47265943D02*
X24214285Y47208800D01*
X24214285Y47208800D02*
X24128571Y47180229D01*
X24128571Y47180229D02*
X24071428Y47180229D01*
X24557142Y47723086D02*
X24585714Y47751658D01*
X24585714Y47751658D02*
X24642857Y47780229D01*
X24642857Y47780229D02*
X24785714Y47780229D01*
X24785714Y47780229D02*
X24842857Y47751658D01*
X24842857Y47751658D02*
X24871428Y47723086D01*
X24871428Y47723086D02*
X24899999Y47665943D01*
X24899999Y47665943D02*
X24899999Y47608800D01*
X24899999Y47608800D02*
X24871428Y47523086D01*
X24871428Y47523086D02*
X24528571Y47180229D01*
X24528571Y47180229D02*
X24899999Y47180229D01*
X5399999Y47880229D02*
X5399999Y47451658D01*
X5399999Y47451658D02*
X5371428Y47365943D01*
X5371428Y47365943D02*
X5314285Y47308800D01*
X5314285Y47308800D02*
X5228571Y47280229D01*
X5228571Y47280229D02*
X5171428Y47280229D01*
X5714285Y47280229D02*
X5828571Y47280229D01*
X5828571Y47280229D02*
X5885714Y47308800D01*
X5885714Y47308800D02*
X5914285Y47337372D01*
X5914285Y47337372D02*
X5971428Y47423086D01*
X5971428Y47423086D02*
X5999999Y47537372D01*
X5999999Y47537372D02*
X5999999Y47765943D01*
X5999999Y47765943D02*
X5971428Y47823086D01*
X5971428Y47823086D02*
X5942857Y47851658D01*
X5942857Y47851658D02*
X5885714Y47880229D01*
X5885714Y47880229D02*
X5771428Y47880229D01*
X5771428Y47880229D02*
X5714285Y47851658D01*
X5714285Y47851658D02*
X5685714Y47823086D01*
X5685714Y47823086D02*
X5657142Y47765943D01*
X5657142Y47765943D02*
X5657142Y47623086D01*
X5657142Y47623086D02*
X5685714Y47565943D01*
X5685714Y47565943D02*
X5714285Y47537372D01*
X5714285Y47537372D02*
X5771428Y47508800D01*
X5771428Y47508800D02*
X5885714Y47508800D01*
X5885714Y47508800D02*
X5942857Y47537372D01*
X5942857Y47537372D02*
X5971428Y47565943D01*
X5971428Y47565943D02*
X5999999Y47623086D01*
X38864285Y29205229D02*
X38664285Y29490943D01*
X38521428Y29205229D02*
X38521428Y29805229D01*
X38521428Y29805229D02*
X38749999Y29805229D01*
X38749999Y29805229D02*
X38807142Y29776658D01*
X38807142Y29776658D02*
X38835713Y29748086D01*
X38835713Y29748086D02*
X38864285Y29690943D01*
X38864285Y29690943D02*
X38864285Y29605229D01*
X38864285Y29605229D02*
X38835713Y29548086D01*
X38835713Y29548086D02*
X38807142Y29519515D01*
X38807142Y29519515D02*
X38749999Y29490943D01*
X38749999Y29490943D02*
X38521428Y29490943D01*
X39064285Y29805229D02*
X39435713Y29805229D01*
X39435713Y29805229D02*
X39235713Y29576658D01*
X39235713Y29576658D02*
X39321428Y29576658D01*
X39321428Y29576658D02*
X39378571Y29548086D01*
X39378571Y29548086D02*
X39407142Y29519515D01*
X39407142Y29519515D02*
X39435713Y29462372D01*
X39435713Y29462372D02*
X39435713Y29319515D01*
X39435713Y29319515D02*
X39407142Y29262372D01*
X39407142Y29262372D02*
X39378571Y29233800D01*
X39378571Y29233800D02*
X39321428Y29205229D01*
X39321428Y29205229D02*
X39149999Y29205229D01*
X39149999Y29205229D02*
X39092856Y29233800D01*
X39092856Y29233800D02*
X39064285Y29262372D01*
X39664285Y29748086D02*
X39692857Y29776658D01*
X39692857Y29776658D02*
X39750000Y29805229D01*
X39750000Y29805229D02*
X39892857Y29805229D01*
X39892857Y29805229D02*
X39950000Y29776658D01*
X39950000Y29776658D02*
X39978571Y29748086D01*
X39978571Y29748086D02*
X40007142Y29690943D01*
X40007142Y29690943D02*
X40007142Y29633800D01*
X40007142Y29633800D02*
X39978571Y29548086D01*
X39978571Y29548086D02*
X39635714Y29205229D01*
X39635714Y29205229D02*
X40007142Y29205229D01*
X15800000Y29505229D02*
X15600000Y29790943D01*
X15457143Y29505229D02*
X15457143Y30105229D01*
X15457143Y30105229D02*
X15685714Y30105229D01*
X15685714Y30105229D02*
X15742857Y30076658D01*
X15742857Y30076658D02*
X15771428Y30048086D01*
X15771428Y30048086D02*
X15800000Y29990943D01*
X15800000Y29990943D02*
X15800000Y29905229D01*
X15800000Y29905229D02*
X15771428Y29848086D01*
X15771428Y29848086D02*
X15742857Y29819515D01*
X15742857Y29819515D02*
X15685714Y29790943D01*
X15685714Y29790943D02*
X15457143Y29790943D01*
X16000000Y30105229D02*
X16400000Y30105229D01*
X16400000Y30105229D02*
X16142857Y29505229D01*
X29614285Y37737372D02*
X29585713Y37708800D01*
X29585713Y37708800D02*
X29499999Y37680229D01*
X29499999Y37680229D02*
X29442856Y37680229D01*
X29442856Y37680229D02*
X29357142Y37708800D01*
X29357142Y37708800D02*
X29299999Y37765943D01*
X29299999Y37765943D02*
X29271428Y37823086D01*
X29271428Y37823086D02*
X29242856Y37937372D01*
X29242856Y37937372D02*
X29242856Y38023086D01*
X29242856Y38023086D02*
X29271428Y38137372D01*
X29271428Y38137372D02*
X29299999Y38194515D01*
X29299999Y38194515D02*
X29357142Y38251658D01*
X29357142Y38251658D02*
X29442856Y38280229D01*
X29442856Y38280229D02*
X29499999Y38280229D01*
X29499999Y38280229D02*
X29585713Y38251658D01*
X29585713Y38251658D02*
X29614285Y38223086D01*
X30185713Y37680229D02*
X29842856Y37680229D01*
X30014285Y37680229D02*
X30014285Y38280229D01*
X30014285Y38280229D02*
X29957142Y38194515D01*
X29957142Y38194515D02*
X29899999Y38137372D01*
X29899999Y38137372D02*
X29842856Y38108800D01*
X30757142Y37680229D02*
X30414285Y37680229D01*
X30585714Y37680229D02*
X30585714Y38280229D01*
X30585714Y38280229D02*
X30528571Y38194515D01*
X30528571Y38194515D02*
X30471428Y38137372D01*
X30471428Y38137372D02*
X30414285Y38108800D01*
X40864285Y29205229D02*
X40664285Y29490943D01*
X40521428Y29205229D02*
X40521428Y29805229D01*
X40521428Y29805229D02*
X40749999Y29805229D01*
X40749999Y29805229D02*
X40807142Y29776658D01*
X40807142Y29776658D02*
X40835713Y29748086D01*
X40835713Y29748086D02*
X40864285Y29690943D01*
X40864285Y29690943D02*
X40864285Y29605229D01*
X40864285Y29605229D02*
X40835713Y29548086D01*
X40835713Y29548086D02*
X40807142Y29519515D01*
X40807142Y29519515D02*
X40749999Y29490943D01*
X40749999Y29490943D02*
X40521428Y29490943D01*
X41064285Y29805229D02*
X41435713Y29805229D01*
X41435713Y29805229D02*
X41235713Y29576658D01*
X41235713Y29576658D02*
X41321428Y29576658D01*
X41321428Y29576658D02*
X41378571Y29548086D01*
X41378571Y29548086D02*
X41407142Y29519515D01*
X41407142Y29519515D02*
X41435713Y29462372D01*
X41435713Y29462372D02*
X41435713Y29319515D01*
X41435713Y29319515D02*
X41407142Y29262372D01*
X41407142Y29262372D02*
X41378571Y29233800D01*
X41378571Y29233800D02*
X41321428Y29205229D01*
X41321428Y29205229D02*
X41149999Y29205229D01*
X41149999Y29205229D02*
X41092856Y29233800D01*
X41092856Y29233800D02*
X41064285Y29262372D01*
X41807142Y29805229D02*
X41864285Y29805229D01*
X41864285Y29805229D02*
X41921428Y29776658D01*
X41921428Y29776658D02*
X41950000Y29748086D01*
X41950000Y29748086D02*
X41978571Y29690943D01*
X41978571Y29690943D02*
X42007142Y29576658D01*
X42007142Y29576658D02*
X42007142Y29433800D01*
X42007142Y29433800D02*
X41978571Y29319515D01*
X41978571Y29319515D02*
X41950000Y29262372D01*
X41950000Y29262372D02*
X41921428Y29233800D01*
X41921428Y29233800D02*
X41864285Y29205229D01*
X41864285Y29205229D02*
X41807142Y29205229D01*
X41807142Y29205229D02*
X41750000Y29233800D01*
X41750000Y29233800D02*
X41721428Y29262372D01*
X41721428Y29262372D02*
X41692857Y29319515D01*
X41692857Y29319515D02*
X41664285Y29433800D01*
X41664285Y29433800D02*
X41664285Y29576658D01*
X41664285Y29576658D02*
X41692857Y29690943D01*
X41692857Y29690943D02*
X41721428Y29748086D01*
X41721428Y29748086D02*
X41750000Y29776658D01*
X41750000Y29776658D02*
X41807142Y29805229D01*
X27225000Y34405229D02*
X26939286Y34405229D01*
X26939286Y34405229D02*
X26939286Y35005229D01*
X27367857Y35005229D02*
X27739285Y35005229D01*
X27739285Y35005229D02*
X27539285Y34776658D01*
X27539285Y34776658D02*
X27625000Y34776658D01*
X27625000Y34776658D02*
X27682143Y34748086D01*
X27682143Y34748086D02*
X27710714Y34719515D01*
X27710714Y34719515D02*
X27739285Y34662372D01*
X27739285Y34662372D02*
X27739285Y34519515D01*
X27739285Y34519515D02*
X27710714Y34462372D01*
X27710714Y34462372D02*
X27682143Y34433800D01*
X27682143Y34433800D02*
X27625000Y34405229D01*
X27625000Y34405229D02*
X27453571Y34405229D01*
X27453571Y34405229D02*
X27396428Y34433800D01*
X27396428Y34433800D02*
X27367857Y34462372D01*
X14999999Y4730229D02*
X14999999Y4301658D01*
X14999999Y4301658D02*
X14971428Y4215943D01*
X14971428Y4215943D02*
X14914285Y4158800D01*
X14914285Y4158800D02*
X14828571Y4130229D01*
X14828571Y4130229D02*
X14771428Y4130229D01*
X15542857Y4730229D02*
X15428571Y4730229D01*
X15428571Y4730229D02*
X15371428Y4701658D01*
X15371428Y4701658D02*
X15342857Y4673086D01*
X15342857Y4673086D02*
X15285714Y4587372D01*
X15285714Y4587372D02*
X15257142Y4473086D01*
X15257142Y4473086D02*
X15257142Y4244515D01*
X15257142Y4244515D02*
X15285714Y4187372D01*
X15285714Y4187372D02*
X15314285Y4158800D01*
X15314285Y4158800D02*
X15371428Y4130229D01*
X15371428Y4130229D02*
X15485714Y4130229D01*
X15485714Y4130229D02*
X15542857Y4158800D01*
X15542857Y4158800D02*
X15571428Y4187372D01*
X15571428Y4187372D02*
X15599999Y4244515D01*
X15599999Y4244515D02*
X15599999Y4387372D01*
X15599999Y4387372D02*
X15571428Y4444515D01*
X15571428Y4444515D02*
X15542857Y4473086D01*
X15542857Y4473086D02*
X15485714Y4501658D01*
X15485714Y4501658D02*
X15371428Y4501658D01*
X15371428Y4501658D02*
X15314285Y4473086D01*
X15314285Y4473086D02*
X15285714Y4444515D01*
X15285714Y4444515D02*
X15257142Y4387372D01*
X43889285Y39827372D02*
X43860713Y39798800D01*
X43860713Y39798800D02*
X43774999Y39770229D01*
X43774999Y39770229D02*
X43717856Y39770229D01*
X43717856Y39770229D02*
X43632142Y39798800D01*
X43632142Y39798800D02*
X43574999Y39855943D01*
X43574999Y39855943D02*
X43546428Y39913086D01*
X43546428Y39913086D02*
X43517856Y40027372D01*
X43517856Y40027372D02*
X43517856Y40113086D01*
X43517856Y40113086D02*
X43546428Y40227372D01*
X43546428Y40227372D02*
X43574999Y40284515D01*
X43574999Y40284515D02*
X43632142Y40341658D01*
X43632142Y40341658D02*
X43717856Y40370229D01*
X43717856Y40370229D02*
X43774999Y40370229D01*
X43774999Y40370229D02*
X43860713Y40341658D01*
X43860713Y40341658D02*
X43889285Y40313086D01*
X44117856Y40313086D02*
X44146428Y40341658D01*
X44146428Y40341658D02*
X44203571Y40370229D01*
X44203571Y40370229D02*
X44346428Y40370229D01*
X44346428Y40370229D02*
X44403571Y40341658D01*
X44403571Y40341658D02*
X44432142Y40313086D01*
X44432142Y40313086D02*
X44460713Y40255943D01*
X44460713Y40255943D02*
X44460713Y40198800D01*
X44460713Y40198800D02*
X44432142Y40113086D01*
X44432142Y40113086D02*
X44089285Y39770229D01*
X44089285Y39770229D02*
X44460713Y39770229D01*
X45032142Y39770229D02*
X44689285Y39770229D01*
X44860714Y39770229D02*
X44860714Y40370229D01*
X44860714Y40370229D02*
X44803571Y40284515D01*
X44803571Y40284515D02*
X44746428Y40227372D01*
X44746428Y40227372D02*
X44689285Y40198800D01*
X13275000Y33680229D02*
X12989286Y33680229D01*
X12989286Y33680229D02*
X12989286Y34280229D01*
X13789285Y33680229D02*
X13446428Y33680229D01*
X13617857Y33680229D02*
X13617857Y34280229D01*
X13617857Y34280229D02*
X13560714Y34194515D01*
X13560714Y34194515D02*
X13503571Y34137372D01*
X13503571Y34137372D02*
X13446428Y34108800D01*
X53539285Y34462372D02*
X53510713Y34433800D01*
X53510713Y34433800D02*
X53424999Y34405229D01*
X53424999Y34405229D02*
X53367856Y34405229D01*
X53367856Y34405229D02*
X53282142Y34433800D01*
X53282142Y34433800D02*
X53224999Y34490943D01*
X53224999Y34490943D02*
X53196428Y34548086D01*
X53196428Y34548086D02*
X53167856Y34662372D01*
X53167856Y34662372D02*
X53167856Y34748086D01*
X53167856Y34748086D02*
X53196428Y34862372D01*
X53196428Y34862372D02*
X53224999Y34919515D01*
X53224999Y34919515D02*
X53282142Y34976658D01*
X53282142Y34976658D02*
X53367856Y35005229D01*
X53367856Y35005229D02*
X53424999Y35005229D01*
X53424999Y35005229D02*
X53510713Y34976658D01*
X53510713Y34976658D02*
X53539285Y34948086D01*
X53767856Y34948086D02*
X53796428Y34976658D01*
X53796428Y34976658D02*
X53853571Y35005229D01*
X53853571Y35005229D02*
X53996428Y35005229D01*
X53996428Y35005229D02*
X54053571Y34976658D01*
X54053571Y34976658D02*
X54082142Y34948086D01*
X54082142Y34948086D02*
X54110713Y34890943D01*
X54110713Y34890943D02*
X54110713Y34833800D01*
X54110713Y34833800D02*
X54082142Y34748086D01*
X54082142Y34748086D02*
X53739285Y34405229D01*
X53739285Y34405229D02*
X54110713Y34405229D01*
X54653571Y35005229D02*
X54367857Y35005229D01*
X54367857Y35005229D02*
X54339285Y34719515D01*
X54339285Y34719515D02*
X54367857Y34748086D01*
X54367857Y34748086D02*
X54425000Y34776658D01*
X54425000Y34776658D02*
X54567857Y34776658D01*
X54567857Y34776658D02*
X54625000Y34748086D01*
X54625000Y34748086D02*
X54653571Y34719515D01*
X54653571Y34719515D02*
X54682142Y34662372D01*
X54682142Y34662372D02*
X54682142Y34519515D01*
X54682142Y34519515D02*
X54653571Y34462372D01*
X54653571Y34462372D02*
X54625000Y34433800D01*
X54625000Y34433800D02*
X54567857Y34405229D01*
X54567857Y34405229D02*
X54425000Y34405229D01*
X54425000Y34405229D02*
X54367857Y34433800D01*
X54367857Y34433800D02*
X54339285Y34462372D01*
X43889285Y38797372D02*
X43860713Y38768800D01*
X43860713Y38768800D02*
X43774999Y38740229D01*
X43774999Y38740229D02*
X43717856Y38740229D01*
X43717856Y38740229D02*
X43632142Y38768800D01*
X43632142Y38768800D02*
X43574999Y38825943D01*
X43574999Y38825943D02*
X43546428Y38883086D01*
X43546428Y38883086D02*
X43517856Y38997372D01*
X43517856Y38997372D02*
X43517856Y39083086D01*
X43517856Y39083086D02*
X43546428Y39197372D01*
X43546428Y39197372D02*
X43574999Y39254515D01*
X43574999Y39254515D02*
X43632142Y39311658D01*
X43632142Y39311658D02*
X43717856Y39340229D01*
X43717856Y39340229D02*
X43774999Y39340229D01*
X43774999Y39340229D02*
X43860713Y39311658D01*
X43860713Y39311658D02*
X43889285Y39283086D01*
X44117856Y39283086D02*
X44146428Y39311658D01*
X44146428Y39311658D02*
X44203571Y39340229D01*
X44203571Y39340229D02*
X44346428Y39340229D01*
X44346428Y39340229D02*
X44403571Y39311658D01*
X44403571Y39311658D02*
X44432142Y39283086D01*
X44432142Y39283086D02*
X44460713Y39225943D01*
X44460713Y39225943D02*
X44460713Y39168800D01*
X44460713Y39168800D02*
X44432142Y39083086D01*
X44432142Y39083086D02*
X44089285Y38740229D01*
X44089285Y38740229D02*
X44460713Y38740229D01*
X44832142Y39340229D02*
X44889285Y39340229D01*
X44889285Y39340229D02*
X44946428Y39311658D01*
X44946428Y39311658D02*
X44975000Y39283086D01*
X44975000Y39283086D02*
X45003571Y39225943D01*
X45003571Y39225943D02*
X45032142Y39111658D01*
X45032142Y39111658D02*
X45032142Y38968800D01*
X45032142Y38968800D02*
X45003571Y38854515D01*
X45003571Y38854515D02*
X44975000Y38797372D01*
X44975000Y38797372D02*
X44946428Y38768800D01*
X44946428Y38768800D02*
X44889285Y38740229D01*
X44889285Y38740229D02*
X44832142Y38740229D01*
X44832142Y38740229D02*
X44775000Y38768800D01*
X44775000Y38768800D02*
X44746428Y38797372D01*
X44746428Y38797372D02*
X44717857Y38854515D01*
X44717857Y38854515D02*
X44689285Y38968800D01*
X44689285Y38968800D02*
X44689285Y39111658D01*
X44689285Y39111658D02*
X44717857Y39225943D01*
X44717857Y39225943D02*
X44746428Y39283086D01*
X44746428Y39283086D02*
X44775000Y39311658D01*
X44775000Y39311658D02*
X44832142Y39340229D01*
X49064285Y47830229D02*
X49064285Y47401658D01*
X49064285Y47401658D02*
X49035714Y47315943D01*
X49035714Y47315943D02*
X48978571Y47258800D01*
X48978571Y47258800D02*
X48892857Y47230229D01*
X48892857Y47230229D02*
X48835714Y47230229D01*
X49664285Y47230229D02*
X49321428Y47230229D01*
X49492857Y47230229D02*
X49492857Y47830229D01*
X49492857Y47830229D02*
X49435714Y47744515D01*
X49435714Y47744515D02*
X49378571Y47687372D01*
X49378571Y47687372D02*
X49321428Y47658800D01*
X50007143Y47573086D02*
X49950000Y47601658D01*
X49950000Y47601658D02*
X49921429Y47630229D01*
X49921429Y47630229D02*
X49892857Y47687372D01*
X49892857Y47687372D02*
X49892857Y47715943D01*
X49892857Y47715943D02*
X49921429Y47773086D01*
X49921429Y47773086D02*
X49950000Y47801658D01*
X49950000Y47801658D02*
X50007143Y47830229D01*
X50007143Y47830229D02*
X50121429Y47830229D01*
X50121429Y47830229D02*
X50178572Y47801658D01*
X50178572Y47801658D02*
X50207143Y47773086D01*
X50207143Y47773086D02*
X50235714Y47715943D01*
X50235714Y47715943D02*
X50235714Y47687372D01*
X50235714Y47687372D02*
X50207143Y47630229D01*
X50207143Y47630229D02*
X50178572Y47601658D01*
X50178572Y47601658D02*
X50121429Y47573086D01*
X50121429Y47573086D02*
X50007143Y47573086D01*
X50007143Y47573086D02*
X49950000Y47544515D01*
X49950000Y47544515D02*
X49921429Y47515943D01*
X49921429Y47515943D02*
X49892857Y47458800D01*
X49892857Y47458800D02*
X49892857Y47344515D01*
X49892857Y47344515D02*
X49921429Y47287372D01*
X49921429Y47287372D02*
X49950000Y47258800D01*
X49950000Y47258800D02*
X50007143Y47230229D01*
X50007143Y47230229D02*
X50121429Y47230229D01*
X50121429Y47230229D02*
X50178572Y47258800D01*
X50178572Y47258800D02*
X50207143Y47287372D01*
X50207143Y47287372D02*
X50235714Y47344515D01*
X50235714Y47344515D02*
X50235714Y47458800D01*
X50235714Y47458800D02*
X50207143Y47515943D01*
X50207143Y47515943D02*
X50178572Y47544515D01*
X50178572Y47544515D02*
X50121429Y47573086D01*
X24939285Y42605229D02*
X24739285Y42890943D01*
X24596428Y42605229D02*
X24596428Y43205229D01*
X24596428Y43205229D02*
X24824999Y43205229D01*
X24824999Y43205229D02*
X24882142Y43176658D01*
X24882142Y43176658D02*
X24910713Y43148086D01*
X24910713Y43148086D02*
X24939285Y43090943D01*
X24939285Y43090943D02*
X24939285Y43005229D01*
X24939285Y43005229D02*
X24910713Y42948086D01*
X24910713Y42948086D02*
X24882142Y42919515D01*
X24882142Y42919515D02*
X24824999Y42890943D01*
X24824999Y42890943D02*
X24596428Y42890943D01*
X25510713Y42605229D02*
X25167856Y42605229D01*
X25339285Y42605229D02*
X25339285Y43205229D01*
X25339285Y43205229D02*
X25282142Y43119515D01*
X25282142Y43119515D02*
X25224999Y43062372D01*
X25224999Y43062372D02*
X25167856Y43033800D01*
X26025000Y43205229D02*
X25910714Y43205229D01*
X25910714Y43205229D02*
X25853571Y43176658D01*
X25853571Y43176658D02*
X25825000Y43148086D01*
X25825000Y43148086D02*
X25767857Y43062372D01*
X25767857Y43062372D02*
X25739285Y42948086D01*
X25739285Y42948086D02*
X25739285Y42719515D01*
X25739285Y42719515D02*
X25767857Y42662372D01*
X25767857Y42662372D02*
X25796428Y42633800D01*
X25796428Y42633800D02*
X25853571Y42605229D01*
X25853571Y42605229D02*
X25967857Y42605229D01*
X25967857Y42605229D02*
X26025000Y42633800D01*
X26025000Y42633800D02*
X26053571Y42662372D01*
X26053571Y42662372D02*
X26082142Y42719515D01*
X26082142Y42719515D02*
X26082142Y42862372D01*
X26082142Y42862372D02*
X26053571Y42919515D01*
X26053571Y42919515D02*
X26025000Y42948086D01*
X26025000Y42948086D02*
X25967857Y42976658D01*
X25967857Y42976658D02*
X25853571Y42976658D01*
X25853571Y42976658D02*
X25796428Y42948086D01*
X25796428Y42948086D02*
X25767857Y42919515D01*
X25767857Y42919515D02*
X25739285Y42862372D01*
X39314285Y4730229D02*
X39314285Y4301658D01*
X39314285Y4301658D02*
X39285714Y4215943D01*
X39285714Y4215943D02*
X39228571Y4158800D01*
X39228571Y4158800D02*
X39142857Y4130229D01*
X39142857Y4130229D02*
X39085714Y4130229D01*
X39914285Y4130229D02*
X39571428Y4130229D01*
X39742857Y4130229D02*
X39742857Y4730229D01*
X39742857Y4730229D02*
X39685714Y4644515D01*
X39685714Y4644515D02*
X39628571Y4587372D01*
X39628571Y4587372D02*
X39571428Y4558800D01*
X40114286Y4730229D02*
X40485714Y4730229D01*
X40485714Y4730229D02*
X40285714Y4501658D01*
X40285714Y4501658D02*
X40371429Y4501658D01*
X40371429Y4501658D02*
X40428572Y4473086D01*
X40428572Y4473086D02*
X40457143Y4444515D01*
X40457143Y4444515D02*
X40485714Y4387372D01*
X40485714Y4387372D02*
X40485714Y4244515D01*
X40485714Y4244515D02*
X40457143Y4187372D01*
X40457143Y4187372D02*
X40428572Y4158800D01*
X40428572Y4158800D02*
X40371429Y4130229D01*
X40371429Y4130229D02*
X40200000Y4130229D01*
X40200000Y4130229D02*
X40142857Y4158800D01*
X40142857Y4158800D02*
X40114286Y4187372D01*
X20939285Y43262372D02*
X20910713Y43233800D01*
X20910713Y43233800D02*
X20824999Y43205229D01*
X20824999Y43205229D02*
X20767856Y43205229D01*
X20767856Y43205229D02*
X20682142Y43233800D01*
X20682142Y43233800D02*
X20624999Y43290943D01*
X20624999Y43290943D02*
X20596428Y43348086D01*
X20596428Y43348086D02*
X20567856Y43462372D01*
X20567856Y43462372D02*
X20567856Y43548086D01*
X20567856Y43548086D02*
X20596428Y43662372D01*
X20596428Y43662372D02*
X20624999Y43719515D01*
X20624999Y43719515D02*
X20682142Y43776658D01*
X20682142Y43776658D02*
X20767856Y43805229D01*
X20767856Y43805229D02*
X20824999Y43805229D01*
X20824999Y43805229D02*
X20910713Y43776658D01*
X20910713Y43776658D02*
X20939285Y43748086D01*
X21167856Y43748086D02*
X21196428Y43776658D01*
X21196428Y43776658D02*
X21253571Y43805229D01*
X21253571Y43805229D02*
X21396428Y43805229D01*
X21396428Y43805229D02*
X21453571Y43776658D01*
X21453571Y43776658D02*
X21482142Y43748086D01*
X21482142Y43748086D02*
X21510713Y43690943D01*
X21510713Y43690943D02*
X21510713Y43633800D01*
X21510713Y43633800D02*
X21482142Y43548086D01*
X21482142Y43548086D02*
X21139285Y43205229D01*
X21139285Y43205229D02*
X21510713Y43205229D01*
X21853571Y43548086D02*
X21796428Y43576658D01*
X21796428Y43576658D02*
X21767857Y43605229D01*
X21767857Y43605229D02*
X21739285Y43662372D01*
X21739285Y43662372D02*
X21739285Y43690943D01*
X21739285Y43690943D02*
X21767857Y43748086D01*
X21767857Y43748086D02*
X21796428Y43776658D01*
X21796428Y43776658D02*
X21853571Y43805229D01*
X21853571Y43805229D02*
X21967857Y43805229D01*
X21967857Y43805229D02*
X22025000Y43776658D01*
X22025000Y43776658D02*
X22053571Y43748086D01*
X22053571Y43748086D02*
X22082142Y43690943D01*
X22082142Y43690943D02*
X22082142Y43662372D01*
X22082142Y43662372D02*
X22053571Y43605229D01*
X22053571Y43605229D02*
X22025000Y43576658D01*
X22025000Y43576658D02*
X21967857Y43548086D01*
X21967857Y43548086D02*
X21853571Y43548086D01*
X21853571Y43548086D02*
X21796428Y43519515D01*
X21796428Y43519515D02*
X21767857Y43490943D01*
X21767857Y43490943D02*
X21739285Y43433800D01*
X21739285Y43433800D02*
X21739285Y43319515D01*
X21739285Y43319515D02*
X21767857Y43262372D01*
X21767857Y43262372D02*
X21796428Y43233800D01*
X21796428Y43233800D02*
X21853571Y43205229D01*
X21853571Y43205229D02*
X21967857Y43205229D01*
X21967857Y43205229D02*
X22025000Y43233800D01*
X22025000Y43233800D02*
X22053571Y43262372D01*
X22053571Y43262372D02*
X22082142Y43319515D01*
X22082142Y43319515D02*
X22082142Y43433800D01*
X22082142Y43433800D02*
X22053571Y43490943D01*
X22053571Y43490943D02*
X22025000Y43519515D01*
X22025000Y43519515D02*
X21967857Y43548086D01*
X26864285Y29455229D02*
X26664285Y29740943D01*
X26521428Y29455229D02*
X26521428Y30055229D01*
X26521428Y30055229D02*
X26749999Y30055229D01*
X26749999Y30055229D02*
X26807142Y30026658D01*
X26807142Y30026658D02*
X26835713Y29998086D01*
X26835713Y29998086D02*
X26864285Y29940943D01*
X26864285Y29940943D02*
X26864285Y29855229D01*
X26864285Y29855229D02*
X26835713Y29798086D01*
X26835713Y29798086D02*
X26807142Y29769515D01*
X26807142Y29769515D02*
X26749999Y29740943D01*
X26749999Y29740943D02*
X26521428Y29740943D01*
X27435713Y29455229D02*
X27092856Y29455229D01*
X27264285Y29455229D02*
X27264285Y30055229D01*
X27264285Y30055229D02*
X27207142Y29969515D01*
X27207142Y29969515D02*
X27149999Y29912372D01*
X27149999Y29912372D02*
X27092856Y29883800D01*
X27721428Y29455229D02*
X27835714Y29455229D01*
X27835714Y29455229D02*
X27892857Y29483800D01*
X27892857Y29483800D02*
X27921428Y29512372D01*
X27921428Y29512372D02*
X27978571Y29598086D01*
X27978571Y29598086D02*
X28007142Y29712372D01*
X28007142Y29712372D02*
X28007142Y29940943D01*
X28007142Y29940943D02*
X27978571Y29998086D01*
X27978571Y29998086D02*
X27950000Y30026658D01*
X27950000Y30026658D02*
X27892857Y30055229D01*
X27892857Y30055229D02*
X27778571Y30055229D01*
X27778571Y30055229D02*
X27721428Y30026658D01*
X27721428Y30026658D02*
X27692857Y29998086D01*
X27692857Y29998086D02*
X27664285Y29940943D01*
X27664285Y29940943D02*
X27664285Y29798086D01*
X27664285Y29798086D02*
X27692857Y29740943D01*
X27692857Y29740943D02*
X27721428Y29712372D01*
X27721428Y29712372D02*
X27778571Y29683800D01*
X27778571Y29683800D02*
X27892857Y29683800D01*
X27892857Y29683800D02*
X27950000Y29712372D01*
X27950000Y29712372D02*
X27978571Y29740943D01*
X27978571Y29740943D02*
X28007142Y29798086D01*
X49164285Y38812372D02*
X49135713Y38783800D01*
X49135713Y38783800D02*
X49049999Y38755229D01*
X49049999Y38755229D02*
X48992856Y38755229D01*
X48992856Y38755229D02*
X48907142Y38783800D01*
X48907142Y38783800D02*
X48849999Y38840943D01*
X48849999Y38840943D02*
X48821428Y38898086D01*
X48821428Y38898086D02*
X48792856Y39012372D01*
X48792856Y39012372D02*
X48792856Y39098086D01*
X48792856Y39098086D02*
X48821428Y39212372D01*
X48821428Y39212372D02*
X48849999Y39269515D01*
X48849999Y39269515D02*
X48907142Y39326658D01*
X48907142Y39326658D02*
X48992856Y39355229D01*
X48992856Y39355229D02*
X49049999Y39355229D01*
X49049999Y39355229D02*
X49135713Y39326658D01*
X49135713Y39326658D02*
X49164285Y39298086D01*
X49392856Y39298086D02*
X49421428Y39326658D01*
X49421428Y39326658D02*
X49478571Y39355229D01*
X49478571Y39355229D02*
X49621428Y39355229D01*
X49621428Y39355229D02*
X49678571Y39326658D01*
X49678571Y39326658D02*
X49707142Y39298086D01*
X49707142Y39298086D02*
X49735713Y39240943D01*
X49735713Y39240943D02*
X49735713Y39183800D01*
X49735713Y39183800D02*
X49707142Y39098086D01*
X49707142Y39098086D02*
X49364285Y38755229D01*
X49364285Y38755229D02*
X49735713Y38755229D01*
X49935714Y39355229D02*
X50307142Y39355229D01*
X50307142Y39355229D02*
X50107142Y39126658D01*
X50107142Y39126658D02*
X50192857Y39126658D01*
X50192857Y39126658D02*
X50250000Y39098086D01*
X50250000Y39098086D02*
X50278571Y39069515D01*
X50278571Y39069515D02*
X50307142Y39012372D01*
X50307142Y39012372D02*
X50307142Y38869515D01*
X50307142Y38869515D02*
X50278571Y38812372D01*
X50278571Y38812372D02*
X50250000Y38783800D01*
X50250000Y38783800D02*
X50192857Y38755229D01*
X50192857Y38755229D02*
X50021428Y38755229D01*
X50021428Y38755229D02*
X49964285Y38783800D01*
X49964285Y38783800D02*
X49935714Y38812372D01*
X46364285Y29205229D02*
X46164285Y29490943D01*
X46021428Y29205229D02*
X46021428Y29805229D01*
X46021428Y29805229D02*
X46249999Y29805229D01*
X46249999Y29805229D02*
X46307142Y29776658D01*
X46307142Y29776658D02*
X46335713Y29748086D01*
X46335713Y29748086D02*
X46364285Y29690943D01*
X46364285Y29690943D02*
X46364285Y29605229D01*
X46364285Y29605229D02*
X46335713Y29548086D01*
X46335713Y29548086D02*
X46307142Y29519515D01*
X46307142Y29519515D02*
X46249999Y29490943D01*
X46249999Y29490943D02*
X46021428Y29490943D01*
X46592856Y29748086D02*
X46621428Y29776658D01*
X46621428Y29776658D02*
X46678571Y29805229D01*
X46678571Y29805229D02*
X46821428Y29805229D01*
X46821428Y29805229D02*
X46878571Y29776658D01*
X46878571Y29776658D02*
X46907142Y29748086D01*
X46907142Y29748086D02*
X46935713Y29690943D01*
X46935713Y29690943D02*
X46935713Y29633800D01*
X46935713Y29633800D02*
X46907142Y29548086D01*
X46907142Y29548086D02*
X46564285Y29205229D01*
X46564285Y29205229D02*
X46935713Y29205229D01*
X47135714Y29805229D02*
X47535714Y29805229D01*
X47535714Y29805229D02*
X47278571Y29205229D01*
X26864285Y31505229D02*
X26664285Y31790943D01*
X26521428Y31505229D02*
X26521428Y32105229D01*
X26521428Y32105229D02*
X26749999Y32105229D01*
X26749999Y32105229D02*
X26807142Y32076658D01*
X26807142Y32076658D02*
X26835713Y32048086D01*
X26835713Y32048086D02*
X26864285Y31990943D01*
X26864285Y31990943D02*
X26864285Y31905229D01*
X26864285Y31905229D02*
X26835713Y31848086D01*
X26835713Y31848086D02*
X26807142Y31819515D01*
X26807142Y31819515D02*
X26749999Y31790943D01*
X26749999Y31790943D02*
X26521428Y31790943D01*
X27092856Y32048086D02*
X27121428Y32076658D01*
X27121428Y32076658D02*
X27178571Y32105229D01*
X27178571Y32105229D02*
X27321428Y32105229D01*
X27321428Y32105229D02*
X27378571Y32076658D01*
X27378571Y32076658D02*
X27407142Y32048086D01*
X27407142Y32048086D02*
X27435713Y31990943D01*
X27435713Y31990943D02*
X27435713Y31933800D01*
X27435713Y31933800D02*
X27407142Y31848086D01*
X27407142Y31848086D02*
X27064285Y31505229D01*
X27064285Y31505229D02*
X27435713Y31505229D01*
X27807142Y32105229D02*
X27864285Y32105229D01*
X27864285Y32105229D02*
X27921428Y32076658D01*
X27921428Y32076658D02*
X27950000Y32048086D01*
X27950000Y32048086D02*
X27978571Y31990943D01*
X27978571Y31990943D02*
X28007142Y31876658D01*
X28007142Y31876658D02*
X28007142Y31733800D01*
X28007142Y31733800D02*
X27978571Y31619515D01*
X27978571Y31619515D02*
X27950000Y31562372D01*
X27950000Y31562372D02*
X27921428Y31533800D01*
X27921428Y31533800D02*
X27864285Y31505229D01*
X27864285Y31505229D02*
X27807142Y31505229D01*
X27807142Y31505229D02*
X27750000Y31533800D01*
X27750000Y31533800D02*
X27721428Y31562372D01*
X27721428Y31562372D02*
X27692857Y31619515D01*
X27692857Y31619515D02*
X27664285Y31733800D01*
X27664285Y31733800D02*
X27664285Y31876658D01*
X27664285Y31876658D02*
X27692857Y31990943D01*
X27692857Y31990943D02*
X27721428Y32048086D01*
X27721428Y32048086D02*
X27750000Y32076658D01*
X27750000Y32076658D02*
X27807142Y32105229D01*
X35450000Y43080229D02*
X35250000Y43365943D01*
X35107143Y43080229D02*
X35107143Y43680229D01*
X35107143Y43680229D02*
X35335714Y43680229D01*
X35335714Y43680229D02*
X35392857Y43651658D01*
X35392857Y43651658D02*
X35421428Y43623086D01*
X35421428Y43623086D02*
X35450000Y43565943D01*
X35450000Y43565943D02*
X35450000Y43480229D01*
X35450000Y43480229D02*
X35421428Y43423086D01*
X35421428Y43423086D02*
X35392857Y43394515D01*
X35392857Y43394515D02*
X35335714Y43365943D01*
X35335714Y43365943D02*
X35107143Y43365943D01*
X35678571Y43623086D02*
X35707143Y43651658D01*
X35707143Y43651658D02*
X35764286Y43680229D01*
X35764286Y43680229D02*
X35907143Y43680229D01*
X35907143Y43680229D02*
X35964286Y43651658D01*
X35964286Y43651658D02*
X35992857Y43623086D01*
X35992857Y43623086D02*
X36021428Y43565943D01*
X36021428Y43565943D02*
X36021428Y43508800D01*
X36021428Y43508800D02*
X35992857Y43423086D01*
X35992857Y43423086D02*
X35650000Y43080229D01*
X35650000Y43080229D02*
X36021428Y43080229D01*
X12025000Y33762372D02*
X11996428Y33733800D01*
X11996428Y33733800D02*
X11910714Y33705229D01*
X11910714Y33705229D02*
X11853571Y33705229D01*
X11853571Y33705229D02*
X11767857Y33733800D01*
X11767857Y33733800D02*
X11710714Y33790943D01*
X11710714Y33790943D02*
X11682143Y33848086D01*
X11682143Y33848086D02*
X11653571Y33962372D01*
X11653571Y33962372D02*
X11653571Y34048086D01*
X11653571Y34048086D02*
X11682143Y34162372D01*
X11682143Y34162372D02*
X11710714Y34219515D01*
X11710714Y34219515D02*
X11767857Y34276658D01*
X11767857Y34276658D02*
X11853571Y34305229D01*
X11853571Y34305229D02*
X11910714Y34305229D01*
X11910714Y34305229D02*
X11996428Y34276658D01*
X11996428Y34276658D02*
X12025000Y34248086D01*
X12596428Y33705229D02*
X12253571Y33705229D01*
X12425000Y33705229D02*
X12425000Y34305229D01*
X12425000Y34305229D02*
X12367857Y34219515D01*
X12367857Y34219515D02*
X12310714Y34162372D01*
X12310714Y34162372D02*
X12253571Y34133800D01*
X59414285Y47880229D02*
X59414285Y47451658D01*
X59414285Y47451658D02*
X59385714Y47365943D01*
X59385714Y47365943D02*
X59328571Y47308800D01*
X59328571Y47308800D02*
X59242857Y47280229D01*
X59242857Y47280229D02*
X59185714Y47280229D01*
X60014285Y47280229D02*
X59671428Y47280229D01*
X59842857Y47280229D02*
X59842857Y47880229D01*
X59842857Y47880229D02*
X59785714Y47794515D01*
X59785714Y47794515D02*
X59728571Y47737372D01*
X59728571Y47737372D02*
X59671428Y47708800D01*
X60528572Y47680229D02*
X60528572Y47280229D01*
X60385714Y47908800D02*
X60242857Y47480229D01*
X60242857Y47480229D02*
X60614286Y47480229D01*
X32450000Y47330229D02*
X32250000Y47615943D01*
X32107143Y47330229D02*
X32107143Y47930229D01*
X32107143Y47930229D02*
X32335714Y47930229D01*
X32335714Y47930229D02*
X32392857Y47901658D01*
X32392857Y47901658D02*
X32421428Y47873086D01*
X32421428Y47873086D02*
X32450000Y47815943D01*
X32450000Y47815943D02*
X32450000Y47730229D01*
X32450000Y47730229D02*
X32421428Y47673086D01*
X32421428Y47673086D02*
X32392857Y47644515D01*
X32392857Y47644515D02*
X32335714Y47615943D01*
X32335714Y47615943D02*
X32107143Y47615943D01*
X33021428Y47330229D02*
X32678571Y47330229D01*
X32850000Y47330229D02*
X32850000Y47930229D01*
X32850000Y47930229D02*
X32792857Y47844515D01*
X32792857Y47844515D02*
X32735714Y47787372D01*
X32735714Y47787372D02*
X32678571Y47758800D01*
X43599999Y47830229D02*
X43599999Y47401658D01*
X43599999Y47401658D02*
X43571428Y47315943D01*
X43571428Y47315943D02*
X43514285Y47258800D01*
X43514285Y47258800D02*
X43428571Y47230229D01*
X43428571Y47230229D02*
X43371428Y47230229D01*
X44142857Y47630229D02*
X44142857Y47230229D01*
X43999999Y47858800D02*
X43857142Y47430229D01*
X43857142Y47430229D02*
X44228571Y47430229D01*
X49164285Y39812372D02*
X49135713Y39783800D01*
X49135713Y39783800D02*
X49049999Y39755229D01*
X49049999Y39755229D02*
X48992856Y39755229D01*
X48992856Y39755229D02*
X48907142Y39783800D01*
X48907142Y39783800D02*
X48849999Y39840943D01*
X48849999Y39840943D02*
X48821428Y39898086D01*
X48821428Y39898086D02*
X48792856Y40012372D01*
X48792856Y40012372D02*
X48792856Y40098086D01*
X48792856Y40098086D02*
X48821428Y40212372D01*
X48821428Y40212372D02*
X48849999Y40269515D01*
X48849999Y40269515D02*
X48907142Y40326658D01*
X48907142Y40326658D02*
X48992856Y40355229D01*
X48992856Y40355229D02*
X49049999Y40355229D01*
X49049999Y40355229D02*
X49135713Y40326658D01*
X49135713Y40326658D02*
X49164285Y40298086D01*
X49392856Y40298086D02*
X49421428Y40326658D01*
X49421428Y40326658D02*
X49478571Y40355229D01*
X49478571Y40355229D02*
X49621428Y40355229D01*
X49621428Y40355229D02*
X49678571Y40326658D01*
X49678571Y40326658D02*
X49707142Y40298086D01*
X49707142Y40298086D02*
X49735713Y40240943D01*
X49735713Y40240943D02*
X49735713Y40183800D01*
X49735713Y40183800D02*
X49707142Y40098086D01*
X49707142Y40098086D02*
X49364285Y39755229D01*
X49364285Y39755229D02*
X49735713Y39755229D01*
X49964285Y40298086D02*
X49992857Y40326658D01*
X49992857Y40326658D02*
X50050000Y40355229D01*
X50050000Y40355229D02*
X50192857Y40355229D01*
X50192857Y40355229D02*
X50250000Y40326658D01*
X50250000Y40326658D02*
X50278571Y40298086D01*
X50278571Y40298086D02*
X50307142Y40240943D01*
X50307142Y40240943D02*
X50307142Y40183800D01*
X50307142Y40183800D02*
X50278571Y40098086D01*
X50278571Y40098086D02*
X49935714Y39755229D01*
X49935714Y39755229D02*
X50307142Y39755229D01*
X48239285Y30105229D02*
X48039285Y30390943D01*
X47896428Y30105229D02*
X47896428Y30705229D01*
X47896428Y30705229D02*
X48124999Y30705229D01*
X48124999Y30705229D02*
X48182142Y30676658D01*
X48182142Y30676658D02*
X48210713Y30648086D01*
X48210713Y30648086D02*
X48239285Y30590943D01*
X48239285Y30590943D02*
X48239285Y30505229D01*
X48239285Y30505229D02*
X48210713Y30448086D01*
X48210713Y30448086D02*
X48182142Y30419515D01*
X48182142Y30419515D02*
X48124999Y30390943D01*
X48124999Y30390943D02*
X47896428Y30390943D01*
X48467856Y30648086D02*
X48496428Y30676658D01*
X48496428Y30676658D02*
X48553571Y30705229D01*
X48553571Y30705229D02*
X48696428Y30705229D01*
X48696428Y30705229D02*
X48753571Y30676658D01*
X48753571Y30676658D02*
X48782142Y30648086D01*
X48782142Y30648086D02*
X48810713Y30590943D01*
X48810713Y30590943D02*
X48810713Y30533800D01*
X48810713Y30533800D02*
X48782142Y30448086D01*
X48782142Y30448086D02*
X48439285Y30105229D01*
X48439285Y30105229D02*
X48810713Y30105229D01*
X49325000Y30705229D02*
X49210714Y30705229D01*
X49210714Y30705229D02*
X49153571Y30676658D01*
X49153571Y30676658D02*
X49125000Y30648086D01*
X49125000Y30648086D02*
X49067857Y30562372D01*
X49067857Y30562372D02*
X49039285Y30448086D01*
X49039285Y30448086D02*
X49039285Y30219515D01*
X49039285Y30219515D02*
X49067857Y30162372D01*
X49067857Y30162372D02*
X49096428Y30133800D01*
X49096428Y30133800D02*
X49153571Y30105229D01*
X49153571Y30105229D02*
X49267857Y30105229D01*
X49267857Y30105229D02*
X49325000Y30133800D01*
X49325000Y30133800D02*
X49353571Y30162372D01*
X49353571Y30162372D02*
X49382142Y30219515D01*
X49382142Y30219515D02*
X49382142Y30362372D01*
X49382142Y30362372D02*
X49353571Y30419515D01*
X49353571Y30419515D02*
X49325000Y30448086D01*
X49325000Y30448086D02*
X49267857Y30476658D01*
X49267857Y30476658D02*
X49153571Y30476658D01*
X49153571Y30476658D02*
X49096428Y30448086D01*
X49096428Y30448086D02*
X49067857Y30419515D01*
X49067857Y30419515D02*
X49039285Y30362372D01*
X49314285Y4730229D02*
X49314285Y4301658D01*
X49314285Y4301658D02*
X49285714Y4215943D01*
X49285714Y4215943D02*
X49228571Y4158800D01*
X49228571Y4158800D02*
X49142857Y4130229D01*
X49142857Y4130229D02*
X49085714Y4130229D01*
X49914285Y4130229D02*
X49571428Y4130229D01*
X49742857Y4130229D02*
X49742857Y4730229D01*
X49742857Y4730229D02*
X49685714Y4644515D01*
X49685714Y4644515D02*
X49628571Y4587372D01*
X49628571Y4587372D02*
X49571428Y4558800D01*
X50457143Y4730229D02*
X50171429Y4730229D01*
X50171429Y4730229D02*
X50142857Y4444515D01*
X50142857Y4444515D02*
X50171429Y4473086D01*
X50171429Y4473086D02*
X50228572Y4501658D01*
X50228572Y4501658D02*
X50371429Y4501658D01*
X50371429Y4501658D02*
X50428572Y4473086D01*
X50428572Y4473086D02*
X50457143Y4444515D01*
X50457143Y4444515D02*
X50485714Y4387372D01*
X50485714Y4387372D02*
X50485714Y4244515D01*
X50485714Y4244515D02*
X50457143Y4187372D01*
X50457143Y4187372D02*
X50428572Y4158800D01*
X50428572Y4158800D02*
X50371429Y4130229D01*
X50371429Y4130229D02*
X50228572Y4130229D01*
X50228572Y4130229D02*
X50171429Y4158800D01*
X50171429Y4158800D02*
X50142857Y4187372D01*
X41139285Y33487372D02*
X41110713Y33458800D01*
X41110713Y33458800D02*
X41024999Y33430229D01*
X41024999Y33430229D02*
X40967856Y33430229D01*
X40967856Y33430229D02*
X40882142Y33458800D01*
X40882142Y33458800D02*
X40824999Y33515943D01*
X40824999Y33515943D02*
X40796428Y33573086D01*
X40796428Y33573086D02*
X40767856Y33687372D01*
X40767856Y33687372D02*
X40767856Y33773086D01*
X40767856Y33773086D02*
X40796428Y33887372D01*
X40796428Y33887372D02*
X40824999Y33944515D01*
X40824999Y33944515D02*
X40882142Y34001658D01*
X40882142Y34001658D02*
X40967856Y34030229D01*
X40967856Y34030229D02*
X41024999Y34030229D01*
X41024999Y34030229D02*
X41110713Y34001658D01*
X41110713Y34001658D02*
X41139285Y33973086D01*
X41710713Y33430229D02*
X41367856Y33430229D01*
X41539285Y33430229D02*
X41539285Y34030229D01*
X41539285Y34030229D02*
X41482142Y33944515D01*
X41482142Y33944515D02*
X41424999Y33887372D01*
X41424999Y33887372D02*
X41367856Y33858800D01*
X42053571Y33773086D02*
X41996428Y33801658D01*
X41996428Y33801658D02*
X41967857Y33830229D01*
X41967857Y33830229D02*
X41939285Y33887372D01*
X41939285Y33887372D02*
X41939285Y33915943D01*
X41939285Y33915943D02*
X41967857Y33973086D01*
X41967857Y33973086D02*
X41996428Y34001658D01*
X41996428Y34001658D02*
X42053571Y34030229D01*
X42053571Y34030229D02*
X42167857Y34030229D01*
X42167857Y34030229D02*
X42225000Y34001658D01*
X42225000Y34001658D02*
X42253571Y33973086D01*
X42253571Y33973086D02*
X42282142Y33915943D01*
X42282142Y33915943D02*
X42282142Y33887372D01*
X42282142Y33887372D02*
X42253571Y33830229D01*
X42253571Y33830229D02*
X42225000Y33801658D01*
X42225000Y33801658D02*
X42167857Y33773086D01*
X42167857Y33773086D02*
X42053571Y33773086D01*
X42053571Y33773086D02*
X41996428Y33744515D01*
X41996428Y33744515D02*
X41967857Y33715943D01*
X41967857Y33715943D02*
X41939285Y33658800D01*
X41939285Y33658800D02*
X41939285Y33544515D01*
X41939285Y33544515D02*
X41967857Y33487372D01*
X41967857Y33487372D02*
X41996428Y33458800D01*
X41996428Y33458800D02*
X42053571Y33430229D01*
X42053571Y33430229D02*
X42167857Y33430229D01*
X42167857Y33430229D02*
X42225000Y33458800D01*
X42225000Y33458800D02*
X42253571Y33487372D01*
X42253571Y33487372D02*
X42282142Y33544515D01*
X42282142Y33544515D02*
X42282142Y33658800D01*
X42282142Y33658800D02*
X42253571Y33715943D01*
X42253571Y33715943D02*
X42225000Y33744515D01*
X42225000Y33744515D02*
X42167857Y33773086D01*
X25000000Y31737372D02*
X24971428Y31708800D01*
X24971428Y31708800D02*
X24885714Y31680229D01*
X24885714Y31680229D02*
X24828571Y31680229D01*
X24828571Y31680229D02*
X24742857Y31708800D01*
X24742857Y31708800D02*
X24685714Y31765943D01*
X24685714Y31765943D02*
X24657143Y31823086D01*
X24657143Y31823086D02*
X24628571Y31937372D01*
X24628571Y31937372D02*
X24628571Y32023086D01*
X24628571Y32023086D02*
X24657143Y32137372D01*
X24657143Y32137372D02*
X24685714Y32194515D01*
X24685714Y32194515D02*
X24742857Y32251658D01*
X24742857Y32251658D02*
X24828571Y32280229D01*
X24828571Y32280229D02*
X24885714Y32280229D01*
X24885714Y32280229D02*
X24971428Y32251658D01*
X24971428Y32251658D02*
X25000000Y32223086D01*
X25342857Y32023086D02*
X25285714Y32051658D01*
X25285714Y32051658D02*
X25257143Y32080229D01*
X25257143Y32080229D02*
X25228571Y32137372D01*
X25228571Y32137372D02*
X25228571Y32165943D01*
X25228571Y32165943D02*
X25257143Y32223086D01*
X25257143Y32223086D02*
X25285714Y32251658D01*
X25285714Y32251658D02*
X25342857Y32280229D01*
X25342857Y32280229D02*
X25457143Y32280229D01*
X25457143Y32280229D02*
X25514286Y32251658D01*
X25514286Y32251658D02*
X25542857Y32223086D01*
X25542857Y32223086D02*
X25571428Y32165943D01*
X25571428Y32165943D02*
X25571428Y32137372D01*
X25571428Y32137372D02*
X25542857Y32080229D01*
X25542857Y32080229D02*
X25514286Y32051658D01*
X25514286Y32051658D02*
X25457143Y32023086D01*
X25457143Y32023086D02*
X25342857Y32023086D01*
X25342857Y32023086D02*
X25285714Y31994515D01*
X25285714Y31994515D02*
X25257143Y31965943D01*
X25257143Y31965943D02*
X25228571Y31908800D01*
X25228571Y31908800D02*
X25228571Y31794515D01*
X25228571Y31794515D02*
X25257143Y31737372D01*
X25257143Y31737372D02*
X25285714Y31708800D01*
X25285714Y31708800D02*
X25342857Y31680229D01*
X25342857Y31680229D02*
X25457143Y31680229D01*
X25457143Y31680229D02*
X25514286Y31708800D01*
X25514286Y31708800D02*
X25542857Y31737372D01*
X25542857Y31737372D02*
X25571428Y31794515D01*
X25571428Y31794515D02*
X25571428Y31908800D01*
X25571428Y31908800D02*
X25542857Y31965943D01*
X25542857Y31965943D02*
X25514286Y31994515D01*
X25514286Y31994515D02*
X25457143Y32023086D01*
X29639285Y39827372D02*
X29610713Y39798800D01*
X29610713Y39798800D02*
X29524999Y39770229D01*
X29524999Y39770229D02*
X29467856Y39770229D01*
X29467856Y39770229D02*
X29382142Y39798800D01*
X29382142Y39798800D02*
X29324999Y39855943D01*
X29324999Y39855943D02*
X29296428Y39913086D01*
X29296428Y39913086D02*
X29267856Y40027372D01*
X29267856Y40027372D02*
X29267856Y40113086D01*
X29267856Y40113086D02*
X29296428Y40227372D01*
X29296428Y40227372D02*
X29324999Y40284515D01*
X29324999Y40284515D02*
X29382142Y40341658D01*
X29382142Y40341658D02*
X29467856Y40370229D01*
X29467856Y40370229D02*
X29524999Y40370229D01*
X29524999Y40370229D02*
X29610713Y40341658D01*
X29610713Y40341658D02*
X29639285Y40313086D01*
X30210713Y39770229D02*
X29867856Y39770229D01*
X30039285Y39770229D02*
X30039285Y40370229D01*
X30039285Y40370229D02*
X29982142Y40284515D01*
X29982142Y40284515D02*
X29924999Y40227372D01*
X29924999Y40227372D02*
X29867856Y40198800D01*
X30410714Y40370229D02*
X30782142Y40370229D01*
X30782142Y40370229D02*
X30582142Y40141658D01*
X30582142Y40141658D02*
X30667857Y40141658D01*
X30667857Y40141658D02*
X30725000Y40113086D01*
X30725000Y40113086D02*
X30753571Y40084515D01*
X30753571Y40084515D02*
X30782142Y40027372D01*
X30782142Y40027372D02*
X30782142Y39884515D01*
X30782142Y39884515D02*
X30753571Y39827372D01*
X30753571Y39827372D02*
X30725000Y39798800D01*
X30725000Y39798800D02*
X30667857Y39770229D01*
X30667857Y39770229D02*
X30496428Y39770229D01*
X30496428Y39770229D02*
X30439285Y39798800D01*
X30439285Y39798800D02*
X30410714Y39827372D01*
X17150000Y29505229D02*
X16950000Y29790943D01*
X16807143Y29505229D02*
X16807143Y30105229D01*
X16807143Y30105229D02*
X17035714Y30105229D01*
X17035714Y30105229D02*
X17092857Y30076658D01*
X17092857Y30076658D02*
X17121428Y30048086D01*
X17121428Y30048086D02*
X17150000Y29990943D01*
X17150000Y29990943D02*
X17150000Y29905229D01*
X17150000Y29905229D02*
X17121428Y29848086D01*
X17121428Y29848086D02*
X17092857Y29819515D01*
X17092857Y29819515D02*
X17035714Y29790943D01*
X17035714Y29790943D02*
X16807143Y29790943D01*
X17664286Y30105229D02*
X17550000Y30105229D01*
X17550000Y30105229D02*
X17492857Y30076658D01*
X17492857Y30076658D02*
X17464286Y30048086D01*
X17464286Y30048086D02*
X17407143Y29962372D01*
X17407143Y29962372D02*
X17378571Y29848086D01*
X17378571Y29848086D02*
X17378571Y29619515D01*
X17378571Y29619515D02*
X17407143Y29562372D01*
X17407143Y29562372D02*
X17435714Y29533800D01*
X17435714Y29533800D02*
X17492857Y29505229D01*
X17492857Y29505229D02*
X17607143Y29505229D01*
X17607143Y29505229D02*
X17664286Y29533800D01*
X17664286Y29533800D02*
X17692857Y29562372D01*
X17692857Y29562372D02*
X17721428Y29619515D01*
X17721428Y29619515D02*
X17721428Y29762372D01*
X17721428Y29762372D02*
X17692857Y29819515D01*
X17692857Y29819515D02*
X17664286Y29848086D01*
X17664286Y29848086D02*
X17607143Y29876658D01*
X17607143Y29876658D02*
X17492857Y29876658D01*
X17492857Y29876658D02*
X17435714Y29848086D01*
X17435714Y29848086D02*
X17407143Y29819515D01*
X17407143Y29819515D02*
X17378571Y29762372D01*
X26864285Y30480229D02*
X26664285Y30765943D01*
X26521428Y30480229D02*
X26521428Y31080229D01*
X26521428Y31080229D02*
X26749999Y31080229D01*
X26749999Y31080229D02*
X26807142Y31051658D01*
X26807142Y31051658D02*
X26835713Y31023086D01*
X26835713Y31023086D02*
X26864285Y30965943D01*
X26864285Y30965943D02*
X26864285Y30880229D01*
X26864285Y30880229D02*
X26835713Y30823086D01*
X26835713Y30823086D02*
X26807142Y30794515D01*
X26807142Y30794515D02*
X26749999Y30765943D01*
X26749999Y30765943D02*
X26521428Y30765943D01*
X27092856Y31023086D02*
X27121428Y31051658D01*
X27121428Y31051658D02*
X27178571Y31080229D01*
X27178571Y31080229D02*
X27321428Y31080229D01*
X27321428Y31080229D02*
X27378571Y31051658D01*
X27378571Y31051658D02*
X27407142Y31023086D01*
X27407142Y31023086D02*
X27435713Y30965943D01*
X27435713Y30965943D02*
X27435713Y30908800D01*
X27435713Y30908800D02*
X27407142Y30823086D01*
X27407142Y30823086D02*
X27064285Y30480229D01*
X27064285Y30480229D02*
X27435713Y30480229D01*
X28007142Y30480229D02*
X27664285Y30480229D01*
X27835714Y30480229D02*
X27835714Y31080229D01*
X27835714Y31080229D02*
X27778571Y30994515D01*
X27778571Y30994515D02*
X27721428Y30937372D01*
X27721428Y30937372D02*
X27664285Y30908800D01*
X44489285Y30105229D02*
X44289285Y30390943D01*
X44146428Y30105229D02*
X44146428Y30705229D01*
X44146428Y30705229D02*
X44374999Y30705229D01*
X44374999Y30705229D02*
X44432142Y30676658D01*
X44432142Y30676658D02*
X44460713Y30648086D01*
X44460713Y30648086D02*
X44489285Y30590943D01*
X44489285Y30590943D02*
X44489285Y30505229D01*
X44489285Y30505229D02*
X44460713Y30448086D01*
X44460713Y30448086D02*
X44432142Y30419515D01*
X44432142Y30419515D02*
X44374999Y30390943D01*
X44374999Y30390943D02*
X44146428Y30390943D01*
X44717856Y30648086D02*
X44746428Y30676658D01*
X44746428Y30676658D02*
X44803571Y30705229D01*
X44803571Y30705229D02*
X44946428Y30705229D01*
X44946428Y30705229D02*
X45003571Y30676658D01*
X45003571Y30676658D02*
X45032142Y30648086D01*
X45032142Y30648086D02*
X45060713Y30590943D01*
X45060713Y30590943D02*
X45060713Y30533800D01*
X45060713Y30533800D02*
X45032142Y30448086D01*
X45032142Y30448086D02*
X44689285Y30105229D01*
X44689285Y30105229D02*
X45060713Y30105229D01*
X45403571Y30448086D02*
X45346428Y30476658D01*
X45346428Y30476658D02*
X45317857Y30505229D01*
X45317857Y30505229D02*
X45289285Y30562372D01*
X45289285Y30562372D02*
X45289285Y30590943D01*
X45289285Y30590943D02*
X45317857Y30648086D01*
X45317857Y30648086D02*
X45346428Y30676658D01*
X45346428Y30676658D02*
X45403571Y30705229D01*
X45403571Y30705229D02*
X45517857Y30705229D01*
X45517857Y30705229D02*
X45575000Y30676658D01*
X45575000Y30676658D02*
X45603571Y30648086D01*
X45603571Y30648086D02*
X45632142Y30590943D01*
X45632142Y30590943D02*
X45632142Y30562372D01*
X45632142Y30562372D02*
X45603571Y30505229D01*
X45603571Y30505229D02*
X45575000Y30476658D01*
X45575000Y30476658D02*
X45517857Y30448086D01*
X45517857Y30448086D02*
X45403571Y30448086D01*
X45403571Y30448086D02*
X45346428Y30419515D01*
X45346428Y30419515D02*
X45317857Y30390943D01*
X45317857Y30390943D02*
X45289285Y30333800D01*
X45289285Y30333800D02*
X45289285Y30219515D01*
X45289285Y30219515D02*
X45317857Y30162372D01*
X45317857Y30162372D02*
X45346428Y30133800D01*
X45346428Y30133800D02*
X45403571Y30105229D01*
X45403571Y30105229D02*
X45517857Y30105229D01*
X45517857Y30105229D02*
X45575000Y30133800D01*
X45575000Y30133800D02*
X45603571Y30162372D01*
X45603571Y30162372D02*
X45632142Y30219515D01*
X45632142Y30219515D02*
X45632142Y30333800D01*
X45632142Y30333800D02*
X45603571Y30390943D01*
X45603571Y30390943D02*
X45575000Y30419515D01*
X45575000Y30419515D02*
X45517857Y30448086D01*
X21050000Y39812372D02*
X21021428Y39783800D01*
X21021428Y39783800D02*
X20935714Y39755229D01*
X20935714Y39755229D02*
X20878571Y39755229D01*
X20878571Y39755229D02*
X20792857Y39783800D01*
X20792857Y39783800D02*
X20735714Y39840943D01*
X20735714Y39840943D02*
X20707143Y39898086D01*
X20707143Y39898086D02*
X20678571Y40012372D01*
X20678571Y40012372D02*
X20678571Y40098086D01*
X20678571Y40098086D02*
X20707143Y40212372D01*
X20707143Y40212372D02*
X20735714Y40269515D01*
X20735714Y40269515D02*
X20792857Y40326658D01*
X20792857Y40326658D02*
X20878571Y40355229D01*
X20878571Y40355229D02*
X20935714Y40355229D01*
X20935714Y40355229D02*
X21021428Y40326658D01*
X21021428Y40326658D02*
X21050000Y40298086D01*
X21592857Y40355229D02*
X21307143Y40355229D01*
X21307143Y40355229D02*
X21278571Y40069515D01*
X21278571Y40069515D02*
X21307143Y40098086D01*
X21307143Y40098086D02*
X21364286Y40126658D01*
X21364286Y40126658D02*
X21507143Y40126658D01*
X21507143Y40126658D02*
X21564286Y40098086D01*
X21564286Y40098086D02*
X21592857Y40069515D01*
X21592857Y40069515D02*
X21621428Y40012372D01*
X21621428Y40012372D02*
X21621428Y39869515D01*
X21621428Y39869515D02*
X21592857Y39812372D01*
X21592857Y39812372D02*
X21564286Y39783800D01*
X21564286Y39783800D02*
X21507143Y39755229D01*
X21507143Y39755229D02*
X21364286Y39755229D01*
X21364286Y39755229D02*
X21307143Y39783800D01*
X21307143Y39783800D02*
X21278571Y39812372D01*
X12164285Y47880229D02*
X12164285Y47451658D01*
X12164285Y47451658D02*
X12135714Y47365943D01*
X12135714Y47365943D02*
X12078571Y47308800D01*
X12078571Y47308800D02*
X11992857Y47280229D01*
X11992857Y47280229D02*
X11935714Y47280229D01*
X12764285Y47280229D02*
X12421428Y47280229D01*
X12592857Y47280229D02*
X12592857Y47880229D01*
X12592857Y47880229D02*
X12535714Y47794515D01*
X12535714Y47794515D02*
X12478571Y47737372D01*
X12478571Y47737372D02*
X12421428Y47708800D01*
X13335714Y47280229D02*
X12992857Y47280229D01*
X13164286Y47280229D02*
X13164286Y47880229D01*
X13164286Y47880229D02*
X13107143Y47794515D01*
X13107143Y47794515D02*
X13050000Y47737372D01*
X13050000Y47737372D02*
X12992857Y47708800D01*
X32299999Y14855229D02*
X32299999Y14426658D01*
X32299999Y14426658D02*
X32271428Y14340943D01*
X32271428Y14340943D02*
X32214285Y14283800D01*
X32214285Y14283800D02*
X32128571Y14255229D01*
X32128571Y14255229D02*
X32071428Y14255229D01*
X32899999Y14255229D02*
X32557142Y14255229D01*
X32728571Y14255229D02*
X32728571Y14855229D01*
X32728571Y14855229D02*
X32671428Y14769515D01*
X32671428Y14769515D02*
X32614285Y14712372D01*
X32614285Y14712372D02*
X32557142Y14683800D01*
X34889285Y39812372D02*
X34860713Y39783800D01*
X34860713Y39783800D02*
X34774999Y39755229D01*
X34774999Y39755229D02*
X34717856Y39755229D01*
X34717856Y39755229D02*
X34632142Y39783800D01*
X34632142Y39783800D02*
X34574999Y39840943D01*
X34574999Y39840943D02*
X34546428Y39898086D01*
X34546428Y39898086D02*
X34517856Y40012372D01*
X34517856Y40012372D02*
X34517856Y40098086D01*
X34517856Y40098086D02*
X34546428Y40212372D01*
X34546428Y40212372D02*
X34574999Y40269515D01*
X34574999Y40269515D02*
X34632142Y40326658D01*
X34632142Y40326658D02*
X34717856Y40355229D01*
X34717856Y40355229D02*
X34774999Y40355229D01*
X34774999Y40355229D02*
X34860713Y40326658D01*
X34860713Y40326658D02*
X34889285Y40298086D01*
X35460713Y39755229D02*
X35117856Y39755229D01*
X35289285Y39755229D02*
X35289285Y40355229D01*
X35289285Y40355229D02*
X35232142Y40269515D01*
X35232142Y40269515D02*
X35174999Y40212372D01*
X35174999Y40212372D02*
X35117856Y40183800D01*
X35975000Y40155229D02*
X35975000Y39755229D01*
X35832142Y40383800D02*
X35689285Y39955229D01*
X35689285Y39955229D02*
X36060714Y39955229D01*
X15775000Y37737372D02*
X15746428Y37708800D01*
X15746428Y37708800D02*
X15660714Y37680229D01*
X15660714Y37680229D02*
X15603571Y37680229D01*
X15603571Y37680229D02*
X15517857Y37708800D01*
X15517857Y37708800D02*
X15460714Y37765943D01*
X15460714Y37765943D02*
X15432143Y37823086D01*
X15432143Y37823086D02*
X15403571Y37937372D01*
X15403571Y37937372D02*
X15403571Y38023086D01*
X15403571Y38023086D02*
X15432143Y38137372D01*
X15432143Y38137372D02*
X15460714Y38194515D01*
X15460714Y38194515D02*
X15517857Y38251658D01*
X15517857Y38251658D02*
X15603571Y38280229D01*
X15603571Y38280229D02*
X15660714Y38280229D01*
X15660714Y38280229D02*
X15746428Y38251658D01*
X15746428Y38251658D02*
X15775000Y38223086D01*
X16003571Y38223086D02*
X16032143Y38251658D01*
X16032143Y38251658D02*
X16089286Y38280229D01*
X16089286Y38280229D02*
X16232143Y38280229D01*
X16232143Y38280229D02*
X16289286Y38251658D01*
X16289286Y38251658D02*
X16317857Y38223086D01*
X16317857Y38223086D02*
X16346428Y38165943D01*
X16346428Y38165943D02*
X16346428Y38108800D01*
X16346428Y38108800D02*
X16317857Y38023086D01*
X16317857Y38023086D02*
X15975000Y37680229D01*
X15975000Y37680229D02*
X16346428Y37680229D01*
X42814285Y29205229D02*
X42614285Y29490943D01*
X42471428Y29205229D02*
X42471428Y29805229D01*
X42471428Y29805229D02*
X42699999Y29805229D01*
X42699999Y29805229D02*
X42757142Y29776658D01*
X42757142Y29776658D02*
X42785713Y29748086D01*
X42785713Y29748086D02*
X42814285Y29690943D01*
X42814285Y29690943D02*
X42814285Y29605229D01*
X42814285Y29605229D02*
X42785713Y29548086D01*
X42785713Y29548086D02*
X42757142Y29519515D01*
X42757142Y29519515D02*
X42699999Y29490943D01*
X42699999Y29490943D02*
X42471428Y29490943D01*
X43042856Y29748086D02*
X43071428Y29776658D01*
X43071428Y29776658D02*
X43128571Y29805229D01*
X43128571Y29805229D02*
X43271428Y29805229D01*
X43271428Y29805229D02*
X43328571Y29776658D01*
X43328571Y29776658D02*
X43357142Y29748086D01*
X43357142Y29748086D02*
X43385713Y29690943D01*
X43385713Y29690943D02*
X43385713Y29633800D01*
X43385713Y29633800D02*
X43357142Y29548086D01*
X43357142Y29548086D02*
X43014285Y29205229D01*
X43014285Y29205229D02*
X43385713Y29205229D01*
X43671428Y29205229D02*
X43785714Y29205229D01*
X43785714Y29205229D02*
X43842857Y29233800D01*
X43842857Y29233800D02*
X43871428Y29262372D01*
X43871428Y29262372D02*
X43928571Y29348086D01*
X43928571Y29348086D02*
X43957142Y29462372D01*
X43957142Y29462372D02*
X43957142Y29690943D01*
X43957142Y29690943D02*
X43928571Y29748086D01*
X43928571Y29748086D02*
X43900000Y29776658D01*
X43900000Y29776658D02*
X43842857Y29805229D01*
X43842857Y29805229D02*
X43728571Y29805229D01*
X43728571Y29805229D02*
X43671428Y29776658D01*
X43671428Y29776658D02*
X43642857Y29748086D01*
X43642857Y29748086D02*
X43614285Y29690943D01*
X43614285Y29690943D02*
X43614285Y29548086D01*
X43614285Y29548086D02*
X43642857Y29490943D01*
X43642857Y29490943D02*
X43671428Y29462372D01*
X43671428Y29462372D02*
X43728571Y29433800D01*
X43728571Y29433800D02*
X43842857Y29433800D01*
X43842857Y29433800D02*
X43900000Y29462372D01*
X43900000Y29462372D02*
X43928571Y29490943D01*
X43928571Y29490943D02*
X43957142Y29548086D01*
X15800000Y38797372D02*
X15771428Y38768800D01*
X15771428Y38768800D02*
X15685714Y38740229D01*
X15685714Y38740229D02*
X15628571Y38740229D01*
X15628571Y38740229D02*
X15542857Y38768800D01*
X15542857Y38768800D02*
X15485714Y38825943D01*
X15485714Y38825943D02*
X15457143Y38883086D01*
X15457143Y38883086D02*
X15428571Y38997372D01*
X15428571Y38997372D02*
X15428571Y39083086D01*
X15428571Y39083086D02*
X15457143Y39197372D01*
X15457143Y39197372D02*
X15485714Y39254515D01*
X15485714Y39254515D02*
X15542857Y39311658D01*
X15542857Y39311658D02*
X15628571Y39340229D01*
X15628571Y39340229D02*
X15685714Y39340229D01*
X15685714Y39340229D02*
X15771428Y39311658D01*
X15771428Y39311658D02*
X15800000Y39283086D01*
X16000000Y39340229D02*
X16371428Y39340229D01*
X16371428Y39340229D02*
X16171428Y39111658D01*
X16171428Y39111658D02*
X16257143Y39111658D01*
X16257143Y39111658D02*
X16314286Y39083086D01*
X16314286Y39083086D02*
X16342857Y39054515D01*
X16342857Y39054515D02*
X16371428Y38997372D01*
X16371428Y38997372D02*
X16371428Y38854515D01*
X16371428Y38854515D02*
X16342857Y38797372D01*
X16342857Y38797372D02*
X16314286Y38768800D01*
X16314286Y38768800D02*
X16257143Y38740229D01*
X16257143Y38740229D02*
X16085714Y38740229D01*
X16085714Y38740229D02*
X16028571Y38768800D01*
X16028571Y38768800D02*
X16000000Y38797372D01*
X22357143Y46280229D02*
X22357143Y46880229D01*
X22357143Y46880229D02*
X22500000Y46880229D01*
X22500000Y46880229D02*
X22585714Y46851658D01*
X22585714Y46851658D02*
X22642857Y46794515D01*
X22642857Y46794515D02*
X22671428Y46737372D01*
X22671428Y46737372D02*
X22700000Y46623086D01*
X22700000Y46623086D02*
X22700000Y46537372D01*
X22700000Y46537372D02*
X22671428Y46423086D01*
X22671428Y46423086D02*
X22642857Y46365943D01*
X22642857Y46365943D02*
X22585714Y46308800D01*
X22585714Y46308800D02*
X22500000Y46280229D01*
X22500000Y46280229D02*
X22357143Y46280229D01*
X23214286Y46880229D02*
X23100000Y46880229D01*
X23100000Y46880229D02*
X23042857Y46851658D01*
X23042857Y46851658D02*
X23014286Y46823086D01*
X23014286Y46823086D02*
X22957143Y46737372D01*
X22957143Y46737372D02*
X22928571Y46623086D01*
X22928571Y46623086D02*
X22928571Y46394515D01*
X22928571Y46394515D02*
X22957143Y46337372D01*
X22957143Y46337372D02*
X22985714Y46308800D01*
X22985714Y46308800D02*
X23042857Y46280229D01*
X23042857Y46280229D02*
X23157143Y46280229D01*
X23157143Y46280229D02*
X23214286Y46308800D01*
X23214286Y46308800D02*
X23242857Y46337372D01*
X23242857Y46337372D02*
X23271428Y46394515D01*
X23271428Y46394515D02*
X23271428Y46537372D01*
X23271428Y46537372D02*
X23242857Y46594515D01*
X23242857Y46594515D02*
X23214286Y46623086D01*
X23214286Y46623086D02*
X23157143Y46651658D01*
X23157143Y46651658D02*
X23042857Y46651658D01*
X23042857Y46651658D02*
X22985714Y46623086D01*
X22985714Y46623086D02*
X22957143Y46594515D01*
X22957143Y46594515D02*
X22928571Y46537372D01*
X37964285Y33237372D02*
X37935713Y33208800D01*
X37935713Y33208800D02*
X37849999Y33180229D01*
X37849999Y33180229D02*
X37792856Y33180229D01*
X37792856Y33180229D02*
X37707142Y33208800D01*
X37707142Y33208800D02*
X37649999Y33265943D01*
X37649999Y33265943D02*
X37621428Y33323086D01*
X37621428Y33323086D02*
X37592856Y33437372D01*
X37592856Y33437372D02*
X37592856Y33523086D01*
X37592856Y33523086D02*
X37621428Y33637372D01*
X37621428Y33637372D02*
X37649999Y33694515D01*
X37649999Y33694515D02*
X37707142Y33751658D01*
X37707142Y33751658D02*
X37792856Y33780229D01*
X37792856Y33780229D02*
X37849999Y33780229D01*
X37849999Y33780229D02*
X37935713Y33751658D01*
X37935713Y33751658D02*
X37964285Y33723086D01*
X38535713Y33180229D02*
X38192856Y33180229D01*
X38364285Y33180229D02*
X38364285Y33780229D01*
X38364285Y33780229D02*
X38307142Y33694515D01*
X38307142Y33694515D02*
X38249999Y33637372D01*
X38249999Y33637372D02*
X38192856Y33608800D01*
X38907142Y33780229D02*
X38964285Y33780229D01*
X38964285Y33780229D02*
X39021428Y33751658D01*
X39021428Y33751658D02*
X39050000Y33723086D01*
X39050000Y33723086D02*
X39078571Y33665943D01*
X39078571Y33665943D02*
X39107142Y33551658D01*
X39107142Y33551658D02*
X39107142Y33408800D01*
X39107142Y33408800D02*
X39078571Y33294515D01*
X39078571Y33294515D02*
X39050000Y33237372D01*
X39050000Y33237372D02*
X39021428Y33208800D01*
X39021428Y33208800D02*
X38964285Y33180229D01*
X38964285Y33180229D02*
X38907142Y33180229D01*
X38907142Y33180229D02*
X38850000Y33208800D01*
X38850000Y33208800D02*
X38821428Y33237372D01*
X38821428Y33237372D02*
X38792857Y33294515D01*
X38792857Y33294515D02*
X38764285Y33408800D01*
X38764285Y33408800D02*
X38764285Y33551658D01*
X38764285Y33551658D02*
X38792857Y33665943D01*
X38792857Y33665943D02*
X38821428Y33723086D01*
X38821428Y33723086D02*
X38850000Y33751658D01*
X38850000Y33751658D02*
X38907142Y33780229D01*
X21075000Y37737372D02*
X21046428Y37708800D01*
X21046428Y37708800D02*
X20960714Y37680229D01*
X20960714Y37680229D02*
X20903571Y37680229D01*
X20903571Y37680229D02*
X20817857Y37708800D01*
X20817857Y37708800D02*
X20760714Y37765943D01*
X20760714Y37765943D02*
X20732143Y37823086D01*
X20732143Y37823086D02*
X20703571Y37937372D01*
X20703571Y37937372D02*
X20703571Y38023086D01*
X20703571Y38023086D02*
X20732143Y38137372D01*
X20732143Y38137372D02*
X20760714Y38194515D01*
X20760714Y38194515D02*
X20817857Y38251658D01*
X20817857Y38251658D02*
X20903571Y38280229D01*
X20903571Y38280229D02*
X20960714Y38280229D01*
X20960714Y38280229D02*
X21046428Y38251658D01*
X21046428Y38251658D02*
X21075000Y38223086D01*
X21275000Y38280229D02*
X21675000Y38280229D01*
X21675000Y38280229D02*
X21417857Y37680229D01*
X34364285Y30230229D02*
X34164285Y30515943D01*
X34021428Y30230229D02*
X34021428Y30830229D01*
X34021428Y30830229D02*
X34249999Y30830229D01*
X34249999Y30830229D02*
X34307142Y30801658D01*
X34307142Y30801658D02*
X34335713Y30773086D01*
X34335713Y30773086D02*
X34364285Y30715943D01*
X34364285Y30715943D02*
X34364285Y30630229D01*
X34364285Y30630229D02*
X34335713Y30573086D01*
X34335713Y30573086D02*
X34307142Y30544515D01*
X34307142Y30544515D02*
X34249999Y30515943D01*
X34249999Y30515943D02*
X34021428Y30515943D01*
X34935713Y30230229D02*
X34592856Y30230229D01*
X34764285Y30230229D02*
X34764285Y30830229D01*
X34764285Y30830229D02*
X34707142Y30744515D01*
X34707142Y30744515D02*
X34649999Y30687372D01*
X34649999Y30687372D02*
X34592856Y30658800D01*
X35278571Y30573086D02*
X35221428Y30601658D01*
X35221428Y30601658D02*
X35192857Y30630229D01*
X35192857Y30630229D02*
X35164285Y30687372D01*
X35164285Y30687372D02*
X35164285Y30715943D01*
X35164285Y30715943D02*
X35192857Y30773086D01*
X35192857Y30773086D02*
X35221428Y30801658D01*
X35221428Y30801658D02*
X35278571Y30830229D01*
X35278571Y30830229D02*
X35392857Y30830229D01*
X35392857Y30830229D02*
X35450000Y30801658D01*
X35450000Y30801658D02*
X35478571Y30773086D01*
X35478571Y30773086D02*
X35507142Y30715943D01*
X35507142Y30715943D02*
X35507142Y30687372D01*
X35507142Y30687372D02*
X35478571Y30630229D01*
X35478571Y30630229D02*
X35450000Y30601658D01*
X35450000Y30601658D02*
X35392857Y30573086D01*
X35392857Y30573086D02*
X35278571Y30573086D01*
X35278571Y30573086D02*
X35221428Y30544515D01*
X35221428Y30544515D02*
X35192857Y30515943D01*
X35192857Y30515943D02*
X35164285Y30458800D01*
X35164285Y30458800D02*
X35164285Y30344515D01*
X35164285Y30344515D02*
X35192857Y30287372D01*
X35192857Y30287372D02*
X35221428Y30258800D01*
X35221428Y30258800D02*
X35278571Y30230229D01*
X35278571Y30230229D02*
X35392857Y30230229D01*
X35392857Y30230229D02*
X35450000Y30258800D01*
X35450000Y30258800D02*
X35478571Y30287372D01*
X35478571Y30287372D02*
X35507142Y30344515D01*
X35507142Y30344515D02*
X35507142Y30458800D01*
X35507142Y30458800D02*
X35478571Y30515943D01*
X35478571Y30515943D02*
X35450000Y30544515D01*
X35450000Y30544515D02*
X35392857Y30573086D01*
X34857143Y46955229D02*
X34857143Y47555229D01*
X34857143Y47555229D02*
X35000000Y47555229D01*
X35000000Y47555229D02*
X35085714Y47526658D01*
X35085714Y47526658D02*
X35142857Y47469515D01*
X35142857Y47469515D02*
X35171428Y47412372D01*
X35171428Y47412372D02*
X35200000Y47298086D01*
X35200000Y47298086D02*
X35200000Y47212372D01*
X35200000Y47212372D02*
X35171428Y47098086D01*
X35171428Y47098086D02*
X35142857Y47040943D01*
X35142857Y47040943D02*
X35085714Y46983800D01*
X35085714Y46983800D02*
X35000000Y46955229D01*
X35000000Y46955229D02*
X34857143Y46955229D01*
X35771428Y46955229D02*
X35428571Y46955229D01*
X35600000Y46955229D02*
X35600000Y47555229D01*
X35600000Y47555229D02*
X35542857Y47469515D01*
X35542857Y47469515D02*
X35485714Y47412372D01*
X35485714Y47412372D02*
X35428571Y47383800D01*
X37289285Y31280229D02*
X37089285Y31565943D01*
X36946428Y31280229D02*
X36946428Y31880229D01*
X36946428Y31880229D02*
X37174999Y31880229D01*
X37174999Y31880229D02*
X37232142Y31851658D01*
X37232142Y31851658D02*
X37260713Y31823086D01*
X37260713Y31823086D02*
X37289285Y31765943D01*
X37289285Y31765943D02*
X37289285Y31680229D01*
X37289285Y31680229D02*
X37260713Y31623086D01*
X37260713Y31623086D02*
X37232142Y31594515D01*
X37232142Y31594515D02*
X37174999Y31565943D01*
X37174999Y31565943D02*
X36946428Y31565943D01*
X37517856Y31823086D02*
X37546428Y31851658D01*
X37546428Y31851658D02*
X37603571Y31880229D01*
X37603571Y31880229D02*
X37746428Y31880229D01*
X37746428Y31880229D02*
X37803571Y31851658D01*
X37803571Y31851658D02*
X37832142Y31823086D01*
X37832142Y31823086D02*
X37860713Y31765943D01*
X37860713Y31765943D02*
X37860713Y31708800D01*
X37860713Y31708800D02*
X37832142Y31623086D01*
X37832142Y31623086D02*
X37489285Y31280229D01*
X37489285Y31280229D02*
X37860713Y31280229D01*
X38375000Y31680229D02*
X38375000Y31280229D01*
X38232142Y31908800D02*
X38089285Y31480229D01*
X38089285Y31480229D02*
X38460714Y31480229D01*
X36439285Y30230229D02*
X36239285Y30515943D01*
X36096428Y30230229D02*
X36096428Y30830229D01*
X36096428Y30830229D02*
X36324999Y30830229D01*
X36324999Y30830229D02*
X36382142Y30801658D01*
X36382142Y30801658D02*
X36410713Y30773086D01*
X36410713Y30773086D02*
X36439285Y30715943D01*
X36439285Y30715943D02*
X36439285Y30630229D01*
X36439285Y30630229D02*
X36410713Y30573086D01*
X36410713Y30573086D02*
X36382142Y30544515D01*
X36382142Y30544515D02*
X36324999Y30515943D01*
X36324999Y30515943D02*
X36096428Y30515943D01*
X37010713Y30230229D02*
X36667856Y30230229D01*
X36839285Y30230229D02*
X36839285Y30830229D01*
X36839285Y30830229D02*
X36782142Y30744515D01*
X36782142Y30744515D02*
X36724999Y30687372D01*
X36724999Y30687372D02*
X36667856Y30658800D01*
X37210714Y30830229D02*
X37610714Y30830229D01*
X37610714Y30830229D02*
X37353571Y30230229D01*
X4999999Y4730229D02*
X4999999Y4301658D01*
X4999999Y4301658D02*
X4971428Y4215943D01*
X4971428Y4215943D02*
X4914285Y4158800D01*
X4914285Y4158800D02*
X4828571Y4130229D01*
X4828571Y4130229D02*
X4771428Y4130229D01*
X5228571Y4730229D02*
X5628571Y4730229D01*
X5628571Y4730229D02*
X5371428Y4130229D01*
X15800000Y39827372D02*
X15771428Y39798800D01*
X15771428Y39798800D02*
X15685714Y39770229D01*
X15685714Y39770229D02*
X15628571Y39770229D01*
X15628571Y39770229D02*
X15542857Y39798800D01*
X15542857Y39798800D02*
X15485714Y39855943D01*
X15485714Y39855943D02*
X15457143Y39913086D01*
X15457143Y39913086D02*
X15428571Y40027372D01*
X15428571Y40027372D02*
X15428571Y40113086D01*
X15428571Y40113086D02*
X15457143Y40227372D01*
X15457143Y40227372D02*
X15485714Y40284515D01*
X15485714Y40284515D02*
X15542857Y40341658D01*
X15542857Y40341658D02*
X15628571Y40370229D01*
X15628571Y40370229D02*
X15685714Y40370229D01*
X15685714Y40370229D02*
X15771428Y40341658D01*
X15771428Y40341658D02*
X15800000Y40313086D01*
X16314286Y40170229D02*
X16314286Y39770229D01*
X16171428Y40398800D02*
X16028571Y39970229D01*
X16028571Y39970229D02*
X16400000Y39970229D01*
X29639285Y38797372D02*
X29610713Y38768800D01*
X29610713Y38768800D02*
X29524999Y38740229D01*
X29524999Y38740229D02*
X29467856Y38740229D01*
X29467856Y38740229D02*
X29382142Y38768800D01*
X29382142Y38768800D02*
X29324999Y38825943D01*
X29324999Y38825943D02*
X29296428Y38883086D01*
X29296428Y38883086D02*
X29267856Y38997372D01*
X29267856Y38997372D02*
X29267856Y39083086D01*
X29267856Y39083086D02*
X29296428Y39197372D01*
X29296428Y39197372D02*
X29324999Y39254515D01*
X29324999Y39254515D02*
X29382142Y39311658D01*
X29382142Y39311658D02*
X29467856Y39340229D01*
X29467856Y39340229D02*
X29524999Y39340229D01*
X29524999Y39340229D02*
X29610713Y39311658D01*
X29610713Y39311658D02*
X29639285Y39283086D01*
X30210713Y38740229D02*
X29867856Y38740229D01*
X30039285Y38740229D02*
X30039285Y39340229D01*
X30039285Y39340229D02*
X29982142Y39254515D01*
X29982142Y39254515D02*
X29924999Y39197372D01*
X29924999Y39197372D02*
X29867856Y39168800D01*
X30439285Y39283086D02*
X30467857Y39311658D01*
X30467857Y39311658D02*
X30525000Y39340229D01*
X30525000Y39340229D02*
X30667857Y39340229D01*
X30667857Y39340229D02*
X30725000Y39311658D01*
X30725000Y39311658D02*
X30753571Y39283086D01*
X30753571Y39283086D02*
X30782142Y39225943D01*
X30782142Y39225943D02*
X30782142Y39168800D01*
X30782142Y39168800D02*
X30753571Y39083086D01*
X30753571Y39083086D02*
X30410714Y38740229D01*
X30410714Y38740229D02*
X30782142Y38740229D01*
X18600000Y29505229D02*
X18400000Y29790943D01*
X18257143Y29505229D02*
X18257143Y30105229D01*
X18257143Y30105229D02*
X18485714Y30105229D01*
X18485714Y30105229D02*
X18542857Y30076658D01*
X18542857Y30076658D02*
X18571428Y30048086D01*
X18571428Y30048086D02*
X18600000Y29990943D01*
X18600000Y29990943D02*
X18600000Y29905229D01*
X18600000Y29905229D02*
X18571428Y29848086D01*
X18571428Y29848086D02*
X18542857Y29819515D01*
X18542857Y29819515D02*
X18485714Y29790943D01*
X18485714Y29790943D02*
X18257143Y29790943D01*
X19142857Y30105229D02*
X18857143Y30105229D01*
X18857143Y30105229D02*
X18828571Y29819515D01*
X18828571Y29819515D02*
X18857143Y29848086D01*
X18857143Y29848086D02*
X18914286Y29876658D01*
X18914286Y29876658D02*
X19057143Y29876658D01*
X19057143Y29876658D02*
X19114286Y29848086D01*
X19114286Y29848086D02*
X19142857Y29819515D01*
X19142857Y29819515D02*
X19171428Y29762372D01*
X19171428Y29762372D02*
X19171428Y29619515D01*
X19171428Y29619515D02*
X19142857Y29562372D01*
X19142857Y29562372D02*
X19114286Y29533800D01*
X19114286Y29533800D02*
X19057143Y29505229D01*
X19057143Y29505229D02*
X18914286Y29505229D01*
X18914286Y29505229D02*
X18857143Y29533800D01*
X18857143Y29533800D02*
X18828571Y29562372D01*
X23550000Y31680229D02*
X23264286Y31680229D01*
X23264286Y31680229D02*
X23264286Y32280229D01*
X23721428Y32223086D02*
X23750000Y32251658D01*
X23750000Y32251658D02*
X23807143Y32280229D01*
X23807143Y32280229D02*
X23950000Y32280229D01*
X23950000Y32280229D02*
X24007143Y32251658D01*
X24007143Y32251658D02*
X24035714Y32223086D01*
X24035714Y32223086D02*
X24064285Y32165943D01*
X24064285Y32165943D02*
X24064285Y32108800D01*
X24064285Y32108800D02*
X24035714Y32023086D01*
X24035714Y32023086D02*
X23692857Y31680229D01*
X23692857Y31680229D02*
X24064285Y31680229D01*
X12389285Y29505229D02*
X12189285Y29790943D01*
X12046428Y29505229D02*
X12046428Y30105229D01*
X12046428Y30105229D02*
X12274999Y30105229D01*
X12274999Y30105229D02*
X12332142Y30076658D01*
X12332142Y30076658D02*
X12360713Y30048086D01*
X12360713Y30048086D02*
X12389285Y29990943D01*
X12389285Y29990943D02*
X12389285Y29905229D01*
X12389285Y29905229D02*
X12360713Y29848086D01*
X12360713Y29848086D02*
X12332142Y29819515D01*
X12332142Y29819515D02*
X12274999Y29790943D01*
X12274999Y29790943D02*
X12046428Y29790943D01*
X12960713Y29505229D02*
X12617856Y29505229D01*
X12789285Y29505229D02*
X12789285Y30105229D01*
X12789285Y30105229D02*
X12732142Y30019515D01*
X12732142Y30019515D02*
X12674999Y29962372D01*
X12674999Y29962372D02*
X12617856Y29933800D01*
X13189285Y30048086D02*
X13217857Y30076658D01*
X13217857Y30076658D02*
X13275000Y30105229D01*
X13275000Y30105229D02*
X13417857Y30105229D01*
X13417857Y30105229D02*
X13475000Y30076658D01*
X13475000Y30076658D02*
X13503571Y30048086D01*
X13503571Y30048086D02*
X13532142Y29990943D01*
X13532142Y29990943D02*
X13532142Y29933800D01*
X13532142Y29933800D02*
X13503571Y29848086D01*
X13503571Y29848086D02*
X13160714Y29505229D01*
X13160714Y29505229D02*
X13532142Y29505229D01*
X20050000Y29505229D02*
X19850000Y29790943D01*
X19707143Y29505229D02*
X19707143Y30105229D01*
X19707143Y30105229D02*
X19935714Y30105229D01*
X19935714Y30105229D02*
X19992857Y30076658D01*
X19992857Y30076658D02*
X20021428Y30048086D01*
X20021428Y30048086D02*
X20050000Y29990943D01*
X20050000Y29990943D02*
X20050000Y29905229D01*
X20050000Y29905229D02*
X20021428Y29848086D01*
X20021428Y29848086D02*
X19992857Y29819515D01*
X19992857Y29819515D02*
X19935714Y29790943D01*
X19935714Y29790943D02*
X19707143Y29790943D01*
X20564286Y29905229D02*
X20564286Y29505229D01*
X20421428Y30133800D02*
X20278571Y29705229D01*
X20278571Y29705229D02*
X20650000Y29705229D01*
X24999999Y4730229D02*
X24999999Y4301658D01*
X24999999Y4301658D02*
X24971428Y4215943D01*
X24971428Y4215943D02*
X24914285Y4158800D01*
X24914285Y4158800D02*
X24828571Y4130229D01*
X24828571Y4130229D02*
X24771428Y4130229D01*
X25571428Y4730229D02*
X25285714Y4730229D01*
X25285714Y4730229D02*
X25257142Y4444515D01*
X25257142Y4444515D02*
X25285714Y4473086D01*
X25285714Y4473086D02*
X25342857Y4501658D01*
X25342857Y4501658D02*
X25485714Y4501658D01*
X25485714Y4501658D02*
X25542857Y4473086D01*
X25542857Y4473086D02*
X25571428Y4444515D01*
X25571428Y4444515D02*
X25599999Y4387372D01*
X25599999Y4387372D02*
X25599999Y4244515D01*
X25599999Y4244515D02*
X25571428Y4187372D01*
X25571428Y4187372D02*
X25542857Y4158800D01*
X25542857Y4158800D02*
X25485714Y4130229D01*
X25485714Y4130229D02*
X25342857Y4130229D01*
X25342857Y4130229D02*
X25285714Y4158800D01*
X25285714Y4158800D02*
X25257142Y4187372D01*
X14375000Y29505229D02*
X14175000Y29790943D01*
X14032143Y29505229D02*
X14032143Y30105229D01*
X14032143Y30105229D02*
X14260714Y30105229D01*
X14260714Y30105229D02*
X14317857Y30076658D01*
X14317857Y30076658D02*
X14346428Y30048086D01*
X14346428Y30048086D02*
X14375000Y29990943D01*
X14375000Y29990943D02*
X14375000Y29905229D01*
X14375000Y29905229D02*
X14346428Y29848086D01*
X14346428Y29848086D02*
X14317857Y29819515D01*
X14317857Y29819515D02*
X14260714Y29790943D01*
X14260714Y29790943D02*
X14032143Y29790943D01*
X14717857Y29848086D02*
X14660714Y29876658D01*
X14660714Y29876658D02*
X14632143Y29905229D01*
X14632143Y29905229D02*
X14603571Y29962372D01*
X14603571Y29962372D02*
X14603571Y29990943D01*
X14603571Y29990943D02*
X14632143Y30048086D01*
X14632143Y30048086D02*
X14660714Y30076658D01*
X14660714Y30076658D02*
X14717857Y30105229D01*
X14717857Y30105229D02*
X14832143Y30105229D01*
X14832143Y30105229D02*
X14889286Y30076658D01*
X14889286Y30076658D02*
X14917857Y30048086D01*
X14917857Y30048086D02*
X14946428Y29990943D01*
X14946428Y29990943D02*
X14946428Y29962372D01*
X14946428Y29962372D02*
X14917857Y29905229D01*
X14917857Y29905229D02*
X14889286Y29876658D01*
X14889286Y29876658D02*
X14832143Y29848086D01*
X14832143Y29848086D02*
X14717857Y29848086D01*
X14717857Y29848086D02*
X14660714Y29819515D01*
X14660714Y29819515D02*
X14632143Y29790943D01*
X14632143Y29790943D02*
X14603571Y29733800D01*
X14603571Y29733800D02*
X14603571Y29619515D01*
X14603571Y29619515D02*
X14632143Y29562372D01*
X14632143Y29562372D02*
X14660714Y29533800D01*
X14660714Y29533800D02*
X14717857Y29505229D01*
X14717857Y29505229D02*
X14832143Y29505229D01*
X14832143Y29505229D02*
X14889286Y29533800D01*
X14889286Y29533800D02*
X14917857Y29562372D01*
X14917857Y29562372D02*
X14946428Y29619515D01*
X14946428Y29619515D02*
X14946428Y29733800D01*
X14946428Y29733800D02*
X14917857Y29790943D01*
X14917857Y29790943D02*
X14889286Y29819515D01*
X14889286Y29819515D02*
X14832143Y29848086D01*
X52039285Y29205229D02*
X51839285Y29490943D01*
X51696428Y29205229D02*
X51696428Y29805229D01*
X51696428Y29805229D02*
X51924999Y29805229D01*
X51924999Y29805229D02*
X51982142Y29776658D01*
X51982142Y29776658D02*
X52010713Y29748086D01*
X52010713Y29748086D02*
X52039285Y29690943D01*
X52039285Y29690943D02*
X52039285Y29605229D01*
X52039285Y29605229D02*
X52010713Y29548086D01*
X52010713Y29548086D02*
X51982142Y29519515D01*
X51982142Y29519515D02*
X51924999Y29490943D01*
X51924999Y29490943D02*
X51696428Y29490943D01*
X52239285Y29805229D02*
X52610713Y29805229D01*
X52610713Y29805229D02*
X52410713Y29576658D01*
X52410713Y29576658D02*
X52496428Y29576658D01*
X52496428Y29576658D02*
X52553571Y29548086D01*
X52553571Y29548086D02*
X52582142Y29519515D01*
X52582142Y29519515D02*
X52610713Y29462372D01*
X52610713Y29462372D02*
X52610713Y29319515D01*
X52610713Y29319515D02*
X52582142Y29262372D01*
X52582142Y29262372D02*
X52553571Y29233800D01*
X52553571Y29233800D02*
X52496428Y29205229D01*
X52496428Y29205229D02*
X52324999Y29205229D01*
X52324999Y29205229D02*
X52267856Y29233800D01*
X52267856Y29233800D02*
X52239285Y29262372D01*
X53182142Y29205229D02*
X52839285Y29205229D01*
X53010714Y29205229D02*
X53010714Y29805229D01*
X53010714Y29805229D02*
X52953571Y29719515D01*
X52953571Y29719515D02*
X52896428Y29662372D01*
X52896428Y29662372D02*
X52839285Y29633800D01*
X52125000Y34430229D02*
X51839286Y34430229D01*
X51839286Y34430229D02*
X51839286Y35030229D01*
X52582143Y35030229D02*
X52467857Y35030229D01*
X52467857Y35030229D02*
X52410714Y35001658D01*
X52410714Y35001658D02*
X52382143Y34973086D01*
X52382143Y34973086D02*
X52325000Y34887372D01*
X52325000Y34887372D02*
X52296428Y34773086D01*
X52296428Y34773086D02*
X52296428Y34544515D01*
X52296428Y34544515D02*
X52325000Y34487372D01*
X52325000Y34487372D02*
X52353571Y34458800D01*
X52353571Y34458800D02*
X52410714Y34430229D01*
X52410714Y34430229D02*
X52525000Y34430229D01*
X52525000Y34430229D02*
X52582143Y34458800D01*
X52582143Y34458800D02*
X52610714Y34487372D01*
X52610714Y34487372D02*
X52639285Y34544515D01*
X52639285Y34544515D02*
X52639285Y34687372D01*
X52639285Y34687372D02*
X52610714Y34744515D01*
X52610714Y34744515D02*
X52582143Y34773086D01*
X52582143Y34773086D02*
X52525000Y34801658D01*
X52525000Y34801658D02*
X52410714Y34801658D01*
X52410714Y34801658D02*
X52353571Y34773086D01*
X52353571Y34773086D02*
X52325000Y34744515D01*
X52325000Y34744515D02*
X52296428Y34687372D01*
D11*
X31150000Y43150000D02*
G75*
G02*
X29750000Y43150000I-700000J0D01*
G01*
X29750000Y43150000D02*
G75*
G02*
X31150000Y43150000I700000J0D01*
G01*
X48313748Y37410000D02*
X48836252Y37410000D01*
X48313748Y35940000D02*
X48836252Y35940000D01*
X31710000Y47750000D02*
X26200000Y47750000D01*
X31710000Y44450000D02*
X26200000Y44450000D01*
X31710000Y44450000D02*
X31710000Y47750000D01*
X55400000Y3600000D02*
X55400000Y2557439D01*
X56420161Y3600000D02*
X55400000Y3600000D01*
X56700000Y900000D02*
X62900000Y900000D01*
X56800000Y4400000D02*
X57200000Y4400000D01*
X57000000Y4050000D02*
X56800000Y4400000D01*
X57000000Y4050000D02*
X57200000Y4400000D01*
X64200000Y3600000D02*
X63179839Y3600000D01*
X64200000Y2557439D02*
X64200000Y3600000D01*
X37650000Y39025000D02*
G75*
G02*
X36250000Y39025000I-700000J0D01*
G01*
X36250000Y39025000D02*
G75*
G02*
X37650000Y39025000I700000J0D01*
G01*
X32890000Y33663748D02*
X32890000Y34186252D01*
X35110000Y33663748D02*
X35110000Y34186252D01*
X21145000Y31146359D02*
X21145000Y31453641D01*
X21905000Y31146359D02*
X21905000Y31453641D01*
X45586252Y37410000D02*
X45063748Y37410000D01*
X45586252Y35940000D02*
X45063748Y35940000D01*
X34063748Y37410000D02*
X34586252Y37410000D01*
X34063748Y35940000D02*
X34586252Y35940000D01*
X20771359Y47805000D02*
X21078641Y47805000D01*
X20771359Y47045000D02*
X21078641Y47045000D01*
X22120000Y31453641D02*
X22120000Y31146359D01*
X22880000Y31453641D02*
X22880000Y31146359D01*
X31153641Y30905000D02*
X30846359Y30905000D01*
X31153641Y30145000D02*
X30846359Y30145000D01*
X19811252Y45935000D02*
X19288748Y45935000D01*
X19811252Y44465000D02*
X19288748Y44465000D01*
X49645000Y31146359D02*
X49645000Y31453641D01*
X50405000Y31146359D02*
X50405000Y31453641D01*
X28440000Y33638748D02*
X28440000Y34161252D01*
X29910000Y33638748D02*
X29910000Y34161252D01*
X43300000Y45500000D02*
G75*
G02*
X41900000Y45500000I-700000J0D01*
G01*
X41900000Y45500000D02*
G75*
G02*
X43300000Y45500000I700000J0D01*
G01*
X44540000Y33663748D02*
X44540000Y34186252D01*
X46760000Y33663748D02*
X46760000Y34186252D01*
X31100000Y3285000D02*
X31740000Y3285000D01*
X33260000Y3285000D02*
X33260000Y3915000D01*
X33850000Y565000D02*
X31150000Y565000D01*
X33900000Y3285000D02*
X33260000Y3285000D01*
X32696359Y30555000D02*
X33003641Y30555000D01*
X32696359Y29795000D02*
X33003641Y29795000D01*
X20750000Y49442561D02*
X20750000Y48400000D01*
X20750000Y48400000D02*
X21770161Y48400000D01*
X29550000Y47950000D02*
X29350000Y47600000D01*
X29550000Y47950000D02*
X29750000Y47600000D01*
X29750000Y47600000D02*
X29350000Y47600000D01*
X29850000Y51100000D02*
X22050000Y51100000D01*
X30129839Y48400000D02*
X31150000Y48400000D01*
X31150000Y48400000D02*
X31150000Y49442561D01*
X800000Y49442561D02*
X800000Y48400000D01*
X800000Y48400000D02*
X1820161Y48400000D01*
X8000000Y47950000D02*
X7800000Y47600000D01*
X8000000Y47950000D02*
X8200000Y47600000D01*
X8200000Y47600000D02*
X7800000Y47600000D01*
X8300000Y51100000D02*
X2100000Y51100000D01*
X8579839Y48400000D02*
X9600000Y48400000D01*
X9600000Y48400000D02*
X9600000Y49442561D01*
X41070000Y31453641D02*
X41070000Y31146359D01*
X41830000Y31453641D02*
X41830000Y31146359D01*
X14545000Y31146359D02*
X14545000Y31453641D01*
X15305000Y31146359D02*
X15305000Y31453641D01*
X31336252Y37410000D02*
X30813748Y37410000D01*
X31336252Y35940000D02*
X30813748Y35940000D01*
X43100000Y41125000D02*
G75*
G02*
X41700000Y41125000I-700000J0D01*
G01*
X41700000Y41125000D02*
G75*
G02*
X43100000Y41125000I700000J0D01*
G01*
X42095000Y31453641D02*
X42095000Y31146359D01*
X42855000Y31453641D02*
X42855000Y31146359D01*
X30290000Y33663748D02*
X30290000Y34186252D01*
X32510000Y33663748D02*
X32510000Y34186252D01*
X10800000Y3600000D02*
X10800000Y2557439D01*
X11820161Y3600000D02*
X10800000Y3600000D01*
X12100000Y900000D02*
X18300000Y900000D01*
X12200000Y4400000D02*
X12600000Y4400000D01*
X12400000Y4050000D02*
X12200000Y4400000D01*
X12400000Y4050000D02*
X12600000Y4400000D01*
X19600000Y3600000D02*
X18579839Y3600000D01*
X19600000Y2557439D02*
X19600000Y3600000D01*
X16040000Y33663748D02*
X16040000Y34186252D01*
X18260000Y33663748D02*
X18260000Y34186252D01*
X23775000Y41100000D02*
G75*
G02*
X22375000Y41100000I-700000J0D01*
G01*
X22375000Y41100000D02*
G75*
G02*
X23775000Y41100000I700000J0D01*
G01*
X49690000Y33638748D02*
X49690000Y34161252D01*
X51160000Y33638748D02*
X51160000Y34161252D01*
X45400000Y49442561D02*
X45400000Y48400000D01*
X45400000Y48400000D02*
X46420161Y48400000D01*
X52600000Y47950000D02*
X52400000Y47600000D01*
X52600000Y47950000D02*
X52800000Y47600000D01*
X52800000Y47600000D02*
X52400000Y47600000D01*
X52900000Y51100000D02*
X46700000Y51100000D01*
X53179839Y48400000D02*
X54200000Y48400000D01*
X54200000Y48400000D02*
X54200000Y49442561D01*
X26470000Y42721359D02*
X26470000Y43028641D01*
X27230000Y42721359D02*
X27230000Y43028641D01*
X35400000Y3600000D02*
X35400000Y2557439D01*
X36420161Y3600000D02*
X35400000Y3600000D01*
X36700000Y900000D02*
X42900000Y900000D01*
X36800000Y4400000D02*
X37200000Y4400000D01*
X37000000Y4050000D02*
X36800000Y4400000D01*
X37000000Y4050000D02*
X37200000Y4400000D01*
X44200000Y3600000D02*
X43179839Y3600000D01*
X44200000Y2557439D02*
X44200000Y3600000D01*
X22688748Y45935000D02*
X23211252Y45935000D01*
X22688748Y44465000D02*
X23211252Y44465000D01*
X28896359Y30180000D02*
X29203641Y30180000D01*
X28896359Y29420000D02*
X29203641Y29420000D01*
X43100000Y39075000D02*
G75*
G02*
X41700000Y39075000I-700000J0D01*
G01*
X41700000Y39075000D02*
G75*
G02*
X43100000Y39075000I700000J0D01*
G01*
X46596359Y31880000D02*
X46903641Y31880000D01*
X46596359Y31120000D02*
X46903641Y31120000D01*
X29203641Y32080000D02*
X28896359Y32080000D01*
X29203641Y31320000D02*
X28896359Y31320000D01*
X35203641Y44755000D02*
X34896359Y44755000D01*
X35203641Y43995000D02*
X34896359Y43995000D01*
X14190000Y33638748D02*
X14190000Y34161252D01*
X15660000Y33638748D02*
X15660000Y34161252D01*
X55400000Y49442561D02*
X55400000Y48400000D01*
X55400000Y48400000D02*
X56420161Y48400000D01*
X62600000Y47950000D02*
X62400000Y47600000D01*
X62600000Y47950000D02*
X62800000Y47600000D01*
X62800000Y47600000D02*
X62400000Y47600000D01*
X62900000Y51100000D02*
X56700000Y51100000D01*
X63179839Y48400000D02*
X64200000Y48400000D01*
X64200000Y48400000D02*
X64200000Y49442561D01*
X31927500Y46037258D02*
X31927500Y45562742D01*
X32972500Y46037258D02*
X32972500Y45562742D01*
X32250000Y49442561D02*
X32250000Y48400000D01*
X32250000Y48400000D02*
X33270161Y48400000D01*
X42650000Y47950000D02*
X42450000Y47600000D01*
X42650000Y47950000D02*
X42850000Y47600000D01*
X42850000Y47600000D02*
X42450000Y47600000D01*
X42950000Y51100000D02*
X33550000Y51100000D01*
X43229839Y48400000D02*
X44250000Y48400000D01*
X44250000Y48400000D02*
X44250000Y49442561D01*
X29100000Y43125000D02*
G75*
G02*
X27700000Y43125000I-700000J0D01*
G01*
X27700000Y43125000D02*
G75*
G02*
X29100000Y43125000I700000J0D01*
G01*
X48778641Y31880000D02*
X48471359Y31880000D01*
X48778641Y31120000D02*
X48471359Y31120000D01*
X45400000Y3600000D02*
X45400000Y2557439D01*
X46420161Y3600000D02*
X45400000Y3600000D01*
X46700000Y900000D02*
X52900000Y900000D01*
X46800000Y4400000D02*
X47200000Y4400000D01*
X47000000Y4050000D02*
X46800000Y4400000D01*
X47000000Y4050000D02*
X47200000Y4400000D01*
X54200000Y3600000D02*
X53179839Y3600000D01*
X54200000Y2557439D02*
X54200000Y3600000D01*
X42690000Y33638748D02*
X42690000Y34161252D01*
X44160000Y33638748D02*
X44160000Y34161252D01*
X21190000Y33638748D02*
X21190000Y34161252D01*
X22660000Y33638748D02*
X22660000Y34161252D01*
X16221359Y31880000D02*
X16528641Y31880000D01*
X16221359Y31120000D02*
X16528641Y31120000D01*
X28896359Y31130000D02*
X29203641Y31130000D01*
X28896359Y30370000D02*
X29203641Y30370000D01*
X44721359Y31880000D02*
X45028641Y31880000D01*
X44721359Y31120000D02*
X45028641Y31120000D01*
X10800000Y49442561D02*
X10800000Y48400000D01*
X10800000Y48400000D02*
X11820161Y48400000D01*
X18000000Y47950000D02*
X17800000Y47600000D01*
X18000000Y47950000D02*
X18200000Y47600000D01*
X18200000Y47600000D02*
X17800000Y47600000D01*
X18300000Y51100000D02*
X12100000Y51100000D01*
X18579839Y48400000D02*
X19600000Y48400000D01*
X19600000Y48400000D02*
X19600000Y49442561D01*
X16415000Y28750000D02*
X47745000Y28750000D01*
X16415000Y15350000D02*
X16415000Y28750000D01*
X44250000Y14450000D02*
X44550000Y15050000D01*
X44550000Y15050000D02*
X44850000Y14450000D01*
X44850000Y14450000D02*
X44250000Y14450000D01*
X47745000Y28750000D02*
X47745000Y24955000D01*
X47745000Y24955000D02*
X48585000Y24955000D01*
X47745000Y17955000D02*
X47745000Y15350000D01*
X47745000Y15350000D02*
X16415000Y15350000D01*
X48585000Y19265000D02*
X48585000Y24955000D01*
X17086252Y37410000D02*
X16563748Y37410000D01*
X17086252Y35940000D02*
X16563748Y35940000D01*
X43045000Y31146359D02*
X43045000Y31453641D01*
X43805000Y31146359D02*
X43805000Y31453641D01*
D12*
X23940000Y47425000D02*
G75*
G02*
X23840000Y47425000I-50000J0D01*
G01*
X23840000Y47425000D02*
G75*
G02*
X23940000Y47425000I50000J0D01*
G01*
D11*
X35440000Y33638748D02*
X35440000Y34161252D01*
X36910000Y33638748D02*
X36910000Y34161252D01*
X19813748Y37410000D02*
X20336252Y37410000D01*
X19813748Y35940000D02*
X20336252Y35940000D01*
X23750000Y39050000D02*
G75*
G02*
X22350000Y39050000I-700000J0D01*
G01*
X22350000Y39050000D02*
G75*
G02*
X23750000Y39050000I700000J0D01*
G01*
X31821359Y31905000D02*
X32128641Y31905000D01*
X31821359Y31145000D02*
X32128641Y31145000D01*
X33190000Y46650000D02*
X33190000Y44950000D01*
X33190000Y46650000D02*
X35850000Y46650000D01*
X33190000Y44950000D02*
X35850000Y44950000D01*
X35571359Y31905000D02*
X35878641Y31905000D01*
X35571359Y31145000D02*
X35878641Y31145000D01*
X34003641Y31905000D02*
X33696359Y31905000D01*
X34003641Y31145000D02*
X33696359Y31145000D01*
X37625000Y41075000D02*
G75*
G02*
X36225000Y41075000I-700000J0D01*
G01*
X36225000Y41075000D02*
G75*
G02*
X37625000Y41075000I700000J0D01*
G01*
X800000Y3600000D02*
X800000Y2557439D01*
X1820161Y3600000D02*
X800000Y3600000D01*
X2100000Y900000D02*
X8300000Y900000D01*
X2200000Y4400000D02*
X2600000Y4400000D01*
X2400000Y4050000D02*
X2200000Y4400000D01*
X2400000Y4050000D02*
X2600000Y4400000D01*
X9600000Y3600000D02*
X8579839Y3600000D01*
X9600000Y2557439D02*
X9600000Y3600000D01*
X18096359Y31880000D02*
X18403641Y31880000D01*
X18096359Y31120000D02*
X18403641Y31120000D01*
X18640000Y33663748D02*
X18640000Y34186252D01*
X20860000Y33663748D02*
X20860000Y34186252D01*
X12620000Y31453641D02*
X12620000Y31146359D01*
X13380000Y31453641D02*
X13380000Y31146359D01*
X45525000Y45500000D02*
G75*
G02*
X44125000Y45500000I-700000J0D01*
G01*
X44125000Y45500000D02*
G75*
G02*
X45525000Y45500000I700000J0D01*
G01*
X20278641Y31880000D02*
X19971359Y31880000D01*
X20278641Y31120000D02*
X19971359Y31120000D01*
X20800000Y3600000D02*
X20800000Y2557439D01*
X21820161Y3600000D02*
X20800000Y3600000D01*
X22100000Y900000D02*
X28300000Y900000D01*
X22200000Y4400000D02*
X22600000Y4400000D01*
X22400000Y4050000D02*
X22200000Y4400000D01*
X22400000Y4050000D02*
X22600000Y4400000D01*
X29600000Y3600000D02*
X28579839Y3600000D01*
X29600000Y2557439D02*
X29600000Y3600000D01*
X13570000Y31453641D02*
X13570000Y31146359D01*
X14330000Y31453641D02*
X14330000Y31146359D01*
X50620000Y31453641D02*
X50620000Y31146359D01*
X51380000Y31453641D02*
X51380000Y31146359D01*
X47140000Y33663748D02*
X47140000Y34186252D01*
X49360000Y33663748D02*
X49360000Y34186252D01*
M02*
