M48
; DRILL file {KiCad 8.0.5} date 2026-01-30T21:43:28+0700
; FORMAT={-:-/ absolute / inch / decimal}
; #@! TF.CreationDate,2026-01-30T21:43:28+07:00
; #@! TF.GenerationSoftware,Kicad,Pcbnew,8.0.5
; #@! TF.FileFunction,Plated,1,8,PTH
FMAT,2
INCH
; #@! TA.AperFunction,Plated,PTH,ViaDrill
T1C0.0098
; #@! TA.AperFunction,Plated,PTH,ComponentDrill
T2C0.0374
; #@! TA.AperFunction,Plated,PTH,ComponentDrill
T3C0.0413
%
G90
G05
T1
X0.0299Y1.9043
X0.0402Y1.9303
X0.0573Y1.9132
X0.0591Y1.8848
X0.0673Y1.3417
X0.076Y1.2874
X0.0781Y1.3153
X0.0846Y0.0728
X0.0952Y1.3324
X0.0981Y1.9833
X0.0981Y0.0487
X0.1098Y2.0075
X0.1201Y1.3657
X0.1223Y1.9833
X0.1223Y0.0487
X0.1367Y1.3882
X0.1425Y2.0055
X0.1467Y0.0325
X0.148Y0.0885
X0.148Y0.0643
X0.1609Y1.3882
X0.1611Y1.9833
X0.1732Y1.4122
X0.1742Y0.0512
X0.1853Y1.9833
X0.2008Y2.0055
X0.2168Y1.9834
X0.2244Y0.5771
X0.2244Y0.5529
X0.2283Y0.5246
X0.2339Y1.9663
X0.245Y0.9481
X0.247Y0.5955
X0.2504Y0.9217
X0.2543Y0.9913
X0.2551Y2.0
X0.2582Y0.8592
X0.2621Y0.9652
X0.2677Y0.6457
X0.2824Y0.8592
X0.2871Y0.624
X0.3004Y0.837
X0.3113Y0.624
X0.3232Y0.2106
X0.3348Y0.185
X0.3376Y0.4173
X0.3376Y0.3159
X0.3411Y0.3889
X0.343Y0.2881
X0.3556Y0.8609
X0.3582Y0.3718
X0.3589Y0.185
X0.3593Y0.3455
X0.3601Y0.271
X0.3725Y1.9301
X0.3727Y0.8438
X0.3729Y0.1542
X0.3839Y0.8169
X0.3878Y0.2795
X0.3878Y0.187
X0.39Y0.1371
X0.3967Y1.9301
X0.4193Y0.1398
X0.4236Y1.9413
X0.4715Y0.19
X0.4918Y1.8064
X0.4918Y0.1715
X0.4951Y1.2726
X0.5128Y1.3041
X0.516Y1.8064
X0.516Y0.1715
X0.5268Y1.9591
X0.5354Y0.19
X0.5354Y0.0659
X0.5358Y1.8268
X0.5374Y1.3189
X0.5374Y1.2904
X0.5482Y1.3819
X0.5482Y1.3504
X0.5492Y1.1909
X0.5493Y0.7204
X0.5502Y0.8051
X0.5548Y1.9569
X0.5548Y1.8064
X0.5548Y0.0884
X0.5643Y0.831
X0.5664Y0.7033
X0.579Y1.9569
X0.579Y1.8064
X0.579Y0.0884
X0.5814Y0.8481
X0.5846Y1.6604
X0.5882Y1.5496
X0.592Y0.6311
X0.5945Y0.7077
X0.5974Y0.1919
X0.598Y1.978
X0.5984Y1.8555
X0.5994Y0.6043
X0.6014Y1.4085
X0.6043Y0.0748
X0.6053Y0.6752
X0.6063Y1.8012
X0.6091Y0.6482
X0.6112Y0.8445
X0.6122Y1.2106
X0.6178Y1.9569
X0.6178Y1.8745
X0.6178Y0.1715
X0.6198Y1.5485
X0.6291Y1.9827
X0.6398Y1.4843
X0.642Y1.9569
X0.642Y1.8745
X0.642Y0.1715
X0.644Y1.5485
X0.6614Y0.1919
X0.6634Y1.8559
X0.6648Y1.2146
X0.6701Y1.9587
X0.6768Y0.6417
X0.6791Y1.5581
X0.6791Y1.5171
X0.6808Y1.9838
X0.6808Y0.1715
X0.702Y0.7083
X0.7031Y0.6802
X0.7031Y0.656
X0.705Y1.9838
X0.705Y0.1715
X0.7106Y1.5581
X0.7106Y1.5171
X0.7165Y0.1959
X0.7264Y1.2106
X0.7421Y1.5581
X0.7421Y1.5171
X0.7579Y1.2106
X0.7697Y1.8287
X0.7697Y1.7579
X0.7736Y1.5581
X0.7736Y1.5171
X0.7795Y1.0181
X0.7894Y1.2106
X0.8012Y1.4911
X0.8088Y1.5485
X0.8209Y1.5236
X0.8238Y1.2096
X0.8295Y1.0181
X0.8295Y0.9681
X0.8295Y0.9181
X0.8295Y0.8681
X0.8295Y0.8181
X0.8295Y0.7681
X0.8295Y0.7181
X0.833Y1.5485
X0.8356Y1.7904
X0.8356Y1.7618
X0.8425Y1.3425
X0.8474Y1.4055
X0.8504Y1.7382
X0.8652Y1.6624
X0.873Y0.063
X0.878Y1.7382
X0.8795Y1.0681
X0.8795Y1.0181
X0.8795Y0.9681
X0.8795Y0.9181
X0.8795Y0.8681
X0.8795Y0.8181
X0.8795Y0.7681
X0.8795Y0.7181
X0.8795Y0.6681
X0.8795Y0.6181
X0.8855Y0.0884
X0.8957Y1.7904
X0.8957Y1.7618
X0.9035Y1.3809
X0.9075Y1.3189
X0.9075Y1.2894
X0.9097Y0.0884
X0.9104Y1.9537
X0.9173Y1.2569
X0.9183Y1.5738
X0.9242Y1.8238
X0.9281Y0.0669
X0.9295Y1.0681
X0.9295Y1.0181
X0.9295Y0.9681
X0.9295Y0.9181
X0.9295Y0.8681
X0.9295Y0.8181
X0.9295Y0.7681
X0.9295Y0.7181
X0.9331Y1.3012
X0.935Y1.7411
X0.9409Y1.5945
X0.9429Y1.9537
X0.9429Y1.8681
X0.9485Y0.0884
X0.9547Y1.8238
X0.9715Y1.7992
X0.9727Y0.0884
X0.9795Y1.0181
X0.9795Y0.9681
X0.9795Y0.9181
X0.9795Y0.8681
X0.9795Y0.8181
X0.9795Y0.7681
X0.9795Y0.7181
X0.9921Y0.0679
X1.0115Y0.0884
X1.0295Y1.0181
X1.0295Y0.9681
X1.0295Y0.9181
X1.0295Y0.8681
X1.0295Y0.8181
X1.0295Y0.7681
X1.0295Y0.7181
X1.0357Y0.0884
X1.0551Y0.0679
X1.0571Y1.6457
X1.0575Y1.7327
X1.063Y1.8602
X1.0745Y0.0884
X1.0795Y1.0681
X1.0795Y1.0181
X1.0795Y0.9681
X1.0795Y0.9181
X1.0795Y0.8681
X1.0795Y0.8181
X1.0795Y0.7681
X1.0795Y0.7181
X1.0866Y1.7293
X1.0915Y1.8602
X1.0987Y0.0884
X1.1014Y1.3337
X1.1014Y1.3061
X1.1014Y1.2785
X1.1091Y1.3618
X1.1152Y1.7293
X1.1295Y1.0681
X1.1295Y1.0181
X1.1295Y0.9681
X1.1295Y0.9181
X1.1295Y0.8681
X1.1295Y0.8181
X1.1295Y0.7681
X1.1295Y0.7181
X1.137Y1.3429
X1.1388Y1.9921
X1.1457Y1.6624
X1.1457Y1.5551
X1.1516Y1.7539
X1.1565Y1.4567
X1.1565Y1.4291
X1.1565Y1.4016
X1.1808Y1.5485
X1.189Y1.2333
X1.1988Y1.7303
X1.2047Y1.1713
X1.205Y1.5485
X1.2146Y1.2215
X1.2154Y0.9142
X1.2154Y0.8642
X1.2154Y0.8142
X1.2154Y0.7642
X1.2154Y0.7142
X1.2154Y0.6642
X1.2205Y0.9642
X1.2215Y0.1358
X1.2254Y1.9429
X1.2264Y1.1506
X1.2293Y1.7303
X1.2372Y1.0669
X1.2402Y1.5567
X1.2402Y1.5171
X1.2421Y1.127
X1.2431Y1.0128
X1.2437Y0.9142
X1.2437Y0.8642
X1.2437Y0.8142
X1.2437Y0.7642
X1.2437Y0.7142
X1.2437Y0.6642
X1.248Y1.1762
X1.248Y0.9642
X1.252Y1.753
X1.2539Y1.9429
X1.2717Y1.5581
X1.2717Y1.5171
X1.2795Y0.1722
X1.2844Y1.2185
X1.3031Y1.5581
X1.3031Y1.5171
X1.3045Y0.9685
X1.313Y1.2185
X1.3154Y0.8642
X1.3154Y0.8142
X1.3154Y0.7142
X1.3154Y0.6642
X1.3154Y0.622
X1.3228Y2.0148
X1.3268Y0.9203
X1.3297Y1.877
X1.3297Y1.8494
X1.3297Y0.7734
X1.3307Y1.7657
X1.3307Y1.7382
X1.3315Y0.9579
X1.3327Y1.0319
X1.3327Y1.0043
X1.3346Y1.5567
X1.3346Y1.5171
X1.3376Y0.1358
X1.3406Y1.2116
X1.3437Y0.8642
X1.3437Y0.8142
X1.3437Y0.7142
X1.3437Y0.6642
X1.3437Y0.622
X1.3539Y1.863
X1.3539Y1.8354
X1.3657Y1.9803
X1.3681Y1.7224
X1.3698Y1.5485
X1.374Y1.4833
X1.3925Y1.8278
X1.394Y1.5485
X1.4006Y1.3435
X1.4016Y1.4045
X1.4016Y1.2224
X1.4173Y1.5246
X1.4213Y1.5551
X1.4266Y1.9705
X1.4295Y1.0681
X1.4295Y1.0181
X1.4295Y0.9681
X1.4295Y0.9181
X1.4295Y0.8681
X1.4295Y0.8181
X1.4295Y0.7681
X1.4295Y0.7181
X1.4295Y0.6681
X1.4295Y0.6181
X1.4409Y1.3278
X1.4449Y1.7549
X1.4656Y1.3799
X1.4665Y1.3425
X1.4665Y1.315
X1.4774Y1.5955
X1.4795Y1.0681
X1.4795Y1.0181
X1.4795Y0.9681
X1.4795Y0.9181
X1.4795Y0.8681
X1.4795Y0.8181
X1.4795Y0.7681
X1.4795Y0.7181
X1.4795Y0.6681
X1.4795Y0.6181
X1.4921Y1.9547
X1.4965Y0.0886
X1.5207Y1.9547
X1.5217Y1.5433
X1.5233Y0.0884
X1.5295Y1.0681
X1.5295Y1.0181
X1.5295Y0.9681
X1.5295Y0.9181
X1.5295Y0.8681
X1.5295Y0.8181
X1.5295Y0.7681
X1.5295Y0.7181
X1.5295Y0.6681
X1.5295Y0.6181
X1.5463Y1.3671
X1.5475Y0.0884
X1.5571Y1.6732
X1.5791Y1.6969
X1.5795Y1.0681
X1.5795Y1.0181
X1.5795Y0.9681
X1.5795Y0.9181
X1.5795Y0.8681
X1.5795Y0.8181
X1.5795Y0.7681
X1.5795Y0.7181
X1.5795Y0.6681
X1.5795Y0.6181
X1.5846Y1.874
X1.5863Y0.0884
X1.6105Y0.0884
X1.6152Y1.874
X1.6171Y1.2717
X1.6295Y1.0181
X1.6295Y0.9681
X1.6295Y0.9181
X1.6295Y0.8681
X1.6295Y0.8181
X1.6295Y0.7681
X1.6295Y0.7181
X1.6295Y0.6681
X1.6295Y0.6181
X1.6378Y1.3031
X1.639Y0.0886
X1.6476Y1.8799
X1.6526Y1.2274
X1.6614Y1.5915
X1.6624Y1.3179
X1.6624Y1.2894
X1.6683Y1.377
X1.6791Y1.8799
X1.6795Y1.0181
X1.6795Y0.9681
X1.6795Y0.9181
X1.6795Y0.8681
X1.6795Y0.8181
X1.6795Y0.7681
X1.6795Y0.7181
X1.6795Y0.6681
X1.6795Y0.6181
X1.6821Y1.5128
X1.687Y1.6604
X1.6915Y0.1768
X1.6959Y1.4035
X1.6998Y1.7156
X1.7083Y0.148
X1.7116Y1.4734
X1.7146Y1.4272
X1.7156Y0.1768
X1.7161Y1.9429
X1.7295Y0.9681
X1.7295Y0.9181
X1.7295Y0.8681
X1.7295Y0.8181
X1.7295Y0.7681
X1.7295Y0.7181
X1.7313Y1.4026
X1.7343Y1.2106
X1.7344Y0.1985
X1.7418Y1.5485
X1.7451Y1.9006
X1.7465Y0.1732
X1.7539Y1.5236
X1.7585Y0.1985
X1.7648Y1.8583
X1.766Y1.5485
X1.7874Y1.2146
X1.8012Y1.5567
X1.8012Y1.5171
X1.8031Y1.7421
X1.8327Y1.5581
X1.8327Y1.5171
X1.8417Y1.9823
X1.8484Y1.2106
X1.854Y2.0064
X1.8622Y0.6181
X1.8642Y1.5581
X1.8642Y1.5171
X1.8729Y0.6665
X1.8782Y2.0064
X1.8799Y1.2106
X1.8894Y1.9567
X1.8957Y1.5567
X1.8957Y1.5171
X1.8971Y0.6665
X1.9087Y0.6925
X1.9098Y0.4303
X1.9102Y0.4831
X1.9114Y1.2106
X1.917Y1.9579
X1.9226Y0.4575
X1.9308Y1.5485
X1.9412Y1.9579
X1.9449Y1.2106
X1.9467Y0.4575
X1.955Y1.5485
X1.9626Y1.3425
X1.9744Y1.4094
X1.98Y1.9579
X1.98Y0.1715
X1.9827Y1.5555
X1.9878Y0.1969
X2.0009Y0.6776
X2.0026Y0.9152
X2.0026Y0.8911
X2.0042Y1.9579
X2.0042Y0.1715
X2.0251Y0.6776
X2.0266Y1.3799
X2.0266Y1.3504
X2.0266Y1.3189
X2.0266Y1.2894
X2.0307Y0.8909
X2.0323Y1.9575
X2.0344Y1.248
X2.0386Y0.7016
X2.0502Y1.3041
X2.0933Y1.884
X2.0933Y1.8598
X2.1134Y1.9433
X2.1217Y1.8878
X2.1571Y0.3337
X2.1571Y0.3096
X2.1575Y0.4139
X2.1575Y0.3898
X2.1575Y0.3612
X2.1575Y0.2819
X2.1585Y0.4406
X2.1596Y0.9346
X2.1614Y0.1732
X2.1736Y1.7756
X2.1777Y1.0437
X2.1821Y1.8022
X2.1837Y0.9346
X2.1859Y0.1878
X2.1904Y1.8787
X2.1917Y1.0705
X2.1978Y1.7756
X2.2019Y1.0437
X2.2055Y0.9747
X2.2055Y0.9505
X2.2094Y0.9228
X2.2101Y0.1878
X2.2146Y1.8787
X2.2157Y1.9059
X2.2241Y1.1227
X2.2303Y0.9878
X2.2311Y1.15
X2.2313Y0.1703
X2.2412Y1.1056
X2.2461Y1.0791
X2.2835Y0.0571
X2.3127Y0.057
X2.3298Y0.0399
X2.3449Y1.9547
X2.3575Y0.0303
X2.3737Y1.9579
X2.3765Y1.4421
X2.3783Y1.6126
X2.3787Y1.5849
X2.3787Y1.5607
X2.3787Y1.5327
X2.3819Y0.0528
X2.3979Y1.9579
X2.4007Y1.4421
X2.411Y0.0885
X2.411Y0.0643
X2.4124Y0.0325
X2.424Y1.4276
X2.4252Y1.9575
X2.426Y1.2665
X2.4264Y1.1504
X2.4327Y1.4011
X2.4327Y1.3769
X2.4367Y0.0487
X2.4399Y1.1748
X2.4403Y1.2441
X2.4606Y1.4055
X2.4606Y1.3701
X2.4609Y0.0487
X2.4641Y1.1748
X2.4645Y1.2441
X2.4744Y0.0728
X2.4772Y1.1984
X2.4921Y1.2476
X2.5Y1.8878
X2.5007Y1.9145
X2.5178Y1.9316
X2.528Y1.9055
T2
X0.438Y1.128
X0.7185Y1.6909
X0.9075Y1.6909
X0.999Y1.5098
X0.999Y1.313
X1.2795Y1.6909
X1.4685Y1.6909
X1.8406Y1.6909
X2.0295Y1.6909
X2.1211Y1.5098
X2.1211Y1.313
X2.1211Y1.128
T3
X0.438Y1.6083
X0.438Y1.2146
X0.438Y0.8209
X0.438Y0.4272
X0.999Y0.2303
X1.56Y1.6083
X1.56Y1.2146
X1.56Y0.4272
X2.1211Y1.0177
X2.1211Y0.624
X2.1211Y0.2303
M30
