G04 #@! TF.GenerationSoftware,KiCad,Pcbnew,8.0.5*
G04 #@! TF.CreationDate,2026-01-30T21:43:25+07:00*
G04 #@! TF.ProjectId,RouterCoreBaseRevA,526f7574-6572-4436-9f72-654261736552,rev?*
G04 #@! TF.SameCoordinates,PX2793d60PY5cfbb60*
G04 #@! TF.FileFunction,Copper,L3,Inr*
G04 #@! TF.FilePolarity,Positive*
%FSLAX46Y46*%
G04 Gerber Fmt 4.6, Leading zero omitted, Abs format (unit mm)*
G04 Created by KiCad (PCBNEW 8.0.5) date 2026-01-30 21:43:25*
%MOMM*%
%LPD*%
G01*
G04 APERTURE LIST*
G04 Aperture macros list*
%AMRoundRect*
0 Rectangle with rounded corners*
0 $1 Rounding radius*
0 $2 $3 $4 $5 $6 $7 $8 $9 X,Y pos of 4 corners*
0 Add a 4 corners polygon primitive as box body*
4,1,4,$2,$3,$4,$5,$6,$7,$8,$9,$2,$3,0*
0 Add four circle primitives for the rounded corners*
1,1,$1+$1,$2,$3*
1,1,$1+$1,$4,$5*
1,1,$1+$1,$6,$7*
1,1,$1+$1,$8,$9*
0 Add four rect primitives between the rounded corners*
20,1,$1+$1,$2,$3,$4,$5,0*
20,1,$1+$1,$4,$5,$6,$7,0*
20,1,$1+$1,$6,$7,$8,$9,0*
20,1,$1+$1,$8,$9,$2,$3,0*%
G04 Aperture macros list end*
G04 #@! TA.AperFunction,ComponentPad*
%ADD10RoundRect,0.375000X0.375000X-0.375000X0.375000X0.375000X-0.375000X0.375000X-0.375000X-0.375000X0*%
G04 #@! TD*
G04 #@! TA.AperFunction,ComponentPad*
%ADD11C,1.500000*%
G04 #@! TD*
G04 #@! TA.AperFunction,ViaPad*
%ADD12C,0.500000*%
G04 #@! TD*
G04 #@! TA.AperFunction,Conductor*
%ADD13C,0.101600*%
G04 #@! TD*
G04 #@! TA.AperFunction,Conductor*
%ADD14C,0.152400*%
G04 #@! TD*
G04 APERTURE END LIST*
D10*
X53875000Y5850000D03*
X53875000Y15850000D03*
X53875000Y25850000D03*
D11*
X53875000Y28650000D03*
X53875000Y33350000D03*
X53875000Y38350000D03*
D10*
X39625000Y10850000D03*
X39625000Y30850000D03*
X39625000Y40850000D03*
X25375000Y5850000D03*
D11*
X25375000Y33350000D03*
X25375000Y38350000D03*
D10*
X11125000Y10850000D03*
X11125000Y20850000D03*
D11*
X11125000Y28650000D03*
D10*
X11125000Y30850000D03*
X11125000Y40850000D03*
D11*
X51550000Y42950000D03*
X46750000Y42950000D03*
X37300000Y42950000D03*
X32500000Y42950000D03*
X23050000Y42950000D03*
X18250000Y42950000D03*
D12*
X33410000Y18140000D03*
X33410000Y15800000D03*
X31800000Y44525000D03*
X31225000Y43950000D03*
X33410000Y16870000D03*
X33800000Y44150000D03*
X34130000Y15800000D03*
X34130000Y18140000D03*
X30450000Y43950000D03*
X34130000Y16870000D03*
X33800000Y44850000D03*
X31850000Y49350000D03*
X35370000Y46425000D03*
X19550000Y44650000D03*
X35600000Y35675000D03*
X42850000Y42175000D03*
X30870000Y16870000D03*
X13925000Y34300000D03*
X43975000Y35625000D03*
X31590000Y20680000D03*
X31500000Y39540000D03*
X33900000Y39540000D03*
X17250000Y39575000D03*
X23950000Y47450000D03*
X49850000Y34100000D03*
X31590000Y18140000D03*
X20850000Y38700000D03*
X23300000Y31925000D03*
X31025000Y3450000D03*
X15275000Y35775000D03*
X24675000Y45700000D03*
X29375000Y35600000D03*
X51675000Y31700000D03*
X17250000Y38535000D03*
X30870000Y18140000D03*
X41075000Y32300000D03*
X33775000Y19645000D03*
X19650000Y39575000D03*
X20350000Y37875000D03*
X50360000Y39510000D03*
X51475000Y35050000D03*
X23750000Y44225000D03*
X34750000Y43750000D03*
X43075000Y35650000D03*
X14850000Y42175000D03*
X42375000Y34975000D03*
X50150000Y35800000D03*
X34900000Y37675000D03*
X48150000Y39540000D03*
X44550000Y38700000D03*
X29250000Y44550000D03*
X23475000Y46325000D03*
X44325000Y48275000D03*
X29100000Y42225000D03*
X28880000Y34110000D03*
X48150000Y38535000D03*
X14940000Y39360000D03*
X21975000Y42225000D03*
X30870000Y20680000D03*
X31700000Y29875000D03*
X36100000Y39500000D03*
X31500000Y38535000D03*
X36700001Y44575000D03*
X24250000Y46325000D03*
X29375000Y36300000D03*
X51475000Y34300000D03*
X33700000Y23375000D03*
X33135000Y24600000D03*
X45750000Y38535000D03*
X45750000Y39540000D03*
X29375000Y37000000D03*
X29100000Y39500000D03*
X27600000Y43925000D03*
X27725000Y47250000D03*
X19550000Y46450000D03*
X35575000Y34125000D03*
X37225000Y35050000D03*
X19650000Y38535000D03*
X41850000Y47750000D03*
X33900000Y38535000D03*
X33975000Y3450000D03*
X31590000Y16870000D03*
X27000000Y47250000D03*
X21400000Y34100000D03*
X43175000Y43575000D03*
X22950000Y35075000D03*
X28170000Y34590000D03*
X43550000Y36250000D03*
X23125000Y49625000D03*
X16250000Y37700000D03*
X13925000Y35100000D03*
X28925000Y50600000D03*
X12575000Y32325000D03*
X23950000Y49625000D03*
X28325000Y43925000D03*
X21525000Y35700000D03*
X34390000Y47320000D03*
X33775000Y46975000D03*
X34390000Y46620000D03*
X33775000Y47675000D03*
X1710000Y34080000D03*
X15375000Y17150000D03*
X28690000Y18240000D03*
X6800000Y16400000D03*
X22175000Y1600000D03*
X28690000Y22050000D03*
X26800000Y1725000D03*
X2150000Y1850000D03*
X4425000Y1300000D03*
X8575000Y8025000D03*
X28690000Y23320000D03*
X22340000Y15700000D03*
X3050000Y34690000D03*
X22340000Y20780000D03*
X17190000Y16300000D03*
X15350000Y1900000D03*
X16800000Y4875000D03*
X6460000Y25180000D03*
X22340000Y22050000D03*
X15100000Y17975000D03*
X9750000Y20750000D03*
X15400000Y45750000D03*
X13600000Y4825000D03*
X15190000Y50240000D03*
X9125000Y8775000D03*
X28690000Y20780000D03*
X5100000Y50940000D03*
X17020000Y49750000D03*
X11975000Y4825000D03*
X760000Y48370000D03*
X2790000Y50990000D03*
X1930000Y32700000D03*
X13610000Y46400000D03*
X16850000Y47140000D03*
X23575000Y1700000D03*
X5800000Y13325000D03*
X15175000Y4875000D03*
X13600000Y1675000D03*
X15200000Y47130000D03*
X13975000Y20450000D03*
X28690000Y24590000D03*
X22340000Y16970000D03*
X13380000Y49760000D03*
X15225000Y15350000D03*
X10650000Y3550000D03*
X9850000Y7100000D03*
X6480000Y50800000D03*
X8575000Y10600000D03*
X6360000Y23410000D03*
X22340000Y19510000D03*
X3620000Y50940000D03*
X10760000Y49310000D03*
X8210000Y5350000D03*
X15980000Y50360000D03*
X22340000Y18240000D03*
X17830000Y17990000D03*
X7630000Y21260000D03*
X6275000Y15125000D03*
X3725000Y825000D03*
X28690000Y19510000D03*
X25200000Y1725000D03*
X4400000Y35870000D03*
X22340000Y24590000D03*
X1500000Y47875000D03*
X15525000Y21450000D03*
X22340000Y23320000D03*
X9850000Y4750000D03*
X18200000Y4975000D03*
X50865284Y23247150D03*
X43930000Y24590000D03*
X20542850Y39330797D03*
X31700000Y24490000D03*
X9472812Y3917188D03*
X21070000Y18240000D03*
X21070000Y22050000D03*
X8502850Y4700000D03*
X4092850Y50375000D03*
X7172534Y21822756D03*
X14707150Y45883231D03*
X27420000Y25860000D03*
X47707150Y50963782D03*
X41390000Y18240000D03*
X63517917Y48627707D03*
X40120000Y27130000D03*
X55312850Y26510000D03*
X56927188Y28082812D03*
X40120000Y24590000D03*
X56020000Y24757150D03*
X22340000Y27130000D03*
X17907150Y50387455D03*
X24880000Y19510000D03*
X4087150Y35260000D03*
X38850000Y22050000D03*
X54790000Y7862850D03*
X64210000Y48400000D03*
X56120000Y23440000D03*
X36310000Y22050000D03*
X42660000Y16970000D03*
X48520000Y12270000D03*
X36310000Y16970000D03*
X36310000Y23320000D03*
X42660000Y18240000D03*
X51580000Y22630000D03*
X51780000Y17820000D03*
X55670000Y27190000D03*
X44360000Y4400000D03*
X56670000Y29210000D03*
X61620000Y32170000D03*
X46780000Y50350000D03*
X62850000Y1850000D03*
X56650000Y25090000D03*
X36310000Y20780000D03*
X63300000Y31690000D03*
X61570000Y36260000D03*
X59560000Y49650000D03*
X47990000Y49700000D03*
X57050000Y27410000D03*
X50490000Y5000000D03*
X55425000Y45775000D03*
X54800000Y7160000D03*
X42660000Y24590000D03*
X60500000Y1340000D03*
X61275000Y825000D03*
X56675000Y4325000D03*
X61630000Y29220000D03*
X48480000Y17590000D03*
X60420000Y38930000D03*
X54900000Y4400000D03*
X42660000Y15700000D03*
X56280000Y48410000D03*
X36310000Y19510000D03*
X51620000Y49720000D03*
X62500000Y35700000D03*
X54800000Y9175000D03*
X41630000Y2250000D03*
X42660000Y20780000D03*
X63500000Y47950000D03*
X36310000Y15700000D03*
X36310000Y18240000D03*
X58000000Y1450000D03*
X36310000Y24590000D03*
X53890000Y47950000D03*
X62920000Y30440000D03*
X48510000Y10930000D03*
X61600000Y49720000D03*
X60410000Y40960000D03*
X62500000Y34800000D03*
X43390000Y3760000D03*
X59880000Y770000D03*
X54825000Y11192150D03*
X42660000Y22050000D03*
X42660000Y19510000D03*
X53680000Y49360000D03*
X47300000Y15700000D03*
X38010000Y2250000D03*
X42660000Y23320000D03*
X55467150Y23740000D03*
X41390000Y23320000D03*
X13107150Y4354863D03*
X26150000Y22050000D03*
X5941360Y49944032D03*
X27420000Y19510000D03*
X26150000Y24590000D03*
X23107150Y2245137D03*
X39550000Y42500000D03*
X31550000Y28625000D03*
X33600000Y51175000D03*
X41025000Y47600000D03*
X33850000Y26210000D03*
X23610000Y25860000D03*
X16307150Y49704121D03*
X23610000Y20780000D03*
X17907150Y4354863D03*
X59177188Y1012812D03*
X40120000Y20780000D03*
X30870000Y19410000D03*
X35407150Y39330797D03*
X37580000Y27130000D03*
X60907150Y49730528D03*
X5700000Y14042850D03*
X21070000Y23320000D03*
X55522850Y4770000D03*
X37580000Y24590000D03*
X42660000Y25860000D03*
X60420000Y40257150D03*
X27420000Y18240000D03*
X5506984Y50378408D03*
X9460700Y49025000D03*
X50907150Y49730528D03*
X40120000Y15700000D03*
X49657150Y39330797D03*
X34130000Y20680000D03*
X10075000Y49025000D03*
X26150000Y18240000D03*
X2492850Y50375000D03*
X23610000Y19510000D03*
X2417188Y33842188D03*
X53170000Y47240000D03*
X38850000Y18240000D03*
X28690000Y25860000D03*
X14092850Y45883231D03*
X27420000Y27130000D03*
X12492850Y45883231D03*
X24707150Y2245137D03*
X27420000Y24590000D03*
X51437150Y17210000D03*
X43930000Y22050000D03*
X38692850Y2245137D03*
X44667150Y5042850D03*
X15742850Y39330797D03*
X30870000Y23220000D03*
X56492812Y28517188D03*
X55927150Y26510000D03*
X40120000Y23320000D03*
X56020000Y24142850D03*
X61982850Y31600000D03*
X37580000Y16970000D03*
X53170000Y47854300D03*
X38850000Y19510000D03*
X40250000Y47600000D03*
X33850000Y25510000D03*
X31000000Y24490000D03*
X21157150Y39330797D03*
X41390000Y24590000D03*
X54852850Y23740000D03*
X30607150Y39330797D03*
X31590000Y21950000D03*
X14092850Y49704121D03*
X19800000Y25860000D03*
X3760000Y2247150D03*
X13952812Y18297188D03*
X31425000Y27100000D03*
X40110000Y43100000D03*
X61240000Y2247150D03*
X38850000Y23320000D03*
X31590000Y19410000D03*
X34792850Y39330797D03*
X41390000Y20780000D03*
X61892850Y1236218D03*
X36235000Y50050000D03*
X40120000Y25860000D03*
X60362850Y36630000D03*
X40120000Y18240000D03*
X48692850Y49730528D03*
X54800000Y10514300D03*
X37580000Y20780000D03*
X27420000Y23320000D03*
X24092850Y2245137D03*
X6558234Y21822756D03*
X4707150Y50375000D03*
X56250000Y47720000D03*
X37580000Y25860000D03*
X62507150Y1236218D03*
X41390000Y22050000D03*
X1454688Y48595312D03*
X6222812Y24082812D03*
X50292850Y49730528D03*
X40120000Y16970000D03*
X9032812Y21867188D03*
X7292850Y15850000D03*
X14387188Y17862812D03*
X3760000Y1632850D03*
X27420000Y22050000D03*
X14707150Y2245137D03*
X31590000Y23220000D03*
X16357150Y39330797D03*
X33410000Y20680000D03*
X49042850Y39330797D03*
X61240000Y1632850D03*
X38850000Y24590000D03*
X37580000Y19510000D03*
X55210700Y45100000D03*
X40120000Y19510000D03*
X49307150Y49730528D03*
X56137150Y4770000D03*
X37580000Y23320000D03*
X24880000Y25860000D03*
X16307150Y47612444D03*
X31575000Y25725000D03*
X39275000Y34725000D03*
X37580000Y22050000D03*
X54800000Y9900000D03*
X15692850Y47612444D03*
X26150000Y25860000D03*
X23610000Y27130000D03*
X17292850Y50387455D03*
X21070000Y24590000D03*
X5700000Y14657150D03*
X48832850Y11620000D03*
X50907150Y4354863D03*
X13107150Y45883231D03*
X28690000Y27130000D03*
X23610000Y24590000D03*
X27292850Y2245137D03*
X43930000Y18240000D03*
X47572850Y16929800D03*
X43930000Y19510000D03*
X48187150Y16929800D03*
X22492850Y2245137D03*
X26150000Y23320000D03*
X21070000Y20780000D03*
X9117150Y4700000D03*
X1020312Y49029688D03*
X6657188Y24517188D03*
X27907150Y2245137D03*
X23610000Y23320000D03*
X14767188Y21542188D03*
X3107150Y1236218D03*
X9467188Y21432812D03*
X7907150Y15850000D03*
X49447150Y11620000D03*
X50292850Y4354863D03*
X31150000Y29225000D03*
X38650000Y39200000D03*
X15692850Y4354863D03*
X24880000Y20780000D03*
X41390000Y16970000D03*
X61790000Y35587150D03*
X24880000Y24590000D03*
X26307150Y2245137D03*
X9097188Y9442812D03*
X15036989Y16029170D03*
X25692850Y2245137D03*
X24880000Y23320000D03*
X26150000Y19510000D03*
X3107150Y50375000D03*
X2492850Y1236218D03*
X14332812Y21107812D03*
X36310000Y25860000D03*
X55635700Y47720000D03*
X54790000Y8477150D03*
X38850000Y20780000D03*
X23610000Y22050000D03*
X17292850Y4354863D03*
X55825000Y45100000D03*
X37580000Y18240000D03*
X9907188Y3482812D03*
X21070000Y19510000D03*
X23610000Y18240000D03*
X1982812Y33407812D03*
X38850000Y27130000D03*
X63952293Y49062083D03*
X44242850Y39330797D03*
X34130000Y21950000D03*
X44857150Y39330797D03*
X33410000Y21950000D03*
X60420000Y39642850D03*
X41390000Y25860000D03*
X8712812Y7317188D03*
X17858394Y17277150D03*
X12492850Y4354863D03*
X26150000Y20780000D03*
X43930000Y23320000D03*
X50865284Y22632850D03*
X8662812Y9877188D03*
X15471365Y16463546D03*
X61790000Y34972850D03*
X41390000Y15700000D03*
X33820000Y24330000D03*
X32500000Y4375000D03*
X16307150Y4354863D03*
X24880000Y22050000D03*
X62597150Y31600000D03*
X37580000Y15700000D03*
X62587150Y29840000D03*
X38850000Y15700000D03*
X40907150Y2245137D03*
X42962850Y4490000D03*
X9147188Y6882812D03*
X17858394Y16662850D03*
X60292850Y49730528D03*
X36310000Y27130000D03*
X40292850Y2245137D03*
X43577150Y4490000D03*
X22340000Y25860000D03*
X15692850Y49704121D03*
X40120000Y22050000D03*
X58742812Y1447188D03*
X3472850Y35260000D03*
X24880000Y18240000D03*
X14707150Y49704121D03*
X21070000Y25860000D03*
X41390000Y19510000D03*
X47092850Y50963782D03*
X38850000Y16970000D03*
X61972850Y29840000D03*
X44052850Y5042850D03*
X39307150Y2245137D03*
X43930000Y20780000D03*
X50822850Y17210000D03*
X27420000Y20780000D03*
X14092850Y2245137D03*
X29992850Y39330797D03*
X30870000Y21950000D03*
X38850000Y25860000D03*
X60977150Y36630000D03*
X27975000Y33875000D03*
X43590000Y49350000D03*
X31125000Y49350000D03*
X42225000Y33475000D03*
X41600000Y33100000D03*
X27975000Y32475000D03*
X27975000Y33175000D03*
X21600000Y44150000D03*
X22750000Y44750000D03*
X23700000Y33050000D03*
X42225000Y32750000D03*
X36600000Y33725000D03*
X51475000Y33500000D03*
X42650000Y47750000D03*
X23050000Y33500000D03*
X13650000Y33500000D03*
X52075000Y33125000D03*
X37250000Y34100000D03*
X34690000Y50300000D03*
X44825000Y47200000D03*
X13650000Y32775000D03*
X21225000Y44750000D03*
X51475000Y32750000D03*
X23050000Y32750000D03*
X26850000Y41800000D03*
X13025000Y33125000D03*
X22750000Y45475000D03*
X22300000Y44150000D03*
X21225000Y45475000D03*
X37250000Y33400000D03*
X18050000Y39575000D03*
X18050000Y38535000D03*
X18850000Y39575000D03*
X18850000Y38535000D03*
X32300000Y38535000D03*
X32300000Y39575000D03*
X33100000Y38535000D03*
X33100000Y39575000D03*
X46550000Y39575000D03*
X46550000Y38535000D03*
X47350000Y38535000D03*
X47350000Y39575000D03*
X16885000Y30850000D03*
X30600000Y29750000D03*
X26860000Y44010000D03*
X45800000Y44250000D03*
X45400000Y30850000D03*
X43475000Y37425000D03*
X20050000Y30750000D03*
X20925000Y30725000D03*
X23325000Y39975000D03*
X38625000Y49650000D03*
X18450000Y30750000D03*
X19250000Y30750000D03*
X23900000Y40500000D03*
X37900000Y49650000D03*
X15550000Y30750000D03*
X13950000Y30250000D03*
X30850000Y31025000D03*
X35600000Y31050000D03*
X33350000Y30950000D03*
X37525000Y40525000D03*
X30200000Y31325000D03*
X34050000Y30775000D03*
X32625000Y30950000D03*
X36000000Y38725000D03*
X41975000Y31175000D03*
X47750000Y30750000D03*
X42200000Y40425000D03*
X46950000Y30750000D03*
X42725000Y38425000D03*
X48550000Y30750000D03*
X49400000Y30750000D03*
X44050000Y30750000D03*
D13*
X11052514Y5215178D02*
X11226364Y5389029D01*
X21447050Y17253517D02*
X21342846Y17253517D01*
X15302050Y10504716D02*
X15403667Y10606333D01*
X15613717Y10816382D02*
X15403667Y10606333D01*
X21070000Y18600000D02*
X21070000Y18240000D01*
X21597050Y16799716D02*
X21597050Y17103517D01*
X16603668Y10838096D02*
X16592810Y10827237D01*
X10628248Y5003045D02*
X10564609Y5066684D01*
X9754523Y3917188D02*
X10628248Y4790913D01*
X9472812Y3917188D02*
X9754523Y3917188D01*
X16603667Y11806333D02*
X21597050Y16799716D01*
X11052515Y5215177D02*
X11052514Y5215178D01*
X21597050Y17703517D02*
X21597050Y17840000D01*
X21430284Y18767050D02*
X21237050Y18767050D01*
X10776743Y5278817D02*
X10840383Y5215177D01*
X21342846Y17553517D02*
X21447050Y17553517D01*
X16603667Y11806333D02*
X16603668Y11806332D01*
X21597050Y18600284D02*
X21430284Y18767050D01*
X15302050Y9464715D02*
X15302050Y10504716D01*
X21237050Y18767050D02*
X21070000Y18600000D01*
X11226364Y5389029D02*
X15302050Y9464715D01*
X15624576Y10827238D02*
X15613717Y10816382D01*
X21597050Y17840000D02*
X21597050Y18600284D01*
X21597050Y17103517D02*
G75*
G03*
X21447050Y17253550I-150050J-17D01*
G01*
X16603667Y11169548D02*
G75*
G02*
X16603690Y10838075I-165767J-165748D01*
G01*
X21192846Y17403517D02*
G75*
G02*
X21342846Y17553454I149954J-17D01*
G01*
X10564609Y5278816D02*
G75*
G02*
X10776766Y5278841I106091J-106116D01*
G01*
X21447050Y17553517D02*
G75*
G03*
X21596983Y17703517I-50J149983D01*
G01*
X10628248Y4790913D02*
G75*
G03*
X10628269Y5003066I-106048J106087D01*
G01*
X21342846Y17253517D02*
G75*
G02*
X21192817Y17403517I-46J149983D01*
G01*
X16603668Y11806332D02*
G75*
G03*
X16603627Y11169509I318432J-318432D01*
G01*
X16592810Y10827237D02*
G75*
G02*
X16261358Y10827237I-165726J165726D01*
G01*
X10840383Y5215177D02*
G75*
G03*
X11052515Y5215177I106066J106066D01*
G01*
X16261358Y10827237D02*
G75*
G03*
X15624609Y10827205I-318358J-318437D01*
G01*
X10564609Y5066684D02*
G75*
G02*
X10564659Y5278766I106091J106016D01*
G01*
X9444688Y6027354D02*
X11395284Y7977950D01*
X8702050Y4899200D02*
X8702050Y5284716D01*
X21070000Y22050000D02*
X20542950Y21522950D01*
X9382485Y5965150D02*
X9444688Y6027354D01*
X8702050Y5284716D02*
X8958219Y5540885D01*
X13992050Y10834716D02*
X19842050Y16684716D01*
X12145284Y7977950D02*
X13992050Y9824716D01*
X19200161Y19152977D02*
X19600000Y19152977D01*
X8958219Y5753017D02*
X8952748Y5758488D01*
X8502850Y4700000D02*
X8702050Y4899200D01*
X19600000Y18668877D02*
X19200161Y18668877D01*
X19842050Y21169716D02*
X19842050Y20310927D01*
X19842050Y17510927D02*
X19842050Y17350000D01*
X20542950Y21522950D02*
X20195284Y21522950D01*
X13992050Y9824716D02*
X13992050Y10834716D01*
X19842050Y16684716D02*
X19842050Y17350000D01*
X9382486Y5965149D02*
X9382485Y5965150D01*
X9164882Y5970621D02*
X9170354Y5965149D01*
X11395284Y7977950D02*
X12145284Y7977950D01*
X19600000Y20068877D02*
X19200161Y20068877D01*
X20195284Y21522950D02*
X19842050Y21169716D01*
X19200161Y17752977D02*
X19600000Y17752977D01*
X19600000Y19152977D02*
G75*
G02*
X19842077Y18910927I0J-242077D01*
G01*
X9170354Y5965149D02*
G75*
G03*
X9382486Y5965149I106066J106066D01*
G01*
X19842050Y20310927D02*
G75*
G02*
X19600000Y20068850I-242050J-27D01*
G01*
X19842050Y18910927D02*
G75*
G02*
X19600000Y18668850I-242050J-27D01*
G01*
X19600000Y17752977D02*
G75*
G02*
X19842077Y17510927I0J-242077D01*
G01*
X18742211Y18210927D02*
G75*
G03*
X19200161Y17752911I457989J-27D01*
G01*
X8952748Y5758488D02*
G75*
G02*
X8952702Y5970666I106052J106112D01*
G01*
X19200161Y18668877D02*
G75*
G03*
X18742223Y18210927I39J-457977D01*
G01*
X8952748Y5970620D02*
G75*
G02*
X9164866Y5970606I106052J-106020D01*
G01*
X18742211Y19610927D02*
G75*
G03*
X19200161Y19152911I457989J-27D01*
G01*
X19200161Y20068877D02*
G75*
G03*
X18742223Y19610927I39J-457977D01*
G01*
X8958219Y5540885D02*
G75*
G03*
X8958268Y5753066I-106019J106115D01*
G01*
X4892050Y22330284D02*
X4892050Y23187676D01*
X4105515Y24345626D02*
X4650000Y24345626D01*
X6669716Y21042050D02*
X6180284Y21042050D01*
X5692050Y44119716D02*
X5692050Y47605284D01*
X7172534Y21822756D02*
X6973334Y21623556D01*
X4650000Y23429726D02*
X4105515Y23429726D01*
X6973334Y21623556D02*
X6973334Y21345668D01*
X4292050Y49005284D02*
X4292050Y50175800D01*
X4892050Y43319716D02*
X5692050Y44119716D01*
X6973334Y21345668D02*
X6669716Y21042050D01*
X5692050Y47605284D02*
X4292050Y49005284D01*
X4892050Y24587676D02*
X4892050Y24640000D01*
X4892050Y24640000D02*
X4892050Y43319716D01*
X4292050Y50175800D02*
X4092850Y50375000D01*
X6180284Y21042050D02*
X4892050Y22330284D01*
X4105515Y23429726D02*
G75*
G02*
X3647526Y23887676I-15J457974D01*
G01*
X4650000Y24345626D02*
G75*
G03*
X4892074Y24587676I0J242074D01*
G01*
X4892050Y23187676D02*
G75*
G03*
X4650000Y23429750I-242050J24D01*
G01*
X3647565Y23887676D02*
G75*
G02*
X4105515Y24345635I457935J24D01*
G01*
X12520284Y47247950D02*
X14038221Y47247950D01*
X27780000Y25860000D02*
X27947050Y26027050D01*
X14038221Y47247950D02*
X14507950Y46778221D01*
X8122050Y42024716D02*
X11467050Y45369716D01*
X11467050Y45369716D02*
X11467050Y46194716D01*
X14469716Y25917050D02*
X9700284Y25917050D01*
X14507950Y46082431D02*
X14707150Y45883231D01*
X27420000Y25860000D02*
X27780000Y25860000D01*
X9700284Y25917050D02*
X8122050Y27495284D01*
X25740284Y27667050D02*
X16219716Y27667050D01*
X27015284Y26392050D02*
X25740284Y27667050D01*
X27947050Y26240284D02*
X27795284Y26392050D01*
X11467050Y46194716D02*
X12520284Y47247950D01*
X27795284Y26392050D02*
X27015284Y26392050D01*
X8122050Y27495284D02*
X8122050Y42024716D01*
X27947050Y26027050D02*
X27947050Y26240284D01*
X14507950Y46778221D02*
X14507950Y46082431D01*
X16219716Y27667050D02*
X14469716Y25917050D01*
X58897950Y49854716D02*
X58897950Y43394716D01*
X47905284Y50407950D02*
X48946534Y51449200D01*
X59782950Y23030284D02*
X56334457Y19581791D01*
X47507950Y50554716D02*
X47654716Y50407950D01*
X59782950Y42509716D02*
X59782950Y23030284D01*
X41557050Y18767050D02*
X41390000Y18600000D01*
X41390000Y18600000D02*
X41390000Y18240000D01*
X57303466Y51449200D02*
X58897950Y49854716D01*
X58897950Y43394716D02*
X59782950Y42509716D01*
X47580284Y20442050D02*
X46169716Y20442050D01*
X56334457Y19581791D02*
X48440543Y19581791D01*
X44494716Y18767050D02*
X41557050Y18767050D01*
X47507950Y50764582D02*
X47507950Y50554716D01*
X47654716Y50407950D02*
X47905284Y50407950D01*
X47707150Y50963782D02*
X47507950Y50764582D01*
X46169716Y20442050D02*
X44494716Y18767050D01*
X48440543Y19581791D02*
X47580284Y20442050D01*
X48946534Y51449200D02*
X57303466Y51449200D01*
X56717950Y26163503D02*
X56246497Y25692050D01*
X56927188Y28082812D02*
X56645477Y28082812D01*
X55512050Y26310800D02*
X55312850Y26510000D01*
X55512050Y25995284D02*
X55512050Y26310800D01*
X55815284Y25692050D02*
X55512050Y25995284D01*
X56717950Y26884716D02*
X56717950Y26163503D01*
X56417950Y27855285D02*
X56417950Y27184716D01*
X56417950Y27184716D02*
X56717950Y26884716D01*
X56645477Y28082812D02*
X56417950Y27855285D01*
X56246497Y25692050D02*
X55815284Y25692050D01*
X40120000Y24590000D02*
X40120000Y24230000D01*
X51839716Y25337950D02*
X52619716Y24557950D01*
X40287050Y24062950D02*
X40505284Y24062950D01*
X55820800Y24557950D02*
X56020000Y24757150D01*
X41055284Y25337950D02*
X51839716Y25337950D01*
X40505284Y24062950D02*
X40674987Y24232653D01*
X52619716Y24557950D02*
X55820800Y24557950D01*
X40120000Y24230000D02*
X40287050Y24062950D01*
X40674987Y24232653D02*
X40674987Y24957653D01*
X40674987Y24957653D02*
X41055284Y25337950D01*
X55267950Y23540800D02*
X55467150Y23740000D01*
X41390000Y23320000D02*
X41390000Y23680000D01*
X41390000Y23680000D02*
X41557050Y23847050D01*
X54939716Y22917050D02*
X55267950Y23245284D01*
X41557050Y23847050D02*
X51325284Y23847050D01*
X52255284Y22917050D02*
X54939716Y22917050D01*
X51325284Y23847050D02*
X52255284Y22917050D01*
X55267950Y23245284D02*
X55267950Y23540800D01*
X20042050Y6654716D02*
X25407050Y12019716D01*
X12907950Y3844716D02*
X13169716Y3582950D01*
X26150000Y21690000D02*
X26150000Y22050000D01*
X25407050Y12019716D02*
X25407050Y21229716D01*
X13107150Y4354863D02*
X12907950Y4155663D01*
X25700284Y21522950D02*
X25982950Y21522950D01*
X19555429Y3383094D02*
X19636541Y3464207D01*
X13169716Y3582950D02*
X14844716Y3582950D01*
X18680284Y2507950D02*
X19131163Y2958829D01*
X19636541Y3464207D02*
X20042050Y3869716D01*
X20042050Y3869716D02*
X20042050Y6654716D01*
X12907950Y4155663D02*
X12907950Y3844716D01*
X14844716Y3582950D02*
X15919716Y2507950D01*
X15919716Y2507950D02*
X18680284Y2507950D01*
X25407050Y21229716D02*
X25700284Y21522950D01*
X25982950Y21522950D02*
X26150000Y21690000D01*
X19337921Y3388470D02*
X19343298Y3383093D01*
X19555430Y3383093D02*
X19555429Y3383094D01*
X19131163Y3170961D02*
X19125787Y3176337D01*
X19131163Y2958829D02*
G75*
G03*
X19131168Y3170966I-106063J106071D01*
G01*
X19125787Y3388469D02*
G75*
G02*
X19337966Y3388516I106113J-106069D01*
G01*
X19125787Y3176337D02*
G75*
G02*
X19125790Y3388466I106113J106063D01*
G01*
X19343298Y3383093D02*
G75*
G03*
X19555430Y3383093I106066J106066D01*
G01*
X27494589Y9849614D02*
X28175043Y9169160D01*
X26317050Y24062950D02*
X26599716Y24062950D01*
X27794716Y22782950D02*
X28157950Y22419716D01*
X22907950Y5605284D02*
X22907950Y4972795D01*
X26892950Y23009716D02*
X27119716Y22782950D01*
X26504638Y8859663D02*
X27185111Y8179190D01*
X22907950Y3570000D02*
X22907950Y2444337D01*
X25514690Y8212021D02*
X25514689Y8212022D01*
X24816333Y7513667D02*
X22907950Y5605284D01*
X28157950Y12855284D02*
X28157949Y12855284D01*
X28157949Y12855284D02*
X28157949Y10855283D01*
X26504642Y9201974D02*
X26504640Y9201973D01*
X28157949Y10855283D02*
X27494590Y10191924D01*
X22907950Y3572795D02*
X22907950Y3570000D01*
X26599716Y24062950D02*
X26892950Y23769716D01*
X23150000Y4730745D02*
X23927950Y4730745D01*
X25514689Y8212022D02*
X24816333Y7513667D01*
X27119716Y22782950D02*
X27794716Y22782950D01*
X28157950Y22419716D02*
X28157950Y12855284D01*
X26892950Y23769716D02*
X26892950Y23009716D01*
X27527403Y8521520D02*
X26846950Y9201973D01*
X26537472Y7531550D02*
X25857000Y8212022D01*
X23927950Y3814845D02*
X23150000Y3814845D01*
X26150000Y24230000D02*
X26317050Y24062950D01*
X26150000Y24590000D02*
X26150000Y24230000D01*
X26504640Y9201973D02*
X26504639Y9201973D01*
X22907950Y2444337D02*
X23107150Y2245137D01*
X28175043Y9169160D02*
G75*
G02*
X28175083Y8521480I-323843J-323860D01*
G01*
X27494590Y10191924D02*
G75*
G03*
X27494620Y9849646I171110J-171124D01*
G01*
X24385900Y4272795D02*
G75*
G02*
X23927950Y3814900I-457900J5D01*
G01*
X25857000Y8212022D02*
G75*
G03*
X25514644Y8212067I-171200J-171122D01*
G01*
X26504639Y9201973D02*
G75*
G03*
X26504620Y8859646I171161J-171173D01*
G01*
X27185112Y7531550D02*
G75*
G02*
X26537472Y7531550I-323820J323815D01*
G01*
X27185111Y8179190D02*
G75*
G02*
X27185082Y7531581I-323811J-323790D01*
G01*
X23927950Y4730745D02*
G75*
G02*
X24385945Y4272795I50J-457945D01*
G01*
X22907950Y4972795D02*
G75*
G03*
X23150000Y4730750I242050J5D01*
G01*
X26846950Y9201973D02*
G75*
G03*
X26504646Y9201969I-171150J-171173D01*
G01*
X23150000Y3814845D02*
G75*
G03*
X22907955Y3572795I0J-242045D01*
G01*
X28175043Y8521520D02*
G75*
G02*
X27527403Y8521520I-323820J323822D01*
G01*
X21933935Y13838911D02*
X21367884Y14404962D01*
X18964085Y10869061D02*
X18398020Y11435126D01*
X19045668Y12082761D02*
X19611725Y11516704D01*
X17707950Y8965284D02*
X17707950Y4554063D01*
X23249716Y21307050D02*
X23082950Y21140284D01*
X22581576Y13838910D02*
X22581575Y13838911D01*
X18621775Y9879114D02*
X18621776Y9879111D01*
X23232950Y20310000D02*
X23240578Y20310000D01*
X21591625Y12848964D02*
X21591626Y12848961D01*
X20601675Y11859014D02*
X20601676Y11859011D01*
X20035611Y13072718D02*
X20601675Y12506654D01*
X17707950Y4554063D02*
X17907150Y4354863D01*
X19611725Y10869064D02*
X19611726Y10869061D01*
X23240578Y20010000D02*
X23232950Y20010000D01*
X18055711Y11092818D02*
X18621775Y10526754D01*
X23610000Y20780000D02*
X23610000Y21140000D01*
X21025575Y14062654D02*
X21591625Y13496604D01*
X20601676Y11859011D02*
X20601675Y11859011D01*
X19611726Y10869061D02*
X19611725Y10869061D01*
X23442950Y21307050D02*
X23249716Y21307050D01*
X19954035Y11859011D02*
X19387977Y12425069D01*
X23082950Y14340284D02*
X22581576Y13838910D01*
X18281333Y9538667D02*
X17707950Y8965284D01*
X23610000Y21140000D02*
X23442950Y21307050D01*
X23082950Y19860000D02*
X23082950Y19723090D01*
X23082950Y19723090D02*
X23082950Y14340284D01*
X18621776Y9879111D02*
X18281333Y9538667D01*
X23082950Y21140284D02*
X23082950Y20460000D01*
X20943985Y12848961D02*
X20377920Y13415026D01*
X21591626Y12848961D02*
X21591625Y12848961D01*
X23240578Y20310000D02*
G75*
G02*
X23390600Y20160000I22J-150000D01*
G01*
X22581575Y13838911D02*
G75*
G02*
X21933935Y13838911I-323820J323819D01*
G01*
X23390578Y20160000D02*
G75*
G02*
X23240578Y20010022I-149978J0D01*
G01*
X20035611Y13415026D02*
G75*
G03*
X20035639Y13072746I171189J-171126D01*
G01*
X23232950Y20010000D02*
G75*
G03*
X23083000Y19860000I50J-150000D01*
G01*
X18621775Y10526754D02*
G75*
G02*
X18621809Y9879080I-323775J-323854D01*
G01*
X19045668Y12425069D02*
G75*
G03*
X19045653Y12082746I171132J-171169D01*
G01*
X20601675Y11859011D02*
G75*
G02*
X19954035Y11859011I-323820J323819D01*
G01*
X21591625Y13496604D02*
G75*
G02*
X21591609Y12848980I-323825J-323804D01*
G01*
X21025575Y14404962D02*
G75*
G03*
X21025567Y14062646I171125J-171162D01*
G01*
X19387977Y12425069D02*
G75*
G03*
X19045669Y12425069I-171154J-171153D01*
G01*
X20377920Y13415026D02*
G75*
G03*
X20035610Y13415027I-171155J-171153D01*
G01*
X18055711Y11435126D02*
G75*
G03*
X18055739Y11092846I171189J-171126D01*
G01*
X21591625Y12848961D02*
G75*
G02*
X20943985Y12848961I-323820J323819D01*
G01*
X18398020Y11435126D02*
G75*
G03*
X18055712Y11435126I-171154J-171153D01*
G01*
X21367884Y14404962D02*
G75*
G03*
X21025576Y14404962I-171154J-171153D01*
G01*
X19611725Y10869061D02*
G75*
G02*
X18964085Y10869061I-323820J323819D01*
G01*
X20601675Y12506654D02*
G75*
G02*
X20601709Y11858980I-323775J-323854D01*
G01*
X19611725Y11516704D02*
G75*
G02*
X19611709Y10869080I-323825J-323804D01*
G01*
X23082950Y20460000D02*
G75*
G03*
X23232950Y20309950I150050J0D01*
G01*
X31946074Y18663408D02*
X32432950Y19150284D01*
X35207950Y39131597D02*
X35407150Y39330797D01*
X31122050Y19157950D02*
X31122050Y18895284D01*
X35207950Y38755284D02*
X35207950Y39131597D01*
X32432950Y30269716D02*
X31907950Y30794716D01*
X31907950Y35455284D02*
X35207950Y38755284D01*
X32432950Y19150284D02*
X32432950Y30269716D01*
X30870000Y19410000D02*
X31122050Y19157950D01*
X31122050Y18895284D02*
X31353926Y18663408D01*
X31907950Y30794716D02*
X31907950Y35455284D01*
X31353926Y18663408D02*
X31946074Y18663408D01*
X6075997Y14242050D02*
X5899200Y14242050D01*
X10706498Y18201474D02*
X10424708Y18483264D01*
X5899200Y14242050D02*
X5700000Y14042850D01*
X13057950Y19905284D02*
X11354139Y18201473D01*
X21070000Y23320000D02*
X20542950Y23847050D01*
X14219716Y22292050D02*
X13057950Y21130284D01*
X10364189Y17211524D02*
X9976333Y16823667D01*
X20542950Y23847050D02*
X17349716Y23847050D01*
X15794716Y22292050D02*
X14219716Y22292050D01*
X10364188Y17211526D02*
X10364189Y17211524D01*
X7394716Y14242050D02*
X6859308Y14242050D01*
X17349716Y23847050D02*
X15794716Y22292050D01*
X11354139Y18201473D02*
X11354138Y18201474D01*
X6709308Y14092050D02*
X6709308Y14084434D01*
X9976333Y16823667D02*
X7394716Y14242050D01*
X13057950Y21130284D02*
X13057950Y19905284D01*
X6259308Y14242050D02*
X6075997Y14242050D01*
X10082399Y18140956D02*
X10364188Y17859167D01*
X6409308Y14084434D02*
X6409308Y14092050D01*
X10082399Y18483264D02*
G75*
G03*
X10082389Y18140946I171201J-171164D01*
G01*
X6409308Y14092050D02*
G75*
G03*
X6259308Y14242008I-150008J-50D01*
G01*
X10364188Y17859167D02*
G75*
G02*
X10364235Y17211479I-323788J-323867D01*
G01*
X6559308Y13934434D02*
G75*
G02*
X6409334Y14084434I-8J149966D01*
G01*
X6709308Y14084434D02*
G75*
G02*
X6559308Y13934392I-150008J-34D01*
G01*
X11354138Y18201474D02*
G75*
G02*
X10706498Y18201474I-323820J323819D01*
G01*
X10424708Y18483264D02*
G75*
G03*
X10082400Y18483264I-171154J-171153D01*
G01*
X6859308Y14242050D02*
G75*
G03*
X6709250Y14092050I-8J-150050D01*
G01*
X37330284Y14792050D02*
X52255284Y14792050D01*
X52255284Y14792050D02*
X55722050Y11325284D01*
X37580000Y24590000D02*
X37580000Y24230000D01*
X56180000Y9663895D02*
X56443584Y9663895D01*
X36842050Y15280284D02*
X37330284Y14792050D01*
X56443584Y7779795D02*
X56180000Y7779795D01*
X55722050Y11325284D02*
X55722050Y10121845D01*
X56180000Y8263895D02*
X56443584Y8263895D01*
X55722050Y5921845D02*
X55722050Y5625000D01*
X55722050Y4969200D02*
X55522850Y4770000D01*
X36842050Y23799716D02*
X36842050Y15280284D01*
X56443599Y6379795D02*
X56180000Y6379795D01*
X56443584Y9179795D02*
X56180000Y9179795D01*
X55722050Y5625000D02*
X55722050Y4969200D01*
X56180000Y6863895D02*
X56443599Y6863895D01*
X37105284Y24062950D02*
X36842050Y23799716D01*
X37412950Y24062950D02*
X37105284Y24062950D01*
X37580000Y24230000D02*
X37412950Y24062950D01*
X56180000Y7779795D02*
G75*
G03*
X55722005Y7321845I0J-457995D01*
G01*
X56685649Y6621845D02*
G75*
G02*
X56443599Y6379751I-242049J-45D01*
G01*
X56443584Y9663895D02*
G75*
G02*
X56685695Y9421845I16J-242095D01*
G01*
X56443599Y6863895D02*
G75*
G02*
X56685695Y6621845I1J-242095D01*
G01*
X56685634Y9421845D02*
G75*
G02*
X56443584Y9179766I-242034J-45D01*
G01*
X55722050Y8721845D02*
G75*
G03*
X56180000Y8263850I457950J-45D01*
G01*
X56180000Y6379795D02*
G75*
G03*
X55722005Y5921845I0J-457995D01*
G01*
X55722050Y10121845D02*
G75*
G03*
X56180000Y9663850I457950J-45D01*
G01*
X56443584Y8263895D02*
G75*
G02*
X56685695Y8021845I16J-242095D01*
G01*
X55722050Y7321845D02*
G75*
G03*
X56180000Y6863850I457950J-45D01*
G01*
X56685634Y8021845D02*
G75*
G02*
X56443584Y7779766I-242034J-45D01*
G01*
X56180000Y9179795D02*
G75*
G03*
X55722005Y8721845I0J-457995D01*
G01*
X40857950Y22280284D02*
X40857950Y21705284D01*
X49452400Y47786089D02*
X49452400Y48344716D01*
X40449716Y21297050D02*
X39794716Y21297050D01*
X40857950Y21705284D02*
X40449716Y21297050D01*
X57807950Y24075284D02*
X55624716Y21892050D01*
X39017050Y18767050D02*
X38850000Y18600000D01*
X49452400Y48344716D02*
X49815634Y48707950D01*
X55986087Y49128753D02*
X56583913Y49128753D01*
X53170000Y47240000D02*
X52970800Y47439200D01*
X55624716Y21892050D02*
X49230284Y21892050D01*
X39582950Y19060284D02*
X39289716Y18767050D01*
X56583913Y49128753D02*
X56997950Y48714716D01*
X48555284Y22567050D02*
X41144716Y22567050D01*
X54154716Y48707950D02*
X54724716Y48137950D01*
X57807950Y41734716D02*
X57807950Y24075284D01*
X49815634Y48707950D02*
X54154716Y48707950D01*
X56997950Y48714716D02*
X56997950Y42544716D01*
X41144716Y22567050D02*
X40857950Y22280284D01*
X52970800Y47439200D02*
X49799289Y47439200D01*
X49230284Y21892050D02*
X48555284Y22567050D01*
X54724716Y48137950D02*
X54995284Y48137950D01*
X39582950Y21085284D02*
X39582950Y19060284D01*
X39289716Y18767050D02*
X39017050Y18767050D01*
X39794716Y21297050D02*
X39582950Y21085284D01*
X54995284Y48137950D02*
X55986087Y49128753D01*
X56997950Y42544716D02*
X57807950Y41734716D01*
X49799289Y47439200D02*
X49452400Y47786089D01*
X38850000Y18600000D02*
X38850000Y18240000D01*
X28690000Y25860000D02*
X28330000Y25860000D01*
X8337950Y41935284D02*
X11682950Y45280284D01*
X14292050Y46688789D02*
X14292050Y46082431D01*
X28162950Y26027050D02*
X28162950Y26329716D01*
X25829716Y27882950D02*
X16130284Y27882950D01*
X14292050Y46082431D02*
X14092850Y45883231D01*
X8839359Y27083307D02*
X8793106Y27129560D01*
X14380284Y26132950D02*
X9789716Y26132950D01*
X9263624Y27046916D02*
X9245428Y27065112D01*
X8857554Y27065112D02*
X8839359Y27083307D01*
X28162950Y26329716D02*
X27884716Y26607950D01*
X27104716Y26607950D02*
X25829716Y27882950D01*
X11682950Y46105284D02*
X12609716Y47032050D01*
X12609716Y47032050D02*
X13948789Y47032050D01*
X27884716Y26607950D02*
X27104716Y26607950D01*
X16130284Y27882950D02*
X14380284Y26132950D01*
X13948789Y47032050D02*
X14292050Y46688789D01*
X28330000Y25860000D02*
X28162950Y26027050D01*
X9789716Y26132950D02*
X9263624Y26659042D01*
X8337950Y27584716D02*
X8337950Y41935284D01*
X8793106Y27129560D02*
X8337950Y27584716D01*
X11682950Y45280284D02*
X11682950Y46105284D01*
X9051491Y27065112D02*
G75*
G02*
X8857555Y27065112I-96968J96967D01*
G01*
X9245428Y27065112D02*
G75*
G03*
X9051492Y27065112I-96968J-96967D01*
G01*
X9263624Y26659042D02*
G75*
G02*
X9263634Y26852969I96976J96958D01*
G01*
X9263624Y26852979D02*
G75*
G03*
X9263577Y27046868I-96924J96921D01*
G01*
X27947050Y27297050D02*
X27780000Y27130000D01*
X15644716Y28667050D02*
X26880284Y28667050D01*
X12492850Y45883231D02*
X12692050Y45684031D01*
X27947050Y27600284D02*
X27947050Y27297050D01*
X10280284Y27042050D02*
X14019716Y27042050D01*
X27780000Y27130000D02*
X27420000Y27130000D01*
X26880284Y28667050D02*
X27947050Y27600284D01*
X12692050Y45684031D02*
X12692050Y45019716D01*
X12692050Y45019716D02*
X9232050Y41559716D01*
X9232050Y41559716D02*
X9232050Y28090284D01*
X9232050Y28090284D02*
X10280284Y27042050D01*
X14019716Y27042050D02*
X15644716Y28667050D01*
X24507950Y2444337D02*
X24507950Y2765284D01*
X28066622Y6323364D02*
X28975000Y6323364D01*
X29432950Y23669716D02*
X29039716Y24062950D01*
X24707150Y2245137D02*
X24507950Y2444337D01*
X29039716Y24062950D02*
X27587050Y24062950D01*
X27420000Y24230000D02*
X27420000Y24590000D01*
X29432950Y7490000D02*
X29432950Y23669716D01*
X29432950Y6781314D02*
X29432950Y7490000D01*
X29432950Y3570284D02*
X29432950Y3981314D01*
X28894716Y3032050D02*
X29432950Y3570284D01*
X28066600Y4923364D02*
X28975000Y4923364D01*
X27587050Y24062950D02*
X27420000Y24230000D01*
X24774716Y3032050D02*
X28894716Y3032050D01*
X28975000Y4439264D02*
X28066600Y4439264D01*
X24507950Y2765284D02*
X24774716Y3032050D01*
X28975000Y5839264D02*
X28066622Y5839264D01*
X28066600Y4439264D02*
G75*
G02*
X27824564Y4681314I0J242036D01*
G01*
X29432950Y5381314D02*
G75*
G03*
X28975000Y5839250I-457950J-14D01*
G01*
X27824572Y6081314D02*
G75*
G02*
X28066622Y6323328I242028J-14D01*
G01*
X27824550Y4681314D02*
G75*
G02*
X28066600Y4923350I242050J-14D01*
G01*
X28066622Y5839264D02*
G75*
G02*
X27824564Y6081314I-22J242036D01*
G01*
X28975000Y4923364D02*
G75*
G03*
X29432936Y5381314I0J457936D01*
G01*
X29432950Y3981314D02*
G75*
G03*
X28975000Y4439250I-457950J-14D01*
G01*
X28975000Y6323364D02*
G75*
G03*
X29432936Y6781314I0J457936D01*
G01*
X43634716Y6527950D02*
X44467950Y5694716D01*
X38892050Y2444337D02*
X38892050Y4224716D01*
X38892050Y4224716D02*
X41195284Y6527950D01*
X44467950Y5242050D02*
X44667150Y5042850D01*
X41195284Y6527950D02*
X43634716Y6527950D01*
X44467950Y5694716D02*
X44467950Y5242050D01*
X38692850Y2245137D02*
X38892050Y2444337D01*
X31122050Y23675284D02*
X31122050Y23472050D01*
X15942050Y39131597D02*
X15942050Y38780284D01*
X17242050Y36705284D02*
X23730284Y30217050D01*
X30492050Y28355284D02*
X30492050Y25169716D01*
X28630284Y30217050D02*
X30492050Y28355284D01*
X30655284Y23792050D02*
X31005284Y23792050D01*
X30292050Y24155284D02*
X30655284Y23792050D01*
X17242050Y37480284D02*
X17242050Y36705284D01*
X31122050Y23472050D02*
X30870000Y23220000D01*
X15742850Y39330797D02*
X15942050Y39131597D01*
X30292050Y24969716D02*
X30292050Y24155284D01*
X15942050Y38780284D02*
X17242050Y37480284D01*
X30492050Y25169716D02*
X30292050Y24969716D01*
X23730284Y30217050D02*
X28630284Y30217050D01*
X31005284Y23792050D02*
X31122050Y23675284D01*
X56202050Y27944715D02*
X56202050Y27095284D01*
X56202050Y27095284D02*
X56502050Y26795284D01*
X56157065Y25907950D02*
X55904716Y25907950D01*
X56492812Y28235477D02*
X56202050Y27944715D01*
X55904716Y25907950D02*
X55727950Y26084716D01*
X56492812Y28517188D02*
X56492812Y28235477D01*
X56502050Y26252935D02*
X56157065Y25907950D01*
X55727950Y26310800D02*
X55927150Y26510000D01*
X56502050Y26795284D02*
X56502050Y26252935D01*
X55727950Y26084716D02*
X55727950Y26310800D01*
X41144716Y25122050D02*
X51750284Y25122050D01*
X40120000Y23680000D02*
X40287050Y23847050D01*
X40594716Y23847050D02*
X40890887Y24143221D01*
X52530284Y24342050D02*
X55820800Y24342050D01*
X40890887Y24143221D02*
X40890887Y24868221D01*
X40287050Y23847050D02*
X40594716Y23847050D01*
X40890887Y24868221D02*
X41144716Y25122050D01*
X55820800Y24342050D02*
X56020000Y24142850D01*
X51750284Y25122050D02*
X52530284Y24342050D01*
X40120000Y23320000D02*
X40120000Y23680000D01*
X39325000Y17862950D02*
X39325000Y17870650D01*
X56750284Y18632950D02*
X60902050Y22784716D01*
X39625000Y17870650D02*
X39625000Y17862950D01*
X39775000Y17712950D02*
X39850725Y17712950D01*
X37747050Y16442950D02*
X37950284Y16442950D01*
X37580000Y16610000D02*
X37747050Y16442950D01*
X37950284Y16442950D02*
X38117050Y16609716D01*
X37580000Y16970000D02*
X37580000Y16610000D01*
X39850725Y17712950D02*
X47550284Y17712950D01*
X38495284Y17712950D02*
X39175000Y17712950D01*
X60902050Y29854716D02*
X62182050Y31134716D01*
X38117050Y16609716D02*
X38117050Y17334716D01*
X38117050Y17334716D02*
X38495284Y17712950D01*
X60902050Y22784716D02*
X60902050Y29854716D01*
X62182050Y31134716D02*
X62182050Y31400800D01*
X47550284Y17712950D02*
X48470284Y18632950D01*
X62182050Y31400800D02*
X61982850Y31600000D01*
X48470284Y18632950D02*
X56750284Y18632950D01*
X39475000Y18020650D02*
G75*
G02*
X39625050Y17870650I0J-150050D01*
G01*
X39625000Y17862950D02*
G75*
G03*
X39775000Y17713000I150000J50D01*
G01*
X39175000Y17712950D02*
G75*
G03*
X39325050Y17862950I0J150050D01*
G01*
X39325000Y17870650D02*
G75*
G02*
X39475000Y18020600I150000J-50D01*
G01*
X40642050Y21794716D02*
X40360284Y21512950D01*
X39367050Y20448488D02*
X39367050Y20532458D01*
X57592050Y24164716D02*
X55535284Y22107950D01*
X56782050Y45303968D02*
X56782050Y42455284D01*
X55084716Y47922050D02*
X56075519Y48912853D01*
X52533615Y47805100D02*
X52533615Y47825100D01*
X41055284Y22782950D02*
X40642050Y22369716D01*
X39367050Y21174716D02*
X39367050Y20532458D01*
X53170000Y47854300D02*
X52970800Y47655100D01*
X55535284Y22107950D02*
X49319716Y22107950D01*
X39017050Y18982950D02*
X39200284Y18982950D01*
X49888721Y47655100D02*
X49668300Y47875521D01*
X49668300Y48255284D02*
X49905066Y48492050D01*
X49905066Y48492050D02*
X54065284Y48492050D01*
X48644716Y22782950D02*
X41055284Y22782950D01*
X40360284Y21512950D02*
X39705284Y21512950D01*
X39217050Y19998488D02*
X39209444Y19998488D01*
X57592050Y41645284D02*
X57592050Y24164716D01*
X40642050Y22369716D02*
X40642050Y21794716D01*
X56075519Y48912853D02*
X56494481Y48912853D01*
X39705284Y21512950D02*
X39367050Y21174716D01*
X51633615Y47825100D02*
X51633615Y47805100D01*
X49319716Y22107950D02*
X48644716Y22782950D01*
X56632050Y45941089D02*
X56470320Y45941089D01*
X38850000Y19510000D02*
X38850000Y19150000D01*
X54065284Y48492050D02*
X54635284Y47922050D01*
X52233615Y47825100D02*
X52233615Y47805100D01*
X56782050Y42455284D02*
X57592050Y41645284D01*
X39367050Y19149716D02*
X39367050Y19848488D01*
X51250000Y47655100D02*
X49888721Y47655100D01*
X39200284Y18982950D02*
X39367050Y19149716D01*
X49668300Y47875521D02*
X49668300Y48255284D01*
X56782050Y48625284D02*
X56782050Y46091089D01*
X39209444Y20298488D02*
X39217050Y20298488D01*
X56470320Y45641089D02*
X56632050Y45641089D01*
X52970800Y47655100D02*
X52683615Y47655100D01*
X51933615Y47805100D02*
X51933615Y47825100D01*
X56494481Y48912853D02*
X56782050Y48625284D01*
X51483615Y47655100D02*
X51250000Y47655100D01*
X54635284Y47922050D02*
X55084716Y47922050D01*
X38850000Y19150000D02*
X39017050Y18982950D01*
X56782050Y45491089D02*
X56782050Y45303968D01*
X39217050Y20298488D02*
G75*
G03*
X39367012Y20448488I-50J150012D01*
G01*
X52083615Y47655100D02*
G75*
G02*
X51933600Y47805100I-15J150000D01*
G01*
X39059444Y20148488D02*
G75*
G02*
X39209444Y20298456I149956J12D01*
G01*
X51783615Y47975100D02*
G75*
G03*
X51633600Y47825100I-15J-150000D01*
G01*
X52533615Y47825100D02*
G75*
G03*
X52383615Y47975115I-150015J0D01*
G01*
X39209444Y19998488D02*
G75*
G02*
X39059388Y20148488I-44J150012D01*
G01*
X39367050Y19848488D02*
G75*
G03*
X39217050Y19998550I-150050J12D01*
G01*
X56470320Y45941089D02*
G75*
G03*
X56320311Y45791089I-20J-149989D01*
G01*
X56782050Y46091089D02*
G75*
G02*
X56632050Y45941050I-150050J11D01*
G01*
X51633615Y47805100D02*
G75*
G02*
X51483615Y47655085I-150015J0D01*
G01*
X52683615Y47655100D02*
G75*
G02*
X52533600Y47805100I-15J150000D01*
G01*
X56320320Y45791089D02*
G75*
G03*
X56470320Y45641120I149980J11D01*
G01*
X56632050Y45641089D02*
G75*
G02*
X56781989Y45491089I-50J-149989D01*
G01*
X52383615Y47975100D02*
G75*
G03*
X52233600Y47825100I-15J-150000D01*
G01*
X51933615Y47825100D02*
G75*
G03*
X51783615Y47975115I-150015J0D01*
G01*
X52233615Y47805100D02*
G75*
G02*
X52083615Y47655085I-150015J0D01*
G01*
X52344716Y23132950D02*
X53744628Y23132950D01*
X51414716Y24062950D02*
X52344716Y23132950D01*
X41390000Y24590000D02*
X41390000Y24230000D01*
X53894463Y23132950D02*
X53744628Y23132950D01*
X41390000Y24230000D02*
X41557050Y24062950D01*
X41557050Y24062950D02*
X51414716Y24062950D01*
X55052050Y23540800D02*
X55052050Y23334716D01*
X54044463Y23290647D02*
X54044463Y23282950D01*
X54344463Y23282950D02*
X54344463Y23290647D01*
X55052050Y23334716D02*
X54850284Y23132950D01*
X54852850Y23740000D02*
X55052050Y23540800D01*
X54850284Y23132950D02*
X54494463Y23132950D01*
X54194463Y23440647D02*
G75*
G03*
X54044453Y23290647I37J-150047D01*
G01*
X54344463Y23290647D02*
G75*
G03*
X54194463Y23440563I-149963J-47D01*
G01*
X54044463Y23282950D02*
G75*
G02*
X53894463Y23133037I-149963J50D01*
G01*
X54494463Y23132950D02*
G75*
G02*
X54344450Y23282950I37J150050D01*
G01*
X12033338Y49330671D02*
X11926333Y49223667D01*
X9532950Y46830284D02*
X11926333Y49223667D01*
X7502713Y25532002D02*
X7480254Y25509544D01*
X14292050Y49903321D02*
X14292050Y50180284D01*
X15455284Y23882950D02*
X8894716Y23882950D01*
X13044716Y50342050D02*
X12457603Y49754937D01*
X20327050Y25692950D02*
X20327050Y25479716D01*
X8894716Y23882950D02*
X7692388Y25085278D01*
X20160000Y25860000D02*
X20327050Y25692950D01*
X19099027Y25477950D02*
X19099027Y25577950D01*
X18799027Y25577950D02*
X18799027Y25477950D01*
X9532950Y46305284D02*
X9532950Y46830284D01*
X20175284Y25327950D02*
X19249027Y25327950D01*
X19800000Y25860000D02*
X20160000Y25860000D01*
X12294968Y49281173D02*
X12245471Y49330670D01*
X6182950Y42955284D02*
X9532950Y46305284D01*
X12033339Y49330670D02*
X12033338Y49330671D01*
X20327050Y25479716D02*
X20175284Y25327950D01*
X14292050Y50180284D02*
X14130284Y50342050D01*
X18649027Y25327950D02*
X18413063Y25327950D01*
X7692388Y25297411D02*
X7714846Y25319870D01*
X7268122Y25509544D02*
X7268123Y25509543D01*
X18413063Y25327950D02*
X16900284Y25327950D01*
X14130284Y50342050D02*
X13044716Y50342050D01*
X14092850Y49704121D02*
X14292050Y49903321D01*
X12457602Y49542803D02*
X12507100Y49493305D01*
X7268123Y25509543D02*
X7193833Y25583833D01*
X6182950Y26594716D02*
X6182950Y42955284D01*
X16900284Y25327950D02*
X15455284Y23882950D01*
X7193833Y25583833D02*
X6182950Y26594716D01*
X12507100Y49281173D02*
G75*
G02*
X12294968Y49281173I-106066J106066D01*
G01*
X7692388Y25085278D02*
G75*
G02*
X7692432Y25297367I106112J106022D01*
G01*
X12245471Y49330670D02*
G75*
G03*
X12033339Y49330670I-106066J-106066D01*
G01*
X12457603Y49754937D02*
G75*
G03*
X12457632Y49542833I106097J-106037D01*
G01*
X18949027Y25727950D02*
G75*
G03*
X18798950Y25577950I-27J-150050D01*
G01*
X7714846Y25532002D02*
G75*
G03*
X7502714Y25532002I-106066J-106064D01*
G01*
X12507100Y49493305D02*
G75*
G02*
X12507139Y49281134I-106100J-106105D01*
G01*
X19249027Y25327950D02*
G75*
G02*
X19098950Y25477950I-27J150050D01*
G01*
X19099027Y25577950D02*
G75*
G03*
X18949027Y25727927I-150027J-50D01*
G01*
X7480254Y25509544D02*
G75*
G02*
X7268122Y25509544I-106066J106066D01*
G01*
X18799027Y25477950D02*
G75*
G02*
X18649027Y25327973I-150027J50D01*
G01*
X7714846Y25319870D02*
G75*
G03*
X7714810Y25531966I-106046J106030D01*
G01*
X5030429Y2753094D02*
X5224217Y2946883D01*
X5224217Y2946883D02*
X7492050Y5214716D01*
X3760000Y2247150D02*
X3959200Y2047950D01*
X4812930Y2758461D02*
X4818298Y2753093D01*
X5030430Y2753093D02*
X5030429Y2753094D01*
X4325284Y2047950D02*
X4606163Y2328829D01*
X4606163Y2540961D02*
X4600796Y2546328D01*
X7492050Y11554715D02*
X13952812Y18015477D01*
X13952812Y18015477D02*
X13952812Y18297188D01*
X3959200Y2047950D02*
X4325284Y2047950D01*
X7492050Y5214716D02*
X7492050Y11554715D01*
X4606163Y2328829D02*
G75*
G03*
X4606168Y2540966I-106063J106071D01*
G01*
X4600796Y2758460D02*
G75*
G02*
X4812966Y2758498I106104J-106060D01*
G01*
X4818298Y2753093D02*
G75*
G03*
X5030430Y2753093I106066J106066D01*
G01*
X4600796Y2546328D02*
G75*
G02*
X4600790Y2758466I106104J106072D01*
G01*
X60804716Y2047950D02*
X60344716Y2507950D01*
X42057950Y10019716D02*
X49569716Y2507950D01*
X38682950Y23847050D02*
X38380284Y23847050D01*
X42057950Y11369716D02*
X42057950Y10019716D01*
X38850000Y23320000D02*
X38850000Y23680000D01*
X36934716Y13817950D02*
X39609716Y13817950D01*
X36009716Y25112050D02*
X35757950Y24860284D01*
X37865284Y25112050D02*
X36009716Y25112050D01*
X38380284Y23847050D02*
X38117050Y24110284D01*
X35757950Y14994716D02*
X36934716Y13817950D01*
X60344716Y2507950D02*
X60111489Y2507950D01*
X35757950Y23613411D02*
X35757950Y23487220D01*
X49569716Y2507950D02*
X59439340Y2507950D01*
X59661489Y2757950D02*
X59661489Y2657950D01*
X38117050Y24860284D02*
X37865284Y25112050D01*
X59961489Y2657950D02*
X59961489Y2757950D01*
X59511489Y2507950D02*
X59439340Y2507950D01*
X36002050Y23763411D02*
X35907950Y23763411D01*
X61040800Y2047950D02*
X60804716Y2047950D01*
X35757950Y24860284D02*
X35757950Y24213411D01*
X35757950Y23487220D02*
X35757950Y14994716D01*
X35907950Y24063411D02*
X36002050Y24063411D01*
X38850000Y23680000D02*
X38682950Y23847050D01*
X38117050Y24110284D02*
X38117050Y24860284D01*
X39609716Y13817950D02*
X42057950Y11369716D01*
X61240000Y2247150D02*
X61040800Y2047950D01*
X60111489Y2507950D02*
G75*
G02*
X59961450Y2657950I11J150050D01*
G01*
X59661489Y2657950D02*
G75*
G02*
X59511489Y2508011I-149989J50D01*
G01*
X59961489Y2757950D02*
G75*
G03*
X59811489Y2907889I-149989J-50D01*
G01*
X36152050Y23913411D02*
G75*
G02*
X36002050Y23763350I-150050J-11D01*
G01*
X59811489Y2907950D02*
G75*
G03*
X59661450Y2757950I11J-150050D01*
G01*
X35757950Y24213411D02*
G75*
G03*
X35907950Y24063350I150050J-11D01*
G01*
X35907950Y23763411D02*
G75*
G03*
X35757989Y23613411I50J-150011D01*
G01*
X36002050Y24063411D02*
G75*
G02*
X36152011Y23913411I-50J-150011D01*
G01*
X32217050Y20482027D02*
X32217050Y30180284D01*
X32217050Y20345002D02*
X32217050Y20482027D01*
X31337950Y19157950D02*
X31337950Y18984716D01*
X31692050Y35544716D02*
X34992050Y38844716D01*
X31590000Y19410000D02*
X31337950Y19157950D01*
X31856642Y18879308D02*
X32217050Y19239716D01*
X31337950Y18984716D02*
X31443358Y18879308D01*
X34992050Y39131597D02*
X34792850Y39330797D01*
X31880553Y20195002D02*
X32067050Y20195002D01*
X32067050Y19895002D02*
X31880553Y19895002D01*
X32217050Y19239716D02*
X32217050Y19745002D01*
X32217050Y30180284D02*
X31692050Y30705284D01*
X31692050Y30705284D02*
X31692050Y35544716D01*
X31443358Y18879308D02*
X31856642Y18879308D01*
X34992050Y38844716D02*
X34992050Y39131597D01*
X32067050Y20195002D02*
G75*
G03*
X32216998Y20345002I-50J149998D01*
G01*
X32217050Y19745002D02*
G75*
G03*
X32067050Y19895050I-150050J-2D01*
G01*
X31730553Y20045002D02*
G75*
G02*
X31880553Y20195047I150047J-2D01*
G01*
X31880553Y19895002D02*
G75*
G02*
X31730602Y20045002I47J149998D01*
G01*
X42138097Y20435431D02*
X42138097Y21060431D01*
X48892050Y49929728D02*
X48892050Y50244716D01*
X43585284Y20012050D02*
X44214716Y20012050D01*
X53870857Y50527950D02*
X54831043Y50527950D01*
X40857950Y19050284D02*
X40857950Y19825284D01*
X40857950Y19825284D02*
X41069716Y20037050D01*
X43182050Y21105284D02*
X43182050Y20415284D01*
X52903720Y49688963D02*
X52903720Y50070000D01*
X55690588Y49830000D02*
X55688538Y49830000D01*
X42970284Y21317050D02*
X43182050Y21105284D01*
X48692850Y49730528D02*
X48892050Y49929728D01*
X55944716Y20742050D02*
X58782950Y23580284D01*
X54988538Y50527950D02*
X54831043Y50527950D01*
X44214716Y20012050D02*
X45744716Y21542050D01*
X48805284Y20742050D02*
X55944716Y20742050D01*
X42394716Y21317050D02*
X42970284Y21317050D01*
X48892050Y50244716D02*
X49175284Y50527950D01*
X41739716Y20037050D02*
X42138097Y20435431D01*
X40287050Y18767050D02*
X40574716Y18767050D01*
X52419620Y50070000D02*
X52419620Y49688963D01*
X41069716Y20037050D02*
X41739716Y20037050D01*
X43182050Y20415284D02*
X43585284Y20012050D01*
X48005284Y21542050D02*
X48805284Y20742050D01*
X45744716Y21542050D02*
X48005284Y21542050D01*
X40120000Y18600000D02*
X40287050Y18767050D01*
X57917950Y42914716D02*
X57917950Y49334716D01*
X49175284Y50527950D02*
X51961670Y50527950D01*
X58782950Y23580284D02*
X58782950Y42049716D01*
X57917950Y49334716D02*
X56724716Y50527950D01*
X53361670Y50527950D02*
X53870857Y50527950D01*
X54990588Y50527950D02*
X54988538Y50527950D01*
X40120000Y18240000D02*
X40120000Y18600000D01*
X56724716Y50527950D02*
X56388538Y50527950D01*
X58782950Y42049716D02*
X57917950Y42914716D01*
X42138097Y21060431D02*
X42394716Y21317050D01*
X40574716Y18767050D02*
X40857950Y19050284D01*
X55931613Y50071025D02*
G75*
G02*
X55690588Y49829987I-241013J-25D01*
G01*
X52903720Y50070000D02*
G75*
G02*
X53361670Y50527980I457980J0D01*
G01*
X56388538Y50527950D02*
G75*
G03*
X55931550Y50071025I-38J-456950D01*
G01*
X52419620Y49688963D02*
G75*
G03*
X52661670Y49446920I242080J37D01*
G01*
X55447513Y50071025D02*
G75*
G03*
X54990588Y50527913I-456913J-25D01*
G01*
X55688538Y49830000D02*
G75*
G02*
X55447500Y50071025I-38J241000D01*
G01*
X52661670Y49446913D02*
G75*
G03*
X52903787Y49688963I30J242087D01*
G01*
X51961670Y50527950D02*
G75*
G02*
X52419650Y50070000I30J-457950D01*
G01*
X24685284Y3247950D02*
X28805284Y3247950D01*
X27587050Y23847050D02*
X28950284Y23847050D01*
X29217050Y23580284D02*
X29217050Y23000000D01*
X28950284Y23847050D02*
X29217050Y23580284D01*
X29217050Y7490000D02*
X29217050Y22150000D01*
X29217050Y6781314D02*
X29217050Y7490000D01*
X24292050Y2444337D02*
X24292050Y2854716D01*
X27420000Y23320000D02*
X27420000Y23680000D01*
X28805284Y3247950D02*
X29217050Y3659716D01*
X28066622Y6539264D02*
X28975000Y6539264D01*
X29217050Y3659716D02*
X29217050Y3981314D01*
X24092850Y2245137D02*
X24292050Y2444337D01*
X29217050Y22400000D02*
X29217050Y22150000D01*
X24292050Y2854716D02*
X24685284Y3247950D01*
X28975000Y5623364D02*
X28066622Y5623364D01*
X28066600Y5139264D02*
X28975000Y5139264D01*
X29059432Y22550000D02*
X29067050Y22550000D01*
X27420000Y23680000D02*
X27587050Y23847050D01*
X29067050Y22850000D02*
X29059432Y22850000D01*
X28975000Y4223364D02*
X28066600Y4223364D01*
X29059432Y22850000D02*
G75*
G03*
X28909400Y22700000I-32J-150000D01*
G01*
X28975000Y6539264D02*
G75*
G03*
X29217036Y6781314I0J242036D01*
G01*
X27608650Y4681314D02*
G75*
G02*
X28066600Y5139250I457950J-14D01*
G01*
X29067050Y22550000D02*
G75*
G02*
X29217000Y22400000I-50J-150000D01*
G01*
X28975000Y5139264D02*
G75*
G03*
X29217036Y5381314I0J242036D01*
G01*
X29217050Y5381314D02*
G75*
G03*
X28975000Y5623350I-242050J-14D01*
G01*
X27608672Y6081314D02*
G75*
G02*
X28066622Y6539228I457928J-14D01*
G01*
X29217050Y3981314D02*
G75*
G03*
X28975000Y4223350I-242050J-14D01*
G01*
X28066622Y5623364D02*
G75*
G02*
X27608664Y6081314I-22J457936D01*
G01*
X29217050Y23000000D02*
G75*
G02*
X29067050Y22849950I-150050J0D01*
G01*
X28066600Y4223364D02*
G75*
G02*
X27608664Y4681314I0J457936D01*
G01*
X28909432Y22700000D02*
G75*
G03*
X29059432Y22550032I149968J0D01*
G01*
X6757434Y21623556D02*
X6757434Y21435100D01*
X4105515Y24129726D02*
X4650000Y24129726D01*
X5107950Y24640000D02*
X5107950Y43230284D01*
X5107950Y24587676D02*
X5107950Y24640000D01*
X5107950Y43230284D02*
X5907950Y44030284D01*
X4507950Y49094716D02*
X4507950Y50175800D01*
X5824997Y21914802D02*
X5957278Y22047084D01*
X5400732Y22126934D02*
X5213722Y22313944D01*
X5213722Y22313944D02*
X5107950Y22419716D01*
X5907950Y44030284D02*
X5907950Y47694716D01*
X5907950Y47694716D02*
X4507950Y49094716D01*
X6757434Y21435100D02*
X6580284Y21257950D01*
X6580284Y21257950D02*
X6269716Y21257950D01*
X6558234Y21822756D02*
X6757434Y21623556D01*
X6269716Y21257950D02*
X5824997Y21702669D01*
X5107950Y22419716D02*
X5107950Y23187676D01*
X4650000Y23645626D02*
X4105515Y23645626D01*
X5400731Y22126935D02*
X5400732Y22126934D01*
X4507950Y50175800D02*
X4707150Y50375000D01*
X5745145Y22259216D02*
X5612863Y22126935D01*
X5107950Y23187676D02*
G75*
G03*
X4650000Y23645650I-457950J24D01*
G01*
X4105515Y23645626D02*
G75*
G02*
X3863426Y23887676I-15J242074D01*
G01*
X3863465Y23887676D02*
G75*
G02*
X4105515Y24129735I242035J24D01*
G01*
X4650000Y24129726D02*
G75*
G03*
X5107974Y24587676I0J457974D01*
G01*
X5957278Y22259216D02*
G75*
G03*
X5745146Y22259216I-106066J-106064D01*
G01*
X5957278Y22047084D02*
G75*
G03*
X5957228Y22259166I-106078J106016D01*
G01*
X5824997Y21702669D02*
G75*
G02*
X5825032Y21914767I106103J106031D01*
G01*
X5612863Y22126935D02*
G75*
G02*
X5400731Y22126935I-106066J106066D01*
G01*
X37444716Y27817050D02*
X37052950Y27425284D01*
X54881313Y30410143D02*
X54380717Y30910739D01*
X52375371Y44582950D02*
X54150000Y44582950D01*
X50944716Y27817050D02*
X37444716Y27817050D01*
X53660558Y30532892D02*
X50944716Y27817050D01*
X55183256Y46355590D02*
X54632950Y45805284D01*
X55392716Y46565049D02*
X55183256Y46355590D01*
X55682950Y32555284D02*
X55028356Y31900690D01*
X54632950Y42471742D02*
X54632950Y42094716D01*
X55028355Y31558380D02*
X55528952Y31057783D01*
X55392717Y46565048D02*
X55392716Y46565049D01*
X56050800Y47223134D02*
X55816981Y46989315D01*
X54150000Y45117050D02*
X52375371Y45117050D01*
X54150000Y43617050D02*
X53475360Y43617050D01*
X55682950Y41044716D02*
X55682950Y32555284D01*
X54632950Y42600000D02*
X54632950Y42471742D01*
X54038407Y30910738D02*
X54038406Y30910739D01*
X54038406Y30910739D02*
X53660558Y30532892D01*
X53475360Y43082950D02*
X54150000Y43082950D01*
X37052950Y27425284D02*
X37052950Y26027050D01*
X54632950Y45805284D02*
X54632950Y45600000D01*
X56050800Y47520800D02*
X56050800Y47223134D01*
X55816980Y46777181D02*
X55948843Y46645318D01*
X55736711Y46433186D02*
X55604849Y46565048D01*
X54632950Y42094716D02*
X55682950Y41044716D01*
X56250000Y47720000D02*
X56050800Y47520800D01*
X37220000Y25860000D02*
X37580000Y25860000D01*
X37052950Y26027050D02*
X37220000Y25860000D01*
X55028356Y31900690D02*
G75*
G03*
X55028320Y31558346I171144J-171190D01*
G01*
X55816981Y46989315D02*
G75*
G03*
X55816932Y46777133I106019J-106115D01*
G01*
X53208310Y43350000D02*
G75*
G03*
X53475360Y43082910I267090J0D01*
G01*
X55528953Y30410143D02*
G75*
G02*
X54881313Y30410143I-323820J323815D01*
G01*
X52108321Y44850000D02*
G75*
G03*
X52375371Y44582921I267079J0D01*
G01*
X54632950Y44100000D02*
G75*
G02*
X54150000Y43617050I-482950J0D01*
G01*
X54380717Y30910739D02*
G75*
G03*
X54038445Y30910701I-171117J-171139D01*
G01*
X54150000Y44582950D02*
G75*
G02*
X54632950Y44100000I0J-482950D01*
G01*
X55948843Y46645318D02*
G75*
G02*
X55948795Y46433234I-106043J-106018D01*
G01*
X55604849Y46565048D02*
G75*
G03*
X55392717Y46565048I-106066J-106066D01*
G01*
X54632950Y45600000D02*
G75*
G02*
X54150000Y45117050I-482950J0D01*
G01*
X55528952Y31057783D02*
G75*
G02*
X55528916Y30410180I-323852J-323783D01*
G01*
X55948843Y46433186D02*
G75*
G02*
X55736711Y46433186I-106066J106066D01*
G01*
X54150000Y43082950D02*
G75*
G02*
X54632950Y42600000I0J-482950D01*
G01*
X53475360Y43617050D02*
G75*
G03*
X53208350Y43350000I40J-267050D01*
G01*
X52375371Y45117050D02*
G75*
G03*
X52108350Y44850000I29J-267050D01*
G01*
X7950000Y19157631D02*
X8260566Y19157631D01*
X8260584Y17273531D02*
X7950000Y17273531D01*
X9032812Y21867188D02*
X9032812Y21585477D01*
X7492050Y16815581D02*
X7492050Y16708737D01*
X7492050Y20044715D02*
X7492050Y19615581D01*
X7950000Y17757631D02*
X8260584Y17757631D01*
X7492050Y16708737D02*
X7492050Y16049200D01*
X9032812Y21585477D02*
X7492050Y20044715D01*
X7492050Y16049200D02*
X7292850Y15850000D01*
X8260566Y18673531D02*
X7950000Y18673531D01*
X8502616Y18915581D02*
G75*
G02*
X8260566Y18673584I-242016J19D01*
G01*
X8502634Y17515581D02*
G75*
G02*
X8260584Y17273566I-242034J19D01*
G01*
X8260566Y19157631D02*
G75*
G02*
X8502631Y18915581I34J-242031D01*
G01*
X7950000Y18673531D02*
G75*
G03*
X7492069Y18215581I0J-457931D01*
G01*
X8260584Y17757631D02*
G75*
G02*
X8502631Y17515581I16J-242031D01*
G01*
X7950000Y17273531D02*
G75*
G03*
X7492069Y16815581I0J-457931D01*
G01*
X7492050Y19615581D02*
G75*
G03*
X7950000Y19157650I457950J19D01*
G01*
X7492050Y18215581D02*
G75*
G03*
X7950000Y17757650I457950J19D01*
G01*
X7707950Y11465285D02*
X14105477Y17862812D01*
X3959200Y1832050D02*
X4414716Y1832050D01*
X3760000Y1632850D02*
X3959200Y1832050D01*
X14105477Y17862812D02*
X14387188Y17862812D01*
X7707950Y5125284D02*
X7707950Y11465285D01*
X4414716Y1832050D02*
X7707950Y5125284D01*
X19280284Y1357950D02*
X20030790Y2108456D01*
X21292050Y6154716D02*
X26677050Y11539716D01*
X20030790Y2320588D02*
X20025394Y2325984D01*
X14507950Y2045937D02*
X14507950Y1794716D01*
X14944716Y1357950D02*
X19280284Y1357950D01*
X26970284Y21522950D02*
X27252950Y21522950D01*
X14507950Y1794716D02*
X14944716Y1357950D01*
X20455057Y2532720D02*
X20455056Y2532721D01*
X27252950Y21522950D02*
X27420000Y21690000D01*
X27420000Y21690000D02*
X27420000Y22050000D01*
X20237528Y2538117D02*
X20242925Y2532720D01*
X20455056Y2532721D02*
X20631165Y2708831D01*
X21292050Y3369716D02*
X21292050Y6154716D01*
X26677050Y21229716D02*
X26970284Y21522950D01*
X14707150Y2245137D02*
X14507950Y2045937D01*
X26677050Y11539716D02*
X26677050Y21229716D01*
X20631165Y2708831D02*
X21292050Y3369716D01*
X20030790Y2108456D02*
G75*
G03*
X20030768Y2320566I-106090J106044D01*
G01*
X20242925Y2532720D02*
G75*
G03*
X20455057Y2532720I106066J106066D01*
G01*
X20025394Y2538116D02*
G75*
G02*
X20237566Y2538156I106106J-106116D01*
G01*
X20025394Y2325984D02*
G75*
G02*
X20025444Y2538066I106106J106016D01*
G01*
X16157950Y39131597D02*
X16157950Y38869716D01*
X31337950Y23764716D02*
X31337950Y23472050D01*
X31094716Y24007950D02*
X31337950Y23764716D01*
X16157950Y38869716D02*
X17457950Y37569716D01*
X31337950Y23472050D02*
X31590000Y23220000D01*
X28719716Y30432950D02*
X30707950Y28444716D01*
X23819716Y30432950D02*
X28719716Y30432950D01*
X30744716Y24007950D02*
X31094716Y24007950D01*
X16357150Y39330797D02*
X16157950Y39131597D01*
X17457950Y37569716D02*
X17457950Y36794716D01*
X30707950Y25080284D02*
X30507950Y24880284D01*
X30707950Y28444716D02*
X30707950Y25080284D01*
X30507950Y24880284D02*
X30507950Y24244716D01*
X30507950Y24244716D02*
X30744716Y24007950D01*
X17457950Y36794716D02*
X23819716Y30432950D01*
X38850000Y24590000D02*
X38850000Y24230000D01*
X35920284Y25327950D02*
X35542050Y24949716D01*
X61040800Y1832050D02*
X61240000Y1632850D01*
X38332950Y24949716D02*
X37954716Y25327950D01*
X49480284Y2292050D02*
X60255284Y2292050D01*
X41842050Y11280284D02*
X41842050Y9930284D01*
X60255284Y2292050D02*
X60715284Y1832050D01*
X36845284Y13602050D02*
X39520284Y13602050D01*
X38850000Y24230000D02*
X38682950Y24062950D01*
X39520284Y13602050D02*
X41842050Y11280284D01*
X38682950Y24062950D02*
X38469716Y24062950D01*
X35542050Y24949716D02*
X35542050Y14905284D01*
X38469716Y24062950D02*
X38332950Y24199716D01*
X37954716Y25327950D02*
X35920284Y25327950D01*
X60715284Y1832050D02*
X61040800Y1832050D01*
X38332950Y24199716D02*
X38332950Y24949716D01*
X41842050Y9930284D02*
X49480284Y2292050D01*
X35542050Y14905284D02*
X36845284Y13602050D01*
X56592050Y41180284D02*
X56592050Y30224716D01*
X37887050Y20308965D02*
X37967050Y20308965D01*
X37950284Y18982950D02*
X38117050Y19149716D01*
X55402050Y29034716D02*
X55402050Y28284716D01*
X55409900Y44900800D02*
X55409900Y44362434D01*
X37580000Y19510000D02*
X37580000Y19150000D01*
X39755284Y26607950D02*
X39392050Y26244716D01*
X56592050Y30224716D02*
X55402050Y29034716D01*
X37747050Y18982950D02*
X37950284Y18982950D01*
X55409900Y44362434D02*
X55742050Y44030284D01*
X38117050Y20458965D02*
X38117050Y20727017D01*
X38117050Y22424716D02*
X38117050Y20727017D01*
X37967050Y20008965D02*
X37887050Y20008965D01*
X38117050Y19149716D02*
X38117050Y19858965D01*
X51230284Y26607950D02*
X39755284Y26607950D01*
X39392050Y26244716D02*
X39392050Y23049716D01*
X54500284Y27382950D02*
X52005284Y27382950D01*
X55409900Y42362434D02*
X56592050Y41180284D01*
X52005284Y27382950D02*
X51230284Y26607950D01*
X55210700Y45100000D02*
X55409900Y44900800D01*
X39392050Y23049716D02*
X39130284Y22787950D01*
X38480284Y22787950D02*
X38117050Y22424716D01*
X39130284Y22787950D02*
X38480284Y22787950D01*
X55742050Y43644716D02*
X55409900Y43312566D01*
X55409900Y43312566D02*
X55409900Y42362434D01*
X55402050Y28284716D02*
X54500284Y27382950D01*
X55742050Y44030284D02*
X55742050Y43644716D01*
X37580000Y19150000D02*
X37747050Y18982950D01*
X37967050Y20308965D02*
G75*
G03*
X38117035Y20458965I-50J150035D01*
G01*
X38117050Y19858965D02*
G75*
G03*
X37967050Y20009050I-150050J35D01*
G01*
X37737050Y20158965D02*
G75*
G02*
X37887050Y20309050I150050J35D01*
G01*
X37887050Y20008965D02*
G75*
G02*
X37737065Y20158965I50J150035D01*
G01*
X41922197Y20524863D02*
X41922197Y21149863D01*
X44885312Y21212329D02*
X44891423Y21206218D01*
X50104003Y50312050D02*
X50114003Y50312050D01*
X48894716Y20957950D02*
X55855284Y20957950D01*
X41922197Y21149863D02*
X42305284Y21532950D01*
X44679288Y20994086D02*
X44673178Y21000196D01*
X56967660Y49979674D02*
X56935562Y50011772D01*
X45206827Y21309493D02*
X45655284Y21757950D01*
X43674716Y20227950D02*
X44125284Y20227950D01*
X49107950Y49929728D02*
X49107950Y50155284D01*
X40642050Y19139716D02*
X40642050Y19914716D01*
X57702050Y49245284D02*
X57391925Y49555409D01*
X53361670Y50312050D02*
X53870857Y50312050D01*
X40642050Y19914716D02*
X40980284Y20252950D01*
X49804003Y50022050D02*
X49814003Y50022050D01*
X56635284Y50312050D02*
X56388538Y50312050D01*
X57179791Y49555410D02*
X57165649Y49541267D01*
X43059716Y21532950D02*
X43397950Y21194716D01*
X56953516Y49753401D02*
X56967659Y49767543D01*
X42305284Y21532950D02*
X43059716Y21532950D01*
X55855284Y20957950D02*
X58567050Y23669716D01*
X50114003Y50312050D02*
X50225000Y50312050D01*
X45103554Y21206219D02*
X45206827Y21309493D01*
X54988538Y50312050D02*
X54831043Y50312050D01*
X45103555Y21206218D02*
X45103554Y21206219D01*
X54990588Y50312050D02*
X54988538Y50312050D01*
X53870857Y50312050D02*
X54831043Y50312050D01*
X48094716Y21757950D02*
X48894716Y20957950D01*
X45655284Y21757950D02*
X48094716Y21757950D01*
X58567050Y41960284D02*
X57702050Y42825284D01*
X41650284Y20252950D02*
X41922197Y20524863D01*
X57702050Y42825284D02*
X57702050Y49245284D01*
X43397950Y21194716D02*
X43397950Y20504716D01*
X40287050Y18982950D02*
X40485284Y18982950D01*
X56935562Y50011772D02*
X56635284Y50312050D01*
X44125284Y20227950D02*
X44679288Y20781954D01*
X56967659Y49979675D02*
X56967660Y49979674D01*
X49107950Y50155284D02*
X49264716Y50312050D01*
X43397950Y20504716D02*
X43674716Y20227950D01*
X50225000Y50312050D02*
X51961670Y50312050D01*
X49264716Y50312050D02*
X49514003Y50312050D01*
X40120000Y19510000D02*
X40120000Y19150000D01*
X53119620Y49688963D02*
X53119620Y50070000D01*
X52203720Y50070000D02*
X52203720Y49688963D01*
X55690588Y49614100D02*
X55688538Y49614100D01*
X40980284Y20252950D02*
X41650284Y20252950D01*
X40485284Y18982950D02*
X40642050Y19139716D01*
X49307150Y49730528D02*
X49107950Y49929728D01*
X58567050Y23669716D02*
X58567050Y41960284D01*
X40120000Y19150000D02*
X40287050Y18982950D01*
X49959003Y50167050D02*
G75*
G02*
X50104003Y50311997I144997J-50D01*
G01*
X55688538Y49614100D02*
G75*
G02*
X55231600Y50071025I-38J456900D01*
G01*
X57391925Y49555409D02*
G75*
G03*
X57179833Y49555368I-106025J-106109D01*
G01*
X56147513Y50071025D02*
G75*
G02*
X55690588Y49614087I-456913J-25D01*
G01*
X51961670Y50312050D02*
G75*
G02*
X52203750Y50070000I30J-242050D01*
G01*
X52661670Y49231013D02*
G75*
G03*
X53119687Y49688963I30J457987D01*
G01*
X57165649Y49541267D02*
G75*
G02*
X56953517Y49541267I-106066J106066D01*
G01*
X56953517Y49541267D02*
G75*
G02*
X56953550Y49753366I106083J106033D01*
G01*
X52203720Y49688963D02*
G75*
G03*
X52661670Y49231020I457980J37D01*
G01*
X44679288Y20781954D02*
G75*
G03*
X44679268Y20994066I-106088J106046D01*
G01*
X53119620Y50070000D02*
G75*
G02*
X53361670Y50312080I242080J0D01*
G01*
X44891423Y21206218D02*
G75*
G03*
X45103555Y21206218I106066J106066D01*
G01*
X56388538Y50312050D02*
G75*
G03*
X56147450Y50071025I-38J-241050D01*
G01*
X56967659Y49767543D02*
G75*
G03*
X56967650Y49979666I-106059J106057D01*
G01*
X49514003Y50312050D02*
G75*
G02*
X49659050Y50167050I-3J-145050D01*
G01*
X44673178Y21212328D02*
G75*
G02*
X44885266Y21212284I106022J-106028D01*
G01*
X49659003Y50167050D02*
G75*
G03*
X49804003Y50022103I144997J50D01*
G01*
X55231613Y50071025D02*
G75*
G03*
X54990588Y50312013I-241013J-25D01*
G01*
X49814003Y50022050D02*
G75*
G03*
X49959050Y50167050I-3J145050D01*
G01*
X44673178Y21000196D02*
G75*
G02*
X44673140Y21212366I106022J106104D01*
G01*
X56443584Y8963895D02*
X56180000Y8963895D01*
X56180000Y7079795D02*
X56443599Y7079795D01*
X56180000Y8479795D02*
X56443584Y8479795D01*
X37194716Y23847050D02*
X37057950Y23710284D01*
X37057950Y22379748D02*
X37057950Y22307177D01*
X37057950Y23710284D02*
X37057950Y22979748D01*
X52344716Y15007950D02*
X55937950Y11414716D01*
X55937950Y5625000D02*
X55937950Y4969200D01*
X56443584Y7563895D02*
X56180000Y7563895D01*
X56180000Y9879795D02*
X56443584Y9879795D01*
X37057950Y22307177D02*
X37057950Y15369716D01*
X55937950Y11414716D02*
X55937950Y10121845D01*
X37412950Y23847050D02*
X37194716Y23847050D01*
X37580000Y23680000D02*
X37412950Y23847050D01*
X37215444Y22529748D02*
X37207950Y22529748D01*
X37580000Y23320000D02*
X37580000Y23680000D01*
X37057950Y15369716D02*
X37419716Y15007950D01*
X37207950Y22829748D02*
X37215444Y22829748D01*
X55937950Y4969200D02*
X56137150Y4770000D01*
X37419716Y15007950D02*
X52344716Y15007950D01*
X56443599Y6163895D02*
X56180000Y6163895D01*
X55937950Y5921845D02*
X55937950Y5625000D01*
X56443584Y9879795D02*
G75*
G02*
X56901595Y9421845I16J-457995D01*
G01*
X55937950Y8721845D02*
G75*
G03*
X56180000Y8479750I242050J-45D01*
G01*
X56180000Y7563895D02*
G75*
G03*
X55937905Y7321845I0J-242095D01*
G01*
X56901534Y9421845D02*
G75*
G02*
X56443584Y8963866I-457934J-45D01*
G01*
X37365444Y22679748D02*
G75*
G02*
X37215444Y22529656I-150044J-48D01*
G01*
X56443584Y8479795D02*
G75*
G02*
X56901595Y8021845I16J-457995D01*
G01*
X56443599Y7079795D02*
G75*
G02*
X56901595Y6621845I1J-457995D01*
G01*
X55937950Y7321845D02*
G75*
G03*
X56180000Y7079750I242050J-45D01*
G01*
X56180000Y6163895D02*
G75*
G03*
X55937905Y5921845I0J-242095D01*
G01*
X37215444Y22829748D02*
G75*
G02*
X37365448Y22679748I-44J-150048D01*
G01*
X37207950Y22529748D02*
G75*
G03*
X37057952Y22379748I50J-150048D01*
G01*
X56180000Y8963895D02*
G75*
G03*
X55937905Y8721845I0J-242095D01*
G01*
X56901534Y8021845D02*
G75*
G02*
X56443584Y7563866I-457934J-45D01*
G01*
X37057950Y22979748D02*
G75*
G03*
X37207950Y22829650I150050J-48D01*
G01*
X55937950Y10121845D02*
G75*
G03*
X56180000Y9879750I242050J-45D01*
G01*
X56901549Y6621845D02*
G75*
G02*
X56443599Y6163851I-457949J-45D01*
G01*
X16107950Y48124716D02*
X15774716Y48457950D01*
X25255284Y26392050D02*
X25407050Y26240284D01*
X7042050Y42569716D02*
X7042050Y26905284D01*
X15774716Y48457950D02*
X12255284Y48457950D01*
X25240000Y25860000D02*
X24880000Y25860000D01*
X16569716Y26392050D02*
X25255284Y26392050D01*
X14969716Y24792050D02*
X16569716Y26392050D01*
X10462050Y46664716D02*
X10462050Y45989716D01*
X12255284Y48457950D02*
X10462050Y46664716D01*
X16307150Y47612444D02*
X16107950Y47811644D01*
X16107950Y47811644D02*
X16107950Y48124716D01*
X25407050Y26240284D02*
X25407050Y26027050D01*
X10462050Y45989716D02*
X7042050Y42569716D01*
X7042050Y26905284D02*
X9155284Y24792050D01*
X9155284Y24792050D02*
X14969716Y24792050D01*
X25407050Y26027050D02*
X25240000Y25860000D01*
X15892050Y47811644D02*
X15892050Y48035284D01*
X10677950Y46575284D02*
X12344716Y48242050D01*
X15892050Y48035284D02*
X15685284Y48242050D01*
X14880284Y25007950D02*
X9244716Y25007950D01*
X7257950Y42480284D02*
X10677950Y45900284D01*
X25622950Y26329716D02*
X25344716Y26607950D01*
X14772307Y48072050D02*
X14772307Y48092050D01*
X8397326Y26267828D02*
X8391437Y26273717D01*
X7973061Y26279605D02*
X7743134Y26509532D01*
X10677950Y45900284D02*
X10677950Y46575284D01*
X16480284Y26607950D02*
X14880284Y25007950D01*
X7743134Y26509532D02*
X7257950Y26994716D01*
X15692850Y47612444D02*
X15892050Y47811644D01*
X12344716Y48242050D02*
X14400894Y48242050D01*
X25344716Y26607950D02*
X16480284Y26607950D01*
X15685284Y48242050D02*
X15222307Y48242050D01*
X15072307Y48092050D02*
X15072307Y48072050D01*
X7257950Y26994716D02*
X7257950Y42480284D01*
X26150000Y25860000D02*
X25790000Y25860000D01*
X25790000Y25860000D02*
X25622950Y26027050D01*
X14622307Y48242050D02*
X14400894Y48242050D01*
X7978949Y26273717D02*
X7973061Y26279605D01*
X25622950Y26027050D02*
X25622950Y26329716D01*
X9244716Y25007950D02*
X8397326Y25855340D01*
X14922307Y47922050D02*
G75*
G02*
X14772250Y48072050I-7J150050D01*
G01*
X8391437Y26273717D02*
G75*
G03*
X8185193Y26273717I-103122J-103120D01*
G01*
X15072307Y48072050D02*
G75*
G02*
X14922307Y47922093I-150007J50D01*
G01*
X14772307Y48092050D02*
G75*
G03*
X14622307Y48242007I-150007J-50D01*
G01*
X8397326Y26061584D02*
G75*
G03*
X8397320Y26267822I-103126J103116D01*
G01*
X8397326Y25855340D02*
G75*
G02*
X8397288Y26061622I103074J103160D01*
G01*
X15222307Y48242050D02*
G75*
G03*
X15072250Y48092050I-7J-150050D01*
G01*
X8185193Y26273717D02*
G75*
G02*
X7978949Y26273717I-103122J103120D01*
G01*
X12842050Y21219716D02*
X12842050Y19994716D01*
X15705284Y22507950D02*
X14130284Y22507950D01*
X7305284Y14457950D02*
X5899200Y14457950D01*
X17260284Y24062950D02*
X15705284Y22507950D01*
X12842050Y19994716D02*
X11201473Y18354139D01*
X20542950Y24062950D02*
X17260284Y24062950D01*
X5899200Y14457950D02*
X5700000Y14657150D01*
X9823667Y16976333D02*
X7305284Y14457950D01*
X10211523Y17364190D02*
X9823667Y16976333D01*
X9929733Y17988289D02*
X10211522Y17706500D01*
X10211522Y17364191D02*
X10211523Y17364190D01*
X21070000Y24590000D02*
X20542950Y24062950D01*
X10859164Y18354139D02*
X10577374Y18635929D01*
X14130284Y22507950D02*
X12842050Y21219716D01*
X9929733Y18635929D02*
G75*
G03*
X9929724Y17988280I323867J-323829D01*
G01*
X10211522Y17706500D02*
G75*
G02*
X10211568Y17364145I-171122J-171200D01*
G01*
X10577374Y18635929D02*
G75*
G03*
X9929734Y18635929I-323820J-323820D01*
G01*
X11201473Y18354139D02*
G75*
G02*
X10859163Y18354138I-171155J171153D01*
G01*
X49032050Y11420800D02*
X48832850Y11620000D01*
X49915284Y3472050D02*
X49032050Y4355284D01*
X50707950Y4155663D02*
X50707950Y3799455D01*
X50707950Y3799455D02*
X50380545Y3472050D01*
X50907150Y4354863D02*
X50707950Y4155663D01*
X50380545Y3472050D02*
X49915284Y3472050D01*
X49032050Y4355284D02*
X49032050Y11420800D01*
X13107150Y45883231D02*
X12907950Y45684031D01*
X26969716Y28882950D02*
X28162950Y27689716D01*
X28330000Y27130000D02*
X28690000Y27130000D01*
X12907950Y45684031D02*
X12907950Y44930284D01*
X13930284Y27257950D02*
X15555284Y28882950D01*
X12907950Y44930284D02*
X9447950Y41470284D01*
X9447950Y28179716D02*
X10369716Y27257950D01*
X15555284Y28882950D02*
X26969716Y28882950D01*
X9447950Y41470284D02*
X9447950Y28179716D01*
X28162950Y27689716D02*
X28162950Y27297050D01*
X10369716Y27257950D02*
X13930284Y27257950D01*
X28162950Y27297050D02*
X28330000Y27130000D01*
X27942050Y22330284D02*
X27942050Y20451827D01*
X26150000Y23320000D02*
X26150000Y23680000D01*
X26510284Y23847050D02*
X26677050Y23680284D01*
X26150000Y23680000D02*
X26317050Y23847050D01*
X25362023Y8364688D02*
X24663667Y7666333D01*
X22692050Y3572795D02*
X22692050Y3570000D01*
X26677050Y23680284D02*
X26677050Y22920284D01*
X27705284Y22567050D02*
X27942050Y22330284D01*
X27341925Y9696949D02*
X28022379Y9016495D01*
X23927950Y4030745D02*
X23150000Y4030745D01*
X27942050Y19851827D02*
X27942050Y19707059D01*
X27942050Y10944716D02*
X27341924Y10344590D01*
X25362026Y8364688D02*
X25362023Y8364688D01*
X26677050Y22920284D02*
X27030284Y22567050D01*
X27680070Y8674185D02*
X26999617Y9354638D01*
X26690138Y7684215D02*
X26009666Y8364687D01*
X26351974Y8706998D02*
X27032447Y8026525D01*
X24663667Y7666333D02*
X22692050Y5694716D01*
X26317050Y23847050D02*
X26510284Y23847050D01*
X22692050Y5694716D02*
X22692050Y4972795D01*
X27030284Y22567050D02*
X27705284Y22567050D01*
X27792050Y20301827D02*
X27784449Y20301827D01*
X27942050Y19707059D02*
X27942050Y10944716D01*
X26351977Y9354638D02*
X26351974Y9354639D01*
X27341924Y10344590D02*
X27341925Y10344589D01*
X26351974Y9354639D02*
X26351974Y9354638D01*
X23150000Y4514845D02*
X23927950Y4514845D01*
X22692050Y2444337D02*
X22492850Y2245137D01*
X22692050Y3570000D02*
X22692050Y2444337D01*
X27784449Y20001827D02*
X27792050Y20001827D01*
X28022379Y9016495D02*
G75*
G02*
X28022419Y8674145I-171179J-171195D01*
G01*
X27032446Y7684215D02*
G75*
G02*
X26690138Y7684215I-171154J171155D01*
G01*
X26999617Y9354638D02*
G75*
G03*
X26351977Y9354638I-323820J-323815D01*
G01*
X27634449Y20151827D02*
G75*
G03*
X27784449Y20001849I149951J-27D01*
G01*
X22692050Y4972795D02*
G75*
G03*
X23150000Y4514850I457950J5D01*
G01*
X28022378Y8674185D02*
G75*
G02*
X27680070Y8674185I-171154J171155D01*
G01*
X27032447Y8026525D02*
G75*
G02*
X27032417Y7684245I-171147J-171125D01*
G01*
X27784449Y20301827D02*
G75*
G03*
X27634373Y20151827I-49J-150027D01*
G01*
X27341925Y10344589D02*
G75*
G03*
X27341956Y9696980I323775J-323789D01*
G01*
X26351974Y9354638D02*
G75*
G03*
X26351956Y8706980I323826J-323838D01*
G01*
X26009666Y8364687D02*
G75*
G03*
X25361980Y8364734I-323866J-323787D01*
G01*
X23927950Y4514845D02*
G75*
G02*
X24169945Y4272795I-50J-242045D01*
G01*
X27792050Y20001827D02*
G75*
G02*
X27942027Y19851827I-50J-150027D01*
G01*
X23150000Y4030745D02*
G75*
G03*
X22692055Y3572795I0J-457945D01*
G01*
X27942050Y20451827D02*
G75*
G02*
X27792050Y20301750I-150050J-27D01*
G01*
X24170000Y4272795D02*
G75*
G02*
X23927950Y4030700I-242100J5D01*
G01*
X19200161Y17968877D02*
X19600000Y17968877D01*
X19600000Y19852977D02*
X19200161Y19852977D01*
X20057950Y17510927D02*
X20057950Y17350000D01*
X20057950Y17350000D02*
X20057950Y16595284D01*
X8917950Y5195284D02*
X8917950Y4899200D01*
X14207950Y9735284D02*
X12234716Y7762050D01*
X19200161Y19368877D02*
X19600000Y19368877D01*
X19600000Y18452977D02*
X19200161Y18452977D01*
X20057950Y21080284D02*
X20057950Y20310927D01*
X20284716Y21307050D02*
X20057950Y21080284D01*
X8917950Y4899200D02*
X9117150Y4700000D01*
X14207950Y10745284D02*
X14207950Y9735284D01*
X20542950Y21307050D02*
X20284716Y21307050D01*
X11484716Y7762050D02*
X8917950Y5195284D01*
X20057950Y16595284D02*
X14207950Y10745284D01*
X12234716Y7762050D02*
X11484716Y7762050D01*
X21070000Y20780000D02*
X20542950Y21307050D01*
X18958111Y18210927D02*
G75*
G03*
X19200161Y17968811I242089J-27D01*
G01*
X19200161Y19852977D02*
G75*
G03*
X18958123Y19610927I39J-242077D01*
G01*
X20057950Y18910927D02*
G75*
G02*
X19600000Y18452950I-457950J-27D01*
G01*
X19200161Y18452977D02*
G75*
G03*
X18958123Y18210927I39J-242077D01*
G01*
X19600000Y17968877D02*
G75*
G02*
X20057977Y17510927I0J-457977D01*
G01*
X20057950Y20310927D02*
G75*
G02*
X19600000Y19852950I-457950J-27D01*
G01*
X18958111Y19610927D02*
G75*
G03*
X19200161Y19368811I242089J-27D01*
G01*
X19600000Y19368877D02*
G75*
G02*
X20057977Y18910927I0J-457977D01*
G01*
X14767188Y21260477D02*
X15007950Y21019715D01*
X14767188Y21542188D02*
X14767188Y21260477D01*
X6607950Y5845284D02*
X2907950Y2145284D01*
X2907950Y1435418D02*
X3107150Y1236218D01*
X15007950Y21019715D02*
X15007950Y20330284D01*
X6607950Y11930284D02*
X6607950Y5845284D01*
X15007950Y20330284D02*
X6607950Y11930284D01*
X2907950Y2145284D02*
X2907950Y1435418D01*
X8493197Y20517685D02*
X8487841Y20523041D01*
X8181606Y20428941D02*
X7707950Y19955285D01*
X9467188Y21432812D02*
X9185477Y21432812D01*
X7707950Y16708737D02*
X7707950Y16049200D01*
X7707950Y16049200D02*
X7907150Y15850000D01*
X9185477Y21432812D02*
X8699973Y20947308D01*
X7950000Y17973531D02*
X8260584Y17973531D01*
X8260584Y17057631D02*
X7950000Y17057631D01*
X7707950Y16815581D02*
X7707950Y16708737D01*
X8699972Y20735174D02*
X8705329Y20729817D01*
X7950000Y19373531D02*
X8260566Y19373531D01*
X8275709Y20523041D02*
X8275708Y20523042D01*
X8275708Y20523042D02*
X8181606Y20428941D01*
X7707950Y19955285D02*
X7707950Y19615581D01*
X8260566Y18457631D02*
X7950000Y18457631D01*
X8718534Y17515581D02*
G75*
G02*
X8260584Y17057666I-457934J19D01*
G01*
X8260584Y17973531D02*
G75*
G02*
X8718531Y17515581I16J-457931D01*
G01*
X8705329Y20729817D02*
G75*
G02*
X8705280Y20517734I-106029J-106017D01*
G01*
X8487841Y20523041D02*
G75*
G03*
X8275709Y20523041I-106066J-106066D01*
G01*
X8718516Y18915581D02*
G75*
G02*
X8260566Y18457684I-457916J19D01*
G01*
X7950000Y18457631D02*
G75*
G03*
X7707969Y18215581I0J-242031D01*
G01*
X8260566Y19373531D02*
G75*
G02*
X8718531Y18915581I34J-457931D01*
G01*
X7707950Y19615581D02*
G75*
G03*
X7950000Y19373550I242050J19D01*
G01*
X7707950Y18215581D02*
G75*
G03*
X7950000Y17973550I242050J19D01*
G01*
X7950000Y17057631D02*
G75*
G03*
X7707969Y16815581I0J-242031D01*
G01*
X8705329Y20517685D02*
G75*
G02*
X8493197Y20517685I-106066J106066D01*
G01*
X8699973Y20947308D02*
G75*
G03*
X8699931Y20735133I106027J-106108D01*
G01*
X49247950Y4660000D02*
X49247950Y4444716D01*
X50291113Y3687950D02*
X50492050Y3888887D01*
X49397950Y5122088D02*
X49405590Y5122088D01*
X49247950Y4672088D02*
X49247950Y4660000D01*
X50492050Y3888887D02*
X50492050Y4155663D01*
X49405590Y4822088D02*
X49397950Y4822088D01*
X49247950Y4444716D02*
X50004716Y3687950D01*
X50492050Y4155663D02*
X50292850Y4354863D01*
X49247950Y11420800D02*
X49447150Y11620000D01*
X50004716Y3687950D02*
X50291113Y3687950D01*
X49247950Y5272088D02*
X49247950Y11420800D01*
X49405590Y5122088D02*
G75*
G02*
X49555588Y4972088I10J-149988D01*
G01*
X49397950Y4822088D02*
G75*
G03*
X49248012Y4672088I50J-149988D01*
G01*
X49247950Y5272088D02*
G75*
G03*
X49397950Y5122050I150050J12D01*
G01*
X49555590Y4972088D02*
G75*
G02*
X49405590Y4822110I-149990J12D01*
G01*
X22890880Y11008219D02*
X22890881Y11008216D01*
X21900931Y10018266D02*
X21900930Y10018266D01*
X21683733Y10883106D02*
X21900930Y10665909D01*
X22243240Y11008216D02*
X22026042Y11225414D01*
X23233190Y11998166D02*
X23015992Y12215364D01*
X24712950Y21307050D02*
X24519716Y21307050D01*
X16280284Y3417050D02*
X15892050Y3805284D01*
X24880000Y20780000D02*
X24880000Y21140000D01*
X19032950Y4205284D02*
X18244716Y3417050D01*
X24352950Y12470284D02*
X23880831Y11998165D01*
X20693774Y9893165D02*
X20910980Y9675959D01*
X20910981Y9028316D02*
X20910980Y9028316D01*
X22890881Y11008216D02*
X22890880Y11008216D01*
X21900930Y10018269D02*
X21900931Y10018266D01*
X23880831Y11998165D02*
X23880830Y11998166D01*
X18244716Y3417050D02*
X16280284Y3417050D01*
X22673683Y11873056D02*
X22890880Y11655859D01*
X19921030Y8038369D02*
X19921031Y8038366D01*
X24880000Y21140000D02*
X24712950Y21307050D01*
X19921031Y8038366D02*
X19556333Y7673667D01*
X20263340Y9028316D02*
X20046142Y9245514D01*
X15892050Y4155663D02*
X15692850Y4354863D01*
X19556333Y7673667D02*
X19032950Y7150284D01*
X24519716Y21307050D02*
X24352950Y21140284D01*
X24352950Y21140284D02*
X24352950Y12470284D01*
X15892050Y3805284D02*
X15892050Y4155663D01*
X21253290Y10018266D02*
X21036083Y10235473D01*
X20910980Y9028318D02*
X20910981Y9028316D01*
X19703833Y8903206D02*
X19921030Y8686009D01*
X19032950Y4205284D02*
X19032950Y7150284D01*
X20046142Y9245514D02*
G75*
G03*
X19703834Y9245514I-171154J-171153D01*
G01*
X21683733Y11225414D02*
G75*
G03*
X21683773Y10883146I171167J-171114D01*
G01*
X22673683Y12215364D02*
G75*
G03*
X22673673Y11873046I171117J-171164D01*
G01*
X21036083Y10235473D02*
G75*
G03*
X20693773Y10235474I-171155J-171153D01*
G01*
X23880830Y11998166D02*
G75*
G02*
X23233190Y11998166I-323820J323819D01*
G01*
X22890880Y11655859D02*
G75*
G02*
X22890919Y11008180I-323780J-323859D01*
G01*
X23015992Y12215364D02*
G75*
G03*
X22673684Y12215364I-171154J-171153D01*
G01*
X21900930Y10018266D02*
G75*
G02*
X21253290Y10018266I-323820J323819D01*
G01*
X22890880Y11008216D02*
G75*
G02*
X22243240Y11008216I-323820J323819D01*
G01*
X21900930Y10665909D02*
G75*
G02*
X21900919Y10018280I-323830J-323809D01*
G01*
X22026042Y11225414D02*
G75*
G03*
X21683734Y11225414I-171154J-171153D01*
G01*
X19921030Y8686009D02*
G75*
G02*
X19921019Y8038380I-323830J-323809D01*
G01*
X20693774Y10235473D02*
G75*
G03*
X20693755Y9893146I171126J-171173D01*
G01*
X20910980Y9028316D02*
G75*
G02*
X20263340Y9028316I-323820J323819D01*
G01*
X19703833Y9245514D02*
G75*
G03*
X19703873Y8903246I171167J-171114D01*
G01*
X20910980Y9675959D02*
G75*
G02*
X20911019Y9028279I-323780J-323859D01*
G01*
X9427950Y11485284D02*
X9427950Y10055285D01*
X9427950Y10055285D02*
X9097188Y9724523D01*
X10911333Y12968667D02*
X10773224Y12830558D01*
X12958232Y14673257D02*
X13375107Y14256382D01*
X11968281Y13683306D02*
X12385156Y13266431D01*
X9097188Y9724523D02*
X9097188Y9442812D01*
X12727467Y13608742D02*
X12310593Y14025616D01*
X15036989Y16029170D02*
X15036989Y16310881D01*
X10615686Y12351697D02*
X10561092Y12406291D01*
X10773223Y12618424D02*
X10827818Y12563829D01*
X11737516Y12618791D02*
X11320642Y13035665D01*
X14486829Y16544163D02*
X12958233Y15015567D01*
X11968283Y14025616D02*
X11968282Y14025616D01*
X10978332Y13035665D02*
X10911333Y12968667D01*
X10978334Y13035666D02*
X10978332Y13035665D01*
X10348960Y12406291D02*
X10348959Y12406292D01*
X10348959Y12406292D02*
X10286757Y12344091D01*
X14803707Y16544163D02*
X14486829Y16544163D01*
X11968285Y14025617D02*
X11968283Y14025616D01*
X15036989Y16310881D02*
X14803707Y16544163D01*
X10286757Y12344091D02*
X9427950Y11485284D01*
X12385156Y12618791D02*
G75*
G02*
X11737516Y12618791I-323820J323822D01*
G01*
X11320642Y13035665D02*
G75*
G03*
X10978346Y13035654I-171142J-171165D01*
G01*
X12958233Y15015567D02*
G75*
G03*
X12958220Y14673246I171167J-171167D01*
G01*
X13375107Y14256382D02*
G75*
G02*
X13375069Y13608780I-323807J-323782D01*
G01*
X12310593Y14025616D02*
G75*
G03*
X11968246Y14025656I-171193J-171116D01*
G01*
X10773224Y12830558D02*
G75*
G03*
X10773232Y12618433I106076J-106058D01*
G01*
X13375107Y13608742D02*
G75*
G02*
X12727467Y13608742I-323820J323822D01*
G01*
X10561092Y12406291D02*
G75*
G03*
X10348960Y12406291I-106066J-106066D01*
G01*
X10827818Y12351697D02*
G75*
G02*
X10615686Y12351697I-106066J106066D01*
G01*
X11968282Y14025616D02*
G75*
G03*
X11968320Y13683346I171118J-171116D01*
G01*
X10827818Y12563829D02*
G75*
G02*
X10827781Y12351734I-106018J-106029D01*
G01*
X12385156Y13266431D02*
G75*
G02*
X12385167Y12618780I-323856J-323831D01*
G01*
X14332812Y21107812D02*
X14614523Y21107812D01*
X6392050Y12019716D02*
X6392050Y5934716D01*
X6392050Y5934716D02*
X2692050Y2234716D01*
X14792050Y20419716D02*
X6392050Y12019716D01*
X2692050Y1435418D02*
X2492850Y1236218D01*
X2692050Y2234716D02*
X2692050Y1435418D01*
X14792050Y20930285D02*
X14792050Y20419716D01*
X14614523Y21107812D02*
X14792050Y20930285D01*
X50855284Y28032950D02*
X37355284Y28032950D01*
X55033979Y30562808D02*
X54533383Y31063404D01*
X55834900Y47520800D02*
X55834900Y47312566D01*
X55834900Y47312566D02*
X54417050Y45894716D01*
X55635700Y47720000D02*
X55834900Y47520800D01*
X54417050Y42600000D02*
X54417050Y42471742D01*
X54150000Y45332950D02*
X52375371Y45332950D01*
X54417050Y42005284D02*
X55467050Y40955284D01*
X54417050Y42471742D02*
X54417050Y42005284D01*
X55467050Y32644716D02*
X54875690Y32053356D01*
X53885740Y31063405D02*
X53507892Y30685558D01*
X36837050Y27514716D02*
X36837050Y26027050D01*
X53475360Y42867050D02*
X54150000Y42867050D01*
X36837050Y26027050D02*
X36670000Y25860000D01*
X53507892Y30685558D02*
X50855284Y28032950D01*
X36670000Y25860000D02*
X36310000Y25860000D01*
X54150000Y43832950D02*
X53475360Y43832950D01*
X54875691Y31405715D02*
X55376288Y30905118D01*
X55467050Y40955284D02*
X55467050Y32644716D01*
X37355284Y28032950D02*
X36837050Y27514716D01*
X52375371Y44367050D02*
X54150000Y44367050D01*
X54875690Y32053356D02*
X54875691Y32053355D01*
X53885743Y31063405D02*
X53885740Y31063405D01*
X54417050Y45894716D02*
X54417050Y45600000D01*
X54533383Y31063404D02*
G75*
G03*
X53885781Y31063368I-323783J-323804D01*
G01*
X52992410Y43350000D02*
G75*
G03*
X53475360Y42867010I482990J0D01*
G01*
X54875691Y32053355D02*
G75*
G03*
X54875656Y31405680I323809J-323855D01*
G01*
X54417050Y45600000D02*
G75*
G02*
X54150000Y45332950I-267050J0D01*
G01*
X54417050Y44100000D02*
G75*
G02*
X54150000Y43832950I-267050J0D01*
G01*
X54150000Y42867050D02*
G75*
G02*
X54417050Y42600000I0J-267050D01*
G01*
X54150000Y44367050D02*
G75*
G02*
X54417050Y44100000I0J-267050D01*
G01*
X55376288Y30905118D02*
G75*
G02*
X55376251Y30562844I-171188J-171118D01*
G01*
X53475360Y43832950D02*
G75*
G03*
X52992450Y43350000I40J-482950D01*
G01*
X51892421Y44850000D02*
G75*
G03*
X52375371Y44367021I482979J0D01*
G01*
X52375371Y45332950D02*
G75*
G03*
X51892450Y44850000I29J-482950D01*
G01*
X55376287Y30562808D02*
G75*
G02*
X55033979Y30562808I-171154J171155D01*
G01*
X18128667Y9691333D02*
X17492050Y9054716D01*
X20449010Y12011678D02*
X20449010Y12011677D01*
X17492050Y9054716D02*
X17492050Y4554063D01*
X23610000Y22050000D02*
X23610000Y21690000D01*
X22086601Y13991576D02*
X21520550Y14557627D01*
X21438960Y13001627D02*
X21438960Y13001626D01*
X18469110Y10031777D02*
X18128667Y9691333D01*
X23610000Y21690000D02*
X23442950Y21522950D01*
X19459060Y11021728D02*
X19459060Y11021727D01*
X18469110Y10031778D02*
X18469110Y10031777D01*
X19882946Y12920051D02*
X20449010Y12353987D01*
X19116751Y11021726D02*
X18550686Y11587791D01*
X21096651Y13001626D02*
X20530586Y13567691D01*
X22867050Y14429716D02*
X22428910Y13991576D01*
X23160284Y21522950D02*
X22867050Y21229716D01*
X21438960Y13001628D02*
X21438960Y13001627D01*
X23442950Y21522950D02*
X23160284Y21522950D01*
X22867050Y21229716D02*
X22867050Y14429716D01*
X20106701Y12011676D02*
X19540643Y12577734D01*
X20449010Y12011677D02*
X20449010Y12011676D01*
X20872910Y13909987D02*
X21438960Y13343937D01*
X19459060Y11021727D02*
X19459060Y11021726D01*
X18893003Y11930094D02*
X19459060Y11364037D01*
X17903046Y10940151D02*
X18469110Y10374087D01*
X17492050Y4554063D02*
X17292850Y4354863D01*
X22428910Y13991576D02*
G75*
G02*
X22086600Y13991575I-171155J171153D01*
G01*
X21438960Y13343937D02*
G75*
G02*
X21438943Y13001646I-171160J-171137D01*
G01*
X18893003Y12577734D02*
G75*
G03*
X18892989Y11930080I323797J-323834D01*
G01*
X17903046Y11587791D02*
G75*
G03*
X17903075Y10940180I323854J-323791D01*
G01*
X19459060Y11021726D02*
G75*
G02*
X19116752Y11021726I-171154J171153D01*
G01*
X21520550Y14557627D02*
G75*
G03*
X20872910Y14557627I-323820J-323819D01*
G01*
X20449010Y12011676D02*
G75*
G02*
X20106702Y12011676I-171154J171153D01*
G01*
X20449010Y12353987D02*
G75*
G02*
X20449043Y12011645I-171110J-171187D01*
G01*
X19459060Y11364037D02*
G75*
G02*
X19459043Y11021746I-171160J-171137D01*
G01*
X20872910Y14557627D02*
G75*
G03*
X20872903Y13909980I323790J-323827D01*
G01*
X19540643Y12577734D02*
G75*
G03*
X18893003Y12577734I-323820J-323819D01*
G01*
X21438960Y13001626D02*
G75*
G02*
X21096650Y13001625I-171155J171153D01*
G01*
X18550686Y11587791D02*
G75*
G03*
X17903046Y11587791I-323820J-323819D01*
G01*
X18469110Y10374087D02*
G75*
G02*
X18469143Y10031745I-171110J-171187D01*
G01*
X19882946Y13567691D02*
G75*
G03*
X19882975Y12920080I323854J-323791D01*
G01*
X20530586Y13567691D02*
G75*
G03*
X19882946Y13567691I-323820J-323819D01*
G01*
X37580000Y18600000D02*
X37580000Y18240000D01*
X54589716Y27167050D02*
X52094716Y27167050D01*
X55957950Y44119716D02*
X55957950Y43555284D01*
X38569716Y22572050D02*
X38332950Y22335284D01*
X37747050Y18767050D02*
X37580000Y18600000D01*
X56807950Y30135284D02*
X55617950Y28945284D01*
X39219716Y22572050D02*
X38569716Y22572050D01*
X55625800Y44451866D02*
X55957950Y44119716D01*
X55825000Y45100000D02*
X55625800Y44900800D01*
X39607950Y22960284D02*
X39219716Y22572050D01*
X55617950Y28195284D02*
X54589716Y27167050D01*
X55617950Y28945284D02*
X55617950Y28195284D01*
X55625800Y43223134D02*
X55625800Y42451866D01*
X38039716Y18767050D02*
X37747050Y18767050D01*
X55625800Y42451866D02*
X56807950Y41269716D01*
X55957950Y43555284D02*
X55625800Y43223134D01*
X51319716Y26392050D02*
X39844716Y26392050D01*
X56807950Y41269716D02*
X56807950Y30135284D01*
X38332950Y22335284D02*
X38332950Y19060284D01*
X39844716Y26392050D02*
X39607950Y26155284D01*
X55625800Y44900800D02*
X55625800Y44451866D01*
X52094716Y27167050D02*
X51319716Y26392050D01*
X38332950Y19060284D02*
X38039716Y18767050D01*
X39607950Y26155284D02*
X39607950Y22960284D01*
X21812950Y18689716D02*
X21812950Y16710284D01*
X15517950Y9375283D02*
X11724717Y5582050D01*
X16756333Y10685431D02*
X16745475Y10674572D01*
X15777239Y10674572D02*
X15766383Y10663716D01*
X21070000Y19150000D02*
X21237050Y18982950D01*
X15517950Y10415284D02*
X15517950Y9375283D01*
X11724717Y5582050D02*
X11724715Y5582050D01*
X21812950Y16710284D02*
X16756333Y11653667D01*
X15556333Y10453667D02*
X15517950Y10415284D01*
X11724715Y5582050D02*
X9907188Y3764523D01*
X15766383Y10663716D02*
X15556333Y10453667D01*
X21519716Y18982950D02*
X21812950Y18689716D01*
X21070000Y19510000D02*
X21070000Y19150000D01*
X9907188Y3764523D02*
X9907188Y3482812D01*
X21237050Y18982950D02*
X21519716Y18982950D01*
X16745475Y10674572D02*
G75*
G02*
X16108691Y10674572I-318392J318393D01*
G01*
X16108691Y10674572D02*
G75*
G03*
X15777239Y10674572I-165726J-165726D01*
G01*
X16756333Y11653667D02*
G75*
G03*
X16756292Y11322174I165767J-165767D01*
G01*
X16756333Y11322215D02*
G75*
G02*
X16756356Y10685408I-318433J-318415D01*
G01*
X40010802Y33590825D02*
X40377549Y33224078D01*
X36826162Y30748500D02*
X36826162Y30748498D01*
X44442050Y39836173D02*
X44136173Y40142050D01*
X34130000Y21950000D02*
X33877950Y22202050D01*
X39020854Y32943185D02*
X39020851Y32943185D01*
X43822923Y39992050D02*
X43822923Y39805602D01*
X37816112Y31738450D02*
X37816112Y31738448D01*
X40457950Y34380285D02*
X40010801Y33933136D01*
X44442050Y39529997D02*
X44442050Y39836173D01*
X39729910Y32576439D02*
X39363164Y32943185D01*
X44242850Y39330797D02*
X44442050Y39529997D01*
X43522923Y39805602D02*
X43522923Y39992050D01*
X39020851Y32943185D02*
X38722656Y32644991D01*
X43325000Y40142050D02*
X43219716Y40142050D01*
X34567950Y23140284D02*
X34567950Y28490285D01*
X44136173Y40142050D02*
X43972923Y40142050D01*
X36178523Y29758548D02*
X36438702Y29498369D01*
X40010801Y33933136D02*
X40010802Y33933135D01*
X34567950Y28490285D02*
X35836213Y29758548D01*
X38028833Y31951168D02*
X38722656Y32644991D01*
X36826162Y30748498D02*
X36826163Y30748498D01*
X37086342Y30146009D02*
X36826162Y30406189D01*
X43219716Y40142050D02*
X40457950Y37380284D01*
X33877950Y22202050D02*
X33877950Y22450284D01*
X38076292Y31135959D02*
X37816112Y31396139D01*
X37816112Y31738448D02*
X38028833Y31951168D01*
X33877950Y22450284D02*
X34567950Y23140284D01*
X40457950Y37380284D02*
X40457950Y34380285D01*
X43372923Y40142050D02*
X43325000Y40142050D01*
X37168473Y30748498D02*
X37428652Y30488319D01*
X37428652Y30488319D02*
G75*
G03*
X38076292Y30488319I323820J323819D01*
G01*
X35836213Y29758548D02*
G75*
G02*
X36178523Y29758548I171155J-171154D01*
G01*
X43972923Y40142050D02*
G75*
G03*
X43822850Y39992050I-23J-150050D01*
G01*
X43672923Y39655602D02*
G75*
G02*
X43522902Y39805602I-23J149998D01*
G01*
X40377549Y33224078D02*
G75*
G02*
X40377507Y32576479I-323849J-323778D01*
G01*
X36826162Y30406189D02*
G75*
G02*
X36826206Y30748455I171138J171111D01*
G01*
X39363164Y32943185D02*
G75*
G03*
X39020854Y32943185I-171155J-171154D01*
G01*
X36826163Y30748498D02*
G75*
G02*
X37168473Y30748498I171155J-171154D01*
G01*
X43522923Y39992050D02*
G75*
G03*
X43372923Y40142023I-150023J-50D01*
G01*
X43822923Y39805602D02*
G75*
G02*
X43672923Y39655577I-150023J-2D01*
G01*
X36438702Y29498369D02*
G75*
G03*
X37086342Y29498369I323820J323819D01*
G01*
X40010802Y33933135D02*
G75*
G03*
X40010822Y33590845I171198J-171135D01*
G01*
X40377548Y32576438D02*
G75*
G02*
X39729881Y32576409I-323848J323862D01*
G01*
X38076292Y30488319D02*
G75*
G03*
X38076253Y31135920I-323792J323781D01*
G01*
X37086342Y29498369D02*
G75*
G03*
X37086353Y30146020I-323842J323831D01*
G01*
X37816112Y31396139D02*
G75*
G02*
X37816106Y31738455I171188J171161D01*
G01*
X36331187Y29911213D02*
X36591366Y29651034D01*
X33662050Y22202050D02*
X33662050Y22539716D01*
X36673498Y30901162D02*
X36673498Y30901163D01*
X39858136Y33438160D02*
X40224883Y33071413D01*
X36673497Y30901165D02*
X36673498Y30901162D01*
X44225605Y40357950D02*
X43130284Y40357950D01*
X34352050Y28579715D02*
X35683548Y29911213D01*
X33410000Y21950000D02*
X33662050Y22202050D01*
X36933677Y29993345D02*
X36673497Y30253525D01*
X40242050Y37469716D02*
X40242050Y34469715D01*
X44857150Y39330797D02*
X44657950Y39529997D01*
X39882573Y32729103D02*
X39515827Y33095849D01*
X39858136Y34085801D02*
X39858137Y34085800D01*
X43130284Y40357950D02*
X40242050Y37469716D01*
X37663447Y31891115D02*
X37663448Y31891112D01*
X37876168Y32103833D02*
X38569991Y32797656D01*
X38868187Y33095849D02*
X38569991Y32797656D01*
X44657950Y39925605D02*
X44225605Y40357950D01*
X38868189Y33095850D02*
X38868187Y33095849D01*
X37321137Y30901163D02*
X37581316Y30640984D01*
X40242050Y34469715D02*
X39858136Y34085801D01*
X37663448Y31891112D02*
X37876168Y32103833D01*
X34352050Y23229716D02*
X34352050Y28579715D01*
X44657950Y39529997D02*
X44657950Y39925605D01*
X33662050Y22539716D02*
X34352050Y23229716D01*
X37923627Y30983295D02*
X37663447Y31243475D01*
X37923627Y30640984D02*
G75*
G03*
X37923588Y30983255I-171127J171116D01*
G01*
X40224883Y32729103D02*
G75*
G02*
X39882573Y32729103I-171155J171154D01*
G01*
X37581316Y30640984D02*
G75*
G03*
X37923627Y30640983I171156J171159D01*
G01*
X36591366Y29651034D02*
G75*
G03*
X36933677Y29651033I171156J171159D01*
G01*
X36933677Y29651034D02*
G75*
G03*
X36933688Y29993355I-171177J171166D01*
G01*
X39858137Y34085800D02*
G75*
G03*
X39858156Y33438180I323863J-323800D01*
G01*
X37663447Y31243475D02*
G75*
G02*
X37663442Y31891120I323853J323825D01*
G01*
X36673497Y30253525D02*
G75*
G02*
X36673542Y30901120I323803J323775D01*
G01*
X35683548Y29911213D02*
G75*
G02*
X36331187Y29911214I323820J-323821D01*
G01*
X39515827Y33095849D02*
G75*
G03*
X38868182Y33095858I-323827J-323849D01*
G01*
X36673498Y30901163D02*
G75*
G02*
X37321137Y30901164I323820J-323821D01*
G01*
X40224883Y33071413D02*
G75*
G02*
X40224841Y32729145I-171183J-171113D01*
G01*
X16843468Y20099198D02*
X16329563Y20099198D01*
X17361893Y17077950D02*
X17167950Y17271893D01*
X17167950Y17271893D02*
X17167950Y19774716D01*
X8994523Y7317188D02*
X8712812Y7317188D01*
X10955285Y9277950D02*
X8994523Y7317188D01*
X16329563Y20099198D02*
X16022050Y19791685D01*
X14198110Y12820776D02*
X12752050Y11374716D01*
X14763262Y13385929D02*
X14198110Y12820776D01*
X16022050Y14644716D02*
X15753212Y14375878D01*
X17167950Y19774716D02*
X16843468Y20099198D01*
X12752050Y11374716D02*
X12752050Y10234716D01*
X11795284Y9277950D02*
X10955285Y9277950D01*
X17858394Y17277150D02*
X17659194Y17077950D01*
X12752050Y10234716D02*
X11795284Y9277950D01*
X16022050Y19791685D02*
X16022050Y14644716D01*
X17659194Y17077950D02*
X17361893Y17077950D01*
X14317013Y14174488D02*
X14763262Y13728239D01*
X15410903Y14375878D02*
X14964653Y14822128D01*
X14763262Y13385930D02*
X14763262Y13385929D01*
X14317013Y14822128D02*
G75*
G03*
X14317005Y14174480I323787J-323828D01*
G01*
X14763262Y13728239D02*
G75*
G02*
X14763247Y13385946I-171162J-171139D01*
G01*
X15753212Y14375878D02*
G75*
G02*
X15410902Y14375877I-171155J171153D01*
G01*
X14964653Y14822128D02*
G75*
G03*
X14317013Y14822128I-323820J-323819D01*
G01*
X14755284Y3367050D02*
X15830284Y2292050D01*
X20257950Y6565284D02*
X25622950Y11930284D01*
X20257950Y3780284D02*
X20257950Y6565284D01*
X15830284Y2292050D02*
X18769716Y2292050D01*
X12692050Y3755284D02*
X13080284Y3367050D01*
X12492850Y4354863D02*
X12692050Y4155663D01*
X12692050Y4155663D02*
X12692050Y3755284D01*
X25789716Y21307050D02*
X25982950Y21307050D01*
X25982950Y21307050D02*
X26150000Y21140000D01*
X25622950Y11930284D02*
X25622950Y21140284D01*
X25622950Y21140284D02*
X25789716Y21307050D01*
X13080284Y3367050D02*
X14755284Y3367050D01*
X26150000Y21140000D02*
X26150000Y20780000D01*
X18769716Y2292050D02*
X20257950Y3780284D01*
X10758667Y13121333D02*
X9212050Y11574716D01*
X10825666Y13188331D02*
X10758667Y13121333D01*
X10825669Y13188330D02*
X10825666Y13188331D01*
X11890183Y12771456D02*
X11473309Y13188330D01*
X14397397Y16760063D02*
X12805567Y15168233D01*
X12805567Y15168233D02*
X12805568Y15168232D01*
X14893137Y16760063D02*
X14397397Y16760063D01*
X9212050Y10144715D02*
X8944523Y9877188D01*
X9212050Y11574716D02*
X9212050Y10144715D01*
X8944523Y9877188D02*
X8662812Y9877188D01*
X15189654Y16463546D02*
X14893137Y16760063D01*
X11815617Y13530641D02*
X12232492Y13113766D01*
X15471365Y16463546D02*
X15189654Y16463546D01*
X11815620Y14178281D02*
X11815617Y14178282D01*
X11815617Y14178282D02*
X11815617Y14178281D01*
X12805568Y14520592D02*
X13222443Y14103717D01*
X12880134Y13761407D02*
X12463260Y14178281D01*
X11815617Y14178281D02*
G75*
G03*
X11815656Y13530680I323783J-323781D01*
G01*
X12232491Y12771456D02*
G75*
G02*
X11890183Y12771456I-171154J171155D01*
G01*
X12805568Y15168232D02*
G75*
G03*
X12805556Y14520580I323832J-323832D01*
G01*
X13222442Y13761407D02*
G75*
G02*
X12880134Y13761407I-171154J171155D01*
G01*
X11473309Y13188330D02*
G75*
G03*
X10825669Y13188330I-323820J-323815D01*
G01*
X12232492Y13113766D02*
G75*
G02*
X12232503Y12771445I-171192J-171166D01*
G01*
X13222443Y14103717D02*
G75*
G02*
X13222405Y13761445I-171143J-171117D01*
G01*
X12463260Y14178281D02*
G75*
G03*
X11815620Y14178281I-323820J-323815D01*
G01*
D14*
X32875000Y20375000D02*
X33175000Y20075000D01*
X33125000Y23635000D02*
X33125000Y22525000D01*
X33175000Y18800000D02*
X32500000Y18125000D01*
X33125000Y22525000D02*
X32875000Y22275000D01*
X33175000Y20075000D02*
X33175000Y18800000D01*
X32875000Y22275000D02*
X32875000Y20375000D01*
X32500000Y18125000D02*
X32500000Y4375000D01*
X33820000Y24330000D02*
X33125000Y23635000D01*
D13*
X21748265Y10170932D02*
X21748265Y10170931D01*
X16107950Y3894716D02*
X16369716Y3632950D01*
X17108520Y3632950D02*
X17152358Y3632950D01*
X21531068Y10730439D02*
X21748265Y10513242D01*
X16307150Y4354863D02*
X16107950Y4155663D01*
X20416006Y9180981D02*
X20198808Y9398179D01*
X24880000Y22050000D02*
X24880000Y21690000D01*
X18817050Y4294716D02*
X18817050Y7239716D01*
X19768365Y8191033D02*
X19768365Y8191032D01*
X16107950Y4155663D02*
X16107950Y3894716D01*
X21405956Y10170931D02*
X21188749Y10388138D01*
X16658520Y3782950D02*
X16658520Y3790615D01*
X20758314Y9180983D02*
X20758315Y9180982D01*
X17152358Y3632950D02*
X18155284Y3632950D01*
X22738215Y11160883D02*
X22738215Y11160882D01*
X20758315Y9180982D02*
X20758315Y9180981D01*
X18155284Y3632950D02*
X18817050Y4294716D01*
X21748265Y10170933D02*
X21748265Y10170932D01*
X19551168Y8750539D02*
X19768365Y8533342D01*
X24430284Y21522950D02*
X24137050Y21229716D01*
X24712950Y21522950D02*
X24430284Y21522950D01*
X24137050Y21229716D02*
X24137050Y12559716D01*
X16369716Y3632950D02*
X16508520Y3632950D01*
X18817050Y7239716D02*
X19403667Y7826333D01*
X22521018Y11720389D02*
X22738215Y11503192D01*
X24137050Y12559716D02*
X23728165Y12150831D01*
X22395906Y11160881D02*
X22178708Y11378079D01*
X22738215Y11160882D02*
X22738215Y11160881D01*
X24880000Y21690000D02*
X24712950Y21522950D01*
X19768365Y8191032D02*
X19403667Y7826333D01*
X23385856Y12150831D02*
X23168658Y12368029D01*
X16958520Y3790615D02*
X16958520Y3782950D01*
X20541108Y9740498D02*
X20758314Y9523292D01*
X22521018Y12368029D02*
G75*
G03*
X22521009Y11720380I323782J-323829D01*
G01*
X23168658Y12368029D02*
G75*
G03*
X22521018Y12368029I-323820J-323819D01*
G01*
X16658520Y3790615D02*
G75*
G02*
X16808520Y3940580I149980J-15D01*
G01*
X20758314Y9523292D02*
G75*
G02*
X20758352Y9180945I-171114J-171192D01*
G01*
X19551168Y9398179D02*
G75*
G03*
X19551209Y8750580I323832J-323779D01*
G01*
X21531068Y11378079D02*
G75*
G03*
X21531109Y10730480I323832J-323779D01*
G01*
X16808520Y3940615D02*
G75*
G02*
X16958515Y3790615I-20J-150015D01*
G01*
X16508520Y3632950D02*
G75*
G03*
X16658550Y3782950I-20J150050D01*
G01*
X21748265Y10170931D02*
G75*
G02*
X21405955Y10170930I-171155J171153D01*
G01*
X22178708Y11378079D02*
G75*
G03*
X21531068Y11378079I-323820J-323819D01*
G01*
X21748265Y10513242D02*
G75*
G02*
X21748253Y10170945I-171165J-171142D01*
G01*
X20758315Y9180981D02*
G75*
G02*
X20416007Y9180981I-171154J171153D01*
G01*
X21188749Y10388138D02*
G75*
G03*
X20541109Y10388138I-323820J-323820D01*
G01*
X22738215Y11503192D02*
G75*
G02*
X22738253Y11160845I-171115J-171192D01*
G01*
X20541108Y10388138D02*
G75*
G03*
X20541090Y9740480I323792J-323838D01*
G01*
X22738215Y11160881D02*
G75*
G02*
X22395905Y11160880I-171155J171153D01*
G01*
X16958520Y3782950D02*
G75*
G03*
X17108520Y3633020I149980J50D01*
G01*
X19768365Y8533342D02*
G75*
G02*
X19768353Y8191045I-171165J-171142D01*
G01*
X20198808Y9398179D02*
G75*
G03*
X19551168Y9398179I-323820J-323819D01*
G01*
X23728165Y12150831D02*
G75*
G02*
X23385857Y12150831I-171154J171153D01*
G01*
X62397950Y31400800D02*
X62397950Y31045284D01*
X56839716Y18417050D02*
X48559716Y18417050D01*
X37747050Y16227050D02*
X37580000Y16060000D01*
X38332950Y16520284D02*
X38039716Y16227050D01*
X48559716Y18417050D02*
X47639716Y17497050D01*
X38584716Y17497050D02*
X38332950Y17245284D01*
X37580000Y16060000D02*
X37580000Y15700000D01*
X61117950Y29765284D02*
X61117950Y22695284D01*
X47639716Y17497050D02*
X38584716Y17497050D01*
X62597150Y31600000D02*
X62397950Y31400800D01*
X61117950Y22695284D02*
X56839716Y18417050D01*
X62397950Y31045284D02*
X61117950Y29765284D01*
X38039716Y16227050D02*
X37747050Y16227050D01*
X38332950Y17245284D02*
X38332950Y16520284D01*
X39017050Y16227050D02*
X38850000Y16060000D01*
X62587150Y29840000D02*
X62387950Y29640800D01*
X38850000Y16060000D02*
X38850000Y15700000D01*
X62387950Y22265284D02*
X57174716Y17052050D01*
X62387950Y29640800D02*
X62387950Y29123957D01*
X62387950Y27723957D02*
X62387950Y27032643D01*
X52644716Y17052050D02*
X51819716Y16227050D01*
X57174716Y17052050D02*
X52644716Y17052050D01*
X51819716Y16227050D02*
X39017050Y16227050D01*
X62630000Y28881907D02*
X63014549Y28881907D01*
X62387950Y27032643D02*
X62387950Y22265284D01*
X63014549Y27966007D02*
X62630000Y27966007D01*
X62387950Y29123957D02*
G75*
G03*
X62630000Y28881950I242050J43D01*
G01*
X63014549Y28881907D02*
G75*
G02*
X63472507Y28423957I51J-457907D01*
G01*
X62630000Y27966007D02*
G75*
G03*
X62387993Y27723957I0J-242007D01*
G01*
X63472499Y28423957D02*
G75*
G02*
X63014549Y27966101I-457899J43D01*
G01*
X40707950Y3965284D02*
X40707950Y2444337D01*
X43162050Y4915284D02*
X42925284Y5152050D01*
X40707950Y2444337D02*
X40907150Y2245137D01*
X41894716Y5152050D02*
X40707950Y3965284D01*
X42579362Y5002050D02*
X42579362Y4947852D01*
X42129362Y5152050D02*
X41894716Y5152050D01*
X42962850Y4490000D02*
X43162050Y4689200D01*
X43162050Y4689200D02*
X43162050Y4915284D01*
X42925284Y5152050D02*
X42729362Y5152050D01*
X42279362Y4947852D02*
X42279362Y5002050D01*
X42579362Y4947852D02*
G75*
G02*
X42429362Y4797938I-149962J48D01*
G01*
X42429362Y4797852D02*
G75*
G02*
X42279352Y4947852I38J150048D01*
G01*
X42729362Y5152050D02*
G75*
G03*
X42579350Y5002050I38J-150050D01*
G01*
X42279362Y5002050D02*
G75*
G03*
X42129362Y5151962I-149962J-50D01*
G01*
X15258237Y14223213D02*
X14811987Y14669463D01*
X16387950Y16512162D02*
X16395639Y16512162D01*
X9147188Y7164523D02*
X9147188Y6882812D01*
X16418995Y19883298D02*
X16237950Y19702253D01*
X16237950Y19702253D02*
X16237950Y16662162D01*
X14915928Y13233263D02*
X14350776Y12668110D01*
X16395639Y16212162D02*
X16387950Y16212162D01*
X16237950Y16062162D02*
X16237950Y15939106D01*
X11044715Y9062050D02*
X9147188Y7164523D01*
X16952050Y17182461D02*
X16952050Y19685284D01*
X12967950Y10145284D02*
X11884716Y9062050D01*
X14469678Y14327155D02*
X14915927Y13880906D01*
X14915927Y13233266D02*
X14915928Y13233263D01*
X16952050Y19685284D02*
X16754036Y19883298D01*
X17858394Y16662850D02*
X17659194Y16862050D01*
X17659194Y16862050D02*
X17272461Y16862050D01*
X12967950Y11285284D02*
X12967950Y10145284D01*
X16754036Y19883298D02*
X16418995Y19883298D01*
X16237950Y15939106D02*
X16237950Y14555284D01*
X14350776Y12668110D02*
X12967950Y11285284D01*
X11884716Y9062050D02*
X11044715Y9062050D01*
X17272461Y16862050D02*
X16952050Y17182461D01*
X16237950Y14555284D02*
X15905878Y14223212D01*
X15905878Y14223212D02*
X15905877Y14223213D01*
X16395639Y16512162D02*
G75*
G02*
X16545562Y16362162I-39J-149962D01*
G01*
X14469678Y14669463D02*
G75*
G03*
X14469669Y14327146I171122J-171163D01*
G01*
X15905877Y14223213D02*
G75*
G02*
X15258237Y14223213I-323820J323819D01*
G01*
X16545639Y16362162D02*
G75*
G02*
X16395639Y16212161I-150039J38D01*
G01*
X14915927Y13880906D02*
G75*
G02*
X14915913Y13233280I-323827J-323806D01*
G01*
X16387950Y16212162D02*
G75*
G03*
X16238038Y16062162I50J-149962D01*
G01*
X16237950Y16662162D02*
G75*
G03*
X16387950Y16512150I150050J38D01*
G01*
X14811987Y14669463D02*
G75*
G03*
X14469677Y14669464I-171155J-171153D01*
G01*
X40492050Y4054716D02*
X40492050Y2444337D01*
X43577150Y4490000D02*
X43377950Y4689200D01*
X40492050Y2444337D02*
X40292850Y2245137D01*
X41805284Y5367950D02*
X40492050Y4054716D01*
X43014716Y5367950D02*
X41805284Y5367950D01*
X43377950Y4689200D02*
X43377950Y5004716D01*
X43377950Y5004716D02*
X43014716Y5367950D01*
X9317050Y46919716D02*
X9317050Y46394716D01*
X20710000Y25860000D02*
X21070000Y25860000D01*
X8805284Y23667050D02*
X15544716Y23667050D01*
X15544716Y23667050D02*
X16989716Y25112050D01*
X14219716Y50557950D02*
X12955284Y50557950D01*
X14507950Y49903321D02*
X14507950Y50269716D01*
X5967050Y26505284D02*
X8805284Y23667050D01*
X12955284Y50557950D02*
X9317050Y46919716D01*
X20542950Y25692950D02*
X20710000Y25860000D01*
X14507950Y50269716D02*
X14219716Y50557950D01*
X16989716Y25112050D02*
X20264716Y25112050D01*
X5967050Y43044716D02*
X5967050Y26505284D01*
X20542950Y25390284D02*
X20542950Y25692950D01*
X20264716Y25112050D02*
X20542950Y25390284D01*
X9317050Y46394716D02*
X5967050Y43044716D01*
X14707150Y49704121D02*
X14507950Y49903321D01*
X47565284Y50192050D02*
X47292050Y50465284D01*
X47292050Y50465284D02*
X47292050Y50764582D01*
X49035966Y51233300D02*
X47994716Y50192050D01*
X59567050Y23119716D02*
X59567050Y42420284D01*
X57214034Y51233300D02*
X49035966Y51233300D01*
X46080284Y20657950D02*
X47669716Y20657950D01*
X58000120Y50235081D02*
X57994744Y50229704D01*
X41390000Y19510000D02*
X41390000Y19150000D01*
X47994716Y50192050D02*
X47565284Y50192050D01*
X59567050Y42420284D02*
X58682050Y43305284D01*
X57787988Y50659346D02*
X57787989Y50659345D01*
X44405284Y18982950D02*
X46080284Y20657950D01*
X56245025Y19797691D02*
X59567050Y23119716D01*
X58682050Y43305284D02*
X58682050Y49765284D01*
X57782611Y50441838D02*
X57787988Y50447214D01*
X58682050Y49765284D02*
X58212254Y50235080D01*
X57787989Y50659345D02*
X57546551Y50900783D01*
X41390000Y19150000D02*
X41557050Y18982950D01*
X47292050Y50764582D02*
X47092850Y50963782D01*
X48529975Y19797691D02*
X56245025Y19797691D01*
X41557050Y18982950D02*
X44405284Y18982950D01*
X47669716Y20657950D02*
X48529975Y19797691D01*
X57546551Y50900783D02*
X57214034Y51233300D01*
X57994744Y50229704D02*
G75*
G02*
X57782612Y50229704I-106066J106066D01*
G01*
X57787988Y50447214D02*
G75*
G03*
X57788008Y50659366I-106088J106086D01*
G01*
X58212254Y50235080D02*
G75*
G03*
X58000133Y50235068I-106054J-106080D01*
G01*
X57782612Y50229704D02*
G75*
G02*
X57782582Y50441866I106088J106096D01*
G01*
X57085284Y17267950D02*
X52555284Y17267950D01*
X39017050Y16442950D02*
X39158350Y16442950D01*
X51730284Y16442950D02*
X39823743Y16442950D01*
X62172050Y27032643D02*
X62172050Y22354716D01*
X63014549Y28181907D02*
X62630000Y28181907D01*
X39308350Y16592950D02*
X39308350Y16600596D01*
X39758350Y16442950D02*
X39823743Y16442950D01*
X52555284Y17267950D02*
X51730284Y16442950D01*
X38850000Y16610000D02*
X39017050Y16442950D01*
X62172050Y22354716D02*
X57085284Y17267950D01*
X62172050Y27723957D02*
X62172050Y27032643D01*
X38850000Y16970000D02*
X38850000Y16610000D01*
X61972850Y29840000D02*
X62172050Y29640800D01*
X39608350Y16600596D02*
X39608350Y16592950D01*
X62630000Y28666007D02*
X63014549Y28666007D01*
X62172050Y29640800D02*
X62172050Y29123957D01*
X39608350Y16592950D02*
G75*
G03*
X39758350Y16442950I150050J50D01*
G01*
X63014549Y28666007D02*
G75*
G02*
X63256507Y28423957I-49J-242007D01*
G01*
X62630000Y28181907D02*
G75*
G03*
X62172093Y27723957I0J-457907D01*
G01*
X39158350Y16442950D02*
G75*
G03*
X39308350Y16592950I-50J150050D01*
G01*
X63256599Y28423957D02*
G75*
G02*
X63014549Y28181901I-242099J43D01*
G01*
X62172050Y29123957D02*
G75*
G03*
X62630000Y28666050I457950J43D01*
G01*
X39458350Y16750596D02*
G75*
G02*
X39608296Y16600596I-50J-149996D01*
G01*
X39308350Y16600596D02*
G75*
G02*
X39458350Y16750650I150050J4D01*
G01*
X42210000Y6312050D02*
X41284716Y6312050D01*
X41284716Y6312050D02*
X39107950Y4135284D01*
X42397362Y6312050D02*
X42210000Y6312050D01*
X42547362Y6097366D02*
X42547362Y6162050D01*
X44252050Y5605284D02*
X43545284Y6312050D01*
X44252050Y5242050D02*
X44252050Y5605284D01*
X42847362Y6162050D02*
X42847362Y6097366D01*
X44052850Y5042850D02*
X44252050Y5242050D01*
X39107950Y2444337D02*
X39307150Y2245137D01*
X39107950Y4135284D02*
X39107950Y2444337D01*
X43545284Y6312050D02*
X42997362Y6312050D01*
X42547362Y6162050D02*
G75*
G03*
X42397362Y6311962I-149962J-50D01*
G01*
X42697362Y5947366D02*
G75*
G02*
X42547366Y6097366I38J150034D01*
G01*
X42847362Y6097366D02*
G75*
G02*
X42697362Y5947438I-149962J34D01*
G01*
X42997362Y6312050D02*
G75*
G03*
X42847350Y6162050I38J-150050D01*
G01*
X19369716Y1142050D02*
X21507950Y3280284D01*
X14092850Y2245137D02*
X14292050Y2045937D01*
X14292050Y2045937D02*
X14292050Y1705284D01*
X21507950Y3280284D02*
X21507950Y6065284D01*
X14855284Y1142050D02*
X19369716Y1142050D01*
X27059716Y21307050D02*
X27252950Y21307050D01*
X14292050Y1705284D02*
X14855284Y1142050D01*
X21507950Y6065284D02*
X26892950Y11450284D01*
X27252950Y21307050D02*
X27420000Y21140000D01*
X26892950Y11450284D02*
X26892950Y21140284D01*
X26892950Y21140284D02*
X27059716Y21307050D01*
X27420000Y21140000D02*
X27420000Y20780000D01*
G04 #@! TA.AperFunction,Conductor*
G36*
X33381696Y51730593D02*
G01*
X33417660Y51681093D01*
X33417660Y51619907D01*
X33381696Y51570407D01*
X33377028Y51567216D01*
X33301952Y51518969D01*
X33217117Y51421062D01*
X33163302Y51303226D01*
X33144867Y51175003D01*
X33144867Y51174998D01*
X33163302Y51046775D01*
X33210253Y50943969D01*
X33217118Y50928937D01*
X33295953Y50837955D01*
X33301952Y50831032D01*
X33382519Y50779255D01*
X33410931Y50760996D01*
X33535228Y50724500D01*
X33535230Y50724500D01*
X33664770Y50724500D01*
X33664772Y50724500D01*
X33789069Y50760996D01*
X33898049Y50831033D01*
X33982882Y50928937D01*
X34036697Y51046774D01*
X34055133Y51175000D01*
X34036697Y51303226D01*
X33982882Y51421063D01*
X33898049Y51518967D01*
X33898048Y51518968D01*
X33898047Y51518969D01*
X33822972Y51567216D01*
X33784241Y51614582D01*
X33780747Y51675667D01*
X33813827Y51727140D01*
X33870843Y51749339D01*
X33876495Y51749500D01*
X44351000Y51749500D01*
X44409191Y51730593D01*
X44445155Y51681093D01*
X44450000Y51650500D01*
X44450000Y48824500D01*
X44431093Y48766309D01*
X44381593Y48730345D01*
X44351000Y48725500D01*
X44260225Y48725500D01*
X44135933Y48689005D01*
X44135926Y48689002D01*
X44026952Y48618969D01*
X43942117Y48521062D01*
X43888302Y48403226D01*
X43869867Y48275003D01*
X43869867Y48274998D01*
X43888302Y48146775D01*
X43914686Y48089004D01*
X43942118Y48028937D01*
X44026951Y47931033D01*
X44026952Y47931032D01*
X44135926Y47860999D01*
X44135931Y47860996D01*
X44260228Y47824500D01*
X44260230Y47824500D01*
X44389770Y47824500D01*
X44389772Y47824500D01*
X44514069Y47860996D01*
X44623049Y47931033D01*
X44707882Y48028937D01*
X44761697Y48146774D01*
X44763911Y48162178D01*
X44790907Y48217084D01*
X44845021Y48245638D01*
X44905583Y48236931D01*
X44931908Y48218092D01*
X50867941Y42282059D01*
X50874456Y42274871D01*
X50874643Y42274643D01*
X50874863Y42274463D01*
X50882059Y42267941D01*
X52769883Y40380117D01*
X52782195Y40365114D01*
X52820029Y40308491D01*
X52834811Y40272805D01*
X52848098Y40206010D01*
X52850000Y40186695D01*
X52850000Y37875000D01*
X52923222Y37801778D01*
X53194707Y37530292D01*
X53207040Y37515258D01*
X53244924Y37458512D01*
X53259708Y37422742D01*
X53272941Y37355800D01*
X53274819Y37336449D01*
X53274494Y37130685D01*
X53270178Y34403053D01*
X53268253Y34383781D01*
X53254914Y34317134D01*
X53240133Y34281529D01*
X53202350Y34225031D01*
X53190060Y34210062D01*
X52923222Y33943223D01*
X52923219Y33943220D01*
X52850000Y33870000D01*
X52850000Y33766448D01*
X52850000Y33188306D01*
X52848098Y33168991D01*
X52834811Y33102196D01*
X52820029Y33066510D01*
X52782195Y33009887D01*
X52769883Y32994884D01*
X52055116Y32280117D01*
X52040113Y32267805D01*
X51983490Y32229971D01*
X51947804Y32215189D01*
X51897865Y32205256D01*
X51881007Y32201902D01*
X51861695Y32200000D01*
X42063305Y32200000D01*
X42043992Y32201902D01*
X42021644Y32206347D01*
X41977195Y32215189D01*
X41941509Y32229971D01*
X41884886Y32267805D01*
X41869883Y32280117D01*
X41280116Y32869884D01*
X41267804Y32884887D01*
X41229970Y32941510D01*
X41215188Y32977198D01*
X41201902Y33043993D01*
X41200000Y33063306D01*
X41200000Y33586695D01*
X41201902Y33606008D01*
X41215188Y33672803D01*
X41229968Y33708489D01*
X41267808Y33765120D01*
X41280111Y33780112D01*
X41600002Y34100003D01*
X49394867Y34100003D01*
X49394867Y34099998D01*
X49413302Y33971775D01*
X49452477Y33885996D01*
X49467118Y33853937D01*
X49543286Y33766033D01*
X49551952Y33756032D01*
X49651394Y33692125D01*
X49660931Y33685996D01*
X49785228Y33649500D01*
X49785230Y33649500D01*
X49914770Y33649500D01*
X49914772Y33649500D01*
X50039069Y33685996D01*
X50148049Y33756033D01*
X50232882Y33853937D01*
X50286697Y33971774D01*
X50298510Y34053937D01*
X50305133Y34099998D01*
X50305133Y34100003D01*
X50286697Y34228226D01*
X50286204Y34229306D01*
X50232882Y34346063D01*
X50148049Y34443967D01*
X50148048Y34443968D01*
X50148047Y34443969D01*
X50039073Y34514002D01*
X50039070Y34514004D01*
X50039069Y34514004D01*
X50039066Y34514005D01*
X49914774Y34550500D01*
X49914772Y34550500D01*
X49785228Y34550500D01*
X49785225Y34550500D01*
X49660933Y34514005D01*
X49660926Y34514002D01*
X49551952Y34443969D01*
X49467117Y34346062D01*
X49413302Y34228226D01*
X49394867Y34100003D01*
X41600002Y34100003D01*
X41894888Y34394889D01*
X41909880Y34407192D01*
X41966511Y34445032D01*
X42002196Y34459812D01*
X42035782Y34466493D01*
X42068992Y34473098D01*
X42088305Y34475000D01*
X43571446Y34475000D01*
X43571447Y34475000D01*
X43675000Y34475000D01*
X44250003Y35050003D01*
X51019867Y35050003D01*
X51019867Y35049998D01*
X51038302Y34921775D01*
X51092118Y34803937D01*
X51147665Y34739830D01*
X51171482Y34683470D01*
X51157623Y34623875D01*
X51147665Y34610170D01*
X51092118Y34546064D01*
X51038302Y34428226D01*
X51019867Y34300003D01*
X51019867Y34299998D01*
X51038302Y34171775D01*
X51066515Y34109998D01*
X51092118Y34053937D01*
X51154646Y33981775D01*
X51176952Y33956032D01*
X51196888Y33943220D01*
X51285931Y33885996D01*
X51410228Y33849500D01*
X51410230Y33849500D01*
X51539770Y33849500D01*
X51539772Y33849500D01*
X51664069Y33885996D01*
X51773049Y33956033D01*
X51857882Y34053937D01*
X51911697Y34171774D01*
X51920479Y34232854D01*
X51930133Y34299998D01*
X51930133Y34300003D01*
X51911697Y34428226D01*
X51896376Y34461774D01*
X51857882Y34546063D01*
X51802333Y34610171D01*
X51778517Y34666529D01*
X51792376Y34726124D01*
X51802330Y34739827D01*
X51857882Y34803937D01*
X51911697Y34921774D01*
X51930133Y35050000D01*
X51922944Y35099998D01*
X51911697Y35178226D01*
X51908717Y35184752D01*
X51857882Y35296063D01*
X51773049Y35393967D01*
X51773048Y35393968D01*
X51773047Y35393969D01*
X51664073Y35464002D01*
X51664070Y35464004D01*
X51664069Y35464004D01*
X51664066Y35464005D01*
X51539774Y35500500D01*
X51539772Y35500500D01*
X51410228Y35500500D01*
X51410225Y35500500D01*
X51285933Y35464005D01*
X51285926Y35464002D01*
X51176952Y35393969D01*
X51092117Y35296062D01*
X51038302Y35178226D01*
X51019867Y35050003D01*
X44250003Y35050003D01*
X44475000Y35275000D01*
X44475000Y35800003D01*
X49694867Y35800003D01*
X49694867Y35799998D01*
X49713302Y35671775D01*
X49758972Y35571774D01*
X49767118Y35553937D01*
X49845044Y35464004D01*
X49851952Y35456032D01*
X49956250Y35389004D01*
X49960931Y35385996D01*
X50085228Y35349500D01*
X50085230Y35349500D01*
X50214770Y35349500D01*
X50214772Y35349500D01*
X50339069Y35385996D01*
X50448049Y35456033D01*
X50532882Y35553937D01*
X50586697Y35671774D01*
X50597153Y35744500D01*
X50605133Y35799998D01*
X50605133Y35800003D01*
X50586697Y35928226D01*
X50568086Y35968977D01*
X50532882Y36046063D01*
X50448049Y36143967D01*
X50448048Y36143968D01*
X50448047Y36143969D01*
X50339073Y36214002D01*
X50339070Y36214004D01*
X50339069Y36214004D01*
X50339066Y36214005D01*
X50214774Y36250500D01*
X50214772Y36250500D01*
X50085228Y36250500D01*
X50085225Y36250500D01*
X49960933Y36214005D01*
X49960926Y36214002D01*
X49851952Y36143969D01*
X49767117Y36046062D01*
X49713302Y35928226D01*
X49694867Y35800003D01*
X44475000Y35800003D01*
X44475000Y36811695D01*
X44476902Y36831008D01*
X44480488Y36849036D01*
X50544500Y36849036D01*
X50544500Y36650965D01*
X50583141Y36456708D01*
X50583141Y36456706D01*
X50658936Y36273720D01*
X50765655Y36114002D01*
X50768977Y36109031D01*
X50909031Y35968977D01*
X51073717Y35858938D01*
X51073718Y35858938D01*
X51073719Y35858937D01*
X51104800Y35846063D01*
X51256707Y35783141D01*
X51450967Y35744500D01*
X51450968Y35744500D01*
X51649032Y35744500D01*
X51649033Y35744500D01*
X51843293Y35783141D01*
X52026283Y35858938D01*
X52190969Y35968977D01*
X52331023Y36109031D01*
X52441062Y36273717D01*
X52516859Y36456707D01*
X52555500Y36650967D01*
X52555500Y36849033D01*
X52516859Y37043293D01*
X52441062Y37226283D01*
X52331023Y37390969D01*
X52190969Y37531023D01*
X52190954Y37531033D01*
X52026280Y37641064D01*
X51843293Y37716859D01*
X51649035Y37755500D01*
X51649033Y37755500D01*
X51450967Y37755500D01*
X51450964Y37755500D01*
X51256707Y37716859D01*
X51256705Y37716859D01*
X51073719Y37641064D01*
X50909034Y37531026D01*
X50768974Y37390966D01*
X50658936Y37226281D01*
X50583141Y37043295D01*
X50583141Y37043293D01*
X50544500Y36849036D01*
X44480488Y36849036D01*
X44490188Y36897803D01*
X44504968Y36933489D01*
X44542808Y36990120D01*
X44555111Y37005112D01*
X45394888Y37844889D01*
X45409880Y37857192D01*
X45466511Y37895032D01*
X45502196Y37909812D01*
X45535782Y37916493D01*
X45568992Y37923098D01*
X45588305Y37925000D01*
X48146446Y37925000D01*
X48146447Y37925000D01*
X48250000Y37925000D01*
X49044888Y38719889D01*
X49059880Y38732192D01*
X49116511Y38770032D01*
X49152196Y38784812D01*
X49185782Y38791493D01*
X49218992Y38798098D01*
X49238305Y38800000D01*
X50396446Y38800000D01*
X50396447Y38800000D01*
X50500000Y38800000D01*
X50800000Y39100000D01*
X50800000Y39397670D01*
X50801008Y39411760D01*
X50802840Y39424498D01*
X50815133Y39510000D01*
X50813048Y39524500D01*
X50801008Y39608243D01*
X50800000Y39622332D01*
X50800000Y39646446D01*
X50800000Y39646447D01*
X50800000Y39750000D01*
X50500000Y40050000D01*
X50395729Y40049489D01*
X50395724Y40049489D01*
X45905106Y40027477D01*
X45514080Y40025561D01*
X45494641Y40027391D01*
X45427395Y40040509D01*
X45391449Y40055295D01*
X45334434Y40093291D01*
X45319331Y40105669D01*
X44971308Y40453692D01*
X44623223Y40801777D01*
X44550000Y40875000D01*
X44446447Y40875000D01*
X42275330Y40875000D01*
X42268335Y40875500D01*
X42264772Y40875500D01*
X42135228Y40875500D01*
X42131665Y40875500D01*
X42124670Y40875000D01*
X42078552Y40875000D01*
X41975000Y40875000D01*
X41750000Y40650000D01*
X41750000Y40546448D01*
X41750000Y40467781D01*
X41748992Y40453692D01*
X41744867Y40425002D01*
X41744867Y40424999D01*
X41748992Y40396311D01*
X41750000Y40382221D01*
X41750000Y39888306D01*
X41748098Y39868991D01*
X41734811Y39802196D01*
X41720029Y39766510D01*
X41682195Y39709887D01*
X41669883Y39694884D01*
X40707196Y38732196D01*
X39675000Y37700000D01*
X39675000Y37596448D01*
X39675000Y35184752D01*
X39656093Y35126561D01*
X39606593Y35090597D01*
X39545407Y35090597D01*
X39522477Y35101468D01*
X39464073Y35139002D01*
X39464070Y35139004D01*
X39464069Y35139004D01*
X39464066Y35139005D01*
X39339774Y35175500D01*
X39339772Y35175500D01*
X39210228Y35175500D01*
X39210225Y35175500D01*
X39085933Y35139005D01*
X39085926Y35139002D01*
X38976952Y35068969D01*
X38892117Y34971062D01*
X38838302Y34853226D01*
X38819867Y34725003D01*
X38819867Y34724998D01*
X38838302Y34596775D01*
X38864686Y34539004D01*
X38892118Y34478937D01*
X38976951Y34381033D01*
X38982620Y34377390D01*
X39021351Y34330024D01*
X39024843Y34268938D01*
X38999100Y34224102D01*
X37230116Y32455117D01*
X37215113Y32442805D01*
X37158490Y32404971D01*
X37122804Y32390189D01*
X37072865Y32380256D01*
X37056007Y32376902D01*
X37036695Y32375000D01*
X35088305Y32375000D01*
X35068992Y32376902D01*
X35046644Y32381347D01*
X35002195Y32390189D01*
X34966509Y32404971D01*
X34909886Y32442805D01*
X34894883Y32455117D01*
X34205116Y33144884D01*
X34192804Y33159887D01*
X34154970Y33216510D01*
X34140188Y33252198D01*
X34126902Y33318993D01*
X34125000Y33338306D01*
X34125000Y34125003D01*
X35119867Y34125003D01*
X35119867Y34124998D01*
X35138302Y33996775D01*
X35191350Y33880618D01*
X35192118Y33878937D01*
X35268500Y33790786D01*
X35276952Y33781032D01*
X35378921Y33715501D01*
X35385931Y33710996D01*
X35510228Y33674500D01*
X35510230Y33674500D01*
X35639770Y33674500D01*
X35639772Y33674500D01*
X35764069Y33710996D01*
X35873049Y33781033D01*
X35957882Y33878937D01*
X36011697Y33996774D01*
X36019916Y34053939D01*
X36030133Y34124998D01*
X36030133Y34125003D01*
X36011697Y34253226D01*
X35970269Y34343939D01*
X35957882Y34371063D01*
X35873049Y34468967D01*
X35873048Y34468968D01*
X35873047Y34468969D01*
X35764073Y34539002D01*
X35764070Y34539004D01*
X35764069Y34539004D01*
X35759560Y34540328D01*
X35639774Y34575500D01*
X35639772Y34575500D01*
X35510228Y34575500D01*
X35510225Y34575500D01*
X35385933Y34539005D01*
X35385926Y34539002D01*
X35276952Y34468969D01*
X35192117Y34371062D01*
X35138302Y34253226D01*
X35119867Y34125003D01*
X34125000Y34125003D01*
X34125000Y35050003D01*
X36769867Y35050003D01*
X36769867Y35049998D01*
X36788302Y34921775D01*
X36819283Y34853937D01*
X36842118Y34803937D01*
X36926951Y34706033D01*
X36926952Y34706032D01*
X37035926Y34635999D01*
X37035931Y34635996D01*
X37160228Y34599500D01*
X37160230Y34599500D01*
X37289770Y34599500D01*
X37289772Y34599500D01*
X37414069Y34635996D01*
X37523049Y34706033D01*
X37607882Y34803937D01*
X37661697Y34921774D01*
X37680133Y35050000D01*
X37672944Y35099998D01*
X37661697Y35178226D01*
X37658717Y35184752D01*
X37607882Y35296063D01*
X37523049Y35393967D01*
X37523048Y35393968D01*
X37523047Y35393969D01*
X37414073Y35464002D01*
X37414070Y35464004D01*
X37414069Y35464004D01*
X37414066Y35464005D01*
X37289774Y35500500D01*
X37289772Y35500500D01*
X37160228Y35500500D01*
X37160225Y35500500D01*
X37035933Y35464005D01*
X37035926Y35464002D01*
X36926952Y35393969D01*
X36842117Y35296062D01*
X36788302Y35178226D01*
X36769867Y35050003D01*
X34125000Y35050003D01*
X34125000Y35675003D01*
X35144867Y35675003D01*
X35144867Y35674998D01*
X35163302Y35546775D01*
X35204744Y35456032D01*
X35217118Y35428937D01*
X35301951Y35331033D01*
X35301952Y35331032D01*
X35389140Y35275000D01*
X35410931Y35260996D01*
X35535228Y35224500D01*
X35535230Y35224500D01*
X35664770Y35224500D01*
X35664772Y35224500D01*
X35789069Y35260996D01*
X35898049Y35331033D01*
X35982882Y35428937D01*
X36036697Y35546774D01*
X36054669Y35671774D01*
X36055133Y35674998D01*
X36055133Y35675003D01*
X36036697Y35803226D01*
X36011254Y35858938D01*
X35982882Y35921063D01*
X35898049Y36018967D01*
X35898048Y36018968D01*
X35898047Y36018969D01*
X35789073Y36089002D01*
X35789070Y36089004D01*
X35789069Y36089004D01*
X35789066Y36089005D01*
X35664774Y36125500D01*
X35664772Y36125500D01*
X35535228Y36125500D01*
X35535225Y36125500D01*
X35410933Y36089005D01*
X35410926Y36089002D01*
X35301952Y36018969D01*
X35217117Y35921062D01*
X35163302Y35803226D01*
X35144867Y35675003D01*
X34125000Y35675003D01*
X34125000Y36111695D01*
X34126902Y36131008D01*
X34135011Y36171775D01*
X34140188Y36197804D01*
X34154968Y36233489D01*
X34192808Y36290120D01*
X34205111Y36305112D01*
X34749035Y36849036D01*
X36294500Y36849036D01*
X36294500Y36650965D01*
X36333141Y36456708D01*
X36333141Y36456706D01*
X36408936Y36273720D01*
X36515655Y36114002D01*
X36518977Y36109031D01*
X36659031Y35968977D01*
X36823717Y35858938D01*
X36823718Y35858938D01*
X36823719Y35858937D01*
X36854800Y35846063D01*
X37006707Y35783141D01*
X37200967Y35744500D01*
X37200968Y35744500D01*
X37399032Y35744500D01*
X37399033Y35744500D01*
X37593293Y35783141D01*
X37776283Y35858938D01*
X37940969Y35968977D01*
X38081023Y36109031D01*
X38191062Y36273717D01*
X38266859Y36456707D01*
X38305500Y36650967D01*
X38305500Y36849033D01*
X38266859Y37043293D01*
X38191062Y37226283D01*
X38081023Y37390969D01*
X37940969Y37531023D01*
X37940954Y37531033D01*
X37776280Y37641064D01*
X37593293Y37716859D01*
X37399035Y37755500D01*
X37399033Y37755500D01*
X37200967Y37755500D01*
X37200964Y37755500D01*
X37006707Y37716859D01*
X37006705Y37716859D01*
X36823719Y37641064D01*
X36659034Y37531026D01*
X36518974Y37390966D01*
X36408936Y37226281D01*
X36333141Y37043295D01*
X36333141Y37043293D01*
X36294500Y36849036D01*
X34749035Y36849036D01*
X36242915Y38342916D01*
X36259376Y38356180D01*
X36298049Y38381033D01*
X36382882Y38478937D01*
X36386198Y38486200D01*
X36450000Y38550000D01*
X36450000Y38682221D01*
X36451008Y38696311D01*
X36455133Y38725000D01*
X36451515Y38750163D01*
X36452408Y38783557D01*
X36465189Y38847808D01*
X36479968Y38883489D01*
X36517808Y38940120D01*
X36530111Y38955112D01*
X36551777Y38976777D01*
X36625000Y39050000D01*
X36625000Y39200003D01*
X38194867Y39200003D01*
X38194867Y39199998D01*
X38213302Y39071775D01*
X38247299Y38997334D01*
X38267118Y38953937D01*
X38332079Y38878967D01*
X38351952Y38856032D01*
X38452377Y38791493D01*
X38460931Y38785996D01*
X38585228Y38749500D01*
X38585230Y38749500D01*
X38714770Y38749500D01*
X38714772Y38749500D01*
X38839069Y38785996D01*
X38948049Y38856033D01*
X39032882Y38953937D01*
X39086697Y39071774D01*
X39105133Y39200000D01*
X39104763Y39202571D01*
X39086697Y39328226D01*
X39062242Y39381774D01*
X39032882Y39446063D01*
X38948049Y39543967D01*
X38948048Y39543968D01*
X38948047Y39543969D01*
X38839073Y39614002D01*
X38839070Y39614004D01*
X38839069Y39614004D01*
X38839066Y39614005D01*
X38714774Y39650500D01*
X38714772Y39650500D01*
X38585228Y39650500D01*
X38585225Y39650500D01*
X38460933Y39614005D01*
X38460926Y39614002D01*
X38351952Y39543969D01*
X38267117Y39446062D01*
X38213302Y39328226D01*
X38194867Y39200003D01*
X36625000Y39200003D01*
X36625000Y39750000D01*
X36350000Y40025000D01*
X36246447Y40025000D01*
X33175330Y40025000D01*
X33168335Y40025500D01*
X33164772Y40025500D01*
X33035228Y40025500D01*
X33031665Y40025500D01*
X33024670Y40025000D01*
X32375330Y40025000D01*
X32368335Y40025500D01*
X32364772Y40025500D01*
X32235228Y40025500D01*
X32231665Y40025500D01*
X32224670Y40025000D01*
X28928552Y40025000D01*
X28825000Y40025000D01*
X28575000Y39775000D01*
X28575000Y39275000D01*
X29000000Y38850000D01*
X30111695Y38850000D01*
X30131008Y38848099D01*
X30197803Y38834812D01*
X30233489Y38820031D01*
X30288065Y38783564D01*
X30290113Y38782196D01*
X30305116Y38769884D01*
X30919883Y38155117D01*
X30932195Y38140114D01*
X30970029Y38083491D01*
X30984811Y38047805D01*
X30997404Y37984496D01*
X30998098Y37981010D01*
X31000000Y37961695D01*
X31000000Y33238306D01*
X30998098Y33218991D01*
X30984811Y33152196D01*
X30970029Y33116510D01*
X30932195Y33059887D01*
X30919883Y33044884D01*
X29655116Y31780117D01*
X29640113Y31767805D01*
X29583490Y31729971D01*
X29547804Y31715189D01*
X29497865Y31705256D01*
X29481007Y31701902D01*
X29461695Y31700000D01*
X23837035Y31700000D01*
X23778844Y31718907D01*
X23742880Y31768407D01*
X23739043Y31813089D01*
X23755133Y31924998D01*
X23755133Y31925003D01*
X23736697Y32053226D01*
X23682882Y32171062D01*
X23682882Y32171063D01*
X23598049Y32268967D01*
X23598048Y32268968D01*
X23598047Y32268969D01*
X23489073Y32339002D01*
X23489070Y32339004D01*
X23489069Y32339004D01*
X23489066Y32339005D01*
X23364774Y32375500D01*
X23364772Y32375500D01*
X23235228Y32375500D01*
X23235225Y32375500D01*
X23110933Y32339005D01*
X23110926Y32339002D01*
X23001952Y32268969D01*
X22980633Y32244364D01*
X22928237Y32212768D01*
X22867276Y32218004D01*
X22835809Y32239191D01*
X21724995Y33350005D01*
X24419901Y33350005D01*
X24419901Y33349996D01*
X24438251Y33163675D01*
X24438252Y33163672D01*
X24492605Y32984496D01*
X24492606Y32984494D01*
X24580859Y32819383D01*
X24580862Y32819378D01*
X24580864Y32819375D01*
X24630395Y32759022D01*
X24699638Y32674648D01*
X24699647Y32674639D01*
X24767145Y32619245D01*
X24844375Y32555864D01*
X24844380Y32555862D01*
X24844382Y32555860D01*
X25009493Y32467607D01*
X25009499Y32467604D01*
X25188669Y32413253D01*
X25188671Y32413253D01*
X25188674Y32413252D01*
X25374996Y32394901D01*
X25375000Y32394901D01*
X25375004Y32394901D01*
X25561325Y32413252D01*
X25561326Y32413253D01*
X25561331Y32413253D01*
X25740501Y32467604D01*
X25905625Y32555864D01*
X26050357Y32674643D01*
X26169136Y32819375D01*
X26257396Y32984499D01*
X26311747Y33163669D01*
X26312272Y33168991D01*
X26330099Y33349996D01*
X26330099Y33350005D01*
X26311748Y33536326D01*
X26311747Y33536329D01*
X26311747Y33536331D01*
X26257396Y33715501D01*
X26235732Y33756032D01*
X26169140Y33880618D01*
X26169138Y33880620D01*
X26169136Y33880625D01*
X26073814Y33996775D01*
X26050361Y34025353D01*
X26050352Y34025362D01*
X25947222Y34109998D01*
X25905625Y34144136D01*
X25905622Y34144138D01*
X25905617Y34144141D01*
X25740506Y34232394D01*
X25740504Y34232395D01*
X25561328Y34286748D01*
X25561325Y34286749D01*
X25375004Y34305099D01*
X25374996Y34305099D01*
X25188674Y34286749D01*
X25188671Y34286748D01*
X25009495Y34232395D01*
X25009493Y34232394D01*
X24844382Y34144141D01*
X24844376Y34144137D01*
X24699647Y34025362D01*
X24699638Y34025353D01*
X24580863Y33880624D01*
X24580859Y33880618D01*
X24492606Y33715507D01*
X24492605Y33715505D01*
X24438252Y33536329D01*
X24438251Y33536326D01*
X24419901Y33350005D01*
X21724995Y33350005D01*
X21552399Y33522601D01*
X21524622Y33577118D01*
X21534193Y33637550D01*
X21577458Y33680815D01*
X21582699Y33682898D01*
X21582628Y33683055D01*
X21589061Y33685994D01*
X21589069Y33685996D01*
X21698049Y33756033D01*
X21782882Y33853937D01*
X21836697Y33971774D01*
X21848510Y34053937D01*
X21855133Y34099998D01*
X21855133Y34100003D01*
X21836697Y34228226D01*
X21836204Y34229306D01*
X21782882Y34346063D01*
X21698049Y34443967D01*
X21698048Y34443968D01*
X21698047Y34443969D01*
X21589073Y34514002D01*
X21589070Y34514004D01*
X21589069Y34514004D01*
X21589066Y34514005D01*
X21464774Y34550500D01*
X21464772Y34550500D01*
X21335228Y34550500D01*
X21335225Y34550500D01*
X21210933Y34514005D01*
X21210926Y34514002D01*
X21101952Y34443969D01*
X21017117Y34346063D01*
X20986002Y34277931D01*
X20944629Y34232854D01*
X20884662Y34220705D01*
X20829006Y34246123D01*
X20825945Y34249055D01*
X20484997Y34590003D01*
X27714867Y34590003D01*
X27714867Y34589998D01*
X27733302Y34461775D01*
X27787117Y34343939D01*
X27787118Y34343937D01*
X27871873Y34246123D01*
X27871952Y34246032D01*
X27927923Y34210062D01*
X27980931Y34175996D01*
X28105228Y34139500D01*
X28105230Y34139500D01*
X28234770Y34139500D01*
X28234772Y34139500D01*
X28303476Y34159673D01*
X28364632Y34157926D01*
X28413085Y34120564D01*
X28429356Y34078772D01*
X28443302Y33981775D01*
X28487044Y33885996D01*
X28497118Y33863937D01*
X28581951Y33766033D01*
X28581952Y33766032D01*
X28667590Y33710996D01*
X28690931Y33695996D01*
X28815228Y33659500D01*
X28815230Y33659500D01*
X28944770Y33659500D01*
X28944772Y33659500D01*
X29069069Y33695996D01*
X29178049Y33766033D01*
X29262882Y33863937D01*
X29316697Y33981774D01*
X29322964Y34025362D01*
X29335133Y34109998D01*
X29335133Y34110003D01*
X29316697Y34238226D01*
X29313132Y34246033D01*
X29262882Y34356063D01*
X29178049Y34453967D01*
X29178048Y34453968D01*
X29178047Y34453969D01*
X29069073Y34524002D01*
X29069070Y34524004D01*
X29069069Y34524004D01*
X29067380Y34524500D01*
X28944774Y34560500D01*
X28944772Y34560500D01*
X28815228Y34560500D01*
X28815225Y34560500D01*
X28746526Y34540328D01*
X28685365Y34542076D01*
X28636913Y34579439D01*
X28620643Y34621230D01*
X28606698Y34718225D01*
X28576254Y34784887D01*
X28552882Y34836063D01*
X28468049Y34933967D01*
X28468048Y34933968D01*
X28468047Y34933969D01*
X28359073Y35004002D01*
X28359070Y35004004D01*
X28359069Y35004004D01*
X28359066Y35004005D01*
X28234774Y35040500D01*
X28234772Y35040500D01*
X28105228Y35040500D01*
X28105225Y35040500D01*
X27980933Y35004005D01*
X27980926Y35004002D01*
X27871952Y34933969D01*
X27787117Y34836062D01*
X27733302Y34718226D01*
X27714867Y34590003D01*
X20484997Y34590003D01*
X20305116Y34769884D01*
X20292804Y34784887D01*
X20254970Y34841510D01*
X20240188Y34877198D01*
X20226902Y34943993D01*
X20225000Y34963306D01*
X20225000Y35075003D01*
X22494867Y35075003D01*
X22494867Y35074998D01*
X22513302Y34946775D01*
X22555700Y34853939D01*
X22567118Y34828937D01*
X22651951Y34731033D01*
X22651952Y34731032D01*
X22739140Y34675000D01*
X22760931Y34660996D01*
X22885228Y34624500D01*
X22885230Y34624500D01*
X23014770Y34624500D01*
X23014772Y34624500D01*
X23139069Y34660996D01*
X23248049Y34731033D01*
X23332882Y34828937D01*
X23386697Y34946774D01*
X23405133Y35075000D01*
X23401327Y35101468D01*
X23386697Y35203226D01*
X23332882Y35321063D01*
X23248049Y35418967D01*
X23248048Y35418968D01*
X23248047Y35418969D01*
X23139073Y35489002D01*
X23139070Y35489004D01*
X23139069Y35489004D01*
X23139066Y35489005D01*
X23014774Y35525500D01*
X23014772Y35525500D01*
X22885228Y35525500D01*
X22885225Y35525500D01*
X22760933Y35489005D01*
X22760926Y35489002D01*
X22651952Y35418969D01*
X22567117Y35321062D01*
X22513302Y35203226D01*
X22494867Y35075003D01*
X20225000Y35075003D01*
X20225000Y35700003D01*
X21069867Y35700003D01*
X21069867Y35699998D01*
X21088302Y35571775D01*
X21137521Y35464002D01*
X21142118Y35453937D01*
X21207105Y35378937D01*
X21226952Y35356032D01*
X21320266Y35296063D01*
X21335931Y35285996D01*
X21460228Y35249500D01*
X21460230Y35249500D01*
X21589770Y35249500D01*
X21589772Y35249500D01*
X21714069Y35285996D01*
X21823049Y35356033D01*
X21907882Y35453937D01*
X21961697Y35571774D01*
X21972480Y35646774D01*
X21980133Y35699998D01*
X21980133Y35700003D01*
X21961697Y35828226D01*
X21953551Y35846063D01*
X21907882Y35946063D01*
X21823049Y36043967D01*
X21823048Y36043968D01*
X21823047Y36043969D01*
X21714073Y36114002D01*
X21714070Y36114004D01*
X21714069Y36114004D01*
X21714066Y36114005D01*
X21589774Y36150500D01*
X21589772Y36150500D01*
X21460228Y36150500D01*
X21460225Y36150500D01*
X21335933Y36114005D01*
X21335926Y36114002D01*
X21226952Y36043969D01*
X21142117Y35946062D01*
X21088302Y35828226D01*
X21069867Y35700003D01*
X20225000Y35700003D01*
X20225000Y36849036D01*
X22044500Y36849036D01*
X22044500Y36650965D01*
X22083141Y36456708D01*
X22083141Y36456706D01*
X22158936Y36273720D01*
X22265655Y36114002D01*
X22268977Y36109031D01*
X22409031Y35968977D01*
X22573717Y35858938D01*
X22573718Y35858938D01*
X22573719Y35858937D01*
X22604800Y35846063D01*
X22756707Y35783141D01*
X22950967Y35744500D01*
X22950968Y35744500D01*
X23149032Y35744500D01*
X23149033Y35744500D01*
X23343293Y35783141D01*
X23526283Y35858938D01*
X23690969Y35968977D01*
X23831023Y36109031D01*
X23941062Y36273717D01*
X24016859Y36456707D01*
X24055500Y36650967D01*
X24055500Y36849033D01*
X24055499Y36849036D01*
X26694500Y36849036D01*
X26694500Y36650965D01*
X26733141Y36456708D01*
X26733141Y36456706D01*
X26808936Y36273720D01*
X26915655Y36114002D01*
X26918977Y36109031D01*
X27059031Y35968977D01*
X27223717Y35858938D01*
X27223718Y35858938D01*
X27223719Y35858937D01*
X27254800Y35846063D01*
X27406707Y35783141D01*
X27600967Y35744500D01*
X27600968Y35744500D01*
X27799032Y35744500D01*
X27799033Y35744500D01*
X27993293Y35783141D01*
X28176283Y35858938D01*
X28340969Y35968977D01*
X28481023Y36109031D01*
X28591062Y36273717D01*
X28666859Y36456707D01*
X28705500Y36650967D01*
X28705500Y36849033D01*
X28675470Y37000003D01*
X28919867Y37000003D01*
X28919867Y36999998D01*
X28938302Y36871775D01*
X28992118Y36753937D01*
X29026003Y36714830D01*
X29049820Y36658470D01*
X29035961Y36598875D01*
X29026003Y36585170D01*
X28992118Y36546064D01*
X28938302Y36428226D01*
X28919867Y36300003D01*
X28919867Y36299998D01*
X28938302Y36171775D01*
X28992118Y36053937D01*
X29026003Y36014830D01*
X29049820Y35958470D01*
X29035961Y35898875D01*
X29026003Y35885170D01*
X28992118Y35846064D01*
X28938302Y35728226D01*
X28919867Y35600003D01*
X28919867Y35599998D01*
X28938302Y35471775D01*
X28977477Y35385996D01*
X28992118Y35353937D01*
X29072648Y35260999D01*
X29076952Y35256032D01*
X29164918Y35199500D01*
X29185931Y35185996D01*
X29310228Y35149500D01*
X29310230Y35149500D01*
X29439770Y35149500D01*
X29439772Y35149500D01*
X29564069Y35185996D01*
X29673049Y35256033D01*
X29757882Y35353937D01*
X29811697Y35471774D01*
X29822480Y35546774D01*
X29830133Y35599998D01*
X29830133Y35600003D01*
X29811697Y35728226D01*
X29798210Y35757758D01*
X29757882Y35846063D01*
X29723997Y35885169D01*
X29700179Y35941528D01*
X29714038Y36001124D01*
X29723997Y36014831D01*
X29727581Y36018967D01*
X29757882Y36053937D01*
X29811697Y36171774D01*
X29826355Y36273720D01*
X29830133Y36299998D01*
X29830133Y36300003D01*
X29811697Y36428226D01*
X29798690Y36456707D01*
X29757882Y36546063D01*
X29723997Y36585169D01*
X29700179Y36641528D01*
X29714038Y36701124D01*
X29723997Y36714831D01*
X29724760Y36715713D01*
X29757882Y36753937D01*
X29811697Y36871774D01*
X29826467Y36974500D01*
X29830133Y36999998D01*
X29830133Y37000003D01*
X29811697Y37128226D01*
X29788538Y37178937D01*
X29757882Y37246063D01*
X29673049Y37343967D01*
X29673048Y37343968D01*
X29673047Y37343969D01*
X29564073Y37414002D01*
X29564070Y37414004D01*
X29564069Y37414004D01*
X29564066Y37414005D01*
X29439774Y37450500D01*
X29439772Y37450500D01*
X29310228Y37450500D01*
X29310225Y37450500D01*
X29185933Y37414005D01*
X29185926Y37414002D01*
X29076952Y37343969D01*
X28992117Y37246062D01*
X28938302Y37128226D01*
X28919867Y37000003D01*
X28675470Y37000003D01*
X28666859Y37043293D01*
X28591062Y37226283D01*
X28481023Y37390969D01*
X28340969Y37531023D01*
X28340954Y37531033D01*
X28176280Y37641064D01*
X27993293Y37716859D01*
X27799035Y37755500D01*
X27799033Y37755500D01*
X27600967Y37755500D01*
X27600964Y37755500D01*
X27406707Y37716859D01*
X27406705Y37716859D01*
X27223719Y37641064D01*
X27059034Y37531026D01*
X26918974Y37390966D01*
X26808936Y37226281D01*
X26733141Y37043295D01*
X26733141Y37043293D01*
X26694500Y36849036D01*
X24055499Y36849036D01*
X24016859Y37043293D01*
X23941062Y37226283D01*
X23831023Y37390969D01*
X23690969Y37531023D01*
X23690954Y37531033D01*
X23526280Y37641064D01*
X23343293Y37716859D01*
X23149035Y37755500D01*
X23149033Y37755500D01*
X22950967Y37755500D01*
X22950964Y37755500D01*
X22756707Y37716859D01*
X22756705Y37716859D01*
X22573719Y37641064D01*
X22409034Y37531026D01*
X22268974Y37390966D01*
X22158936Y37226281D01*
X22083141Y37043295D01*
X22083141Y37043293D01*
X22044500Y36849036D01*
X20225000Y36849036D01*
X20225000Y36886695D01*
X20226902Y36906008D01*
X20240188Y36972803D01*
X20254968Y37008489D01*
X20292808Y37065120D01*
X20305111Y37080112D01*
X20751777Y37526777D01*
X20825000Y37600000D01*
X20825000Y37886695D01*
X20826902Y37906008D01*
X20840188Y37972803D01*
X20854968Y38008489D01*
X20892808Y38065120D01*
X20905111Y38080112D01*
X21175004Y38350005D01*
X24419901Y38350005D01*
X24419901Y38349996D01*
X24438251Y38163675D01*
X24438252Y38163672D01*
X24492605Y37984496D01*
X24492606Y37984494D01*
X24580859Y37819383D01*
X24580862Y37819378D01*
X24580864Y37819375D01*
X24595306Y37801778D01*
X24699638Y37674648D01*
X24699647Y37674639D01*
X24740559Y37641064D01*
X24844375Y37555864D01*
X24844380Y37555862D01*
X24844382Y37555860D01*
X24892217Y37530292D01*
X25009499Y37467604D01*
X25188669Y37413253D01*
X25188671Y37413253D01*
X25188674Y37413252D01*
X25374996Y37394901D01*
X25375000Y37394901D01*
X25375004Y37394901D01*
X25561325Y37413252D01*
X25561326Y37413253D01*
X25561331Y37413253D01*
X25740501Y37467604D01*
X25905625Y37555864D01*
X26050357Y37674643D01*
X26169136Y37819375D01*
X26257396Y37984499D01*
X26311747Y38163669D01*
X26314443Y38191033D01*
X26330099Y38349996D01*
X26330099Y38350005D01*
X26311748Y38536326D01*
X26311747Y38536329D01*
X26311747Y38536331D01*
X26257396Y38715501D01*
X26252319Y38725000D01*
X26169140Y38880618D01*
X26169138Y38880620D01*
X26169136Y38880625D01*
X26083067Y38985500D01*
X26050361Y39025353D01*
X26050352Y39025362D01*
X25965978Y39094605D01*
X25905625Y39144136D01*
X25905622Y39144138D01*
X25905617Y39144141D01*
X25740506Y39232394D01*
X25740504Y39232395D01*
X25561328Y39286748D01*
X25561325Y39286749D01*
X25375004Y39305099D01*
X25374996Y39305099D01*
X25188674Y39286749D01*
X25188671Y39286748D01*
X25009495Y39232395D01*
X25009493Y39232394D01*
X24844382Y39144141D01*
X24844376Y39144137D01*
X24699647Y39025362D01*
X24699638Y39025353D01*
X24580863Y38880624D01*
X24580859Y38880618D01*
X24492606Y38715507D01*
X24492605Y38715505D01*
X24438252Y38536329D01*
X24438251Y38536326D01*
X24419901Y38350005D01*
X21175004Y38350005D01*
X21676777Y38851777D01*
X21750000Y38925000D01*
X21750000Y39571266D01*
X21675438Y39646447D01*
X21620563Y39701777D01*
X21373345Y39951047D01*
X21349586Y39975003D01*
X22869867Y39975003D01*
X22869867Y39974998D01*
X22888302Y39846775D01*
X22932208Y39750636D01*
X22942118Y39728937D01*
X23026951Y39631033D01*
X23026952Y39631032D01*
X23135926Y39560999D01*
X23135931Y39560996D01*
X23260228Y39524500D01*
X23260230Y39524500D01*
X23389770Y39524500D01*
X23389772Y39524500D01*
X23514069Y39560996D01*
X23623049Y39631033D01*
X23707882Y39728937D01*
X23761697Y39846774D01*
X23767045Y39883967D01*
X23778637Y39964589D01*
X23805633Y40019497D01*
X23859747Y40048050D01*
X23876629Y40049500D01*
X23964770Y40049500D01*
X23964772Y40049500D01*
X24089069Y40085996D01*
X24198049Y40156033D01*
X24282882Y40253937D01*
X24336697Y40371774D01*
X24346115Y40437280D01*
X24355133Y40499998D01*
X24355133Y40500003D01*
X24351538Y40525003D01*
X37069867Y40525003D01*
X37069867Y40524998D01*
X37088302Y40396775D01*
X37128621Y40308491D01*
X37142118Y40278937D01*
X37205309Y40206010D01*
X37226952Y40181032D01*
X37265853Y40156032D01*
X37335931Y40110996D01*
X37460228Y40074500D01*
X37460230Y40074500D01*
X37589770Y40074500D01*
X37589772Y40074500D01*
X37714069Y40110996D01*
X37823049Y40181033D01*
X37907882Y40278937D01*
X37961697Y40396774D01*
X37976539Y40500003D01*
X37980133Y40524998D01*
X37980133Y40525003D01*
X37961697Y40653226D01*
X37953551Y40671063D01*
X37907882Y40771063D01*
X37823049Y40868967D01*
X37823048Y40868968D01*
X37823047Y40868969D01*
X37714073Y40939002D01*
X37714070Y40939004D01*
X37714069Y40939004D01*
X37714066Y40939005D01*
X37589774Y40975500D01*
X37589772Y40975500D01*
X37460228Y40975500D01*
X37460225Y40975500D01*
X37335933Y40939005D01*
X37335926Y40939002D01*
X37226952Y40868969D01*
X37142117Y40771062D01*
X37088302Y40653226D01*
X37069867Y40525003D01*
X24351538Y40525003D01*
X24336697Y40628226D01*
X24282882Y40746062D01*
X24282882Y40746063D01*
X24198049Y40843967D01*
X24198048Y40843968D01*
X24198047Y40843969D01*
X24089073Y40914002D01*
X24089070Y40914004D01*
X24089069Y40914004D01*
X24089066Y40914005D01*
X23964774Y40950500D01*
X23964772Y40950500D01*
X23835228Y40950500D01*
X23835225Y40950500D01*
X23710933Y40914005D01*
X23710926Y40914002D01*
X23601952Y40843969D01*
X23517117Y40746062D01*
X23463302Y40628226D01*
X23446363Y40510411D01*
X23419367Y40455503D01*
X23365253Y40426950D01*
X23348371Y40425500D01*
X23260225Y40425500D01*
X23135933Y40389005D01*
X23135926Y40389002D01*
X23026952Y40318969D01*
X22942117Y40221062D01*
X22888302Y40103226D01*
X22869867Y39975003D01*
X21349586Y39975003D01*
X21300000Y40025000D01*
X21195844Y40025000D01*
X19725330Y40025000D01*
X19718335Y40025500D01*
X19714772Y40025500D01*
X19585228Y40025500D01*
X19581665Y40025500D01*
X19574670Y40025000D01*
X18925330Y40025000D01*
X18918335Y40025500D01*
X18914772Y40025500D01*
X18785228Y40025500D01*
X18781665Y40025500D01*
X18774670Y40025000D01*
X18125330Y40025000D01*
X18118335Y40025500D01*
X18114772Y40025500D01*
X17985228Y40025500D01*
X17981665Y40025500D01*
X17974670Y40025000D01*
X17325330Y40025000D01*
X17318335Y40025500D01*
X17314772Y40025500D01*
X17185228Y40025500D01*
X17181665Y40025500D01*
X17174670Y40025000D01*
X15803552Y40025000D01*
X15700000Y40025000D01*
X15626780Y39951781D01*
X15626777Y39951778D01*
X15378657Y39703658D01*
X15324141Y39675881D01*
X15263709Y39685452D01*
X15244442Y39700530D01*
X15243402Y39699329D01*
X15238048Y39703968D01*
X15129073Y39774002D01*
X15129070Y39774004D01*
X15129069Y39774004D01*
X15104231Y39781297D01*
X15004774Y39810500D01*
X15004772Y39810500D01*
X14875228Y39810500D01*
X14875225Y39810500D01*
X14750933Y39774005D01*
X14750926Y39774002D01*
X14641952Y39703969D01*
X14557117Y39606062D01*
X14503302Y39488226D01*
X14484867Y39360003D01*
X14484867Y39359998D01*
X14503302Y39231775D01*
X14545068Y39140322D01*
X14557118Y39113937D01*
X14633872Y39025357D01*
X14641952Y39016032D01*
X14746250Y38949004D01*
X14750931Y38945996D01*
X14875228Y38909500D01*
X14875230Y38909500D01*
X15004770Y38909500D01*
X15004772Y38909500D01*
X15098110Y38936906D01*
X15159269Y38935159D01*
X15207722Y38897796D01*
X15225000Y38841916D01*
X15225000Y38575000D01*
X15298222Y38501778D01*
X15719883Y38080116D01*
X15732195Y38065114D01*
X15770029Y38008491D01*
X15784811Y37972805D01*
X15798098Y37906010D01*
X15800000Y37886695D01*
X15800000Y37742781D01*
X15798992Y37728692D01*
X15794867Y37700000D01*
X15798461Y37675000D01*
X15798992Y37671311D01*
X15800000Y37657221D01*
X15800000Y37500000D01*
X15873223Y37426777D01*
X16219883Y37080117D01*
X16494883Y36805117D01*
X16507195Y36790114D01*
X16545029Y36733491D01*
X16559811Y36697805D01*
X16569128Y36650965D01*
X16573098Y36631010D01*
X16575000Y36611695D01*
X16575000Y32088306D01*
X16573098Y32068991D01*
X16559811Y32002196D01*
X16545029Y31966510D01*
X16507195Y31909887D01*
X16494883Y31894884D01*
X16255116Y31655117D01*
X16240113Y31642805D01*
X16183490Y31604971D01*
X16147804Y31590189D01*
X16097865Y31580256D01*
X16081007Y31576902D01*
X16061695Y31575000D01*
X12438305Y31575000D01*
X12418992Y31576902D01*
X12396644Y31581347D01*
X12352195Y31590189D01*
X12316509Y31604971D01*
X12259886Y31642805D01*
X12244883Y31655117D01*
X11905116Y31994884D01*
X11892804Y32009887D01*
X11854970Y32066510D01*
X11840188Y32102198D01*
X11826902Y32168993D01*
X11825000Y32188306D01*
X11825000Y32325003D01*
X12119867Y32325003D01*
X12119867Y32324998D01*
X12138302Y32196775D01*
X12142170Y32188306D01*
X12192118Y32078937D01*
X12264949Y31994884D01*
X12276952Y31981032D01*
X12364140Y31925000D01*
X12385931Y31910996D01*
X12510228Y31874500D01*
X12510230Y31874500D01*
X12639770Y31874500D01*
X12639772Y31874500D01*
X12764069Y31910996D01*
X12873049Y31981033D01*
X12957882Y32078937D01*
X13011697Y32196774D01*
X13030133Y32325000D01*
X13028119Y32339005D01*
X13011697Y32453226D01*
X13005129Y32467607D01*
X12957882Y32571063D01*
X12873049Y32668967D01*
X12873048Y32668968D01*
X12873047Y32668969D01*
X12764073Y32739002D01*
X12764070Y32739004D01*
X12764069Y32739004D01*
X12764066Y32739005D01*
X12639774Y32775500D01*
X12639772Y32775500D01*
X12510228Y32775500D01*
X12510225Y32775500D01*
X12385933Y32739005D01*
X12385926Y32739002D01*
X12276952Y32668969D01*
X12192117Y32571062D01*
X12138302Y32453226D01*
X12119867Y32325003D01*
X11825000Y32325003D01*
X11825000Y35100003D01*
X13469867Y35100003D01*
X13469867Y35099998D01*
X13488302Y34971775D01*
X13531495Y34877198D01*
X13542118Y34853937D01*
X13619328Y34764831D01*
X13643145Y34708471D01*
X13629286Y34648876D01*
X13619330Y34635172D01*
X13588422Y34599501D01*
X13542117Y34546062D01*
X13488302Y34428226D01*
X13469867Y34300003D01*
X13469867Y34299998D01*
X13488302Y34171775D01*
X13516515Y34109998D01*
X13542118Y34053937D01*
X13604646Y33981775D01*
X13626952Y33956032D01*
X13646888Y33943220D01*
X13735931Y33885996D01*
X13860228Y33849500D01*
X13860230Y33849500D01*
X13989770Y33849500D01*
X13989772Y33849500D01*
X14114069Y33885996D01*
X14223049Y33956033D01*
X14307882Y34053937D01*
X14361697Y34171774D01*
X14370479Y34232854D01*
X14380133Y34299998D01*
X14380133Y34300003D01*
X14361697Y34428226D01*
X14346376Y34461774D01*
X14307882Y34546063D01*
X14230671Y34635170D01*
X14206854Y34691528D01*
X14220713Y34751124D01*
X14230672Y34764831D01*
X14307882Y34853937D01*
X14361697Y34971774D01*
X14375671Y35068967D01*
X14380133Y35099998D01*
X14380133Y35100003D01*
X14361697Y35228226D01*
X14307882Y35346063D01*
X14223049Y35443967D01*
X14223048Y35443968D01*
X14223047Y35443969D01*
X14114073Y35514002D01*
X14114070Y35514004D01*
X14114069Y35514004D01*
X14114066Y35514005D01*
X13989774Y35550500D01*
X13989772Y35550500D01*
X13860228Y35550500D01*
X13860225Y35550500D01*
X13735933Y35514005D01*
X13735926Y35514002D01*
X13626952Y35443969D01*
X13542117Y35346062D01*
X13488302Y35228226D01*
X13469867Y35100003D01*
X11825000Y35100003D01*
X11825000Y36849036D01*
X12444500Y36849036D01*
X12444500Y36650965D01*
X12483141Y36456708D01*
X12483141Y36456706D01*
X12558936Y36273720D01*
X12665655Y36114002D01*
X12668977Y36109031D01*
X12809031Y35968977D01*
X12973717Y35858938D01*
X12973718Y35858938D01*
X12973719Y35858937D01*
X13004800Y35846063D01*
X13156707Y35783141D01*
X13350967Y35744500D01*
X13350968Y35744500D01*
X13549032Y35744500D01*
X13549033Y35744500D01*
X13702381Y35775003D01*
X14819867Y35775003D01*
X14819867Y35774998D01*
X14838302Y35646775D01*
X14883972Y35546774D01*
X14892118Y35528937D01*
X14948381Y35464005D01*
X14976952Y35431032D01*
X15047025Y35385999D01*
X15085931Y35360996D01*
X15210228Y35324500D01*
X15210230Y35324500D01*
X15339770Y35324500D01*
X15339772Y35324500D01*
X15464069Y35360996D01*
X15573049Y35431033D01*
X15657882Y35528937D01*
X15711697Y35646774D01*
X15725748Y35744501D01*
X15730133Y35774998D01*
X15730133Y35775003D01*
X15711697Y35903226D01*
X15690336Y35950000D01*
X15657882Y36021063D01*
X15573049Y36118967D01*
X15573048Y36118968D01*
X15573047Y36118969D01*
X15464073Y36189002D01*
X15464070Y36189004D01*
X15464069Y36189004D01*
X15464066Y36189005D01*
X15339774Y36225500D01*
X15339772Y36225500D01*
X15210228Y36225500D01*
X15210225Y36225500D01*
X15085933Y36189005D01*
X15085926Y36189002D01*
X14976952Y36118969D01*
X14892117Y36021062D01*
X14838302Y35903226D01*
X14819867Y35775003D01*
X13702381Y35775003D01*
X13743293Y35783141D01*
X13926283Y35858938D01*
X14090969Y35968977D01*
X14231023Y36109031D01*
X14341062Y36273717D01*
X14416859Y36456707D01*
X14455500Y36650967D01*
X14455500Y36849033D01*
X14416859Y37043293D01*
X14341062Y37226283D01*
X14231023Y37390969D01*
X14090969Y37531023D01*
X14090954Y37531033D01*
X13926280Y37641064D01*
X13743293Y37716859D01*
X13549035Y37755500D01*
X13549033Y37755500D01*
X13350967Y37755500D01*
X13350964Y37755500D01*
X13156707Y37716859D01*
X13156705Y37716859D01*
X12973719Y37641064D01*
X12809034Y37531026D01*
X12668974Y37390966D01*
X12558936Y37226281D01*
X12483141Y37043295D01*
X12483141Y37043293D01*
X12444500Y36849036D01*
X11825000Y36849036D01*
X11825000Y39411695D01*
X11826902Y39431008D01*
X11840188Y39497803D01*
X11854968Y39533489D01*
X11892808Y39590120D01*
X11905111Y39605112D01*
X12251777Y39951777D01*
X12325000Y40025000D01*
X12325000Y41262721D01*
X38674500Y41262721D01*
X38674500Y40437280D01*
X38682025Y40380117D01*
X38689313Y40324764D01*
X38747302Y40184767D01*
X38839549Y40064549D01*
X38959767Y39972302D01*
X39099764Y39914313D01*
X39212280Y39899500D01*
X39212281Y39899500D01*
X40037719Y39899500D01*
X40037720Y39899500D01*
X40150236Y39914313D01*
X40290233Y39972302D01*
X40410451Y40064549D01*
X40502698Y40184767D01*
X40560687Y40324764D01*
X40575500Y40437280D01*
X40575500Y41262720D01*
X40560687Y41375236D01*
X40502698Y41515233D01*
X40410451Y41635451D01*
X40290233Y41727698D01*
X40150236Y41785687D01*
X40150234Y41785688D01*
X40150232Y41785688D01*
X40037720Y41800500D01*
X39212280Y41800500D01*
X39212279Y41800500D01*
X39099767Y41785688D01*
X39099761Y41785686D01*
X38959768Y41727699D01*
X38839551Y41635453D01*
X38839547Y41635449D01*
X38747301Y41515232D01*
X38689314Y41375239D01*
X38689312Y41375233D01*
X38674500Y41262721D01*
X12325000Y41262721D01*
X12325000Y42175003D01*
X14394867Y42175003D01*
X14394867Y42174998D01*
X14413302Y42046775D01*
X14444283Y41978937D01*
X14467118Y41928937D01*
X14551951Y41831033D01*
X14551952Y41831032D01*
X14639918Y41774500D01*
X14660931Y41760996D01*
X14785228Y41724500D01*
X14785230Y41724500D01*
X14914770Y41724500D01*
X14914772Y41724500D01*
X15039069Y41760996D01*
X15148049Y41831033D01*
X15232882Y41928937D01*
X15286697Y42046774D01*
X15293886Y42096775D01*
X15305133Y42174998D01*
X15305133Y42175003D01*
X15286697Y42303226D01*
X15255391Y42371775D01*
X15232882Y42421063D01*
X15148049Y42518967D01*
X15148048Y42518968D01*
X15148047Y42518969D01*
X15039073Y42589002D01*
X15039070Y42589004D01*
X15039069Y42589004D01*
X15012862Y42596699D01*
X14914774Y42625500D01*
X14914772Y42625500D01*
X14785228Y42625500D01*
X14785225Y42625500D01*
X14660933Y42589005D01*
X14660926Y42589002D01*
X14551952Y42518969D01*
X14467117Y42421062D01*
X14413302Y42303226D01*
X14394867Y42175003D01*
X12325000Y42175003D01*
X12325000Y42786695D01*
X12326902Y42806008D01*
X12340188Y42872803D01*
X12354968Y42908489D01*
X12382708Y42950005D01*
X17294901Y42950005D01*
X17294901Y42949996D01*
X17313251Y42763675D01*
X17313252Y42763672D01*
X17313253Y42763669D01*
X17354339Y42628226D01*
X17367605Y42584496D01*
X17367606Y42584494D01*
X17455859Y42419383D01*
X17455862Y42419378D01*
X17455864Y42419375D01*
X17494929Y42371774D01*
X17574638Y42274648D01*
X17574647Y42274639D01*
X17599873Y42253937D01*
X17719375Y42155864D01*
X17719380Y42155862D01*
X17719382Y42155860D01*
X17865734Y42077634D01*
X17884499Y42067604D01*
X18063669Y42013253D01*
X18063671Y42013253D01*
X18063674Y42013252D01*
X18249996Y41994901D01*
X18250000Y41994901D01*
X18250004Y41994901D01*
X18436325Y42013252D01*
X18436326Y42013253D01*
X18436331Y42013253D01*
X18615501Y42067604D01*
X18780625Y42155864D01*
X18864871Y42225003D01*
X21519867Y42225003D01*
X21519867Y42224998D01*
X21538302Y42096775D01*
X21584827Y41994901D01*
X21592118Y41978937D01*
X21635441Y41928939D01*
X21676952Y41881032D01*
X21754754Y41831032D01*
X21785931Y41810996D01*
X21910228Y41774500D01*
X21910230Y41774500D01*
X22039770Y41774500D01*
X22039772Y41774500D01*
X22164069Y41810996D01*
X22273049Y41881033D01*
X22357882Y41978937D01*
X22385710Y42039872D01*
X22410736Y42094669D01*
X22452108Y42139747D01*
X22512074Y42151898D01*
X22547457Y42140853D01*
X22684493Y42067607D01*
X22684499Y42067604D01*
X22863669Y42013253D01*
X22863671Y42013253D01*
X22863674Y42013252D01*
X23049996Y41994901D01*
X23050000Y41994901D01*
X23050004Y41994901D01*
X23236325Y42013252D01*
X23236326Y42013253D01*
X23236331Y42013253D01*
X23415501Y42067604D01*
X23580625Y42155864D01*
X23664871Y42225003D01*
X28644867Y42225003D01*
X28644867Y42224998D01*
X28663302Y42096775D01*
X28709827Y41994901D01*
X28717118Y41978937D01*
X28760441Y41928939D01*
X28801952Y41881032D01*
X28879754Y41831032D01*
X28910931Y41810996D01*
X29035228Y41774500D01*
X29035230Y41774500D01*
X29164770Y41774500D01*
X29164772Y41774500D01*
X29289069Y41810996D01*
X29398049Y41881033D01*
X29482882Y41978937D01*
X29536697Y42096774D01*
X29555133Y42225000D01*
X29550972Y42253939D01*
X29536697Y42353226D01*
X29506486Y42419377D01*
X29482882Y42471063D01*
X29398049Y42568967D01*
X29398048Y42568968D01*
X29398047Y42568969D01*
X29289073Y42639002D01*
X29289070Y42639004D01*
X29289069Y42639004D01*
X29274799Y42643194D01*
X29164774Y42675500D01*
X29164772Y42675500D01*
X29035228Y42675500D01*
X29035225Y42675500D01*
X28910933Y42639005D01*
X28910926Y42639002D01*
X28801952Y42568969D01*
X28717117Y42471062D01*
X28663302Y42353226D01*
X28644867Y42225003D01*
X23664871Y42225003D01*
X23725357Y42274643D01*
X23844136Y42419375D01*
X23932396Y42584499D01*
X23986747Y42763669D01*
X23988326Y42779692D01*
X24005099Y42949996D01*
X24005099Y42950005D01*
X31544901Y42950005D01*
X31544901Y42949996D01*
X31563251Y42763675D01*
X31563252Y42763672D01*
X31563253Y42763669D01*
X31604339Y42628226D01*
X31617605Y42584496D01*
X31617606Y42584494D01*
X31705859Y42419383D01*
X31705862Y42419378D01*
X31705864Y42419375D01*
X31744929Y42371774D01*
X31824638Y42274648D01*
X31824647Y42274639D01*
X31849873Y42253937D01*
X31969375Y42155864D01*
X31969380Y42155862D01*
X31969382Y42155860D01*
X32115734Y42077634D01*
X32134499Y42067604D01*
X32313669Y42013253D01*
X32313671Y42013253D01*
X32313674Y42013252D01*
X32499996Y41994901D01*
X32500000Y41994901D01*
X32500004Y41994901D01*
X32686325Y42013252D01*
X32686326Y42013253D01*
X32686331Y42013253D01*
X32865501Y42067604D01*
X33030625Y42155864D01*
X33175357Y42274643D01*
X33294136Y42419375D01*
X33382396Y42584499D01*
X33436747Y42763669D01*
X33438326Y42779692D01*
X33455099Y42949996D01*
X33455099Y42950005D01*
X36344901Y42950005D01*
X36344901Y42949996D01*
X36363251Y42763675D01*
X36363252Y42763672D01*
X36363253Y42763669D01*
X36404339Y42628226D01*
X36417605Y42584496D01*
X36417606Y42584494D01*
X36505859Y42419383D01*
X36505862Y42419378D01*
X36505864Y42419375D01*
X36544929Y42371774D01*
X36624638Y42274648D01*
X36624647Y42274639D01*
X36649873Y42253937D01*
X36769375Y42155864D01*
X36769380Y42155862D01*
X36769382Y42155860D01*
X36915734Y42077634D01*
X36934499Y42067604D01*
X37113669Y42013253D01*
X37113671Y42013253D01*
X37113674Y42013252D01*
X37299996Y41994901D01*
X37300000Y41994901D01*
X37300004Y41994901D01*
X37486325Y42013252D01*
X37486326Y42013253D01*
X37486331Y42013253D01*
X37665501Y42067604D01*
X37830625Y42155864D01*
X37975357Y42274643D01*
X38094136Y42419375D01*
X38137232Y42500003D01*
X39094867Y42500003D01*
X39094867Y42499998D01*
X39113302Y42371775D01*
X39167117Y42253939D01*
X39167118Y42253937D01*
X39235518Y42174998D01*
X39251952Y42156032D01*
X39360926Y42085999D01*
X39360931Y42085996D01*
X39485228Y42049500D01*
X39485230Y42049500D01*
X39614770Y42049500D01*
X39614772Y42049500D01*
X39739069Y42085996D01*
X39848049Y42156033D01*
X39864486Y42175003D01*
X42394867Y42175003D01*
X42394867Y42174998D01*
X42413302Y42046775D01*
X42444283Y41978937D01*
X42467118Y41928937D01*
X42551951Y41831033D01*
X42551952Y41831032D01*
X42639918Y41774500D01*
X42660931Y41760996D01*
X42785228Y41724500D01*
X42785230Y41724500D01*
X42914770Y41724500D01*
X42914772Y41724500D01*
X43039069Y41760996D01*
X43148049Y41831033D01*
X43232882Y41928937D01*
X43286697Y42046774D01*
X43293886Y42096775D01*
X43305133Y42174998D01*
X43305133Y42175003D01*
X43286697Y42303226D01*
X43255391Y42371775D01*
X43232882Y42421063D01*
X43148049Y42518967D01*
X43148048Y42518968D01*
X43148047Y42518969D01*
X43039073Y42589002D01*
X43039070Y42589004D01*
X43039069Y42589004D01*
X43012862Y42596699D01*
X42914774Y42625500D01*
X42914772Y42625500D01*
X42785228Y42625500D01*
X42785225Y42625500D01*
X42660933Y42589005D01*
X42660926Y42589002D01*
X42551952Y42518969D01*
X42467117Y42421062D01*
X42413302Y42303226D01*
X42394867Y42175003D01*
X39864486Y42175003D01*
X39932882Y42253937D01*
X39986697Y42371774D01*
X39993784Y42421063D01*
X40005133Y42499998D01*
X40005133Y42500002D01*
X39999898Y42536410D01*
X40010331Y42596699D01*
X40054209Y42639342D01*
X40097890Y42649500D01*
X40174770Y42649500D01*
X40174772Y42649500D01*
X40299069Y42685996D01*
X40408049Y42756033D01*
X40492882Y42853937D01*
X40536755Y42950005D01*
X45794901Y42950005D01*
X45794901Y42949996D01*
X45813251Y42763675D01*
X45813252Y42763672D01*
X45813253Y42763669D01*
X45854339Y42628226D01*
X45867605Y42584496D01*
X45867606Y42584494D01*
X45955859Y42419383D01*
X45955862Y42419378D01*
X45955864Y42419375D01*
X45994929Y42371774D01*
X46074638Y42274648D01*
X46074647Y42274639D01*
X46099873Y42253937D01*
X46219375Y42155864D01*
X46219380Y42155862D01*
X46219382Y42155860D01*
X46365734Y42077634D01*
X46384499Y42067604D01*
X46563669Y42013253D01*
X46563671Y42013253D01*
X46563674Y42013252D01*
X46749996Y41994901D01*
X46750000Y41994901D01*
X46750004Y41994901D01*
X46936325Y42013252D01*
X46936326Y42013253D01*
X46936331Y42013253D01*
X47115501Y42067604D01*
X47280625Y42155864D01*
X47425357Y42274643D01*
X47544136Y42419375D01*
X47632396Y42584499D01*
X47686747Y42763669D01*
X47688326Y42779692D01*
X47705099Y42949996D01*
X47705099Y42950005D01*
X47686748Y43136326D01*
X47686747Y43136329D01*
X47686747Y43136331D01*
X47632396Y43315501D01*
X47632393Y43315507D01*
X47544140Y43480618D01*
X47544138Y43480620D01*
X47544136Y43480625D01*
X47459547Y43583697D01*
X47425361Y43625353D01*
X47425352Y43625362D01*
X47303942Y43725000D01*
X47280625Y43744136D01*
X47280622Y43744138D01*
X47280617Y43744141D01*
X47115506Y43832394D01*
X47115504Y43832395D01*
X47103623Y43835999D01*
X46955171Y43881032D01*
X46936328Y43886748D01*
X46936325Y43886749D01*
X46750004Y43905099D01*
X46749996Y43905099D01*
X46563674Y43886749D01*
X46563671Y43886748D01*
X46384495Y43832395D01*
X46384493Y43832394D01*
X46219382Y43744141D01*
X46219376Y43744137D01*
X46074647Y43625362D01*
X46074638Y43625353D01*
X45955863Y43480624D01*
X45955859Y43480618D01*
X45867606Y43315507D01*
X45867605Y43315505D01*
X45813252Y43136329D01*
X45813251Y43136326D01*
X45794901Y42950005D01*
X40536755Y42950005D01*
X40546697Y42971774D01*
X40565133Y43100000D01*
X40561610Y43124500D01*
X40546697Y43228226D01*
X40514146Y43299501D01*
X40492882Y43346063D01*
X40408049Y43443967D01*
X40408048Y43443968D01*
X40408047Y43443969D01*
X40299073Y43514002D01*
X40299070Y43514004D01*
X40299069Y43514004D01*
X40299066Y43514005D01*
X40174774Y43550500D01*
X40174772Y43550500D01*
X40045228Y43550500D01*
X40045225Y43550500D01*
X39920933Y43514005D01*
X39920926Y43514002D01*
X39811952Y43443969D01*
X39727117Y43346062D01*
X39673302Y43228226D01*
X39654867Y43100003D01*
X39654867Y43099999D01*
X39660102Y43063590D01*
X39649669Y43003301D01*
X39605791Y42960658D01*
X39562110Y42950500D01*
X39485225Y42950500D01*
X39360933Y42914005D01*
X39360926Y42914002D01*
X39251952Y42843969D01*
X39167117Y42746062D01*
X39113302Y42628226D01*
X39094867Y42500003D01*
X38137232Y42500003D01*
X38182396Y42584499D01*
X38236747Y42763669D01*
X38238326Y42779692D01*
X38255099Y42949996D01*
X38255099Y42950005D01*
X38236748Y43136326D01*
X38236747Y43136329D01*
X38236747Y43136331D01*
X38182396Y43315501D01*
X38182393Y43315507D01*
X38094140Y43480618D01*
X38094138Y43480620D01*
X38094136Y43480625D01*
X38016682Y43575003D01*
X42719867Y43575003D01*
X42719867Y43574998D01*
X42738302Y43446775D01*
X42792117Y43328939D01*
X42792118Y43328937D01*
X42817625Y43299500D01*
X42876952Y43231032D01*
X42985926Y43160999D01*
X42985931Y43160996D01*
X43110228Y43124500D01*
X43110230Y43124500D01*
X43239770Y43124500D01*
X43239772Y43124500D01*
X43364069Y43160996D01*
X43473049Y43231033D01*
X43557882Y43328937D01*
X43611697Y43446774D01*
X43624526Y43535999D01*
X43630133Y43574998D01*
X43630133Y43575003D01*
X43611697Y43703226D01*
X43593013Y43744137D01*
X43557882Y43821063D01*
X43473049Y43918967D01*
X43473048Y43918968D01*
X43473047Y43918969D01*
X43364073Y43989002D01*
X43364070Y43989004D01*
X43364069Y43989004D01*
X43364066Y43989005D01*
X43239774Y44025500D01*
X43239772Y44025500D01*
X43110228Y44025500D01*
X43110225Y44025500D01*
X42985933Y43989005D01*
X42985926Y43989002D01*
X42876952Y43918969D01*
X42792117Y43821062D01*
X42738302Y43703226D01*
X42719867Y43575003D01*
X38016682Y43575003D01*
X38009547Y43583697D01*
X37975361Y43625353D01*
X37975352Y43625362D01*
X37853942Y43725000D01*
X37830625Y43744136D01*
X37830622Y43744138D01*
X37830617Y43744141D01*
X37665506Y43832394D01*
X37665504Y43832395D01*
X37653623Y43835999D01*
X37505171Y43881032D01*
X37486328Y43886748D01*
X37486325Y43886749D01*
X37300004Y43905099D01*
X37299996Y43905099D01*
X37113674Y43886749D01*
X37113671Y43886748D01*
X36934495Y43832395D01*
X36934493Y43832394D01*
X36769382Y43744141D01*
X36769376Y43744137D01*
X36624647Y43625362D01*
X36624638Y43625353D01*
X36505863Y43480624D01*
X36505859Y43480618D01*
X36417606Y43315507D01*
X36417605Y43315505D01*
X36363252Y43136329D01*
X36363251Y43136326D01*
X36344901Y42950005D01*
X33455099Y42950005D01*
X33436748Y43136326D01*
X33436747Y43136329D01*
X33436747Y43136331D01*
X33382396Y43315501D01*
X33382393Y43315507D01*
X33294140Y43480618D01*
X33294138Y43480620D01*
X33294136Y43480625D01*
X33209547Y43583697D01*
X33175361Y43625353D01*
X33175352Y43625362D01*
X33053942Y43725000D01*
X33030625Y43744136D01*
X33030622Y43744138D01*
X33030617Y43744141D01*
X32865506Y43832394D01*
X32865504Y43832395D01*
X32853623Y43835999D01*
X32705171Y43881032D01*
X32686328Y43886748D01*
X32686325Y43886749D01*
X32500004Y43905099D01*
X32499996Y43905099D01*
X32313674Y43886749D01*
X32313671Y43886748D01*
X32134495Y43832395D01*
X32134493Y43832394D01*
X31969382Y43744141D01*
X31969376Y43744137D01*
X31824647Y43625362D01*
X31824638Y43625353D01*
X31705863Y43480624D01*
X31705859Y43480618D01*
X31617606Y43315507D01*
X31617605Y43315505D01*
X31563252Y43136329D01*
X31563251Y43136326D01*
X31544901Y42950005D01*
X24005099Y42950005D01*
X23986748Y43136326D01*
X23986747Y43136329D01*
X23986747Y43136331D01*
X23932396Y43315501D01*
X23932393Y43315507D01*
X23844140Y43480618D01*
X23844138Y43480620D01*
X23844136Y43480625D01*
X23759547Y43583697D01*
X23735749Y43612695D01*
X23713449Y43669672D01*
X23728898Y43728875D01*
X23776195Y43767690D01*
X23812277Y43774500D01*
X23814770Y43774500D01*
X23814772Y43774500D01*
X23939069Y43810996D01*
X24048049Y43881033D01*
X24132882Y43978937D01*
X24147070Y44010003D01*
X26404867Y44010003D01*
X26404867Y44009998D01*
X26423302Y43881775D01*
X26472294Y43774500D01*
X26477118Y43763937D01*
X26532952Y43699500D01*
X26561952Y43666032D01*
X26670926Y43595999D01*
X26670931Y43595996D01*
X26795228Y43559500D01*
X26795230Y43559500D01*
X26924770Y43559500D01*
X26924772Y43559500D01*
X27049069Y43595996D01*
X27131008Y43648656D01*
X27190179Y43664209D01*
X27247195Y43642011D01*
X27259348Y43630200D01*
X27301950Y43581034D01*
X27301951Y43581033D01*
X27406253Y43514002D01*
X27410931Y43510996D01*
X27535228Y43474500D01*
X27535230Y43474500D01*
X27664770Y43474500D01*
X27664772Y43474500D01*
X27789069Y43510996D01*
X27864543Y43559500D01*
X27904006Y43584861D01*
X27904754Y43583697D01*
X27954021Y43604521D01*
X28013617Y43590667D01*
X28026319Y43581439D01*
X28131253Y43514002D01*
X28135931Y43510996D01*
X28260228Y43474500D01*
X28260230Y43474500D01*
X28389770Y43474500D01*
X28389772Y43474500D01*
X28514069Y43510996D01*
X28623049Y43581033D01*
X28707882Y43678937D01*
X28761697Y43796774D01*
X28773408Y43878226D01*
X28780133Y43924998D01*
X28780133Y43925003D01*
X28776538Y43950003D01*
X29994867Y43950003D01*
X29994867Y43949998D01*
X30013302Y43821775D01*
X30052477Y43735996D01*
X30067118Y43703937D01*
X30151950Y43606034D01*
X30151952Y43606032D01*
X30217085Y43564174D01*
X30260931Y43535996D01*
X30385228Y43499500D01*
X30385230Y43499500D01*
X30514770Y43499500D01*
X30514772Y43499500D01*
X30639069Y43535996D01*
X30748049Y43606033D01*
X30759027Y43618704D01*
X30762680Y43622918D01*
X30815076Y43654515D01*
X30876037Y43649280D01*
X30912320Y43622918D01*
X30926950Y43606034D01*
X30926951Y43606033D01*
X30987589Y43567063D01*
X31035931Y43535996D01*
X31160228Y43499500D01*
X31160230Y43499500D01*
X31289770Y43499500D01*
X31289772Y43499500D01*
X31414069Y43535996D01*
X31523049Y43606033D01*
X31607882Y43703937D01*
X31661697Y43821774D01*
X31673510Y43903937D01*
X31680133Y43949998D01*
X31680132Y43950003D01*
X31678492Y43961413D01*
X31688927Y44021701D01*
X31732805Y44064343D01*
X31776485Y44074500D01*
X31864770Y44074500D01*
X31864772Y44074500D01*
X31989069Y44110996D01*
X32098049Y44181033D01*
X32182882Y44278937D01*
X32236697Y44396774D01*
X32247944Y44475000D01*
X32255133Y44524998D01*
X32255133Y44525003D01*
X32236697Y44653226D01*
X32205391Y44721775D01*
X32182882Y44771063D01*
X32114481Y44850003D01*
X33344867Y44850003D01*
X33344867Y44849998D01*
X33363302Y44721775D01*
X33417118Y44603937D01*
X33451003Y44564830D01*
X33474820Y44508470D01*
X33460961Y44448875D01*
X33451003Y44435170D01*
X33417118Y44396064D01*
X33363302Y44278226D01*
X33344867Y44150003D01*
X33344867Y44149998D01*
X33363302Y44021775D01*
X33409627Y43920339D01*
X33417118Y43903937D01*
X33488990Y43820991D01*
X33501952Y43806032D01*
X33589140Y43750000D01*
X33610931Y43735996D01*
X33735228Y43699500D01*
X33735230Y43699500D01*
X33864770Y43699500D01*
X33864772Y43699500D01*
X33989069Y43735996D01*
X34098049Y43806033D01*
X34122885Y43834697D01*
X34175280Y43866293D01*
X34236241Y43861058D01*
X34282483Y43820991D01*
X34296342Y43761396D01*
X34295698Y43755787D01*
X34294868Y43750003D01*
X34294867Y43749998D01*
X34313302Y43621775D01*
X34362521Y43514002D01*
X34367118Y43503937D01*
X34419080Y43443969D01*
X34451952Y43406032D01*
X34560363Y43336361D01*
X34560931Y43335996D01*
X34685228Y43299500D01*
X34685230Y43299500D01*
X34814770Y43299500D01*
X34814772Y43299500D01*
X34939069Y43335996D01*
X35048049Y43406033D01*
X35132882Y43503937D01*
X35186697Y43621774D01*
X35197872Y43699500D01*
X35205133Y43749998D01*
X35205133Y43750003D01*
X35186697Y43878226D01*
X35165334Y43925003D01*
X35132882Y43996063D01*
X35048049Y44093967D01*
X35048048Y44093968D01*
X35048047Y44093969D01*
X34939073Y44164002D01*
X34939070Y44164004D01*
X34939069Y44164004D01*
X34939066Y44164005D01*
X34814774Y44200500D01*
X34814772Y44200500D01*
X34685228Y44200500D01*
X34685225Y44200500D01*
X34560933Y44164005D01*
X34560926Y44164002D01*
X34451951Y44093968D01*
X34451948Y44093966D01*
X34427112Y44065303D01*
X34374716Y44033708D01*
X34313755Y44038944D01*
X34267515Y44079013D01*
X34253657Y44138608D01*
X34254300Y44144213D01*
X34255133Y44150000D01*
X34253119Y44164005D01*
X34236697Y44278226D01*
X34223998Y44306033D01*
X34182882Y44396063D01*
X34148997Y44435169D01*
X34125179Y44491528D01*
X34139038Y44551124D01*
X34148997Y44564831D01*
X34152581Y44568967D01*
X34157811Y44575003D01*
X36244868Y44575003D01*
X36244868Y44574998D01*
X36263303Y44446775D01*
X36312522Y44339002D01*
X36317119Y44328937D01*
X36385519Y44249998D01*
X36401953Y44231032D01*
X36510927Y44160999D01*
X36510932Y44160996D01*
X36635229Y44124500D01*
X36635231Y44124500D01*
X36764771Y44124500D01*
X36764773Y44124500D01*
X36889070Y44160996D01*
X36998050Y44231033D01*
X37014487Y44250003D01*
X45344867Y44250003D01*
X45344867Y44249998D01*
X45363302Y44121775D01*
X45408972Y44021774D01*
X45417118Y44003937D01*
X45501951Y43906033D01*
X45501952Y43906032D01*
X45610926Y43835999D01*
X45610931Y43835996D01*
X45735228Y43799500D01*
X45735230Y43799500D01*
X45864770Y43799500D01*
X45864772Y43799500D01*
X45989069Y43835996D01*
X46098049Y43906033D01*
X46182882Y44003937D01*
X46236697Y44121774D01*
X46247872Y44199500D01*
X46255133Y44249998D01*
X46255133Y44250003D01*
X46236697Y44378226D01*
X46228551Y44396063D01*
X46182882Y44496063D01*
X46098049Y44593967D01*
X46098048Y44593968D01*
X46098047Y44593969D01*
X45989073Y44664002D01*
X45989070Y44664004D01*
X45989069Y44664004D01*
X45989066Y44664005D01*
X45864774Y44700500D01*
X45864772Y44700500D01*
X45735228Y44700500D01*
X45735225Y44700500D01*
X45610933Y44664005D01*
X45610926Y44664002D01*
X45501952Y44593969D01*
X45417117Y44496062D01*
X45363302Y44378226D01*
X45344867Y44250003D01*
X37014487Y44250003D01*
X37082883Y44328937D01*
X37136698Y44446774D01*
X37145218Y44506033D01*
X37155134Y44574998D01*
X37155134Y44575003D01*
X37136698Y44703226D01*
X37105718Y44771062D01*
X37082883Y44821063D01*
X36998050Y44918967D01*
X36998049Y44918968D01*
X36998048Y44918969D01*
X36889074Y44989002D01*
X36889071Y44989004D01*
X36889070Y44989004D01*
X36889067Y44989005D01*
X36764775Y45025500D01*
X36764773Y45025500D01*
X36635229Y45025500D01*
X36635226Y45025500D01*
X36510934Y44989005D01*
X36510927Y44989002D01*
X36401953Y44918969D01*
X36317118Y44821062D01*
X36263303Y44703226D01*
X36244868Y44575003D01*
X34157811Y44575003D01*
X34182882Y44603937D01*
X34236697Y44721774D01*
X34248762Y44805689D01*
X34255133Y44849998D01*
X34255133Y44850003D01*
X34236697Y44978226D01*
X34197523Y45064004D01*
X34182882Y45096063D01*
X34098049Y45193967D01*
X34098048Y45193968D01*
X34098047Y45193969D01*
X33989073Y45264002D01*
X33989070Y45264004D01*
X33989069Y45264004D01*
X33989066Y45264005D01*
X33864774Y45300500D01*
X33864772Y45300500D01*
X33735228Y45300500D01*
X33735225Y45300500D01*
X33610933Y45264005D01*
X33610926Y45264002D01*
X33501952Y45193969D01*
X33417117Y45096062D01*
X33363302Y44978226D01*
X33344867Y44850003D01*
X32114481Y44850003D01*
X32098049Y44868967D01*
X32098048Y44868968D01*
X32098047Y44868969D01*
X31989073Y44939002D01*
X31989070Y44939004D01*
X31989069Y44939004D01*
X31989066Y44939005D01*
X31864774Y44975500D01*
X31864772Y44975500D01*
X31735228Y44975500D01*
X31735225Y44975500D01*
X31610933Y44939005D01*
X31610926Y44939002D01*
X31501952Y44868969D01*
X31417117Y44771062D01*
X31363302Y44653226D01*
X31344867Y44525003D01*
X31344867Y44525000D01*
X31345331Y44521775D01*
X31346508Y44513588D01*
X31336073Y44453299D01*
X31292195Y44410657D01*
X31248515Y44400500D01*
X31160225Y44400500D01*
X31035933Y44364005D01*
X31035926Y44364002D01*
X30926951Y44293968D01*
X30912319Y44277081D01*
X30859922Y44245486D01*
X30798961Y44250722D01*
X30762681Y44277081D01*
X30748048Y44293968D01*
X30639073Y44364002D01*
X30639070Y44364004D01*
X30639069Y44364004D01*
X30639066Y44364005D01*
X30514774Y44400500D01*
X30514772Y44400500D01*
X30385228Y44400500D01*
X30385225Y44400500D01*
X30260933Y44364005D01*
X30260926Y44364002D01*
X30151952Y44293969D01*
X30067117Y44196062D01*
X30013302Y44078226D01*
X29994867Y43950003D01*
X28776538Y43950003D01*
X28761697Y44053226D01*
X28743091Y44093967D01*
X28707882Y44171063D01*
X28623049Y44268967D01*
X28623048Y44268968D01*
X28623047Y44268969D01*
X28514073Y44339002D01*
X28514070Y44339004D01*
X28514069Y44339004D01*
X28514066Y44339005D01*
X28389774Y44375500D01*
X28389772Y44375500D01*
X28260228Y44375500D01*
X28260225Y44375500D01*
X28135933Y44339005D01*
X28135926Y44339002D01*
X28020994Y44265139D01*
X28020246Y44266302D01*
X27970967Y44245479D01*
X27911373Y44259340D01*
X27898678Y44268563D01*
X27789073Y44339002D01*
X27789070Y44339004D01*
X27789069Y44339004D01*
X27789066Y44339005D01*
X27664774Y44375500D01*
X27664772Y44375500D01*
X27535228Y44375500D01*
X27535225Y44375500D01*
X27410933Y44339005D01*
X27410926Y44339002D01*
X27328994Y44286347D01*
X27269819Y44270792D01*
X27212803Y44292991D01*
X27200651Y44304801D01*
X27158049Y44353967D01*
X27158048Y44353968D01*
X27049073Y44424002D01*
X27049070Y44424004D01*
X27049069Y44424004D01*
X27011044Y44435169D01*
X26924774Y44460500D01*
X26924772Y44460500D01*
X26795228Y44460500D01*
X26795225Y44460500D01*
X26670933Y44424005D01*
X26670926Y44424002D01*
X26561952Y44353969D01*
X26477117Y44256062D01*
X26423302Y44138226D01*
X26404867Y44010003D01*
X24147070Y44010003D01*
X24186697Y44096774D01*
X24197378Y44171063D01*
X24205133Y44224998D01*
X24205133Y44225003D01*
X24186697Y44353226D01*
X24176525Y44375500D01*
X24132882Y44471063D01*
X24064481Y44550003D01*
X28794867Y44550003D01*
X28794867Y44549998D01*
X28813302Y44421775D01*
X28839686Y44364004D01*
X28867118Y44303937D01*
X28935518Y44224998D01*
X28951952Y44206032D01*
X29057461Y44138226D01*
X29060931Y44135996D01*
X29185228Y44099500D01*
X29185230Y44099500D01*
X29314770Y44099500D01*
X29314772Y44099500D01*
X29439069Y44135996D01*
X29548049Y44206033D01*
X29632882Y44303937D01*
X29686697Y44421774D01*
X29697944Y44500000D01*
X29705133Y44549998D01*
X29705133Y44550003D01*
X29686697Y44678226D01*
X29666809Y44721774D01*
X29632882Y44796063D01*
X29548049Y44893967D01*
X29548048Y44893968D01*
X29548047Y44893969D01*
X29439073Y44964002D01*
X29439070Y44964004D01*
X29439069Y44964004D01*
X29439066Y44964005D01*
X29314774Y45000500D01*
X29314772Y45000500D01*
X29185228Y45000500D01*
X29185225Y45000500D01*
X29060933Y44964005D01*
X29060926Y44964002D01*
X28951952Y44893969D01*
X28867117Y44796062D01*
X28813302Y44678226D01*
X28794867Y44550003D01*
X24064481Y44550003D01*
X24048049Y44568967D01*
X24048048Y44568968D01*
X24048047Y44568969D01*
X23939073Y44639002D01*
X23939070Y44639004D01*
X23939069Y44639004D01*
X23939066Y44639005D01*
X23814774Y44675500D01*
X23814772Y44675500D01*
X23685228Y44675500D01*
X23685225Y44675500D01*
X23560933Y44639005D01*
X23560926Y44639002D01*
X23451952Y44568969D01*
X23367117Y44471062D01*
X23313302Y44353226D01*
X23294867Y44225003D01*
X23294867Y44224998D01*
X23313302Y44096775D01*
X23313302Y44096773D01*
X23346133Y44024885D01*
X23353108Y43964099D01*
X23323022Y43910822D01*
X23267366Y43885404D01*
X23241192Y43886479D01*
X23241172Y43886271D01*
X23237544Y43886629D01*
X23236772Y43886660D01*
X23236330Y43886748D01*
X23050004Y43905099D01*
X23049996Y43905099D01*
X22863674Y43886749D01*
X22863671Y43886748D01*
X22684495Y43832395D01*
X22684493Y43832394D01*
X22519382Y43744141D01*
X22519376Y43744137D01*
X22374647Y43625362D01*
X22374638Y43625353D01*
X22255863Y43480624D01*
X22255859Y43480618D01*
X22167606Y43315507D01*
X22167605Y43315505D01*
X22113252Y43136329D01*
X22113251Y43136326D01*
X22094901Y42950005D01*
X22094901Y42949997D01*
X22111230Y42784204D01*
X22098118Y42724440D01*
X22052381Y42683797D01*
X22012707Y42675500D01*
X21910225Y42675500D01*
X21785933Y42639005D01*
X21785926Y42639002D01*
X21676952Y42568969D01*
X21592117Y42471062D01*
X21538302Y42353226D01*
X21519867Y42225003D01*
X18864871Y42225003D01*
X18925357Y42274643D01*
X19044136Y42419375D01*
X19132396Y42584499D01*
X19186747Y42763669D01*
X19188326Y42779692D01*
X19205099Y42949996D01*
X19205099Y42950005D01*
X19186748Y43136326D01*
X19186747Y43136329D01*
X19186747Y43136331D01*
X19132396Y43315501D01*
X19132393Y43315507D01*
X19044140Y43480618D01*
X19044138Y43480620D01*
X19044136Y43480625D01*
X18959547Y43583697D01*
X18925361Y43625353D01*
X18925352Y43625362D01*
X18803942Y43725000D01*
X18780625Y43744136D01*
X18780622Y43744138D01*
X18780617Y43744141D01*
X18615506Y43832394D01*
X18615504Y43832395D01*
X18603623Y43835999D01*
X18455171Y43881032D01*
X18436328Y43886748D01*
X18436325Y43886749D01*
X18250004Y43905099D01*
X18249996Y43905099D01*
X18063674Y43886749D01*
X18063671Y43886748D01*
X17884495Y43832395D01*
X17884493Y43832394D01*
X17719382Y43744141D01*
X17719376Y43744137D01*
X17574647Y43625362D01*
X17574638Y43625353D01*
X17455863Y43480624D01*
X17455859Y43480618D01*
X17367606Y43315507D01*
X17367605Y43315505D01*
X17313252Y43136329D01*
X17313251Y43136326D01*
X17294901Y42950005D01*
X12382708Y42950005D01*
X12392808Y42965120D01*
X12405111Y42980112D01*
X13369888Y43944889D01*
X13384880Y43957192D01*
X13441511Y43995032D01*
X13477196Y44009812D01*
X13510782Y44016493D01*
X13543992Y44023098D01*
X13563305Y44025000D01*
X16246446Y44025000D01*
X16246447Y44025000D01*
X16350000Y44025000D01*
X16975003Y44650003D01*
X19094867Y44650003D01*
X19094867Y44649998D01*
X19113302Y44521775D01*
X19158972Y44421774D01*
X19167118Y44403937D01*
X19210415Y44353969D01*
X19251952Y44306032D01*
X19339140Y44250000D01*
X19360931Y44235996D01*
X19485228Y44199500D01*
X19485230Y44199500D01*
X19614770Y44199500D01*
X19614772Y44199500D01*
X19739069Y44235996D01*
X19848049Y44306033D01*
X19932882Y44403937D01*
X19986697Y44521774D01*
X20002680Y44632937D01*
X20005133Y44649998D01*
X20005133Y44650003D01*
X19986697Y44778226D01*
X19953919Y44849998D01*
X19932882Y44896063D01*
X19848049Y44993967D01*
X19848048Y44993968D01*
X19848047Y44993969D01*
X19739073Y45064002D01*
X19739070Y45064004D01*
X19739069Y45064004D01*
X19739066Y45064005D01*
X19614774Y45100500D01*
X19614772Y45100500D01*
X19485228Y45100500D01*
X19485225Y45100500D01*
X19360933Y45064005D01*
X19360926Y45064002D01*
X19251952Y44993969D01*
X19167117Y44896062D01*
X19113302Y44778226D01*
X19094867Y44650003D01*
X16975003Y44650003D01*
X18938255Y46613256D01*
X18992768Y46641030D01*
X19053200Y46631459D01*
X19096465Y46588194D01*
X19106247Y46529161D01*
X19094867Y46450005D01*
X19094867Y46449998D01*
X19113302Y46321775D01*
X19166176Y46205999D01*
X19167118Y46203937D01*
X19219781Y46143160D01*
X19251952Y46106032D01*
X19360926Y46035999D01*
X19360931Y46035996D01*
X19485228Y45999500D01*
X19485230Y45999500D01*
X19614770Y45999500D01*
X19614772Y45999500D01*
X19739069Y46035996D01*
X19848049Y46106033D01*
X19932882Y46203937D01*
X19986697Y46321774D01*
X19987161Y46325003D01*
X23019867Y46325003D01*
X23019867Y46324998D01*
X23038302Y46196775D01*
X23085254Y46093967D01*
X23092118Y46078937D01*
X23163928Y45996063D01*
X23176952Y45981032D01*
X23231367Y45946062D01*
X23285931Y45910996D01*
X23410228Y45874500D01*
X23410230Y45874500D01*
X23539770Y45874500D01*
X23539772Y45874500D01*
X23664069Y45910996D01*
X23773049Y45981033D01*
X23784027Y45993704D01*
X23787680Y45997918D01*
X23840076Y46029515D01*
X23901037Y46024280D01*
X23937320Y45997918D01*
X23951950Y45981034D01*
X23951951Y45981033D01*
X24006365Y45946063D01*
X24060931Y45910996D01*
X24149635Y45884951D01*
X24160226Y45881841D01*
X24210733Y45847306D01*
X24231295Y45789679D01*
X24230328Y45772763D01*
X24222993Y45721749D01*
X24219868Y45700003D01*
X24219867Y45699998D01*
X24238302Y45571775D01*
X24269283Y45503937D01*
X24292118Y45453937D01*
X24352392Y45384376D01*
X24376952Y45356032D01*
X24463362Y45300500D01*
X24485931Y45285996D01*
X24610228Y45249500D01*
X24610230Y45249500D01*
X24739770Y45249500D01*
X24739772Y45249500D01*
X24864069Y45285996D01*
X24973049Y45356033D01*
X25057882Y45453937D01*
X25111697Y45571774D01*
X25130133Y45700000D01*
X25119671Y45772763D01*
X25111697Y45828226D01*
X25090564Y45874500D01*
X25057882Y45946063D01*
X24973049Y46043967D01*
X24973048Y46043968D01*
X24973047Y46043969D01*
X24864073Y46114002D01*
X24864070Y46114003D01*
X24864069Y46114004D01*
X24811995Y46129294D01*
X24764772Y46143160D01*
X24714266Y46177696D01*
X24693704Y46235323D01*
X24694672Y46252239D01*
X24705133Y46324998D01*
X24705133Y46325003D01*
X24686697Y46453226D01*
X24671386Y46486752D01*
X24632882Y46571063D01*
X24548049Y46668967D01*
X24548048Y46668968D01*
X24548047Y46668969D01*
X24439073Y46739002D01*
X24439070Y46739004D01*
X24439069Y46739004D01*
X24439066Y46739005D01*
X24314774Y46775500D01*
X24314772Y46775500D01*
X24185228Y46775500D01*
X24185225Y46775500D01*
X24060933Y46739005D01*
X24060926Y46739002D01*
X23951951Y46668968D01*
X23937319Y46652081D01*
X23884922Y46620486D01*
X23823961Y46625722D01*
X23787681Y46652081D01*
X23773048Y46668968D01*
X23664073Y46739002D01*
X23664070Y46739004D01*
X23664069Y46739004D01*
X23664066Y46739005D01*
X23539774Y46775500D01*
X23539772Y46775500D01*
X23410228Y46775500D01*
X23410225Y46775500D01*
X23285933Y46739005D01*
X23285926Y46739002D01*
X23176952Y46668969D01*
X23092117Y46571062D01*
X23038302Y46453226D01*
X23019867Y46325003D01*
X19987161Y46325003D01*
X20005133Y46450000D01*
X20005132Y46450005D01*
X19986697Y46578226D01*
X19967397Y46620486D01*
X19932882Y46696063D01*
X19848049Y46793967D01*
X19848048Y46793968D01*
X19848047Y46793969D01*
X19739073Y46864002D01*
X19739070Y46864004D01*
X19739069Y46864004D01*
X19732057Y46866063D01*
X19614774Y46900500D01*
X19614772Y46900500D01*
X19485228Y46900500D01*
X19485226Y46900500D01*
X19478218Y46899492D01*
X19477835Y46902150D01*
X19428522Y46903568D01*
X19380077Y46940941D01*
X19362851Y46999651D01*
X19383424Y47057274D01*
X19391791Y47066792D01*
X19775002Y47450003D01*
X23494867Y47450003D01*
X23494867Y47449998D01*
X23513302Y47321775D01*
X23546080Y47250003D01*
X23567118Y47203937D01*
X23651951Y47106033D01*
X23651952Y47106032D01*
X23760926Y47035999D01*
X23760931Y47035996D01*
X23885228Y46999500D01*
X23885230Y46999500D01*
X24014770Y46999500D01*
X24014772Y46999500D01*
X24139069Y47035996D01*
X24248049Y47106033D01*
X24332882Y47203937D01*
X24353920Y47250003D01*
X26544867Y47250003D01*
X26544867Y47249998D01*
X26563302Y47121775D01*
X26602477Y47035996D01*
X26617118Y47003937D01*
X26671704Y46940941D01*
X26701952Y46906032D01*
X26810926Y46835999D01*
X26810931Y46835996D01*
X26935228Y46799500D01*
X26935230Y46799500D01*
X27064770Y46799500D01*
X27064772Y46799500D01*
X27189069Y46835996D01*
X27287871Y46899492D01*
X27304006Y46909861D01*
X27304754Y46908697D01*
X27354021Y46929521D01*
X27413617Y46915667D01*
X27426319Y46906439D01*
X27531253Y46839002D01*
X27535931Y46835996D01*
X27660228Y46799500D01*
X27660230Y46799500D01*
X27789770Y46799500D01*
X27789772Y46799500D01*
X27914069Y46835996D01*
X28023049Y46906033D01*
X28107882Y47003937D01*
X28161697Y47121774D01*
X28170931Y47185999D01*
X28180133Y47249998D01*
X28180133Y47250003D01*
X28161697Y47378226D01*
X28148998Y47406033D01*
X28107882Y47496063D01*
X28023049Y47593967D01*
X28023048Y47593968D01*
X28023047Y47593969D01*
X27914073Y47664002D01*
X27914070Y47664004D01*
X27914069Y47664004D01*
X27914066Y47664005D01*
X27876610Y47675003D01*
X33319867Y47675003D01*
X33319867Y47674998D01*
X33338302Y47546775D01*
X33392118Y47428937D01*
X33426003Y47389830D01*
X33449820Y47333470D01*
X33435961Y47273875D01*
X33426003Y47260170D01*
X33392118Y47221064D01*
X33338302Y47103226D01*
X33319867Y46975003D01*
X33319867Y46974998D01*
X33338302Y46846775D01*
X33387521Y46739002D01*
X33392118Y46728937D01*
X33444080Y46668969D01*
X33476952Y46631032D01*
X33570266Y46571063D01*
X33585931Y46560996D01*
X33710228Y46524500D01*
X33710230Y46524500D01*
X33839771Y46524500D01*
X33839772Y46524500D01*
X33844386Y46525855D01*
X33905546Y46524112D01*
X33954001Y46486752D01*
X33962336Y46471994D01*
X33983798Y46425000D01*
X34007118Y46373937D01*
X34073580Y46297235D01*
X34091952Y46276032D01*
X34155297Y46235323D01*
X34200931Y46205996D01*
X34325228Y46169500D01*
X34325230Y46169500D01*
X34454770Y46169500D01*
X34454772Y46169500D01*
X34579069Y46205996D01*
X34688049Y46276033D01*
X34758996Y46357912D01*
X34811390Y46389508D01*
X34872351Y46384273D01*
X34918593Y46344206D01*
X34931807Y46307173D01*
X34933302Y46296775D01*
X34978972Y46196774D01*
X34987118Y46178937D01*
X35060744Y46093967D01*
X35071952Y46081032D01*
X35180926Y46010999D01*
X35180931Y46010996D01*
X35305228Y45974500D01*
X35305230Y45974500D01*
X35434770Y45974500D01*
X35434772Y45974500D01*
X35559069Y46010996D01*
X35668049Y46081033D01*
X35752882Y46178937D01*
X35806697Y46296774D01*
X35817792Y46373939D01*
X35825133Y46424998D01*
X35825133Y46425003D01*
X35806697Y46553226D01*
X35803169Y46560952D01*
X35752882Y46671063D01*
X35668049Y46768967D01*
X35668048Y46768968D01*
X35668047Y46768969D01*
X35559073Y46839002D01*
X35559070Y46839004D01*
X35559069Y46839004D01*
X35559066Y46839005D01*
X35434774Y46875500D01*
X35434772Y46875500D01*
X35305228Y46875500D01*
X35305225Y46875500D01*
X35180933Y46839005D01*
X35180926Y46839002D01*
X35071951Y46768968D01*
X35071949Y46768966D01*
X35001003Y46687089D01*
X34948607Y46655493D01*
X34887646Y46660729D01*
X34841406Y46700796D01*
X34828191Y46737833D01*
X34828023Y46739004D01*
X34826697Y46748226D01*
X34772882Y46866063D01*
X34738997Y46905169D01*
X34715179Y46961528D01*
X34729038Y47021124D01*
X34738997Y47034831D01*
X34740009Y47035999D01*
X34772882Y47073937D01*
X34826697Y47191774D01*
X34838501Y47273875D01*
X34845133Y47319998D01*
X34845133Y47320003D01*
X34826697Y47448226D01*
X34800648Y47505264D01*
X34772882Y47566063D01*
X34743473Y47600003D01*
X39794867Y47600003D01*
X39794867Y47599998D01*
X39813302Y47471775D01*
X39844244Y47404023D01*
X39867118Y47353937D01*
X39941386Y47268226D01*
X39951952Y47256032D01*
X40051940Y47191774D01*
X40060931Y47185996D01*
X40185228Y47149500D01*
X40185230Y47149500D01*
X40314770Y47149500D01*
X40314772Y47149500D01*
X40439069Y47185996D01*
X40548049Y47256033D01*
X40562680Y47272918D01*
X40615076Y47304515D01*
X40676037Y47299280D01*
X40712320Y47272918D01*
X40726950Y47256034D01*
X40726951Y47256033D01*
X40826938Y47191775D01*
X40835931Y47185996D01*
X40960228Y47149500D01*
X40960230Y47149500D01*
X41089770Y47149500D01*
X41089772Y47149500D01*
X41214069Y47185996D01*
X41323049Y47256033D01*
X41407882Y47353937D01*
X41411500Y47361861D01*
X41452868Y47406940D01*
X41512834Y47419094D01*
X41555078Y47404023D01*
X41633014Y47353937D01*
X41660931Y47335996D01*
X41785228Y47299500D01*
X41785230Y47299500D01*
X41914770Y47299500D01*
X41914772Y47299500D01*
X42039069Y47335996D01*
X42148049Y47406033D01*
X42232882Y47503937D01*
X42286697Y47621774D01*
X42301693Y47726074D01*
X42305133Y47749998D01*
X42305133Y47750003D01*
X42286697Y47878226D01*
X42232882Y47996063D01*
X42148049Y48093967D01*
X42148048Y48093968D01*
X42148047Y48093969D01*
X42039073Y48164002D01*
X42039070Y48164004D01*
X42039069Y48164004D01*
X42039066Y48164005D01*
X41914774Y48200500D01*
X41914772Y48200500D01*
X41785228Y48200500D01*
X41785225Y48200500D01*
X41660933Y48164005D01*
X41660926Y48164002D01*
X41551952Y48093969D01*
X41467117Y47996063D01*
X41463497Y47988134D01*
X41422124Y47943057D01*
X41362157Y47930908D01*
X41319921Y47945978D01*
X41214073Y48014002D01*
X41214070Y48014004D01*
X41214069Y48014004D01*
X41214066Y48014005D01*
X41089774Y48050500D01*
X41089772Y48050500D01*
X40960228Y48050500D01*
X40960225Y48050500D01*
X40835933Y48014005D01*
X40835926Y48014002D01*
X40726951Y47943968D01*
X40712319Y47927081D01*
X40659922Y47895486D01*
X40598961Y47900722D01*
X40562681Y47927081D01*
X40551566Y47939908D01*
X40548049Y47943967D01*
X40548048Y47943968D01*
X40439073Y48014002D01*
X40439070Y48014004D01*
X40439069Y48014004D01*
X40439066Y48014005D01*
X40314774Y48050500D01*
X40314772Y48050500D01*
X40185228Y48050500D01*
X40185225Y48050500D01*
X40060933Y48014005D01*
X40060926Y48014002D01*
X39951952Y47943969D01*
X39867117Y47846062D01*
X39813302Y47728226D01*
X39794867Y47600003D01*
X34743473Y47600003D01*
X34688049Y47663967D01*
X34688048Y47663968D01*
X34688047Y47663969D01*
X34579073Y47734002D01*
X34579070Y47734004D01*
X34579069Y47734004D01*
X34559190Y47739841D01*
X34454774Y47770500D01*
X34454772Y47770500D01*
X34325228Y47770500D01*
X34325227Y47770500D01*
X34325219Y47770499D01*
X34320602Y47769143D01*
X34259441Y47770893D01*
X34210991Y47808259D01*
X34202663Y47823008D01*
X34157883Y47921061D01*
X34157882Y47921062D01*
X34157882Y47921063D01*
X34073049Y48018967D01*
X34073048Y48018968D01*
X34073047Y48018969D01*
X33964073Y48089002D01*
X33964070Y48089004D01*
X33964069Y48089004D01*
X33964066Y48089005D01*
X33839774Y48125500D01*
X33839772Y48125500D01*
X33710228Y48125500D01*
X33710225Y48125500D01*
X33585933Y48089005D01*
X33585926Y48089002D01*
X33476952Y48018969D01*
X33392117Y47921062D01*
X33338302Y47803226D01*
X33319867Y47675003D01*
X27876610Y47675003D01*
X27789774Y47700500D01*
X27789772Y47700500D01*
X27660228Y47700500D01*
X27660225Y47700500D01*
X27535933Y47664005D01*
X27535926Y47664002D01*
X27420994Y47590139D01*
X27420246Y47591302D01*
X27370967Y47570479D01*
X27311373Y47584340D01*
X27298678Y47593563D01*
X27189073Y47664002D01*
X27189070Y47664004D01*
X27189069Y47664004D01*
X27189066Y47664005D01*
X27064774Y47700500D01*
X27064772Y47700500D01*
X26935228Y47700500D01*
X26935225Y47700500D01*
X26810933Y47664005D01*
X26810926Y47664002D01*
X26701952Y47593969D01*
X26617117Y47496062D01*
X26563302Y47378226D01*
X26544867Y47250003D01*
X24353920Y47250003D01*
X24386697Y47321774D01*
X24398523Y47404023D01*
X24405133Y47449998D01*
X24405133Y47450003D01*
X24386697Y47578226D01*
X24366809Y47621774D01*
X24332882Y47696063D01*
X24248049Y47793967D01*
X24248048Y47793968D01*
X24248047Y47793969D01*
X24139073Y47864002D01*
X24139070Y47864004D01*
X24139069Y47864004D01*
X24139066Y47864005D01*
X24014774Y47900500D01*
X24014772Y47900500D01*
X23885228Y47900500D01*
X23885225Y47900500D01*
X23760933Y47864005D01*
X23760926Y47864002D01*
X23651952Y47793969D01*
X23567117Y47696062D01*
X23513302Y47578226D01*
X23494867Y47450003D01*
X19775002Y47450003D01*
X20350000Y48025000D01*
X20350000Y49625003D01*
X22669867Y49625003D01*
X22669867Y49624998D01*
X22688302Y49496775D01*
X22730700Y49403939D01*
X22742118Y49378937D01*
X22819080Y49290117D01*
X22826952Y49281032D01*
X22919160Y49221774D01*
X22935931Y49210996D01*
X23060228Y49174500D01*
X23060230Y49174500D01*
X23189770Y49174500D01*
X23189772Y49174500D01*
X23314069Y49210996D01*
X23423049Y49281033D01*
X23462680Y49326770D01*
X23515076Y49358367D01*
X23576037Y49353132D01*
X23612320Y49326770D01*
X23651950Y49281034D01*
X23651951Y49281033D01*
X23744158Y49221775D01*
X23760931Y49210996D01*
X23885228Y49174500D01*
X23885230Y49174500D01*
X24014770Y49174500D01*
X24014772Y49174500D01*
X24139069Y49210996D01*
X24248049Y49281033D01*
X24332882Y49378937D01*
X24386697Y49496774D01*
X24394350Y49550000D01*
X30650000Y49550000D01*
X30650000Y49150000D01*
X30925000Y48875000D01*
X30925001Y48875000D01*
X31804327Y48875000D01*
X31850020Y48898281D01*
X31865507Y48899500D01*
X31914770Y48899500D01*
X31914772Y48899500D01*
X32039069Y48935996D01*
X32148049Y49006033D01*
X32232882Y49103937D01*
X32286697Y49221774D01*
X32298806Y49305996D01*
X32305133Y49349998D01*
X32305133Y49350003D01*
X32286697Y49478226D01*
X32266809Y49521774D01*
X32232882Y49596063D01*
X32148049Y49693967D01*
X32148048Y49693968D01*
X32148047Y49693969D01*
X32039073Y49764002D01*
X32039070Y49764004D01*
X32039069Y49764004D01*
X32039066Y49764005D01*
X31914774Y49800500D01*
X31914772Y49800500D01*
X31865507Y49800500D01*
X31807316Y49819407D01*
X31800767Y49825000D01*
X31800000Y49825000D01*
X30925000Y49825000D01*
X30650000Y49550000D01*
X24394350Y49550000D01*
X24398073Y49575895D01*
X24405133Y49624998D01*
X24405133Y49625003D01*
X24386697Y49753226D01*
X24362500Y49806210D01*
X24332882Y49871063D01*
X24248049Y49968967D01*
X24248048Y49968968D01*
X24248047Y49968969D01*
X24139073Y50039002D01*
X24139070Y50039004D01*
X24139069Y50039004D01*
X24123798Y50043488D01*
X24101610Y50050003D01*
X35779867Y50050003D01*
X35779867Y50049998D01*
X35798302Y49921775D01*
X35841025Y49828226D01*
X35852118Y49803937D01*
X35936951Y49706033D01*
X35936952Y49706032D01*
X36045926Y49635999D01*
X36045931Y49635996D01*
X36170228Y49599500D01*
X36170230Y49599500D01*
X36299770Y49599500D01*
X36299772Y49599500D01*
X36424069Y49635996D01*
X36445864Y49650003D01*
X37444867Y49650003D01*
X37444867Y49649998D01*
X37463302Y49521775D01*
X37494283Y49453937D01*
X37517118Y49403937D01*
X37581599Y49329521D01*
X37601952Y49306032D01*
X37710926Y49235999D01*
X37710931Y49235996D01*
X37835228Y49199500D01*
X37835230Y49199500D01*
X37964770Y49199500D01*
X37964772Y49199500D01*
X38089069Y49235996D01*
X38173283Y49290117D01*
X38204006Y49309861D01*
X38204754Y49308697D01*
X38254021Y49329521D01*
X38313617Y49315667D01*
X38326319Y49306439D01*
X38434606Y49236847D01*
X38435931Y49235996D01*
X38560228Y49199500D01*
X38560230Y49199500D01*
X38689770Y49199500D01*
X38689772Y49199500D01*
X38814069Y49235996D01*
X38923049Y49306033D01*
X39007882Y49403937D01*
X39061697Y49521774D01*
X39072872Y49599500D01*
X39080133Y49649998D01*
X39080133Y49650003D01*
X39061697Y49778226D01*
X39038862Y49828226D01*
X39007882Y49896063D01*
X38923049Y49993967D01*
X38923048Y49993968D01*
X38923047Y49993969D01*
X38814073Y50064002D01*
X38814070Y50064004D01*
X38814069Y50064004D01*
X38814066Y50064005D01*
X38689774Y50100500D01*
X38689772Y50100500D01*
X38560228Y50100500D01*
X38560225Y50100500D01*
X38435933Y50064005D01*
X38435926Y50064002D01*
X38320994Y49990139D01*
X38320246Y49991302D01*
X38270967Y49970479D01*
X38211373Y49984340D01*
X38198678Y49993563D01*
X38089073Y50064002D01*
X38089070Y50064004D01*
X38089069Y50064004D01*
X38089066Y50064005D01*
X37964774Y50100500D01*
X37964772Y50100500D01*
X37835228Y50100500D01*
X37835225Y50100500D01*
X37710933Y50064005D01*
X37710926Y50064002D01*
X37601952Y49993969D01*
X37517117Y49896062D01*
X37463302Y49778226D01*
X37444867Y49650003D01*
X36445864Y49650003D01*
X36533049Y49706033D01*
X36617882Y49803937D01*
X36671697Y49921774D01*
X36690133Y50050000D01*
X36688588Y50060745D01*
X36671697Y50178226D01*
X36670068Y50181794D01*
X36617882Y50296063D01*
X36533049Y50393967D01*
X36533048Y50393968D01*
X36533047Y50393969D01*
X36424073Y50464002D01*
X36424070Y50464004D01*
X36424069Y50464004D01*
X36424066Y50464005D01*
X36299774Y50500500D01*
X36299772Y50500500D01*
X36170228Y50500500D01*
X36170225Y50500500D01*
X36045933Y50464005D01*
X36045926Y50464002D01*
X35936952Y50393969D01*
X35852117Y50296062D01*
X35798302Y50178226D01*
X35779867Y50050003D01*
X24101610Y50050003D01*
X24014774Y50075500D01*
X24014772Y50075500D01*
X23885228Y50075500D01*
X23885225Y50075500D01*
X23760933Y50039005D01*
X23760926Y50039002D01*
X23651951Y49968968D01*
X23651949Y49968966D01*
X23612319Y49923230D01*
X23559923Y49891634D01*
X23498962Y49896870D01*
X23462681Y49923230D01*
X23423050Y49968966D01*
X23423048Y49968968D01*
X23314073Y50039002D01*
X23314070Y50039004D01*
X23314069Y50039004D01*
X23298798Y50043488D01*
X23189774Y50075500D01*
X23189772Y50075500D01*
X23060228Y50075500D01*
X23060225Y50075500D01*
X22935933Y50039005D01*
X22935926Y50039002D01*
X22826952Y49968969D01*
X22742117Y49871062D01*
X22688302Y49753226D01*
X22669867Y49625003D01*
X20350000Y49625003D01*
X20350000Y50600003D01*
X28469867Y50600003D01*
X28469867Y50599998D01*
X28488302Y50471775D01*
X28526988Y50387066D01*
X28542118Y50353937D01*
X28621726Y50262063D01*
X28626952Y50256032D01*
X28680259Y50221774D01*
X28735931Y50185996D01*
X28860228Y50149500D01*
X28860230Y50149500D01*
X28989770Y50149500D01*
X28989772Y50149500D01*
X29114069Y50185996D01*
X29223049Y50256033D01*
X29307882Y50353937D01*
X29361697Y50471774D01*
X29380133Y50600000D01*
X29379261Y50606063D01*
X29361697Y50728226D01*
X29346730Y50760999D01*
X29307882Y50846063D01*
X29223049Y50943967D01*
X29223048Y50943968D01*
X29223047Y50943969D01*
X29114073Y51014002D01*
X29114070Y51014004D01*
X29114069Y51014004D01*
X29114066Y51014005D01*
X28989774Y51050500D01*
X28989772Y51050500D01*
X28860228Y51050500D01*
X28860225Y51050500D01*
X28735933Y51014005D01*
X28735926Y51014002D01*
X28626952Y50943969D01*
X28542117Y50846062D01*
X28488302Y50728226D01*
X28469867Y50600003D01*
X20350000Y50600003D01*
X20350000Y51650500D01*
X20368907Y51708691D01*
X20418407Y51744655D01*
X20449000Y51749500D01*
X33323505Y51749500D01*
X33381696Y51730593D01*
G37*
G04 #@! TD.AperFunction*
M02*
